<?xml version="1.0" encoding="UTF-8" standalone="no"?>
<!DOCTYPE svg PUBLIC "-//W3C//DTD SVG 1.1//EN" "http://www.w3.org/Graphics/SVG/1.1/DTD/svg11.dtd">
<svg width="100%" height="100%" viewBox="0 0 1091 1079" version="1.1" xmlns="http://www.w3.org/2000/svg" xmlns:xlink="http://www.w3.org/1999/xlink" xml:space="preserve" xmlns:serif="http://www.serif.com/" style="fill-rule:evenodd;clip-rule:evenodd;stroke-linejoin:round;stroke-miterlimit:2;">
    <g transform="matrix(5.55556,0,0,5.55556,-9375.67,-52140.5)">
        <path d="M1853.45,9436.2C1854.15,9435.65 1856.06,9433.43 1857.7,9431.28C1859.33,9429.12 1861.72,9426.33 1863.01,9425.08C1864.3,9423.82 1865.27,9422.53 1865.16,9422.19C1864.84,9421.22 1861.38,9420.29 1859.31,9420.61C1857.05,9420.96 1851.88,9423.47 1849.76,9425.24C1848.22,9426.52 1848.21,9426.55 1848.21,9431.03C1848.21,9433.5 1848.37,9435.9 1848.56,9436.37C1849.05,9437.56 1851.85,9437.46 1853.45,9436.2Z" style="fill:white;fill-rule:nonzero;"/>
        <path d="M1790.2,9456.17C1795.22,9453.92 1801.5,9446.39 1803.78,9439.91C1805.06,9436.28 1804.99,9435.25 1803.04,9429.04C1798.77,9415.4 1801.79,9410.29 1819.86,9400.57C1823.56,9398.57 1828.48,9396.22 1830.78,9395.33C1833.09,9394.44 1834.98,9393.59 1834.99,9393.45C1834.99,9393.3 1834.08,9392.66 1832.96,9392.02C1830.09,9390.4 1825.44,9390.5 1820.05,9392.29C1811.86,9395.02 1797.4,9403.23 1792.87,9407.73C1788.47,9412.09 1787.65,9416.59 1790.49,9420.71C1794.35,9426.33 1795.21,9429.87 1793.94,9434.83C1792.52,9440.37 1787.56,9446.7 1782.68,9449.19C1780.42,9450.35 1779.64,9451.75 1780.29,9453.55C1781.91,9458.1 1784.42,9458.76 1790.2,9456.17Z" style="fill:white;fill-rule:nonzero;"/>
        <path d="M1709.93,9518.3C1714.32,9513.76 1717.9,9511.84 1725.29,9510.08C1733.15,9508.21 1737.83,9505.21 1739.64,9500.88C1740.15,9499.68 1740.54,9497.03 1740.7,9493.83C1740.96,9488.34 1740.13,9476.17 1739.27,9473.01C1738.99,9471.95 1738.74,9467.95 1738.71,9464.12C1738.68,9458 1738.8,9456.83 1739.73,9454.51C1742.82,9446.82 1756.71,9433.12 1765.7,9428.9C1767.36,9428.12 1768.65,9427.25 1768.55,9426.95C1768.45,9426.66 1767.09,9425.78 1765.52,9425C1762.35,9423.41 1757.72,9422.81 1755.26,9423.67C1749.95,9425.52 1731.56,9440.43 1728.63,9445.25C1725.1,9451.08 1724.8,9452.39 1725.13,9461C1725.28,9465.22 1725.63,9470.09 1725.89,9471.81C1726.74,9477.39 1727.04,9488.6 1726.44,9492.45C1725.32,9499.56 1722.65,9502.06 1716.2,9502.08C1713.64,9502.08 1711.74,9502.38 1710.05,9503.05C1697.55,9507.98 1689.27,9525.78 1695.28,9534.81C1696.18,9536.16 1701.95,9540.53 1702.83,9540.53C1702.97,9540.53 1703.09,9537.88 1703.09,9534.64C1703.09,9529 1703.15,9528.62 1704.65,9525.45C1705.74,9523.16 1707.34,9520.98 1709.93,9518.3Z" style="fill:white;fill-rule:nonzero;"/>
        <path d="M1734.94,9535.28C1734.19,9535.59 1732.66,9536.87 1731.54,9538.11C1729.54,9540.34 1729.49,9540.48 1728.88,9545.59C1728.54,9548.45 1727.95,9552.28 1727.57,9554.1C1726.62,9558.64 1726.64,9565.46 1727.63,9566.86C1728.47,9568.07 1730.53,9569.24 1733.36,9570.13C1735.16,9570.69 1735.35,9570.66 1736.3,9569.62C1737.09,9568.75 1737.39,9567.59 1737.65,9564.49C1737.83,9562.28 1738.17,9559.17 1738.4,9557.59C1739.96,9547.04 1740.34,9539.39 1739.42,9537.04C1738.74,9535.3 1736.77,9534.53 1734.94,9535.28Z" style="fill:white;fill-rule:nonzero;"/>
        <path d="M1806.94,9518.67C1805.41,9517.14 1802.67,9516.64 1801.19,9517.61C1800.27,9518.22 1800.01,9518.91 1799.78,9521.42C1799.62,9523.11 1799.02,9526.39 1798.44,9528.7C1797.17,9533.73 1797.09,9533.58 1802.65,9536.2L1806.41,9537.96L1806.72,9536.48C1806.9,9535.67 1807.28,9532.49 1807.57,9529.42C1808.34,9521.11 1808.28,9520.01 1806.94,9518.67Z" style="fill:white;fill-rule:nonzero;"/>
        <path d="M1819.29,9489.39C1817.28,9489.69 1817.09,9489.85 1816.05,9492.17C1814.46,9495.73 1811.88,9497.99 1806.24,9500.79L1801.26,9503.27L1795.9,9503.27C1791.38,9503.27 1790.24,9503.11 1788.59,9502.25L1786.64,9501.23L1784.75,9502.38C1782.74,9503.59 1780.99,9503.81 1779.62,9503.01C1778.18,9502.17 1778.68,9501.19 1781.19,9499.91C1783.65,9498.67 1785.23,9496.74 1785.75,9494.34C1786.16,9492.49 1787.74,9491.17 1788.77,9491.82C1789.88,9492.51 1790.03,9494.42 1789.15,9496.53C1788.43,9498.26 1788.43,9498.28 1789.72,9498.8C1790.44,9499.09 1793.08,9499.35 1795.59,9499.38C1800.01,9499.44 1800.3,9499.38 1804.27,9497.46C1809.3,9495.05 1811.62,9493.08 1812.67,9490.34C1813.45,9488.29 1813.44,9488.23 1812.26,9486.4C1809.55,9482.19 1810.48,9480.58 1813.92,9483.53C1815.94,9485.25 1817.49,9485.74 1820.52,9485.58C1824.37,9485.39 1823.27,9488.79 1819.29,9489.39ZM1765.25,9488.85C1763.14,9492.97 1762.27,9493.75 1761.72,9492.01C1761.36,9490.87 1761.78,9488.17 1762.77,9485.25C1763.5,9483.09 1763.49,9483.03 1762.01,9480.09C1761.19,9478.46 1760.51,9476.68 1760.51,9476.13C1760.51,9474.48 1762.25,9475.82 1763.9,9478.75L1765.36,9481.32L1767.66,9479.81L1769.96,9478.3L1769.03,9474.82C1768.51,9472.9 1768.22,9471.01 1768.37,9470.61C1769.21,9468.42 1771.71,9471.63 1772.35,9475.73C1772.71,9478.07 1773.15,9478.52 1775.04,9478.53C1776.13,9478.53 1776.56,9478.14 1777.52,9476.25C1778.99,9473.38 1780.46,9471.81 1781.68,9471.81C1783.37,9471.81 1782.55,9475.01 1779.75,9479.33C1779.14,9480.28 1779.21,9480.53 1780.6,9482.11C1782.21,9483.94 1782.9,9485.75 1782.45,9486.95C1781.92,9488.32 1780.31,9487.68 1778.32,9485.29C1773.8,9479.9 1769.18,9481.15 1765.25,9488.85ZM1814.4,9463.81C1815.23,9458.89 1817.8,9457.28 1819.54,9460.58C1819.83,9461.14 1820.62,9463.28 1821.29,9465.32C1823.25,9471.33 1822.79,9477.77 1820.32,9478.72C1818.94,9479.25 1816.5,9479.04 1815.44,9478.29C1813.24,9476.75 1812.93,9472.42 1814.4,9463.81ZM1873.26,9428.95C1869.71,9427.13 1866.71,9428.85 1861.47,9435.7C1857.89,9440.37 1856.84,9441.33 1854.27,9442.24C1851.67,9443.15 1848.91,9443.18 1846.83,9442.31C1841.98,9440.28 1841.21,9433.35 1843.92,9416.06C1845.31,9407.13 1845.45,9401.41 1844.3,9399.77C1843.57,9398.73 1843.26,9398.66 1840.1,9398.87C1836.42,9399.12 1832.63,9400.42 1826.11,9403.68C1818.37,9407.55 1812.36,9411.44 1809.74,9414.26C1806.39,9417.87 1806.11,9419.54 1807.88,9425.19C1810.82,9434.62 1810.97,9437.01 1808.92,9442.49C1806.13,9449.96 1799.06,9458.28 1793.01,9461.2C1789.51,9462.89 1785.22,9463.57 1781.93,9462.96C1777.79,9462.18 1774.46,9457.08 1774.45,9451.5C1774.45,9448.42 1776.18,9439.02 1777.3,9436.1C1778.09,9434.02 1777.92,9432.89 1776.77,9432.47C1775.34,9431.94 1771.37,9432.71 1768.26,9434.12C1760.2,9437.77 1747.68,9450.08 1745.09,9456.92C1743.97,9459.86 1743.89,9465.94 1744.89,9471.56C1745.27,9473.67 1745.84,9479.22 1746.17,9483.9C1747.17,9498.31 1745.87,9504.41 1740.84,9508.93C1737.45,9511.98 1733.42,9513.94 1727.27,9515.51C1719.34,9517.53 1718.02,9518.23 1713.85,9522.6C1709.48,9527.19 1708.6,9529.27 1708.64,9534.97C1708.68,9541.55 1710.55,9544.6 1714,9543.73C1715.76,9543.29 1720.29,9540.11 1724.88,9536.11C1732.49,9529.45 1734.64,9528.43 1738.66,9529.54C1741.57,9530.34 1743.22,9531.77 1744.52,9534.63C1745.63,9537.04 1745.7,9537.62 1745.5,9543.08C1745.38,9546.3 1744.69,9553.68 1743.96,9559.48C1742.73,9569.29 1742.69,9570.13 1743.4,9571.61C1743.82,9572.49 1744.36,9573.21 1744.61,9573.21C1744.86,9573.21 1746.97,9572.54 1749.3,9571.72C1755.02,9569.71 1764.38,9565.94 1770.96,9562.99C1775.93,9560.77 1776.48,9560.39 1777.87,9558.22C1779.87,9555.1 1780.09,9552.68 1778.8,9548.08C1777.64,9543.94 1777.41,9537.05 1778.3,9533.05C1779.19,9529.03 1782.05,9523.92 1785.87,9519.56C1791.63,9512.96 1796.03,9510.83 1802.66,9511.39C1808.34,9511.87 1811.23,9513.5 1812.95,9517.22C1814.03,9519.58 1814.06,9521.74 1813.12,9530.26C1812.36,9537.11 1812.46,9539.09 1813.64,9540.07C1814.54,9540.81 1816.43,9539.82 1826.47,9533.32C1832.74,9529.27 1835.33,9527.24 1839.63,9522.99C1842.58,9520.08 1845.44,9516.95 1846,9516.02C1847.35,9513.77 1847.3,9510.94 1845.81,9505.38C1843.21,9495.69 1842.24,9491.05 1841.68,9485.62C1840.99,9478.97 1841.44,9476.6 1844.67,9470.03C1847.63,9464.01 1850.29,9461.97 1858.31,9459.56C1864.76,9457.62 1866.23,9457.01 1869.01,9455.11C1873.32,9452.16 1877.82,9444.14 1878.17,9438.82C1878.49,9433.83 1877.02,9430.88 1873.26,9428.95Z" style="fill:white;fill-rule:nonzero;"/>
        <path d="M1782.45,9486.95C1782.9,9485.75 1782.21,9483.94 1780.6,9482.11C1779.21,9480.53 1779.14,9480.28 1779.75,9479.33C1782.55,9475.01 1783.37,9471.81 1781.68,9471.81C1780.46,9471.81 1778.99,9473.38 1777.52,9476.25C1776.56,9478.14 1776.13,9478.53 1775.04,9478.53C1773.15,9478.52 1772.71,9478.07 1772.35,9475.73C1771.71,9471.63 1769.21,9468.42 1768.37,9470.61C1768.22,9471.01 1768.51,9472.9 1769.03,9474.82L1769.96,9478.3L1767.66,9479.81L1765.36,9481.32L1763.9,9478.75C1762.25,9475.82 1760.51,9474.48 1760.51,9476.13C1760.51,9476.68 1761.19,9478.46 1762.01,9480.09C1763.49,9483.03 1763.5,9483.09 1762.77,9485.25C1761.78,9488.17 1761.36,9490.87 1761.72,9492.01C1762.27,9493.75 1763.14,9492.97 1765.25,9488.85C1769.18,9481.15 1773.8,9479.9 1778.32,9485.29C1780.31,9487.68 1781.92,9488.32 1782.45,9486.95Z" style="fill-rule:nonzero;"/>
        <path d="M1820.52,9485.58C1817.49,9485.74 1815.94,9485.25 1813.92,9483.53C1810.48,9480.58 1809.55,9482.19 1812.26,9486.4C1813.44,9488.23 1813.45,9488.29 1812.67,9490.34C1811.62,9493.08 1809.3,9495.05 1804.27,9497.46C1800.3,9499.38 1800.01,9499.44 1795.59,9499.38C1793.08,9499.35 1790.44,9499.09 1789.72,9498.8C1788.43,9498.28 1788.43,9498.26 1789.15,9496.53C1790.03,9494.42 1789.88,9492.51 1788.77,9491.82C1787.74,9491.17 1786.16,9492.49 1785.75,9494.34C1785.23,9496.74 1783.65,9498.67 1781.19,9499.91C1778.68,9501.19 1778.18,9502.17 1779.62,9503.01C1780.99,9503.81 1782.74,9503.59 1784.75,9502.38L1786.64,9501.23L1788.59,9502.25C1790.24,9503.11 1791.38,9503.27 1795.9,9503.27L1801.26,9503.27L1806.24,9500.79C1811.88,9497.99 1814.46,9495.73 1816.05,9492.17C1817.09,9489.85 1817.28,9489.69 1819.29,9489.39C1823.27,9488.79 1824.37,9485.39 1820.52,9485.58Z" style="fill-rule:nonzero;"/>
        <path d="M1815.44,9478.29C1816.5,9479.04 1818.94,9479.25 1820.32,9478.72C1822.79,9477.77 1823.25,9471.33 1821.29,9465.32C1820.62,9463.28 1819.83,9461.14 1819.54,9460.58C1817.8,9457.28 1815.23,9458.89 1814.4,9463.81C1812.93,9472.42 1813.24,9476.75 1815.44,9478.29Z" style="fill-rule:nonzero;"/>
        <path d="M1878.17,9438.82C1877.82,9444.14 1873.32,9452.16 1869.01,9455.11C1866.23,9457.01 1864.76,9457.62 1858.31,9459.56C1850.29,9461.97 1847.63,9464.01 1844.67,9470.03C1841.44,9476.6 1840.99,9478.97 1841.68,9485.62C1842.24,9491.05 1843.21,9495.69 1845.81,9505.38C1847.3,9510.94 1847.35,9513.77 1846,9516.02C1845.44,9516.95 1842.58,9520.08 1839.63,9522.99C1835.33,9527.24 1832.74,9529.27 1826.47,9533.32C1816.43,9539.82 1814.54,9540.81 1813.64,9540.07C1812.46,9539.09 1812.36,9537.11 1813.12,9530.26C1814.06,9521.74 1814.03,9519.58 1812.95,9517.22C1811.23,9513.5 1808.34,9511.87 1802.66,9511.39C1796.03,9510.83 1791.63,9512.96 1785.87,9519.56C1782.05,9523.92 1779.19,9529.03 1778.3,9533.05C1777.41,9537.05 1777.64,9543.94 1778.8,9548.08C1780.09,9552.68 1779.87,9555.1 1777.87,9558.22C1776.48,9560.39 1775.93,9560.77 1770.96,9562.99C1764.38,9565.94 1755.02,9569.71 1749.3,9571.72C1746.97,9572.54 1744.86,9573.21 1744.61,9573.21C1744.36,9573.21 1743.82,9572.49 1743.4,9571.61C1742.69,9570.13 1742.73,9569.29 1743.96,9559.48C1744.69,9553.68 1745.38,9546.3 1745.5,9543.08C1745.7,9537.62 1745.63,9537.04 1744.52,9534.63C1743.22,9531.77 1741.57,9530.34 1738.66,9529.54C1734.64,9528.43 1732.49,9529.45 1724.88,9536.11C1720.29,9540.11 1715.76,9543.29 1714,9543.73C1710.55,9544.6 1708.68,9541.55 1708.64,9534.97C1708.6,9529.27 1709.48,9527.19 1713.85,9522.6C1718.02,9518.23 1719.34,9517.53 1727.27,9515.51C1733.42,9513.94 1737.45,9511.98 1740.84,9508.93C1745.87,9504.41 1747.17,9498.31 1746.17,9483.9C1745.84,9479.22 1745.27,9473.67 1744.89,9471.56C1743.89,9465.94 1743.97,9459.86 1745.09,9456.92C1747.68,9450.08 1760.2,9437.77 1768.26,9434.12C1771.37,9432.71 1775.34,9431.94 1776.77,9432.47C1777.92,9432.89 1778.09,9434.02 1777.3,9436.1C1776.18,9439.02 1774.45,9448.42 1774.45,9451.5C1774.46,9457.08 1777.79,9462.18 1781.93,9462.96C1785.22,9463.57 1789.51,9462.89 1793.01,9461.2C1799.06,9458.28 1806.13,9449.96 1808.92,9442.49C1810.97,9437.01 1810.82,9434.62 1807.88,9425.19C1806.11,9419.54 1806.39,9417.87 1809.74,9414.26C1812.36,9411.44 1818.37,9407.55 1826.11,9403.68C1832.63,9400.42 1836.42,9399.12 1840.1,9398.87C1843.26,9398.66 1843.57,9398.73 1844.3,9399.77C1845.45,9401.41 1845.31,9407.13 1843.92,9416.06C1841.21,9433.35 1841.98,9440.28 1846.83,9442.31C1848.91,9443.18 1851.67,9443.15 1854.27,9442.24C1856.84,9441.33 1857.89,9440.37 1861.47,9435.7C1866.71,9428.85 1869.71,9427.13 1873.26,9428.95C1877.02,9430.88 1878.49,9433.83 1878.17,9438.82ZM1807.57,9529.42C1807.28,9532.49 1806.9,9535.67 1806.72,9536.48L1806.41,9537.96L1802.65,9536.2C1797.09,9533.58 1797.17,9533.73 1798.44,9528.7C1799.02,9526.39 1799.62,9523.11 1799.78,9521.42C1800.01,9518.91 1800.27,9518.22 1801.19,9517.61C1802.67,9516.64 1805.41,9517.14 1806.94,9518.67C1808.28,9520.01 1808.34,9521.11 1807.57,9529.42ZM1738.4,9557.59C1738.17,9559.17 1737.83,9562.28 1737.65,9564.49C1737.39,9567.59 1737.09,9568.75 1736.3,9569.62C1735.35,9570.66 1735.16,9570.69 1733.36,9570.13C1730.53,9569.24 1728.47,9568.07 1727.63,9566.86C1726.64,9565.46 1726.62,9558.64 1727.57,9554.1C1727.95,9552.28 1728.54,9548.45 1728.88,9545.59C1729.49,9540.48 1729.54,9540.34 1731.54,9538.11C1732.66,9536.87 1734.19,9535.59 1734.94,9535.28C1736.77,9534.53 1738.74,9535.3 1739.42,9537.04C1740.34,9539.39 1739.96,9547.04 1738.4,9557.59ZM1703.09,9534.64C1703.09,9537.88 1702.97,9540.53 1702.83,9540.53C1701.95,9540.53 1696.18,9536.16 1695.28,9534.81C1689.27,9525.78 1697.55,9507.98 1710.05,9503.05C1711.74,9502.38 1713.64,9502.08 1716.2,9502.08C1722.65,9502.06 1725.32,9499.56 1726.44,9492.45C1727.04,9488.6 1726.74,9477.39 1725.89,9471.81C1725.63,9470.09 1725.28,9465.22 1725.13,9461C1724.8,9452.39 1725.1,9451.08 1728.63,9445.25C1731.56,9440.43 1749.95,9425.52 1755.26,9423.67C1757.72,9422.81 1762.35,9423.41 1765.52,9425C1767.09,9425.78 1768.45,9426.66 1768.55,9426.95C1768.65,9427.25 1767.36,9428.12 1765.7,9428.9C1756.71,9433.12 1742.82,9446.82 1739.73,9454.51C1738.8,9456.83 1738.68,9458 1738.71,9464.12C1738.74,9467.95 1738.99,9471.95 1739.27,9473.01C1740.13,9476.17 1740.96,9488.34 1740.7,9493.83C1740.54,9497.03 1740.15,9499.68 1739.64,9500.88C1737.83,9505.21 1733.15,9508.21 1725.29,9510.08C1717.9,9511.84 1714.32,9513.76 1709.93,9518.3C1707.34,9520.98 1705.74,9523.16 1704.65,9525.45C1703.15,9528.62 1703.09,9529 1703.09,9534.64ZM1782.68,9449.19C1787.56,9446.7 1792.52,9440.37 1793.94,9434.83C1795.21,9429.87 1794.35,9426.33 1790.49,9420.71C1787.65,9416.59 1788.47,9412.09 1792.87,9407.73C1797.4,9403.23 1811.86,9395.02 1820.05,9392.29C1825.44,9390.5 1830.09,9390.4 1832.96,9392.02C1834.08,9392.66 1834.99,9393.3 1834.99,9393.45C1834.98,9393.59 1833.09,9394.44 1830.78,9395.33C1828.48,9396.22 1823.56,9398.57 1819.86,9400.57C1801.79,9410.29 1798.77,9415.4 1803.04,9429.04C1804.99,9435.25 1805.06,9436.28 1803.78,9439.91C1801.5,9446.39 1795.22,9453.92 1790.2,9456.17C1784.42,9458.76 1781.91,9458.1 1780.29,9453.55C1779.64,9451.75 1780.42,9450.35 1782.68,9449.19ZM1849.76,9425.24C1851.88,9423.47 1857.05,9420.96 1859.31,9420.61C1861.38,9420.29 1864.84,9421.22 1865.16,9422.19C1865.27,9422.53 1864.3,9423.82 1863.01,9425.08C1861.72,9426.33 1859.33,9429.12 1857.7,9431.28C1856.06,9433.43 1854.15,9435.65 1853.45,9436.2C1851.85,9437.46 1849.05,9437.56 1848.56,9436.37C1848.37,9435.9 1848.21,9433.5 1848.21,9431.03C1848.21,9426.55 1848.22,9426.52 1849.76,9425.24ZM1883.9,9436.49C1883.62,9432.12 1882.11,9428.7 1879.28,9425.99C1878.05,9424.81 1876.18,9422.94 1875.13,9421.85C1872.93,9419.57 1868.74,9416.87 1865.75,9415.82C1863.11,9414.89 1857.8,9414.9 1855.12,9415.84C1853.97,9416.25 1852.18,9417.14 1851.15,9417.82L1849.28,9419.05L1849.58,9416.96C1851.17,9405.88 1851.21,9399.59 1849.7,9397.05C1848.75,9395.44 1838.6,9388.41 1834.52,9386.53C1831.17,9384.99 1825.8,9384.87 1820.51,9386.23C1811.32,9388.57 1794.45,9397.99 1788.45,9404.12C1785.18,9407.46 1783.43,9411.05 1783.18,9414.91C1782.95,9418.63 1783.61,9420.68 1786.42,9424.91C1788.44,9427.96 1788.62,9428.47 1788.61,9431.16C1788.6,9433.48 1788.3,9434.63 1787.17,9436.7C1785.56,9439.64 1782.65,9442.72 1782.05,9442.12C1781.83,9441.9 1782.11,9440 1782.66,9437.9C1783.77,9433.69 1783.65,9431.64 1782.19,9429.6C1781.13,9428.1 1772.7,9422.18 1768.92,9420.27C1763.22,9417.39 1757.72,9416.76 1753.13,9418.48C1749.22,9419.95 1741.69,9425.18 1733.84,9431.9C1724.79,9439.64 1722.67,9442.39 1720.21,9449.58C1718.89,9453.44 1718.88,9457.86 1720.15,9470.85C1721.53,9485.1 1721.3,9494.58 1719.55,9495.67C1719.26,9495.85 1716.97,9496.17 1714.46,9496.38C1709.06,9496.83 1704.84,9498.61 1700.21,9502.4C1687.96,9512.42 1683.78,9530.36 1691.57,9539.46C1694.23,9542.56 1702.54,9547.13 1709.27,9549.2C1712,9550.04 1715.46,9549.53 1718.84,9547.78C1722.93,9545.67 1723.17,9546.07 1722,9552.9C1721,9558.73 1720.85,9564.82 1721.64,9567.68C1722.33,9570.18 1725.58,9573.31 1728.62,9574.41C1729.91,9574.87 1732.36,9575.9 1734.08,9576.69C1735.8,9577.48 1738.18,9578.41 1739.37,9578.75C1740.56,9579.09 1742.06,9579.39 1742.71,9579.41C1745.14,9579.5 1765.11,9572.08 1775.89,9567.08C1778.45,9565.9 1780.55,9564.54 1781.49,9563.47C1784.89,9559.59 1786.09,9552.38 1784.31,9546.53C1783.02,9542.32 1783.1,9536.36 1784.5,9532.2C1785.8,9528.33 1789.61,9522.43 1791.95,9520.65C1792.86,9519.95 1793.73,9519.38 1793.88,9519.38C1794.48,9519.38 1794.09,9522.59 1792.91,9527.22C1790.93,9535.03 1791.82,9537.06 1798.82,9540.66C1804.08,9543.36 1811.9,9546.29 1813.82,9546.29C1816.38,9546.29 1819.16,9544.84 1829.23,9538.24C1838.13,9532.41 1839.63,9531.22 1844.66,9526.04C1850.93,9519.58 1852.41,9517.15 1852.68,9512.9C1852.87,9510.07 1852.46,9508.12 1848.95,9495C1848.44,9493.09 1847.76,9488.87 1847.45,9485.63C1846.89,9479.84 1846.9,9479.66 1848.13,9475.65C1850.34,9468.46 1851.71,9467.3 1861.19,9464.58C1871.06,9461.75 1875.82,9458.21 1880.02,9450.6C1883.1,9445.01 1884.19,9441.03 1883.9,9436.49Z" style="fill-rule:nonzero;"/>
    </g>
</svg>
