<?xml version="1.0" encoding="UTF-8" standalone="no"?>
<!DOCTYPE svg PUBLIC "-//W3C//DTD SVG 1.1//EN" "http://www.w3.org/Graphics/SVG/1.1/DTD/svg11.dtd">
<svg width="100%" height="100%" viewBox="0 0 1079 1080" version="1.1" xmlns="http://www.w3.org/2000/svg" xmlns:xlink="http://www.w3.org/1999/xlink" xml:space="preserve" xmlns:serif="http://www.serif.com/" style="fill-rule:evenodd;clip-rule:evenodd;stroke-linejoin:round;stroke-miterlimit:2;">
    <g transform="matrix(5.55556,0,0,5.55556,-9345.44,-50974.9)">
        <path d="M1843.63,9264.7C1842.5,9268.91 1838.29,9270.81 1835.29,9268.46C1834.59,9267.9 1833.67,9266.78 1833.24,9265.95C1832.14,9263.82 1832.65,9256.92 1834.49,9249.08C1836.32,9241.3 1837.46,9239.79 1839.67,9242.19C1840.39,9242.96 1841.1,9245.29 1842.13,9250.24C1844.01,9259.22 1844.32,9262.16 1843.63,9264.7ZM1839.36,9287.44C1838.54,9288.42 1836.73,9288.41 1833.79,9287.4C1832.06,9286.81 1831.39,9286.75 1831.25,9287.17C1831.15,9287.48 1830.21,9289.02 1829.16,9290.59C1824.48,9297.6 1816.33,9300.18 1805.62,9298.05C1802.38,9297.4 1800.2,9296.49 1797.94,9294.81C1796.74,9293.93 1796.59,9293.92 1795.14,9294.67C1791.37,9296.62 1790.11,9294.43 1793.27,9291.4C1794.7,9290.03 1795.58,9288.65 1796.07,9287C1796.61,9285.22 1797.05,9284.56 1797.8,9284.45C1799.52,9284.21 1800.16,9285.54 1799.61,9288.23C1799.17,9290.36 1799.22,9290.69 1800.12,9291.5C1802.66,9293.82 1808.9,9295.24 1814.69,9294.82C1820.31,9294.42 1825.13,9291.09 1827.34,9286.09C1828.36,9283.78 1828.36,9283.69 1827.53,9281.23C1825.91,9276.47 1828,9275.59 1830.91,9279.81C1832.89,9282.69 1833.62,9283.25 1836.87,9284.36C1839.39,9285.21 1840.28,9286.32 1839.36,9287.44ZM1786.33,9280.86C1784.75,9283.77 1780.97,9284.75 1778.59,9282.87C1776.21,9281.01 1775.73,9279.37 1776.04,9274.28C1776.37,9268.92 1778.89,9257.68 1780.04,9256.41C1782.22,9254 1783.65,9256.19 1785.51,9264.83C1787.32,9273.23 1787.59,9278.53 1786.33,9280.86ZM1770.6,9253.12C1768.71,9254.01 1763.23,9255.67 1759.55,9256.46C1757.3,9256.94 1754.55,9257.58 1753.44,9257.88L1751.42,9258.43L1751.52,9265.27C1751.57,9269.03 1751.44,9272.57 1751.23,9273.14C1750.74,9274.52 1749.66,9274.88 1748.75,9273.97C1748.16,9273.38 1748.02,9271.89 1748.02,9266.35L1748.02,9259.46L1745.73,9260.18C1739.46,9262.14 1736.73,9262.82 1731.44,9263.75C1723.19,9265.18 1721.29,9265.35 1720.87,9264.66C1720.67,9264.34 1720.81,9263.8 1721.17,9263.46C1721.83,9262.84 1725.83,9261.37 1729.61,9260.36C1731.54,9259.85 1731.6,9259.78 1731.15,9258.49C1730.9,9257.75 1730.75,9254.35 1730.82,9250.93C1730.95,9244.98 1731,9244.7 1731.99,9244.56C1733.59,9244.34 1734.28,9247.08 1734.3,9253.73L1734.32,9259.39L1735.76,9259.08C1736.55,9258.91 1739.58,9258.03 1742.49,9257.11C1749.81,9254.81 1758.1,9252.65 1759.61,9252.64C1760.31,9252.64 1762.05,9252.1 1763.49,9251.44C1766.98,9249.84 1770.19,9249.4 1771.02,9250.4C1771.78,9251.32 1771.57,9252.66 1770.6,9253.12ZM1765.17,9302.88C1763.69,9305.77 1760.42,9309.04 1758,9310.04C1755.9,9310.92 1752.49,9310.94 1749.45,9310.1C1744.68,9308.79 1741.61,9306.31 1739.71,9302.24C1738.4,9299.44 1738.3,9298.85 1738.54,9295.65C1739.17,9287.26 1744.1,9282.21 1751.62,9282.24C1759.73,9282.27 1765.68,9288.22 1766.17,9296.81C1766.36,9300.07 1766.24,9300.79 1765.17,9302.88ZM1870.44,9281.76C1870.11,9281.67 1868.44,9281.33 1866.73,9281.01C1861.11,9279.96 1857.65,9277.47 1855.52,9272.92C1854.22,9270.13 1854.11,9269.54 1854.35,9266.33C1854.98,9257.99 1859.79,9253.03 1867.4,9252.88L1870.8,9252.81L1870.93,9237.59C1871,9229.22 1870.93,9222.36 1870.79,9222.36C1870.25,9222.36 1864.02,9224.46 1862.03,9225.31L1859.99,9226.18L1859.99,9232.12C1859.99,9237.38 1859.88,9238.17 1859.06,9238.91C1858.31,9239.59 1857.95,9239.64 1857.09,9239.18C1856.09,9238.64 1856.05,9238.37 1856.21,9233.13C1856.31,9230.12 1856.25,9227.65 1856.09,9227.65C1855.92,9227.65 1854.84,9227.99 1853.68,9228.4C1849.81,9229.78 1830.98,9235.47 1825.15,9237.02L1819.38,9238.54L1819.14,9245.95C1819.01,9250.03 1818.72,9253.63 1818.51,9253.96C1817.8,9255.05 1816.39,9254.62 1815.77,9253.12C1815.34,9252.07 1815.27,9250.06 1815.52,9245.67C1815.77,9241.48 1815.71,9239.66 1815.35,9239.66C1815.07,9239.66 1811.8,9240.64 1808.09,9241.83C1804.37,9243.02 1800.94,9243.99 1800.45,9243.99C1799.34,9243.99 1798.27,9242.78 1798.73,9242.04C1799.65,9240.55 1809.76,9236.98 1821.78,9233.91C1828.04,9232.31 1836.76,9229.75 1837.27,9229.36C1837.33,9229.31 1837.19,9228.58 1836.95,9227.74C1836.71,9226.91 1836.44,9223.41 1836.36,9219.97C1836.24,9214.74 1836.1,9213.72 1835.49,9213.74C1835.09,9213.76 1831.08,9214.8 1826.59,9216.05C1819.38,9218.06 1818.35,9218.48 1817.82,9219.57C1817.49,9220.24 1816.95,9221.03 1816.61,9221.31C1815.37,9222.34 1801.12,9226.77 1793.05,9228.63C1788.5,9229.69 1783.87,9230.79 1782.75,9231.08C1781.59,9231.39 1779.45,9231.48 1777.71,9231.3C1775.08,9231.03 1773.97,9231.21 1769.19,9232.69C1766.17,9233.63 1763.65,9234.45 1763.59,9234.51C1763.54,9234.57 1763.67,9235.75 1763.89,9237.14C1764.12,9238.53 1764.44,9241.68 1764.63,9244.15C1764.98,9248.97 1764.54,9250.72 1762.97,9250.72C1761.56,9250.72 1761.03,9248.69 1760.69,9241.83C1760.51,9238.26 1760.27,9235.34 1760.15,9235.34C1759.59,9235.34 1753.03,9237.13 1742.34,9240.19C1735.91,9242.04 1728.34,9244.09 1725.52,9244.75C1718.3,9246.45 1713.71,9247.85 1713.3,9248.49C1712.86,9249.16 1712.82,9362.42 1713.26,9362.85C1713.71,9363.3 1713.93,9363.27 1717.33,9362.26C1719.01,9361.77 1722.78,9360.79 1725.7,9360.1C1728.63,9359.41 1734.36,9357.88 1738.44,9356.69C1742.52,9355.51 1748.07,9353.94 1750.78,9353.21L1755.7,9351.89L1755.7,9341.91C1755.7,9336.42 1755.61,9331.93 1755.5,9331.93C1755.38,9331.93 1752.52,9332.57 1749.13,9333.34C1743.42,9334.65 1740.89,9335.36 1737.2,9336.69C1731.5,9338.75 1723.13,9341.09 1721.89,9340.97C1720.76,9340.86 1720.35,9340.56 1720.23,9339.77C1720.05,9338.46 1721.15,9337.86 1727.59,9335.77C1735.13,9333.34 1734.56,9334.2 1734.56,9325.25C1734.56,9317.22 1734.81,9316.26 1736.82,9316.64C1737.6,9316.79 1737.7,9317.53 1737.82,9324.37C1737.91,9329.95 1738.1,9331.93 1738.54,9331.93C1738.86,9331.92 1740.21,9331.59 1741.53,9331.18C1742.85,9330.78 1745.97,9330.02 1748.47,9329.5C1750.97,9328.98 1755.18,9327.88 1757.84,9327.06C1760.5,9326.24 1765.48,9324.88 1768.92,9324.04L1775.17,9322.51L1775.48,9319.66C1775.65,9318.08 1775.81,9314.84 1775.84,9312.44C1775.89,9307.55 1776.6,9305.81 1778.14,9306.75C1779.38,9307.51 1779.82,9310.76 1779.47,9316.4L1779.16,9321.3L1782.21,9320.59C1787.24,9319.42 1793.8,9317.57 1798.12,9316.11C1803.05,9314.45 1805.67,9313.97 1807.59,9314.39C1810.88,9315.11 1808.68,9316.81 1801.36,9319.2C1799.11,9319.93 1797.19,9320.6 1797.08,9320.69C1796.98,9320.78 1797.2,9321.22 1797.57,9321.66C1798.06,9322.26 1798.28,9324.59 1798.4,9330.83L1798.57,9339.2L1800.08,9338.87C1800.92,9338.7 1803.44,9338.07 1805.68,9337.48L1809.77,9336.41L1810.01,9331.07C1810.14,9328.13 1810.46,9325.53 1810.73,9325.28C1810.99,9325.03 1814.24,9324.15 1817.94,9323.32C1828.31,9320.98 1836.79,9318.66 1841.76,9316.8C1844.94,9315.61 1846.72,9315.19 1847.73,9315.39C1848.52,9315.55 1851.59,9316.76 1854.54,9318.08L1859.91,9320.48L1865.36,9318.57L1870.8,9316.66L1870.92,9299.3C1871.02,9285.63 1870.92,9281.89 1870.44,9281.76Z" style="fill:white;fill-rule:nonzero;"/>
        <path d="M1863.33,9257.81C1860.18,9259.41 1858.6,9262.08 1858.2,9266.47C1857.97,9268.98 1858.11,9269.65 1859.27,9271.79C1860.01,9273.14 1861.03,9274.63 1861.55,9275.1C1862.72,9276.16 1867.44,9277.6 1869.36,9277.48L1870.8,9277.39L1871.06,9257.43L1869.82,9256.96C1867.78,9256.19 1866.08,9256.41 1863.33,9257.81Z" style="fill:white;fill-rule:nonzero;"/>
        <path d="M1808.93,9220.15L1813.85,9218.39L1813.85,9214.13C1813.85,9211.79 1813.72,9209.87 1813.56,9209.87C1813.39,9209.87 1810.53,9210.75 1807.19,9211.83C1801.7,9213.59 1794.65,9215.41 1785.97,9217.3C1780.78,9218.43 1780.21,9218.75 1780.22,9220.55C1780.22,9221.42 1780.36,9223.28 1780.53,9224.69L1780.84,9227.26L1782.88,9226.95C1784,9226.78 1789.21,9225.58 1794.46,9224.27C1799.71,9222.97 1806.22,9221.11 1808.93,9220.15Z" style="fill:white;fill-rule:nonzero;"/>
        <path d="M1865.42,9203.13C1861.16,9204.76 1846.88,9209.9 1842.26,9211.47L1839.19,9212.51L1839.49,9217.8C1839.66,9220.71 1839.8,9224.35 1839.8,9225.9C1839.8,9227.95 1839.97,9228.66 1840.4,9228.49C1840.73,9228.37 1842.63,9227.79 1844.61,9227.21C1848.25,9226.14 1849.59,9225.68 1861.58,9221.38C1865.23,9220.07 1868.85,9219 1869.63,9219L1871.04,9219L1871.04,9210.35C1871.04,9200.28 1871.47,9200.83 1865.42,9203.13Z" style="fill:white;fill-rule:nonzero;"/>
        <path d="M1840.27,9340.32C1835.09,9341.45 1834.52,9341.77 1834.52,9343.57C1834.52,9344.44 1834.66,9346.3 1834.83,9347.72L1835.14,9350.28L1837.18,9349.98C1838.3,9349.81 1843.51,9348.6 1848.76,9347.3C1854.01,9345.99 1860.52,9344.13 1863.23,9343.17L1868.16,9341.42L1868.16,9337.16C1868.16,9334.81 1868.02,9332.89 1867.86,9332.89C1867.7,9332.89 1864.83,9333.77 1861.49,9334.85C1856.01,9336.62 1848.95,9338.44 1840.27,9340.32Z" style="fill:white;fill-rule:nonzero;"/>
        <path d="M1830.83,9345.27L1830.53,9341.11L1828.08,9339.42C1826.73,9338.49 1824.33,9336.77 1822.74,9335.59C1821.16,9334.41 1818.5,9332.57 1816.84,9331.5L1813.82,9329.54L1813.95,9333.96L1814.09,9338.38L1817.54,9340.41C1819.44,9341.53 1823.2,9344.08 1825.9,9346.09C1828.6,9348.09 1830.88,9349.66 1830.97,9349.58C1831.05,9349.5 1830.99,9347.55 1830.83,9345.27Z" style="fill:white;fill-rule:nonzero;"/>
        <path d="M1848.61,9334.31C1859.25,9331.71 1867.03,9329.17 1866.35,9328.5C1865.37,9327.52 1848.63,9319.44 1847.58,9319.44C1846.94,9319.44 1843.36,9320.43 1839.62,9321.63C1835.89,9322.84 1829.4,9324.64 1825.2,9325.63L1817.57,9327.44L1819.3,9328.46C1820.25,9329.02 1823.12,9331.04 1825.67,9332.95C1832.36,9337.96 1832.95,9338.21 1836.06,9337.4C1837.46,9337.04 1843.11,9335.65 1848.61,9334.31Z" style="fill:white;fill-rule:nonzero;"/>
        <path d="M1752.51,9285.99C1750.58,9285.77 1749.73,9285.96 1747.55,9287.08C1744.36,9288.73 1742.79,9291.39 1742.39,9295.79C1742.16,9298.3 1742.29,9298.97 1743.46,9301.11C1745.21,9304.33 1746.13,9305.1 1749.38,9306.09C1753.23,9307.26 1756.26,9306.95 1758.49,9305.17C1760.95,9303.19 1762.6,9300.08 1762.51,9297.62C1762.27,9291.37 1758.19,9286.62 1752.51,9285.99Z" style="fill:white;fill-rule:nonzero;"/>
        <path d="M1776.52,9222.24L1776.23,9218.08L1773.78,9216.4C1772.43,9215.47 1770.01,9213.76 1768.41,9212.61L1765.49,9210.5L1763.04,9213.22L1760.6,9215.94L1763.32,9217.45C1764.81,9218.27 1768.39,9220.69 1771.28,9222.82C1774.16,9224.96 1776.58,9226.64 1776.67,9226.55C1776.75,9226.47 1776.68,9224.53 1776.52,9222.24Z" style="fill:white;fill-rule:nonzero;"/>
        <path d="M1809.85,9199.83C1812.45,9201.22 1815.28,9203.09 1816.13,9203.99C1817.61,9205.53 1817.7,9205.8 1817.7,9209.24C1817.7,9212.26 1817.82,9212.81 1818.42,9212.58C1818.81,9212.43 1823.42,9211.12 1828.65,9209.68C1833.89,9208.24 1841.08,9205.98 1844.63,9204.67C1849.82,9202.75 1867.38,9196.61 1870.56,9195.61C1871.59,9195.28 1869.26,9193.5 1864.67,9191.1C1862.62,9190.03 1859.7,9188.07 1858.18,9186.73C1856.66,9185.39 1854.51,9183.67 1853.4,9182.9L1851.37,9181.49L1847.87,9182.42C1845.94,9182.93 1842.75,9183.99 1840.76,9184.78C1838.78,9185.57 1835.21,9186.87 1832.83,9187.66C1830.46,9188.46 1825.52,9190.22 1821.88,9191.57C1818.23,9192.92 1813.07,9194.66 1810.42,9195.43C1807.76,9196.2 1805.48,9196.93 1805.36,9197.06C1805.23,9197.19 1807.25,9198.44 1809.85,9199.83Z" style="fill:white;fill-rule:nonzero;"/>
        <path d="M1786.34,9323.58C1781.78,9324.8 1775.46,9326.41 1772.28,9327.16C1769.11,9327.91 1765,9328.97 1763.15,9329.51C1761.3,9330.05 1759.74,9330.49 1759.67,9330.49C1759.6,9330.49 1759.55,9335.03 1759.55,9340.58C1759.55,9348.02 1759.7,9350.67 1760.12,9350.67C1760.43,9350.67 1763.29,9349.9 1766.48,9348.95C1769.67,9348 1777.26,9345.65 1783.34,9343.72L1794.39,9340.23L1794.63,9330.79C1794.76,9325.6 1794.81,9321.36 1794.75,9321.36C1794.68,9321.36 1790.89,9322.36 1786.34,9323.58Z" style="fill:white;fill-rule:nonzero;"/>
        <path d="M1740.58,9213.35C1741.21,9212.9 1752.84,9199.9 1755.74,9196.41C1759.04,9192.44 1762.94,9187.16 1762.73,9186.95C1762.2,9186.41 1743.43,9189.28 1741.81,9190.15C1741.29,9190.43 1739.84,9192 1738.59,9193.66C1734.01,9199.71 1730.88,9203.49 1726.52,9208.24C1724.07,9210.92 1722.07,9213.24 1722.07,9213.41C1722.07,9213.84 1739.98,9213.78 1740.58,9213.35Z" style="fill:white;fill-rule:nonzero;"/>
        <path d="M1744.17,9215.84C1744.17,9216.39 1745.33,9218.08 1747.88,9221.27C1748.35,9221.86 1748.96,9222.3 1749.23,9222.24C1749.5,9222.17 1751.99,9219.64 1754.76,9216.6C1762.48,9208.14 1770.13,9198.67 1770.94,9196.57C1771.12,9196.09 1766.53,9189.69 1766.01,9189.69C1765.91,9189.69 1764.9,9190.93 1763.78,9192.45C1760.47,9196.91 1755.37,9202.96 1749.58,9209.31C1746.6,9212.57 1744.17,9215.51 1744.17,9215.84Z" style="fill:white;fill-rule:nonzero;"/>
        <path d="M1768.22,9207.39C1768.25,9207.83 1775.73,9213.26 1777.65,9214.24C1779.05,9214.95 1779.5,9214.96 1781.76,9214.38C1783.16,9214.02 1788.8,9212.62 1794.31,9211.28C1804.95,9208.69 1812.72,9206.15 1812.05,9205.47C1811.07,9204.5 1794.33,9196.41 1793.28,9196.41C1792.65,9196.41 1788.82,9197.48 1784.78,9198.77C1780.74,9200.07 1776.2,9201.41 1774.68,9201.74C1772.26,9202.29 1771.7,9202.65 1770.06,9204.72C1769.04,9206.01 1768.21,9207.22 1768.22,9207.39Z" style="fill:white;fill-rule:nonzero;"/>
        <path d="M1724.9,9224.53L1735.01,9224.53C1742.02,9224.53 1745.13,9224.37 1745.13,9224C1745.13,9223.71 1744.67,9223.06 1744.11,9222.56C1743.56,9222.06 1742.46,9220.73 1741.69,9219.6L1740.28,9217.56L1730.21,9217.56C1723.4,9217.56 1720.14,9217.73 1720.14,9218.07C1720.14,9218.63 1722.08,9221.41 1723.81,9223.33L1724.9,9224.53Z" style="fill:white;fill-rule:nonzero;"/>
        <path d="M1695.08,9353.61C1697.1,9354.72 1699.94,9356.7 1701.38,9358.01C1703.49,9359.93 1706.91,9362.51 1707.53,9362.66C1707.59,9362.68 1707.65,9336.87 1707.65,9305.32L1707.65,9247.94L1704.4,9246C1702.62,9244.94 1699.72,9242.8 1697.97,9241.26C1694.02,9237.81 1689.1,9234.68 1688.16,9235.04C1687.56,9235.28 1687.46,9242.81 1687.46,9292.03L1687.46,9348.75L1689.44,9350.18C1690.52,9350.96 1693.06,9352.51 1695.08,9353.61Z" style="fill:white;fill-rule:nonzero;"/>
        <path d="M1695.29,9232.47C1697.35,9233.58 1700.24,9235.59 1701.73,9236.95C1704.12,9239.15 1709.31,9242.89 1710.11,9242.99C1710.27,9243.01 1712.54,9242.41 1715.15,9241.65C1717.77,9240.89 1722.28,9239.7 1725.19,9239.01C1728.1,9238.32 1733.5,9236.88 1737.2,9235.81C1740.9,9234.74 1749.02,9232.48 1755.25,9230.8C1761.47,9229.11 1767.27,9227.44 1768.12,9227.09L1769.68,9226.45L1766.9,9224.43C1765.37,9223.32 1762.77,9221.55 1761.12,9220.49L1758.13,9218.56L1754.69,9222.5C1749.42,9228.54 1749.96,9228.38 1736.07,9228.21C1729.62,9228.13 1723.87,9227.88 1723.29,9227.66C1722.7,9227.44 1721.15,9226.06 1719.86,9224.59L1717.5,9221.93L1713.42,9223.13C1711.17,9223.79 1706.74,9224.98 1703.56,9225.77C1691.53,9228.78 1690.24,9229.19 1690.92,9229.86C1691.27,9230.19 1693.23,9231.37 1695.29,9232.47Z" style="fill:white;fill-rule:nonzero;"/>
        <path d="M1780.04,9256.41C1778.89,9257.68 1776.37,9268.92 1776.04,9274.28C1775.73,9279.37 1776.21,9281.01 1778.59,9282.87C1780.97,9284.75 1784.75,9283.77 1786.33,9280.86C1787.59,9278.53 1787.32,9273.23 1785.51,9264.83C1783.65,9256.19 1782.22,9254 1780.04,9256.41Z" style="fill-rule:nonzero;"/>
        <path d="M1836.87,9284.36C1833.62,9283.25 1832.89,9282.69 1830.91,9279.81C1828,9275.59 1825.91,9276.47 1827.53,9281.23C1828.36,9283.69 1828.36,9283.78 1827.34,9286.09C1825.13,9291.09 1820.31,9294.42 1814.69,9294.82C1808.9,9295.24 1802.66,9293.82 1800.12,9291.5C1799.22,9290.69 1799.17,9290.36 1799.61,9288.23C1800.16,9285.54 1799.52,9284.21 1797.8,9284.45C1797.05,9284.56 1796.61,9285.22 1796.07,9287C1795.58,9288.65 1794.7,9290.03 1793.27,9291.4C1790.11,9294.43 1791.37,9296.62 1795.14,9294.67C1796.59,9293.92 1796.74,9293.93 1797.94,9294.81C1800.2,9296.49 1802.38,9297.4 1805.62,9298.05C1816.33,9300.18 1824.48,9297.6 1829.16,9290.59C1830.21,9289.02 1831.15,9287.48 1831.25,9287.17C1831.39,9286.75 1832.06,9286.81 1833.79,9287.4C1836.73,9288.41 1838.54,9288.42 1839.36,9287.44C1840.28,9286.32 1839.39,9285.21 1836.87,9284.36Z" style="fill-rule:nonzero;"/>
        <path d="M1839.67,9242.19C1837.46,9239.79 1836.32,9241.3 1834.49,9249.08C1832.65,9256.92 1832.14,9263.82 1833.24,9265.95C1833.67,9266.78 1834.59,9267.9 1835.29,9268.46C1838.29,9270.81 1842.5,9268.91 1843.63,9264.7C1844.32,9262.16 1844.01,9259.22 1842.13,9250.24C1841.1,9245.29 1840.39,9242.96 1839.67,9242.19Z" style="fill-rule:nonzero;"/>
        <path d="M1758.49,9305.17C1756.26,9306.95 1753.23,9307.26 1749.38,9306.09C1746.13,9305.1 1745.21,9304.33 1743.46,9301.11C1742.29,9298.97 1742.16,9298.3 1742.39,9295.79C1742.79,9291.39 1744.36,9288.73 1747.55,9287.08C1749.73,9285.96 1750.58,9285.77 1752.51,9285.99C1758.19,9286.62 1762.27,9291.37 1762.51,9297.62C1762.6,9300.08 1760.95,9303.19 1758.49,9305.17ZM1751.62,9282.24C1744.1,9282.21 1739.17,9287.26 1738.54,9295.65C1738.3,9298.85 1738.4,9299.44 1739.71,9302.24C1741.61,9306.31 1744.68,9308.79 1749.45,9310.1C1752.49,9310.94 1755.9,9310.92 1758,9310.04C1760.42,9309.04 1763.69,9305.77 1765.17,9302.88C1766.24,9300.79 1766.36,9300.07 1766.17,9296.81C1765.68,9288.22 1759.73,9282.27 1751.62,9282.24Z" style="fill-rule:nonzero;"/>
        <path d="M1763.49,9251.44C1762.05,9252.1 1760.31,9252.64 1759.61,9252.64C1758.1,9252.65 1749.81,9254.81 1742.49,9257.11C1739.58,9258.03 1736.55,9258.91 1735.76,9259.08L1734.32,9259.39L1734.3,9253.73C1734.28,9247.08 1733.59,9244.34 1731.99,9244.56C1731,9244.7 1730.95,9244.98 1730.82,9250.93C1730.75,9254.35 1730.9,9257.75 1731.15,9258.49C1731.6,9259.78 1731.54,9259.85 1729.61,9260.36C1725.83,9261.37 1721.83,9262.84 1721.17,9263.46C1720.81,9263.8 1720.67,9264.34 1720.87,9264.66C1721.29,9265.35 1723.19,9265.18 1731.44,9263.75C1736.73,9262.82 1739.46,9262.14 1745.73,9260.18L1748.02,9259.46L1748.02,9266.35C1748.02,9271.89 1748.16,9273.38 1748.75,9273.97C1749.66,9274.88 1750.74,9274.52 1751.23,9273.14C1751.44,9272.57 1751.57,9269.03 1751.52,9265.27L1751.42,9258.43L1753.44,9257.88C1754.55,9257.58 1757.3,9256.94 1759.55,9256.46C1763.23,9255.67 1768.71,9254.01 1770.6,9253.12C1771.57,9252.66 1771.78,9251.32 1771.02,9250.4C1770.19,9249.4 1766.98,9249.84 1763.49,9251.44Z" style="fill-rule:nonzero;"/>
        <path d="M1687.46,9292.03C1687.46,9242.81 1687.56,9235.28 1688.16,9235.04C1689.1,9234.68 1694.02,9237.81 1697.97,9241.26C1699.72,9242.8 1702.62,9244.94 1704.4,9246L1707.65,9247.94L1707.65,9305.32C1707.65,9336.87 1707.59,9362.68 1707.53,9362.66C1706.91,9362.51 1703.49,9359.93 1701.38,9358.01C1699.94,9356.7 1697.1,9354.72 1695.08,9353.61C1693.06,9352.51 1690.52,9350.96 1689.44,9350.18L1687.46,9348.75L1687.46,9292.03ZM1703.56,9225.77C1706.74,9224.98 1711.17,9223.79 1713.42,9223.13L1717.5,9221.93L1719.86,9224.59C1721.15,9226.06 1722.7,9227.44 1723.29,9227.66C1723.87,9227.88 1729.62,9228.13 1736.07,9228.21C1749.96,9228.38 1749.42,9228.54 1754.69,9222.5L1758.13,9218.56L1761.12,9220.49C1762.77,9221.55 1765.37,9223.32 1766.9,9224.43L1769.68,9226.45L1768.12,9227.09C1767.27,9227.44 1761.47,9229.11 1755.25,9230.8C1749.02,9232.48 1740.9,9234.74 1737.2,9235.81C1733.5,9236.88 1728.1,9238.32 1725.19,9239.01C1722.28,9239.7 1717.77,9240.89 1715.15,9241.65C1712.54,9242.41 1710.27,9243.01 1710.11,9242.99C1709.31,9242.89 1704.12,9239.15 1701.73,9236.95C1700.24,9235.59 1697.35,9233.58 1695.29,9232.47C1693.23,9231.37 1691.27,9230.19 1690.92,9229.86C1690.24,9229.19 1691.53,9228.78 1703.56,9225.77ZM1730.21,9217.56L1740.28,9217.56L1741.69,9219.6C1742.46,9220.73 1743.56,9222.06 1744.11,9222.56C1744.67,9223.06 1745.13,9223.71 1745.13,9224C1745.13,9224.37 1742.02,9224.53 1735.01,9224.53L1724.9,9224.53L1723.81,9223.33C1722.08,9221.41 1720.14,9218.63 1720.14,9218.07C1720.14,9217.73 1723.4,9217.56 1730.21,9217.56ZM1726.52,9208.24C1730.88,9203.49 1734.01,9199.71 1738.59,9193.66C1739.84,9192 1741.29,9190.43 1741.81,9190.15C1743.43,9189.28 1762.2,9186.41 1762.73,9186.95C1762.94,9187.16 1759.04,9192.44 1755.74,9196.41C1752.84,9199.9 1741.21,9212.9 1740.58,9213.35C1739.98,9213.78 1722.07,9213.84 1722.07,9213.41C1722.07,9213.24 1724.07,9210.92 1726.52,9208.24ZM1763.78,9192.45C1764.9,9190.93 1765.91,9189.69 1766.01,9189.69C1766.53,9189.69 1771.12,9196.09 1770.94,9196.57C1770.13,9198.67 1762.48,9208.14 1754.76,9216.6C1751.99,9219.64 1749.5,9222.17 1749.23,9222.24C1748.96,9222.3 1748.35,9221.86 1747.88,9221.27C1745.33,9218.08 1744.17,9216.39 1744.17,9215.84C1744.17,9215.51 1746.6,9212.57 1749.58,9209.31C1755.37,9202.96 1760.47,9196.91 1763.78,9192.45ZM1774.68,9201.74C1776.2,9201.41 1780.74,9200.07 1784.78,9198.77C1788.82,9197.48 1792.65,9196.41 1793.28,9196.41C1794.33,9196.41 1811.07,9204.5 1812.05,9205.47C1812.72,9206.15 1804.95,9208.69 1794.31,9211.28C1788.8,9212.62 1783.16,9214.02 1781.76,9214.38C1779.5,9214.96 1779.05,9214.95 1777.65,9214.24C1775.73,9213.26 1768.25,9207.83 1768.22,9207.39C1768.21,9207.22 1769.04,9206.01 1770.06,9204.72C1771.7,9202.65 1772.26,9202.29 1774.68,9201.74ZM1810.42,9195.43C1813.07,9194.66 1818.23,9192.92 1821.88,9191.57C1825.52,9190.22 1830.46,9188.46 1832.83,9187.66C1835.21,9186.87 1838.78,9185.57 1840.76,9184.78C1842.75,9183.99 1845.94,9182.93 1847.87,9182.42L1851.37,9181.49L1853.4,9182.9C1854.51,9183.67 1856.66,9185.39 1858.18,9186.73C1859.7,9188.07 1862.62,9190.03 1864.67,9191.1C1869.26,9193.5 1871.59,9195.28 1870.56,9195.61C1867.38,9196.61 1849.82,9202.75 1844.63,9204.67C1841.08,9205.98 1833.89,9208.24 1828.65,9209.68C1823.42,9211.12 1818.81,9212.43 1818.42,9212.58C1817.82,9212.81 1817.7,9212.26 1817.7,9209.24C1817.7,9205.8 1817.61,9205.53 1816.13,9203.99C1815.28,9203.09 1812.45,9201.22 1809.85,9199.83C1807.25,9198.44 1805.23,9197.19 1805.36,9197.06C1805.48,9196.93 1807.76,9196.2 1810.42,9195.43ZM1871.04,9210.35L1871.04,9219L1869.63,9219C1868.85,9219 1865.23,9220.07 1861.58,9221.38C1849.59,9225.68 1848.25,9226.14 1844.61,9227.21C1842.63,9227.79 1840.73,9228.37 1840.4,9228.49C1839.97,9228.66 1839.8,9227.95 1839.8,9225.9C1839.8,9224.35 1839.66,9220.71 1839.49,9217.8L1839.19,9212.51L1842.26,9211.47C1846.88,9209.9 1861.16,9204.76 1865.42,9203.13C1871.47,9200.83 1871.04,9200.28 1871.04,9210.35ZM1871.06,9257.43L1870.8,9277.39L1869.36,9277.48C1867.44,9277.6 1862.72,9276.16 1861.55,9275.1C1861.03,9274.63 1860.01,9273.14 1859.27,9271.79C1858.11,9269.65 1857.97,9268.98 1858.2,9266.47C1858.6,9262.08 1860.18,9259.41 1863.33,9257.81C1866.08,9256.41 1867.78,9256.19 1869.82,9256.96L1871.06,9257.43ZM1782.88,9226.95L1780.84,9227.26L1780.53,9224.69C1780.36,9223.28 1780.22,9221.42 1780.22,9220.55C1780.21,9218.75 1780.78,9218.43 1785.97,9217.3C1794.65,9215.41 1801.7,9213.59 1807.19,9211.83C1810.53,9210.75 1813.39,9209.87 1813.56,9209.87C1813.72,9209.87 1813.85,9211.79 1813.85,9214.13L1813.85,9218.39L1808.93,9220.15C1806.22,9221.11 1799.71,9222.97 1794.46,9224.27C1789.21,9225.58 1784,9226.78 1782.88,9226.95ZM1771.28,9222.82C1768.39,9220.69 1764.81,9218.27 1763.32,9217.45L1760.6,9215.94L1763.04,9213.22L1765.49,9210.5L1768.41,9212.61C1770.01,9213.76 1772.43,9215.47 1773.78,9216.4L1776.23,9218.08L1776.52,9222.24C1776.68,9224.53 1776.75,9226.47 1776.67,9226.55C1776.58,9226.64 1774.16,9224.96 1771.28,9222.82ZM1870.92,9299.3L1870.8,9316.66L1865.36,9318.57L1859.91,9320.48L1854.54,9318.08C1851.59,9316.76 1848.52,9315.55 1847.73,9315.39C1846.72,9315.19 1844.94,9315.61 1841.76,9316.8C1836.79,9318.66 1828.31,9320.98 1817.94,9323.32C1814.24,9324.15 1810.99,9325.03 1810.73,9325.28C1810.46,9325.53 1810.14,9328.13 1810.01,9331.07L1809.77,9336.41L1805.68,9337.48C1803.44,9338.07 1800.92,9338.7 1800.08,9338.87L1798.57,9339.2L1798.4,9330.83C1798.28,9324.59 1798.06,9322.26 1797.57,9321.66C1797.2,9321.22 1796.98,9320.78 1797.08,9320.69C1797.19,9320.6 1799.11,9319.93 1801.36,9319.2C1808.68,9316.81 1810.88,9315.11 1807.59,9314.39C1805.67,9313.97 1803.05,9314.45 1798.12,9316.11C1793.8,9317.57 1787.24,9319.42 1782.21,9320.59L1779.16,9321.3L1779.47,9316.4C1779.82,9310.76 1779.38,9307.51 1778.14,9306.75C1776.6,9305.81 1775.89,9307.55 1775.84,9312.44C1775.81,9314.84 1775.65,9318.08 1775.48,9319.66L1775.17,9322.51L1768.92,9324.04C1765.48,9324.88 1760.5,9326.24 1757.84,9327.06C1755.18,9327.88 1750.97,9328.98 1748.47,9329.5C1745.97,9330.02 1742.85,9330.78 1741.53,9331.18C1740.21,9331.59 1738.86,9331.92 1738.54,9331.93C1738.1,9331.93 1737.91,9329.95 1737.82,9324.37C1737.7,9317.53 1737.6,9316.79 1736.82,9316.64C1734.81,9316.26 1734.56,9317.22 1734.56,9325.25C1734.56,9334.2 1735.13,9333.34 1727.59,9335.77C1721.15,9337.86 1720.05,9338.46 1720.23,9339.77C1720.35,9340.56 1720.76,9340.86 1721.89,9340.97C1723.13,9341.09 1731.5,9338.75 1737.2,9336.69C1740.89,9335.36 1743.42,9334.65 1749.13,9333.34C1752.52,9332.57 1755.38,9331.93 1755.5,9331.93C1755.61,9331.93 1755.7,9336.42 1755.7,9341.91L1755.7,9351.89L1750.78,9353.21C1748.07,9353.94 1742.52,9355.51 1738.44,9356.69C1734.36,9357.88 1728.63,9359.41 1725.7,9360.1C1722.78,9360.79 1719.01,9361.77 1717.33,9362.26C1713.93,9363.27 1713.71,9363.3 1713.26,9362.85C1712.82,9362.42 1712.86,9249.16 1713.3,9248.49C1713.71,9247.85 1718.3,9246.45 1725.52,9244.75C1728.34,9244.09 1735.91,9242.04 1742.34,9240.19C1753.03,9237.13 1759.59,9235.34 1760.15,9235.34C1760.27,9235.34 1760.51,9238.26 1760.69,9241.83C1761.03,9248.69 1761.56,9250.72 1762.97,9250.72C1764.54,9250.72 1764.98,9248.97 1764.63,9244.15C1764.44,9241.68 1764.12,9238.53 1763.89,9237.14C1763.67,9235.75 1763.54,9234.57 1763.59,9234.51C1763.65,9234.45 1766.17,9233.63 1769.19,9232.69C1773.97,9231.21 1775.08,9231.03 1777.71,9231.3C1779.45,9231.48 1781.59,9231.39 1782.75,9231.08C1783.87,9230.79 1788.5,9229.69 1793.05,9228.63C1801.12,9226.77 1815.37,9222.34 1816.61,9221.31C1816.95,9221.03 1817.49,9220.24 1817.82,9219.57C1818.35,9218.48 1819.38,9218.06 1826.59,9216.05C1831.08,9214.8 1835.09,9213.76 1835.49,9213.74C1836.1,9213.72 1836.24,9214.74 1836.36,9219.97C1836.44,9223.41 1836.71,9226.91 1836.95,9227.74C1837.19,9228.58 1837.33,9229.31 1837.27,9229.36C1836.76,9229.75 1828.04,9232.31 1821.78,9233.91C1809.76,9236.98 1799.65,9240.55 1798.73,9242.04C1798.27,9242.78 1799.34,9243.99 1800.45,9243.99C1800.94,9243.99 1804.37,9243.02 1808.09,9241.83C1811.8,9240.64 1815.07,9239.66 1815.35,9239.66C1815.71,9239.66 1815.77,9241.48 1815.52,9245.67C1815.27,9250.06 1815.34,9252.07 1815.77,9253.12C1816.39,9254.62 1817.8,9255.05 1818.51,9253.96C1818.72,9253.63 1819.01,9250.03 1819.14,9245.95L1819.38,9238.54L1825.15,9237.02C1830.98,9235.47 1849.81,9229.78 1853.68,9228.4C1854.84,9227.99 1855.92,9227.65 1856.09,9227.65C1856.25,9227.65 1856.31,9230.12 1856.21,9233.13C1856.05,9238.37 1856.09,9238.64 1857.09,9239.18C1857.95,9239.64 1858.31,9239.59 1859.06,9238.91C1859.88,9238.17 1859.99,9237.38 1859.99,9232.12L1859.99,9226.18L1862.03,9225.31C1864.02,9224.46 1870.25,9222.36 1870.79,9222.36C1870.93,9222.36 1871,9229.22 1870.93,9237.59L1870.8,9252.81L1867.4,9252.88C1859.79,9253.03 1854.98,9257.99 1854.35,9266.33C1854.11,9269.54 1854.22,9270.13 1855.52,9272.92C1857.65,9277.47 1861.11,9279.96 1866.73,9281.01C1868.44,9281.33 1870.11,9281.67 1870.44,9281.76C1870.92,9281.89 1871.02,9285.63 1870.92,9299.3ZM1867.86,9332.89C1868.02,9332.89 1868.16,9334.81 1868.16,9337.16L1868.16,9341.42L1863.23,9343.17C1860.52,9344.13 1854.01,9345.99 1848.76,9347.3C1843.51,9348.6 1838.3,9349.81 1837.18,9349.98L1835.14,9350.28L1834.83,9347.72C1834.66,9346.3 1834.52,9344.44 1834.52,9343.57C1834.52,9341.77 1835.09,9341.45 1840.27,9340.32C1848.95,9338.44 1856.01,9336.62 1861.49,9334.85C1864.83,9333.77 1867.7,9332.89 1867.86,9332.89ZM1825.67,9332.95C1823.12,9331.04 1820.25,9329.02 1819.3,9328.46L1817.57,9327.44L1825.2,9325.63C1829.4,9324.64 1835.89,9322.84 1839.62,9321.63C1843.36,9320.43 1846.94,9319.44 1847.58,9319.44C1848.63,9319.44 1865.37,9327.52 1866.35,9328.5C1867.03,9329.17 1859.25,9331.71 1848.61,9334.31C1843.11,9335.65 1837.46,9337.04 1836.06,9337.4C1832.95,9338.21 1832.36,9337.96 1825.67,9332.95ZM1830.97,9349.58C1830.88,9349.66 1828.6,9348.09 1825.9,9346.09C1823.2,9344.08 1819.44,9341.53 1817.54,9340.41L1814.09,9338.38L1813.95,9333.96L1813.82,9329.54L1816.84,9331.5C1818.5,9332.57 1821.16,9334.41 1822.74,9335.59C1824.33,9336.77 1826.73,9338.49 1828.08,9339.42L1830.53,9341.11L1830.83,9345.27C1830.99,9347.55 1831.05,9349.5 1830.97,9349.58ZM1794.63,9330.79L1794.39,9340.23L1783.34,9343.72C1777.26,9345.65 1769.67,9348 1766.48,9348.95C1763.29,9349.9 1760.43,9350.67 1760.12,9350.67C1759.7,9350.67 1759.55,9348.02 1759.55,9340.58C1759.55,9335.03 1759.6,9330.49 1759.67,9330.49C1759.74,9330.49 1761.3,9330.05 1763.15,9329.51C1765,9328.97 1769.11,9327.91 1772.28,9327.16C1775.46,9326.41 1781.78,9324.8 1786.34,9323.58C1790.89,9322.36 1794.68,9321.36 1794.75,9321.36C1794.81,9321.36 1794.76,9325.6 1794.63,9330.79ZM1691.99,9357.99C1694.38,9359.56 1697.33,9361.77 1698.55,9362.91C1700.93,9365.14 1703.73,9367.04 1707.17,9368.76C1709.94,9370.15 1710.5,9370.15 1715.37,9368.67C1717.6,9368 1722.02,9366.82 1725.19,9366.06C1728.36,9365.3 1735.17,9363.46 1740.33,9361.98C1745.48,9360.5 1752.62,9358.52 1756.18,9357.59C1764.76,9355.35 1777.31,9351.65 1786.22,9348.73C1790.18,9347.43 1797.69,9345.28 1802.89,9343.95L1812.36,9341.53L1816.35,9344.17C1818.54,9345.62 1821.53,9347.69 1822.98,9348.75C1828.91,9353.1 1830.65,9354.13 1832.57,9354.39C1834.57,9354.65 1835.5,9354.48 1848.88,9351.32C1856.89,9349.43 1869.93,9345.19 1871.16,9344.08C1871.89,9343.42 1872,9342.37 1872,9336.14C1872,9328.09 1871.72,9327.26 1868.34,9325.17C1866.3,9323.91 1866.56,9323.66 1871.11,9322.54C1876.67,9321.18 1876.07,9328.64 1876.21,9258.99C1876.35,9191.35 1876.53,9195.15 1873.11,9191.15C1872.11,9189.99 1869.24,9187.69 1866.72,9186.05C1864.21,9184.41 1861.61,9182.48 1860.95,9181.75C1859.65,9180.32 1853.31,9175.99 1851.82,9175.51C1851.3,9175.35 1849.9,9175.74 1848.5,9176.45C1847.17,9177.12 1845.68,9177.67 1845.19,9177.67C1844.7,9177.67 1842.8,9178.2 1840.97,9178.84C1832.75,9181.73 1820.85,9185.94 1816.01,9187.67C1813.11,9188.71 1807.71,9190.38 1804.01,9191.38C1797.75,9193.08 1797.12,9193.16 1794.64,9192.65C1792.15,9192.14 1791.73,9192.19 1788.14,9193.55C1784.93,9194.76 1776.45,9197.38 1775.73,9197.38C1775.62,9197.38 1775.4,9196.78 1775.24,9196.05C1774.84,9194.24 1767.46,9184.32 1765.88,9183.48C1764.8,9182.91 1763.63,9182.9 1758.59,9183.37C1751.34,9184.06 1742.4,9185.6 1739.95,9186.58C1738.88,9187.01 1737.7,9188.02 1737.01,9189.1C1734.64,9192.8 1728.1,9200.81 1721.59,9207.98C1717.89,9212.06 1714.86,9215.66 1714.86,9215.98C1714.86,9216.3 1714.48,9216.76 1714.02,9217.01C1713.12,9217.48 1702.42,9220.42 1698.04,9221.4C1691.76,9222.8 1683.33,9225.4 1682.78,9226.11C1682.31,9226.71 1682.18,9239.78 1682.18,9287.79L1682.18,9348.7L1684.91,9351.91C1686.69,9354.02 1689.14,9356.12 1691.99,9357.99Z" style="fill-rule:nonzero;"/>
    </g>
</svg>
