<?xml version="1.0" encoding="UTF-8" standalone="no"?>
<!DOCTYPE svg PUBLIC "-//W3C//DTD SVG 1.1//EN" "http://www.w3.org/Graphics/SVG/1.1/DTD/svg11.dtd">
<svg width="100%" height="100%" viewBox="0 0 1061 1051" version="1.1" xmlns="http://www.w3.org/2000/svg" xmlns:xlink="http://www.w3.org/1999/xlink" xml:space="preserve" xmlns:serif="http://www.serif.com/" style="fill-rule:evenodd;clip-rule:evenodd;stroke-linejoin:round;stroke-miterlimit:2;">
    <g transform="matrix(5.55556,0,0,5.55556,-10838.9,-46319.4)">
        <path d="M2006.79,8502.02L2004.35,8499.44C2001.58,8496.51 1999.7,8492.85 1999.25,8489.52C1999.08,8488.26 1998.79,8487.23 1998.6,8487.23C1998.42,8487.23 1997.76,8488.32 1997.14,8489.65C1995.74,8492.63 1992.46,8496.02 1989.15,8497.88L1986.64,8499.3L1988.7,8501.19C1991.19,8503.49 1993.46,8507.64 1994.28,8511.38C1994.62,8512.9 1994.94,8514.15 1995,8514.15C1995.06,8514.15 1995.66,8513.01 1996.34,8511.62C1997.87,8508.49 2000.91,8505.35 2004.25,8503.46L2006.79,8502.02Z" style="fill:white;fill-rule:nonzero;"/>
        <path d="M2029.7,8393.55C2032.69,8391.57 2035.08,8390.94 2039.67,8390.95C2044.25,8390.96 2047.98,8391.97 2051.12,8394.05C2054.88,8396.54 2056.85,8400.42 2055.19,8402.08C2054,8403.27 2052.32,8402.68 2049.51,8400.08C2046.37,8397.17 2044.24,8396.41 2039.25,8396.41C2035.26,8396.41 2034.36,8396.78 2030.45,8400C2027.51,8402.42 2025.7,8403.18 2024.85,8402.34C2023.42,8400.9 2026.2,8395.86 2029.7,8393.55ZM2083.72,8415.15C2088.28,8413.3 2090.91,8411.65 2093.75,8408.89C2095.59,8407.1 2096.14,8406.26 2095.88,8405.65C2095.17,8404 2095.08,8402.15 2095.66,8401.45C2096.91,8399.94 2098.59,8400.61 2101.63,8403.81C2104.77,8407.12 2105.99,8407.94 2107.81,8407.94C2110.29,8407.94 2111.61,8411.67 2109.52,8412.78C2107.94,8413.63 2104.11,8413.06 2101.98,8411.65L2100.11,8410.41L2098.24,8412.33C2092.06,8418.68 2080.58,8423.33 2071.15,8423.3C2063.21,8423.28 2054.63,8421.38 2050.83,8418.79L2049.11,8417.63L2048,8419.29C2045.75,8422.61 2039.99,8425.63 2038.59,8424.22C2037.21,8422.82 2037.89,8421.09 2040.84,8418.54C2043.26,8416.44 2043.84,8415.61 2044.72,8412.99C2045.98,8409.2 2047.34,8407.36 2048.74,8407.56C2049.62,8407.68 2049.78,8408.06 2049.91,8410.4L2050.05,8413.1L2053.75,8414.43C2066.15,8418.87 2074.08,8419.06 2083.72,8415.15ZM1973.72,8422.44C1976.24,8424.16 1985.8,8429.06 1986.65,8429.08C1987.12,8429.09 1989.79,8421.99 1990.17,8419.72C1990.73,8416.38 1991.42,8414.68 1992.43,8414.14C1994.29,8413.14 1994.75,8414.41 1995.22,8421.95C1995.47,8425.79 1995.76,8429.23 1995.88,8429.6C1996,8429.98 1996.23,8430.89 1996.39,8431.63C1996.73,8433.18 1997.03,8433.32 2005.07,8435.64C2011.48,8437.49 2022.79,8439.6 2027.78,8439.88C2029.56,8439.98 2032.86,8440.31 2035.11,8440.62C2047.03,8442.26 2070.58,8442.29 2084.36,8440.68C2110.31,8437.65 2126.68,8432.33 2134.07,8424.51C2136.21,8422.24 2136.4,8421.85 2136.72,8418.82C2137.05,8415.75 2136.99,8415.45 2135.71,8413.61C2134.97,8412.53 2131,8408.58 2126.9,8404.82C2107.22,8386.79 2109.64,8388.74 2106.95,8388.73C2102.13,8388.72 2097.54,8391.03 2094.22,8395.17C2091.29,8398.8 2088.79,8399.62 2088.17,8397.14C2087.19,8393.23 2094.2,8386.02 2100.89,8384.08L2103.52,8383.31L2101.11,8381.09C2099.79,8379.87 2096.79,8377.25 2094.45,8375.26C2092.11,8373.28 2089.39,8370.95 2088.4,8370.09L2086.6,8368.52L2085,8369.44C2082.9,8370.64 2076.45,8372.69 2072.83,8373.31C2068.92,8373.98 2058.43,8374.69 2055.77,8374.46C2050.52,8374.01 2041.77,8372.7 2038.4,8371.86C2033.56,8370.65 2025.76,8366.95 2021.96,8364.06L2020.19,8362.7L2018.4,8363.81C2012.88,8367.2 1991.13,8381.54 1985.37,8385.58C1981.67,8388.18 1975.61,8392.34 1971.91,8394.85C1962.66,8401.1 1962.06,8401.71 1962.06,8404.91C1962.06,8410.6 1966.82,8417.76 1973.72,8422.44Z" style="fill:white;fill-rule:nonzero;"/>
        <path d="M2030.77,8362.85C2036.08,8365.77 2040.5,8367.09 2048.08,8368.04C2050.33,8368.32 2052.71,8368.64 2053.37,8368.75C2055.32,8369.08 2067.78,8368.59 2071.05,8368.05C2074.74,8367.44 2081.72,8365.27 2081.72,8364.74C2081.72,8363.97 2072.72,8356.48 2059.53,8346.29C2057,8344.33 2054.9,8343.07 2054.18,8343.07C2053.54,8343.07 2051.42,8343.97 2049.47,8345.06C2033.8,8353.89 2025.46,8359 2025.65,8359.65C2025.73,8359.91 2028.03,8361.35 2030.77,8362.85Z" style="fill:rgb(225,244,42);fill-rule:nonzero;"/>
        <path d="M1968.86,8498.57C1972.25,8500.83 1979.14,8504.19 1985.12,8506.51C1987.09,8507.27 1988.78,8507.9 1988.86,8507.9C1989.37,8507.9 1987.44,8505.33 1984.82,8502.55C1983.14,8500.75 1981.77,8499.12 1981.77,8498.91C1981.79,8498.12 1982.56,8497.45 1984.94,8496.17C1988.55,8494.22 1991.93,8491.06 1993.53,8488.13C1994.3,8486.71 1995.71,8483.3 1996.66,8480.55C1998.46,8475.32 1999.39,8474.1 2000.87,8475.03C2001.55,8475.47 2001.82,8476.82 2002.29,8482.29C2003.06,8491.2 2003.92,8493.49 2008.25,8498.04C2010.16,8500.05 2011.56,8501.95 2011.56,8502.52C2011.56,8503.25 2010.77,8503.94 2008.64,8505.07C2005.14,8506.94 2000.57,8511.04 2001.25,8511.72C2001.99,8512.46 2016.12,8515.14 2021.89,8515.64C2024.8,8515.89 2028.69,8516.28 2030.54,8516.51C2032.39,8516.73 2034.55,8516.89 2035.35,8516.85L2036.79,8516.79L2036.9,8511.98C2036.97,8509.34 2037.47,8500.8 2038.03,8493C2038.94,8480.43 2039.19,8478.5 2040.23,8475.94C2040.88,8474.36 2041.78,8472.73 2042.23,8472.34C2042.68,8471.94 2043.77,8470.48 2044.65,8469.1C2049.09,8462.13 2058.15,8457.24 2068.83,8456.04C2074.51,8455.41 2081.39,8456.15 2085.91,8457.9C2089.42,8459.25 2095.06,8462.71 2098,8465.32C2100.03,8467.11 2102.37,8471.25 2103.1,8474.36C2104.06,8478.44 2104.01,8482.66 2102.82,8498.68C2102.26,8506.16 2101.9,8512.38 2102.03,8512.51C2102.51,8512.99 2113.95,8509.15 2118.48,8506.98C2123.63,8504.52 2127.26,8501.99 2129.7,8499.19C2131.03,8497.65 2131.22,8497.1 2131.21,8494.62C2131.21,8493.07 2132.2,8478.21 2133.41,8461.6C2134.62,8444.99 2135.5,8431.29 2135.37,8431.16C2135.24,8431.02 2134.18,8431.57 2133.03,8432.36C2125.72,8437.39 2115.19,8441.03 2099.98,8443.78C2084.71,8446.53 2077.93,8447.09 2060.1,8447.05C2048.48,8447.02 2041.43,8446.78 2036.55,8446.25C2032.72,8445.83 2028.07,8445.35 2026.22,8445.18C2021.63,8444.75 2011.38,8442.84 2005.61,8441.34C2002.99,8440.66 2000.77,8440.2 2000.67,8440.3C2000.18,8440.78 2004.86,8445.09 2007.21,8446.32C2008.66,8447.07 2010.05,8448.03 2010.31,8448.44C2011.08,8449.66 2009.8,8450.71 2007.54,8450.71C2003.82,8450.71 1997.75,8454.69 1994.07,8459.54C1991.56,8462.84 1989.63,8467.17 1988.44,8472.19C1986.98,8478.34 1985.77,8479.71 1983.68,8477.61C1982.8,8476.74 1982.74,8476.26 1983.02,8472.87C1984,8461.14 1978.89,8450.24 1970.44,8446C1969.36,8445.46 1968.18,8444.65 1967.81,8444.2C1967.22,8443.49 1967.27,8443.28 1968.24,8442.5C1968.84,8442.01 1970.13,8441.49 1971.11,8441.34C1972.08,8441.2 1974.17,8440.43 1975.76,8439.65C1978.66,8438.21 1983.21,8434.68 1983.21,8433.86C1983.21,8433.62 1981.16,8432.46 1978.66,8431.29C1972.63,8428.48 1967.5,8424.86 1963.71,8420.78C1961.56,8418.45 1960.62,8417.71 1960.62,8418.34C1960.62,8418.83 1959.62,8432.86 1958.4,8449.51C1955.99,8482.4 1955.99,8482.23 1958.42,8487.54C1959.91,8490.8 1964.58,8495.73 1968.86,8498.57Z" style="fill:rgb(225,244,42);fill-rule:nonzero;"/>
        <path d="M1999.39,8444.96C1996.2,8441.51 1993.16,8435.58 1992.31,8431.13L1991.73,8428.12L1989.68,8431.62C1987.29,8435.7 1981.96,8440.98 1978.4,8442.78C1977.08,8443.45 1976,8444.13 1976,8444.29C1976,8444.45 1977.29,8445.96 1978.87,8447.65C1982.09,8451.1 1985.15,8456.9 1986.13,8461.43L1986.73,8464.22L1988.45,8460.95C1989.5,8458.94 1991.48,8456.36 1993.58,8454.24C1995.47,8452.35 1997.85,8450.36 1998.88,8449.81C2002.4,8447.95 2002.37,8448.18 1999.39,8444.96Z" style="fill:white;fill-rule:nonzero;"/>
        <path d="M2084.54,8463.36C2079.39,8461.13 2078.7,8461.34 2081.13,8464.41C2085.3,8469.67 2085.34,8470.03 2083.9,8488.63L2082.95,8500.84L2085.82,8503.46C2090.65,8507.87 2095.39,8511.67 2095.9,8511.55C2096.17,8511.47 2096.85,8504.87 2097.49,8495.91C2098.76,8478.2 2098.61,8475.49 2096.06,8471.66C2094.26,8468.94 2089.51,8465.51 2084.54,8463.36Z" style="fill:white;fill-rule:nonzero;"/>
        <path d="M2071.02,8461.74C2068.22,8460.53 2057.18,8464.23 2052.94,8467.8C2052.09,8468.51 2049.86,8471.17 2047.97,8473.72L2044.54,8478.34L2043.93,8487.23C2043.6,8492.12 2043.23,8497.07 2043.11,8498.23L2042.9,8500.33L2053.06,8500.08C2060.26,8499.91 2065.03,8499.53 2069.43,8498.79C2072.85,8498.21 2076.11,8497.86 2076.68,8498.01C2077.71,8498.26 2077.74,8498.12 2078.27,8489.99C2079.57,8470.47 2079.58,8471.87 2078.04,8469.59C2075.45,8465.78 2072.35,8462.31 2071.02,8461.74Z" style="fill:white;fill-rule:nonzero;"/>
        <path d="M2050.05,8413.1L2049.91,8410.4C2049.78,8408.06 2049.62,8407.68 2048.74,8407.56C2047.34,8407.36 2045.98,8409.2 2044.72,8412.99C2043.84,8415.61 2043.26,8416.44 2040.84,8418.54C2037.89,8421.09 2037.21,8422.82 2038.59,8424.22C2039.99,8425.63 2045.75,8422.61 2048,8419.29L2049.11,8417.63L2050.83,8418.79C2054.63,8421.38 2063.21,8423.28 2071.15,8423.3C2080.58,8423.33 2092.06,8418.68 2098.24,8412.33L2100.11,8410.41L2101.98,8411.65C2104.11,8413.06 2107.94,8413.63 2109.52,8412.78C2111.61,8411.67 2110.29,8407.94 2107.81,8407.94C2105.99,8407.94 2104.77,8407.12 2101.63,8403.81C2098.59,8400.61 2096.91,8399.94 2095.66,8401.45C2095.08,8402.15 2095.17,8404 2095.88,8405.65C2096.14,8406.26 2095.59,8407.1 2093.75,8408.89C2090.91,8411.65 2088.28,8413.3 2083.72,8415.15C2074.08,8419.06 2066.15,8418.87 2053.75,8414.43L2050.05,8413.1Z" style="fill-rule:nonzero;"/>
        <path d="M2030.45,8400C2034.36,8396.78 2035.26,8396.41 2039.25,8396.41C2044.24,8396.41 2046.37,8397.17 2049.51,8400.08C2052.32,8402.68 2054,8403.27 2055.19,8402.08C2056.85,8400.42 2054.88,8396.54 2051.12,8394.05C2047.98,8391.97 2044.25,8390.96 2039.67,8390.95C2035.08,8390.94 2032.69,8391.57 2029.7,8393.55C2026.2,8395.86 2023.42,8400.9 2024.85,8402.34C2025.7,8403.18 2027.51,8402.42 2030.45,8400Z" style="fill-rule:nonzero;"/>
        <path d="M1958.4,8449.51C1959.62,8432.86 1960.62,8418.83 1960.62,8418.34C1960.62,8417.71 1961.56,8418.45 1963.71,8420.78C1967.5,8424.86 1972.63,8428.48 1978.66,8431.29C1981.16,8432.46 1983.21,8433.62 1983.21,8433.86C1983.21,8434.68 1978.66,8438.21 1975.76,8439.65C1974.17,8440.43 1972.08,8441.2 1971.11,8441.34C1970.13,8441.49 1968.84,8442.01 1968.24,8442.5C1967.27,8443.28 1967.22,8443.49 1967.81,8444.2C1968.18,8444.65 1969.36,8445.46 1970.44,8446C1978.89,8450.24 1984,8461.14 1983.02,8472.87C1982.74,8476.26 1982.8,8476.74 1983.68,8477.61C1985.77,8479.71 1986.98,8478.34 1988.44,8472.19C1989.63,8467.17 1991.56,8462.84 1994.07,8459.54C1997.75,8454.69 2003.82,8450.71 2007.54,8450.71C2009.8,8450.71 2011.08,8449.66 2010.31,8448.44C2010.05,8448.03 2008.66,8447.07 2007.21,8446.32C2004.86,8445.09 2000.18,8440.78 2000.67,8440.3C2000.77,8440.2 2002.99,8440.66 2005.61,8441.34C2011.38,8442.84 2021.63,8444.75 2026.22,8445.18C2028.07,8445.35 2032.72,8445.83 2036.55,8446.25C2041.43,8446.78 2048.48,8447.02 2060.1,8447.05C2077.93,8447.09 2084.71,8446.53 2099.98,8443.78C2115.19,8441.03 2125.72,8437.39 2133.03,8432.36C2134.18,8431.57 2135.24,8431.02 2135.37,8431.16C2135.5,8431.29 2134.62,8444.99 2133.41,8461.6C2132.2,8478.21 2131.21,8493.07 2131.21,8494.62C2131.22,8497.1 2131.03,8497.65 2129.7,8499.19C2127.26,8501.99 2123.63,8504.52 2118.48,8506.98C2113.95,8509.15 2102.51,8512.99 2102.03,8512.51C2101.9,8512.38 2102.26,8506.16 2102.82,8498.68C2104.01,8482.66 2104.06,8478.44 2103.1,8474.36C2102.37,8471.25 2100.03,8467.11 2098,8465.32C2095.06,8462.71 2089.42,8459.25 2085.91,8457.9C2081.39,8456.15 2074.51,8455.41 2068.83,8456.04C2058.15,8457.24 2049.09,8462.13 2044.65,8469.1C2043.77,8470.48 2042.68,8471.94 2042.23,8472.34C2041.78,8472.73 2040.88,8474.36 2040.23,8475.94C2039.19,8478.5 2038.94,8480.43 2038.03,8493C2037.47,8500.8 2036.97,8509.34 2036.9,8511.98L2036.79,8516.79L2035.35,8516.85C2034.55,8516.89 2032.39,8516.73 2030.54,8516.51C2028.69,8516.28 2024.8,8515.89 2021.89,8515.64C2016.12,8515.14 2001.99,8512.46 2001.25,8511.72C2000.57,8511.04 2005.14,8506.94 2008.64,8505.07C2010.77,8503.94 2011.56,8503.25 2011.56,8502.52C2011.56,8501.95 2010.16,8500.05 2008.25,8498.04C2003.92,8493.49 2003.06,8491.2 2002.29,8482.29C2001.82,8476.82 2001.55,8475.47 2000.87,8475.03C1999.39,8474.1 1998.46,8475.32 1996.66,8480.55C1995.71,8483.3 1994.3,8486.71 1993.53,8488.13C1991.93,8491.06 1988.55,8494.22 1984.94,8496.17C1982.56,8497.45 1981.79,8498.12 1981.77,8498.91C1981.77,8499.12 1983.14,8500.75 1984.82,8502.55C1987.44,8505.33 1989.37,8507.9 1988.86,8507.9C1988.78,8507.9 1987.09,8507.27 1985.12,8506.51C1979.14,8504.19 1972.25,8500.83 1968.86,8498.57C1964.58,8495.73 1959.91,8490.8 1958.42,8487.54C1955.99,8482.23 1955.99,8482.4 1958.4,8449.51ZM1993.58,8454.24C1991.48,8456.36 1989.5,8458.94 1988.45,8460.95L1986.73,8464.22L1986.13,8461.43C1985.15,8456.9 1982.09,8451.1 1978.87,8447.65C1977.29,8445.96 1976,8444.45 1976,8444.29C1976,8444.13 1977.08,8443.45 1978.4,8442.78C1981.96,8440.98 1987.29,8435.7 1989.68,8431.62L1991.73,8428.12L1992.31,8431.13C1993.16,8435.58 1996.2,8441.51 1999.39,8444.96C2002.37,8448.18 2002.4,8447.95 1998.88,8449.81C1997.85,8450.36 1995.47,8452.35 1993.58,8454.24ZM1971.91,8394.85C1975.61,8392.34 1981.67,8388.18 1985.37,8385.58C1991.13,8381.54 2012.88,8367.2 2018.4,8363.81L2020.19,8362.7L2021.96,8364.06C2025.76,8366.95 2033.56,8370.65 2038.4,8371.86C2041.77,8372.7 2050.52,8374.01 2055.77,8374.46C2058.43,8374.69 2068.92,8373.98 2072.83,8373.31C2076.45,8372.69 2082.9,8370.64 2085,8369.44L2086.6,8368.52L2088.4,8370.09C2089.39,8370.95 2092.11,8373.28 2094.45,8375.26C2096.79,8377.25 2099.79,8379.87 2101.11,8381.09L2103.52,8383.31L2100.89,8384.08C2094.2,8386.02 2087.19,8393.23 2088.17,8397.14C2088.79,8399.62 2091.29,8398.8 2094.22,8395.17C2097.54,8391.03 2102.13,8388.72 2106.95,8388.73C2109.64,8388.74 2107.22,8386.79 2126.9,8404.82C2131,8408.58 2134.97,8412.53 2135.71,8413.61C2136.99,8415.45 2137.05,8415.75 2136.72,8418.82C2136.4,8421.85 2136.21,8422.24 2134.07,8424.51C2126.68,8432.33 2110.31,8437.65 2084.36,8440.68C2070.58,8442.29 2047.03,8442.26 2035.11,8440.62C2032.86,8440.31 2029.56,8439.98 2027.78,8439.88C2022.79,8439.6 2011.48,8437.49 2005.07,8435.64C1997.03,8433.32 1996.73,8433.18 1996.39,8431.63C1996.23,8430.89 1996,8429.98 1995.88,8429.6C1995.76,8429.23 1995.47,8425.79 1995.22,8421.95C1994.75,8414.41 1994.29,8413.14 1992.43,8414.14C1991.42,8414.68 1990.73,8416.38 1990.17,8419.72C1989.79,8421.99 1987.12,8429.09 1986.65,8429.08C1985.8,8429.06 1976.24,8424.16 1973.72,8422.44C1966.82,8417.76 1962.06,8410.6 1962.06,8404.91C1962.06,8401.71 1962.66,8401.1 1971.91,8394.85ZM2049.47,8345.06C2051.42,8343.97 2053.54,8343.07 2054.18,8343.07C2054.9,8343.07 2057,8344.33 2059.53,8346.29C2072.72,8356.48 2081.72,8363.97 2081.72,8364.74C2081.72,8365.27 2074.74,8367.44 2071.05,8368.05C2067.78,8368.59 2055.32,8369.08 2053.37,8368.75C2052.71,8368.64 2050.33,8368.32 2048.08,8368.04C2040.5,8367.09 2036.08,8365.77 2030.77,8362.85C2028.03,8361.35 2025.73,8359.91 2025.65,8359.65C2025.46,8359 2033.8,8353.89 2049.47,8345.06ZM2097.49,8495.91C2096.85,8504.87 2096.17,8511.47 2095.9,8511.55C2095.39,8511.67 2090.65,8507.87 2085.82,8503.46L2082.95,8500.84L2083.9,8488.63C2085.34,8470.03 2085.3,8469.67 2081.13,8464.41C2078.7,8461.34 2079.39,8461.13 2084.54,8463.36C2089.51,8465.51 2094.26,8468.94 2096.06,8471.66C2098.61,8475.49 2098.76,8478.2 2097.49,8495.91ZM2078.27,8489.99C2077.74,8498.12 2077.71,8498.26 2076.68,8498.01C2076.11,8497.86 2072.85,8498.21 2069.43,8498.79C2065.03,8499.53 2060.26,8499.91 2053.06,8500.08L2042.9,8500.33L2043.11,8498.23C2043.23,8497.07 2043.6,8492.12 2043.93,8487.23L2044.54,8478.34L2047.97,8473.72C2049.86,8471.17 2052.09,8468.51 2052.94,8467.8C2057.18,8464.23 2068.22,8460.53 2071.02,8461.74C2072.35,8462.31 2075.45,8465.78 2078.04,8469.59C2079.58,8471.87 2079.57,8470.47 2078.27,8489.99ZM1996.34,8511.62C1995.66,8513.01 1995.06,8514.15 1995,8514.15C1994.94,8514.15 1994.62,8512.9 1994.28,8511.38C1993.46,8507.64 1991.19,8503.49 1988.7,8501.19L1986.64,8499.3L1989.15,8497.88C1992.46,8496.02 1995.74,8492.63 1997.14,8489.65C1997.76,8488.32 1998.42,8487.23 1998.6,8487.23C1998.79,8487.23 1999.08,8488.26 1999.25,8489.52C1999.7,8492.85 2001.58,8496.51 2004.35,8499.44L2006.79,8502.02L2004.25,8503.46C2000.91,8505.35 1997.87,8508.49 1996.34,8511.62ZM1965.66,8502.86C1969.89,8505.67 1979.54,8510.24 1986.39,8512.68C1990.7,8514.21 1990.79,8514.27 1991.07,8515.99C1991.23,8516.96 1991.37,8519.36 1991.37,8521.32C1991.37,8523.95 1991.58,8525.11 1992.17,8525.76C1993.91,8527.68 1994.95,8526.56 1996.87,8520.73C1997.98,8517.37 1998.42,8516.57 1999.02,8516.8C2000.67,8517.43 2007.81,8518.94 2013.5,8519.86C2018.17,8520.62 2038.05,8522.8 2040.29,8522.8C2040.53,8522.8 2041.12,8519.03 2041.6,8514.43L2042.47,8506.06L2045.73,8505.73C2047.52,8505.55 2049.17,8505.52 2049.39,8505.65C2050.11,8506.1 2065.05,8505.1 2069.68,8504.3C2075.87,8503.22 2077.68,8503.69 2081.9,8507.43C2085.56,8510.68 2093.99,8517.5 2095.85,8518.72C2097.05,8519.51 2097.29,8519.5 2101.07,8518.47C2119.41,8513.47 2128.18,8509.21 2133.45,8502.74C2135.97,8499.64 2136.47,8497.9 2136.76,8490.98C2136.89,8488 2138.11,8470.96 2139.48,8453.11C2142.42,8414.88 2142.44,8414.19 2140.68,8411.18C2139.97,8409.97 2138.56,8408.26 2137.54,8407.38C2134.62,8404.86 2118.43,8389.94 2113.92,8385.61C2109.97,8381.83 2100.03,8373.05 2087.23,8362.05C2083.85,8359.14 2080.2,8355.99 2079.12,8355.04C2077.38,8353.53 2072.42,8349.57 2061.84,8341.27C2056.01,8336.69 2053.7,8336.42 2048.08,8339.68C2046.36,8340.67 2043.23,8342.46 2041.11,8343.64C2031.12,8349.25 2032.86,8348.17 2004.35,8366.46C1998.4,8370.27 1989.64,8376.1 1984.89,8379.4C1980.13,8382.71 1973,8387.61 1969.04,8390.31C1960.96,8395.81 1958.92,8397.64 1957.42,8400.75C1956.48,8402.71 1956.15,8406.22 1953.69,8440.62C1952.2,8461.37 1951,8479.43 1951.01,8480.75C1951.03,8483.48 1952.68,8488.54 1954.65,8491.92C1956.63,8495.31 1961.32,8499.97 1965.66,8502.86Z" style="fill-rule:nonzero;"/>
    </g>
</svg>
