<?xml version="1.0" encoding="UTF-8" standalone="no"?>
<!DOCTYPE svg PUBLIC "-//W3C//DTD SVG 1.1//EN" "http://www.w3.org/Graphics/SVG/1.1/DTD/svg11.dtd">
<svg width="100%" height="100%" viewBox="0 0 1092 1084" version="1.1" xmlns="http://www.w3.org/2000/svg" xmlns:xlink="http://www.w3.org/1999/xlink" xml:space="preserve" xmlns:serif="http://www.serif.com/" style="fill-rule:evenodd;clip-rule:evenodd;stroke-linejoin:round;stroke-miterlimit:2;">
    <g transform="matrix(5.55556,0,0,5.55556,-9383.44,-47482)">
        <path d="M1866.38,8634.7C1865.6,8634.7 1861.11,8630.34 1859.87,8628.38C1859.26,8627.42 1858.39,8625.52 1857.95,8624.15C1857.05,8621.42 1856.75,8621.46 1855.9,8624.44C1855.07,8627.37 1852.59,8630.79 1849.52,8633.23L1846.82,8635.38L1848.56,8636.64C1852.19,8639.29 1856.28,8645.14 1856.3,8647.72C1856.31,8649.55 1857.05,8648.92 1858.01,8646.27C1858.58,8644.69 1859.87,8642.31 1860.88,8640.99C1861.89,8639.67 1863.65,8637.92 1864.8,8637.1C1866.8,8635.66 1867.43,8634.7 1866.38,8634.7Z" style="fill:white;fill-rule:nonzero;"/>
        <path d="M1817.85,8585.24C1817.87,8587.07 1818.6,8586.45 1819.57,8583.8C1820.14,8582.21 1821.43,8579.84 1822.44,8578.52C1823.44,8577.2 1825.21,8575.45 1826.35,8574.62C1828.35,8573.19 1828.98,8572.23 1827.93,8572.23C1827.16,8572.23 1822.67,8567.87 1821.42,8565.91C1820.82,8564.95 1819.95,8563.04 1819.5,8561.68C1818.61,8558.95 1818.3,8558.99 1817.45,8561.97C1816.62,8564.9 1814.14,8568.31 1811.07,8570.75L1808.37,8572.9L1810.11,8574.17C1813.75,8576.81 1817.84,8582.66 1817.85,8585.24Z" style="fill:white;fill-rule:nonzero;"/>
        <path d="M1787.46,8642.11C1783.78,8640.86 1782.84,8641.95 1780.1,8650.69C1779.02,8654.14 1779.46,8655.74 1781.82,8656.93C1783.53,8657.78 1788.75,8658.09 1789.81,8657.4C1790.1,8657.2 1790.59,8655.23 1790.89,8653C1791.19,8650.76 1791.97,8647.78 1792.64,8646.31C1793.99,8643.37 1793.78,8642.89 1791.15,8642.88C1790.34,8642.87 1788.68,8642.53 1787.46,8642.11Z" style="fill:white;fill-rule:nonzero;"/>
        <path d="M1751.24,8665.46C1749.9,8668.82 1746.42,8669.83 1744.25,8667.5C1741.85,8664.92 1742.16,8662.03 1745.87,8652.31C1747.37,8648.4 1748.15,8646.97 1749,8646.58C1749.82,8646.21 1750.28,8646.22 1750.68,8646.62C1752.12,8648.06 1752.54,8662.22 1751.24,8665.46ZM1739.99,8679.87C1738.96,8679.87 1737.94,8679.33 1736.55,8678.03L1734.57,8676.18L1732.12,8677.12C1730.1,8677.89 1728.89,8678.01 1725.11,8677.81C1722.6,8677.67 1719.51,8677.2 1718.25,8676.75C1713.77,8675.15 1708.75,8669.16 1709.33,8666.11C1709.64,8664.5 1710.94,8665.17 1713.61,8668.32C1717.46,8672.85 1719.7,8673.87 1725.84,8673.87C1732.13,8673.87 1733.28,8673.24 1733.28,8669.83C1733.28,8668.29 1733.54,8667.28 1734.04,8666.86C1735.31,8665.81 1736.32,8666.94 1736.89,8670.06C1737.52,8673.48 1738.11,8674.64 1739.97,8676.11C1742.16,8677.86 1742.17,8679.87 1739.99,8679.87ZM1706.13,8653.45C1704.12,8655.5 1703.44,8655.74 1702.57,8654.7C1701.35,8653.23 1704.02,8649.41 1707.57,8647.54C1710.05,8646.23 1714.08,8646.18 1716.65,8647.42C1718.85,8648.49 1721.37,8652.12 1721.17,8653.92C1721.06,8654.8 1720.7,8655.16 1719.81,8655.27C1718.85,8655.38 1718.29,8654.97 1717.1,8653.28C1714.26,8649.25 1710.16,8649.32 1706.13,8653.45ZM1794.43,8678.41C1790.65,8676.82 1790.97,8675.41 1795.45,8673.9C1798.64,8672.83 1802.57,8670.15 1804.91,8667.45C1808.67,8663.1 1812.09,8654.11 1812.09,8648.56C1812.09,8646.87 1812.36,8645.97 1813.05,8645.27C1815.11,8643.21 1816.12,8644.29 1816.65,8649.12C1817.36,8655.63 1819.09,8662.49 1819.83,8661.75C1820.75,8660.83 1822.7,8652.99 1822.98,8649.08C1823.33,8644.16 1822.55,8641.23 1819.97,8637.86C1818.32,8635.69 1818.26,8635.66 1815.55,8635.69C1812.91,8635.72 1812.75,8635.79 1811.13,8637.81C1809.21,8640.19 1806.18,8642.05 1802.82,8642.9C1800.62,8643.45 1800.43,8643.63 1798.88,8646.71C1796.99,8650.46 1795.76,8656.59 1795.75,8662.24C1795.75,8666.57 1795.25,8667.86 1793.57,8667.86C1792.35,8667.86 1790.47,8665.53 1790.47,8664.01C1790.47,8663.42 1789.61,8663.29 1785.66,8663.28L1780.86,8663.27L1780.86,8664.99C1780.86,8666.94 1780.16,8667.86 1778.69,8667.86C1777.06,8667.86 1775.74,8666.22 1774.57,8662.72C1772.92,8657.82 1773.13,8653.55 1775.37,8646.91C1776.34,8644.03 1777.43,8641.08 1777.79,8640.37C1778.16,8639.66 1778.45,8638.24 1778.45,8637.22C1778.45,8633.61 1779.59,8633.48 1787.53,8636.14C1796.26,8639.07 1802.06,8638.69 1805.93,8634.93C1811.35,8629.67 1808.44,8618.55 1800.02,8612.35C1794.82,8608.52 1788.02,8607.33 1780.9,8609.01C1776,8610.17 1772.44,8612.34 1767.58,8617.17C1763.62,8621.1 1762.95,8622.03 1760.7,8626.79C1754.82,8639.26 1754.27,8640.04 1752.63,8638.4C1749.78,8635.55 1755.3,8621.52 1762.11,8614.28C1763.6,8612.7 1764.32,8611.13 1766.18,8605.5C1768.59,8598.21 1770.84,8594.16 1773.77,8591.86C1774.66,8591.16 1777.32,8589.55 1779.69,8588.28C1791.63,8581.85 1796.03,8574.77 1791.65,8569.03C1790.13,8567.04 1788.07,8566.07 1783.91,8565.38C1779.96,8564.73 1772.89,8565.96 1768.77,8568.01C1761.47,8571.66 1751.84,8584.33 1747.65,8595.81C1745.59,8601.46 1743.16,8610.74 1741.68,8618.6C1740.23,8626.29 1739.03,8629.57 1737.75,8629.33C1737.29,8629.24 1736.64,8628.63 1736.3,8627.97C1735.47,8626.32 1735.53,8620.24 1736.43,8615.41C1737.42,8610.15 1740.63,8598.23 1742.16,8594.16C1744.59,8587.71 1749.07,8579.81 1753.59,8574.02C1754.65,8572.66 1754.93,8571.9 1754.7,8571C1754.24,8569.15 1752.42,8568.66 1748.3,8569.29C1743.51,8570.01 1739.98,8571.93 1735.82,8576.09C1729.6,8582.29 1725.91,8590.14 1723.01,8603.32C1721.34,8610.93 1720.6,8615.42 1720.07,8621.24C1719.47,8627.78 1718.18,8630.82 1716.32,8630.11C1712.43,8628.61 1715.35,8604.45 1721.37,8588.4C1723.49,8582.74 1723.46,8581.73 1721.15,8581.45C1718.08,8581.08 1712.08,8585.51 1707.75,8591.32C1700.79,8600.68 1697.86,8609.14 1695.32,8627.25C1694.53,8632.88 1694.26,8648.26 1694.82,8655.36C1696.33,8674.25 1701.37,8686.31 1711.17,8694.44C1722.37,8703.73 1729.4,8707.12 1740.73,8708.67C1745.44,8709.32 1757.73,8708.94 1762.51,8708C1766.94,8707.13 1772.82,8704.74 1775.22,8702.82C1776.07,8702.14 1777.56,8700.95 1778.53,8700.18C1779.5,8699.41 1781.93,8696.85 1783.94,8694.49C1788.86,8688.7 1792.79,8685.46 1796.83,8683.88C1798.65,8683.17 1800.23,8682.42 1800.36,8682.21C1800.67,8681.71 1797.6,8679.75 1794.43,8678.41Z" style="fill:white;fill-rule:nonzero;"/>
        <path d="M1818.1,8614.04C1814.93,8616.67 1812.84,8618.74 1812.87,8619.23C1812.91,8619.68 1813.28,8621.33 1813.71,8622.91C1814.14,8624.48 1814.5,8626.7 1814.5,8627.83L1814.5,8629.89L1816.54,8629.93C1817.66,8629.95 1819.01,8630.15 1819.54,8630.38C1820.07,8630.6 1820.75,8630.8 1821.05,8630.82C1821.35,8630.84 1823.62,8628.43 1826.1,8625.46L1826.1,8625.45C1828.57,8622.49 1832.43,8617.97 1834.68,8615.42C1842.79,8606.22 1855.87,8590.28 1860.26,8584.24C1861.9,8581.99 1865.41,8577.45 1868.08,8574.15C1877.24,8562.79 1879.37,8559.48 1879.37,8556.62C1879.37,8554.98 1879.31,8554.92 1878.29,8555.46C1877.7,8555.77 1865.1,8568.1 1850.3,8582.84C1835.5,8597.59 1821.01,8611.63 1818.1,8614.04Z" style="fill:white;fill-rule:nonzero;"/>
        <path d="M1746.92,8714.79L1740.14,8714.5L1739.8,8720.05C1739.42,8726.09 1738.65,8729.75 1737.09,8732.8C1736.55,8733.87 1736.19,8734.85 1736.31,8734.97C1736.43,8735.09 1737.91,8735.37 1739.59,8735.61C1743.76,8736.18 1750.12,8735.74 1751.16,8734.8C1751.61,8734.4 1752.48,8732.63 1753.08,8730.88C1754.01,8728.21 1754.18,8726.7 1754.18,8721.6C1754.18,8718.25 1754.08,8715.42 1753.94,8715.3C1753.81,8715.18 1750.65,8714.95 1746.92,8714.79Z" style="fill:white;fill-rule:nonzero;"/>
        <path d="M1730.88,8712.35C1723.11,8710.17 1715.39,8705.67 1707.33,8698.62C1703.19,8695 1702.58,8694.7 1700.46,8695.28C1698.3,8695.88 1696.6,8697.88 1695.54,8701.07C1693.44,8707.39 1696.74,8715.09 1704.79,8722.69C1709.85,8727.46 1719.1,8731.99 1726.79,8733.46C1731.75,8734.41 1731.85,8734.37 1733.67,8730.79C1735.12,8727.94 1735.33,8727 1735.81,8721.05C1736.15,8716.91 1736.19,8714.32 1735.9,8714.05C1735.65,8713.82 1733.39,8713.06 1730.88,8712.35Z" style="fill:white;fill-rule:nonzero;"/>
        <path d="M1768.04,8713.12C1766.54,8712.98 1758.8,8714.26 1758.33,8714.73C1758.19,8714.87 1758.06,8718.06 1758.03,8721.82C1757.98,8727.4 1757.79,8729.17 1756.98,8731.46L1755.98,8734.27L1757.46,8733.98C1758.27,8733.82 1760.05,8733.17 1761.42,8732.54C1768.02,8729.52 1771.31,8722.92 1769.94,8715.43C1769.58,8713.46 1769.41,8713.26 1768.04,8713.12Z" style="fill:white;fill-rule:nonzero;"/>
        <path d="M1815.19,8661.52L1814.34,8658.79L1812.24,8663.08C1809.94,8667.79 1805.84,8672.63 1802.21,8674.92C1801.04,8675.66 1800.09,8676.38 1800.09,8676.51C1800.1,8676.64 1800.99,8677.4 1802.08,8678.19C1806.16,8681.17 1811.35,8688.79 1812.31,8693.21C1812.65,8694.77 1813.53,8695.39 1813.53,8694.07C1813.53,8692.84 1817.24,8686.18 1819.29,8683.74C1820.85,8681.87 1823.67,8679.47 1826.41,8677.67C1826.49,8677.62 1824.87,8675.88 1822.81,8673.8C1818.87,8669.84 1816.67,8666.29 1815.19,8661.52Z" style="fill:white;fill-rule:nonzero;"/>
        <path d="M1879.37,8556.62C1879.37,8559.48 1877.24,8562.79 1868.08,8574.15C1865.41,8577.45 1861.9,8581.99 1860.26,8584.24C1855.87,8590.28 1842.79,8606.22 1834.68,8615.42C1832.43,8617.97 1828.57,8622.49 1826.1,8625.45L1826.1,8625.46C1823.62,8628.43 1821.35,8630.84 1821.05,8630.82C1820.75,8630.8 1820.07,8630.6 1819.54,8630.38C1819.01,8630.15 1817.66,8629.95 1816.54,8629.93L1814.5,8629.89L1814.5,8627.83C1814.5,8626.7 1814.14,8624.48 1813.71,8622.91C1813.28,8621.33 1812.91,8619.68 1812.87,8619.23C1812.84,8618.74 1814.93,8616.67 1818.1,8614.04C1821.01,8611.63 1835.5,8597.59 1850.3,8582.84C1865.1,8568.1 1877.7,8555.77 1878.29,8555.46C1879.31,8554.92 1879.37,8554.98 1879.37,8556.62ZM1826.41,8677.67C1823.67,8679.47 1820.85,8681.87 1819.29,8683.74C1817.24,8686.18 1813.53,8692.84 1813.53,8694.07C1813.53,8695.39 1812.65,8694.77 1812.31,8693.21C1811.35,8688.79 1806.16,8681.17 1802.08,8678.19C1800.99,8677.4 1800.1,8676.64 1800.09,8676.51C1800.09,8676.38 1801.04,8675.66 1802.21,8674.92C1805.84,8672.63 1809.94,8667.79 1812.24,8663.08L1814.34,8658.79L1815.19,8661.52C1816.67,8666.29 1818.87,8669.84 1822.81,8673.8C1824.87,8675.88 1826.49,8677.62 1826.41,8677.67ZM1792.64,8646.31C1791.97,8647.78 1791.19,8650.76 1790.89,8653C1790.59,8655.23 1790.1,8657.2 1789.81,8657.4C1788.75,8658.09 1783.53,8657.78 1781.82,8656.93C1779.46,8655.74 1779.02,8654.14 1780.1,8650.69C1782.84,8641.95 1783.78,8640.86 1787.46,8642.11C1788.68,8642.53 1790.34,8642.87 1791.15,8642.88C1793.78,8642.89 1793.99,8643.37 1792.64,8646.31ZM1800.36,8682.21C1800.23,8682.42 1798.65,8683.17 1796.83,8683.88C1792.79,8685.46 1788.86,8688.7 1783.94,8694.49C1781.93,8696.85 1779.5,8699.41 1778.53,8700.18C1777.56,8700.95 1776.07,8702.14 1775.22,8702.82C1772.82,8704.74 1766.94,8707.13 1762.51,8708C1757.73,8708.94 1745.44,8709.32 1740.73,8708.67C1729.4,8707.12 1722.37,8703.73 1711.17,8694.44C1701.37,8686.31 1696.33,8674.25 1694.82,8655.36C1694.26,8648.26 1694.53,8632.88 1695.32,8627.25C1697.86,8609.14 1700.79,8600.68 1707.75,8591.32C1712.08,8585.51 1718.08,8581.08 1721.15,8581.45C1723.46,8581.73 1723.49,8582.74 1721.37,8588.4C1715.35,8604.45 1712.43,8628.61 1716.32,8630.11C1718.18,8630.82 1719.47,8627.78 1720.07,8621.24C1720.6,8615.42 1721.34,8610.93 1723.01,8603.32C1725.91,8590.14 1729.6,8582.29 1735.82,8576.09C1739.98,8571.93 1743.51,8570.01 1748.3,8569.29C1752.42,8568.66 1754.24,8569.15 1754.7,8571C1754.93,8571.9 1754.65,8572.66 1753.59,8574.02C1749.07,8579.81 1744.59,8587.71 1742.16,8594.16C1740.63,8598.23 1737.42,8610.15 1736.43,8615.41C1735.53,8620.24 1735.47,8626.32 1736.3,8627.97C1736.64,8628.63 1737.29,8629.24 1737.75,8629.33C1739.03,8629.57 1740.23,8626.29 1741.68,8618.6C1743.16,8610.74 1745.59,8601.46 1747.65,8595.81C1751.84,8584.33 1761.47,8571.66 1768.77,8568.01C1772.89,8565.96 1779.96,8564.73 1783.91,8565.38C1788.07,8566.07 1790.13,8567.04 1791.65,8569.03C1796.03,8574.77 1791.63,8581.85 1779.69,8588.28C1777.32,8589.55 1774.66,8591.16 1773.77,8591.86C1770.84,8594.16 1768.59,8598.21 1766.18,8605.5C1764.32,8611.13 1763.6,8612.7 1762.11,8614.28C1755.3,8621.52 1749.78,8635.55 1752.63,8638.4C1754.27,8640.04 1754.82,8639.26 1760.7,8626.79C1762.95,8622.03 1763.62,8621.1 1767.58,8617.17C1772.44,8612.34 1776,8610.17 1780.9,8609.01C1788.02,8607.33 1794.82,8608.52 1800.02,8612.35C1808.44,8618.55 1811.35,8629.67 1805.93,8634.93C1802.06,8638.69 1796.26,8639.07 1787.53,8636.14C1779.59,8633.48 1778.45,8633.61 1778.45,8637.22C1778.45,8638.24 1778.16,8639.66 1777.79,8640.37C1777.43,8641.08 1776.34,8644.03 1775.37,8646.91C1773.13,8653.55 1772.92,8657.82 1774.57,8662.72C1775.74,8666.22 1777.06,8667.86 1778.69,8667.86C1780.16,8667.86 1780.86,8666.94 1780.86,8664.99L1780.86,8663.27L1785.66,8663.28C1789.61,8663.29 1790.47,8663.42 1790.47,8664.01C1790.47,8665.53 1792.35,8667.86 1793.57,8667.86C1795.25,8667.86 1795.75,8666.57 1795.75,8662.24C1795.76,8656.59 1796.99,8650.46 1798.88,8646.71C1800.43,8643.63 1800.62,8643.45 1802.82,8642.9C1806.18,8642.05 1809.21,8640.19 1811.13,8637.81C1812.75,8635.79 1812.91,8635.72 1815.55,8635.69C1818.26,8635.66 1818.32,8635.69 1819.97,8637.86C1822.55,8641.23 1823.33,8644.16 1822.98,8649.08C1822.7,8652.99 1820.75,8660.83 1819.83,8661.75C1819.09,8662.49 1817.36,8655.63 1816.65,8649.12C1816.12,8644.29 1815.11,8643.21 1813.05,8645.27C1812.36,8645.97 1812.09,8646.87 1812.09,8648.56C1812.09,8654.11 1808.67,8663.1 1804.91,8667.45C1802.57,8670.15 1798.64,8672.83 1795.45,8673.9C1790.97,8675.41 1790.65,8676.82 1794.43,8678.41C1797.6,8679.75 1800.67,8681.71 1800.36,8682.21ZM1761.42,8732.54C1760.05,8733.17 1758.27,8733.82 1757.46,8733.98L1755.98,8734.27L1756.98,8731.46C1757.79,8729.17 1757.98,8727.4 1758.03,8721.82C1758.06,8718.06 1758.19,8714.87 1758.33,8714.73C1758.8,8714.26 1766.54,8712.98 1768.04,8713.12C1769.41,8713.26 1769.58,8713.46 1769.94,8715.43C1771.31,8722.92 1768.02,8729.52 1761.42,8732.54ZM1753.08,8730.88C1752.48,8732.63 1751.61,8734.4 1751.16,8734.8C1750.12,8735.74 1743.76,8736.18 1739.59,8735.61C1737.91,8735.37 1736.43,8735.09 1736.31,8734.97C1736.19,8734.85 1736.55,8733.87 1737.09,8732.8C1738.65,8729.75 1739.42,8726.09 1739.8,8720.05L1740.14,8714.5L1746.92,8714.79C1750.65,8714.95 1753.81,8715.18 1753.94,8715.3C1754.08,8715.42 1754.18,8718.25 1754.18,8721.6C1754.18,8726.7 1754.01,8728.21 1753.08,8730.88ZM1735.81,8721.05C1735.33,8727 1735.12,8727.94 1733.67,8730.79C1731.85,8734.37 1731.75,8734.41 1726.79,8733.46C1719.1,8731.99 1709.85,8727.46 1704.79,8722.69C1696.74,8715.09 1693.44,8707.39 1695.54,8701.07C1696.6,8697.88 1698.3,8695.88 1700.46,8695.28C1702.58,8694.7 1703.19,8695 1707.33,8698.62C1715.39,8705.67 1723.11,8710.17 1730.88,8712.35C1733.39,8713.06 1735.65,8713.82 1735.9,8714.05C1736.19,8714.32 1736.15,8716.91 1735.81,8721.05ZM1838.4,8586.56L1810.17,8614.87L1809.18,8613.27C1808.06,8611.46 1803.35,8607.37 1800.38,8605.64C1797.43,8603.92 1791.72,8602.5 1787.76,8602.5C1783.87,8602.5 1778.15,8603.49 1775.47,8604.63C1774.48,8605.05 1773.56,8605.39 1773.42,8605.39C1772.65,8605.39 1773.37,8601.93 1774.57,8599.83C1776.21,8596.97 1778.08,8595.45 1783.04,8592.91C1790.42,8589.14 1796.2,8583.53 1798.32,8578.1C1800.98,8571.27 1796.66,8563.03 1789.19,8560.69C1781.13,8558.17 1768.84,8560.28 1762.24,8565.32L1760.65,8566.53L1759.1,8565.59C1756.5,8564.02 1753.88,8563.41 1750.1,8563.47C1743.01,8563.6 1737.3,8566.35 1731.19,8572.59L1727.89,8575.96L1723.95,8575.71C1717.4,8575.3 1713.87,8576.86 1707.41,8582.99C1704.72,8585.54 1700.2,8591.78 1697.75,8596.32C1694.64,8602.09 1692.17,8610.55 1690.49,8621.19C1689.11,8629.95 1689.01,8631.44 1689.02,8643.1C1689.03,8649.98 1689.26,8657.72 1689.53,8660.31C1690.24,8667.01 1692.06,8674.62 1694.33,8680.34C1695.7,8683.8 1696.28,8685.98 1696.28,8687.69C1696.28,8689.93 1696.1,8690.3 1693.95,8692.57C1687.16,8699.75 1687.67,8710.44 1695.29,8720.67C1703.22,8731.32 1713.88,8737.06 1731.12,8739.96C1735.61,8740.72 1740.15,8741.42 1741.21,8741.52C1742.27,8741.62 1743.42,8741.74 1743.77,8741.78C1744.13,8741.83 1746.5,8741.63 1749.06,8741.34C1762.17,8739.86 1770.1,8735.79 1773.54,8728.8C1775.68,8724.44 1776.38,8720.11 1775.65,8715.75C1774.91,8711.36 1775.41,8709.74 1778.05,8707.99C1780.83,8706.15 1783.7,8703.39 1788.79,8697.63C1791.25,8694.84 1794.13,8691.96 1795.19,8691.23C1797.17,8689.85 1803.52,8687.08 1804.69,8687.08C1806.64,8687.08 1810.16,8698.11 1810.17,8704.24C1810.17,8707.19 1810.33,8707.86 1811.23,8708.69C1811.8,8709.23 1812.54,8709.67 1812.85,8709.67C1813.95,8709.67 1815.01,8707.24 1815.45,8703.7C1816.47,8695.73 1818.76,8690.2 1822.93,8685.7C1825.59,8682.83 1829.61,8679.88 1830.88,8679.87C1831.25,8679.87 1832.38,8679.64 1833.39,8679.36C1834.83,8678.96 1835.19,8678.64 1835.07,8677.89C1834.92,8676.91 1834.08,8676.34 1830.65,8674.86C1828.44,8673.91 1824.98,8671.17 1823.9,8669.51C1823.18,8668.42 1823.2,8668.21 1824.09,8666.45C1825.47,8663.75 1827.42,8657.64 1828.23,8653.52C1829.09,8649.06 1829.09,8645.77 1828.19,8642.27C1827.81,8640.75 1827.19,8638.33 1826.83,8636.91C1826.12,8634.1 1826.34,8633.22 1828.15,8631.58C1829.32,8630.52 1839.04,8619.34 1843.53,8613.88C1845.09,8611.99 1847.9,8608.62 1849.77,8606.4C1856.43,8598.52 1860.83,8593.05 1865.46,8586.88C1868.04,8583.45 1872.72,8577.47 1875.84,8573.61C1884.15,8563.35 1886.53,8558.25 1885.01,8553.98C1884.19,8551.68 1881.73,8550.12 1878.94,8550.12C1876.88,8550.12 1876.37,8550.41 1871.68,8554.18C1868.73,8556.56 1854.92,8570 1838.4,8586.56Z" style="fill-rule:nonzero;"/>
        <path d="M1811.07,8570.75C1814.14,8568.31 1816.62,8564.9 1817.45,8561.97C1818.3,8558.99 1818.61,8558.95 1819.5,8561.68C1819.95,8563.04 1820.82,8564.95 1821.42,8565.91C1822.67,8567.87 1827.16,8572.23 1827.93,8572.23C1828.98,8572.23 1828.35,8573.19 1826.35,8574.62C1825.21,8575.45 1823.44,8577.2 1822.44,8578.52C1821.43,8579.84 1820.14,8582.21 1819.57,8583.8C1818.6,8586.45 1817.87,8587.07 1817.85,8585.24C1817.84,8582.66 1813.75,8576.81 1810.11,8574.17L1808.37,8572.9L1811.07,8570.75ZM1809.74,8578.98C1812.93,8582.15 1814.05,8584.77 1815.7,8592.84C1816.31,8595.85 1817.1,8598.49 1817.46,8598.72C1817.81,8598.94 1818.36,8599.13 1818.67,8599.13C1819.54,8599.14 1820.74,8597.17 1820.74,8595.73C1820.74,8593.61 1822.97,8585.51 1824.25,8583C1825.31,8580.89 1827.52,8578.56 1832.23,8574.57C1833.05,8573.87 1833.72,8573.07 1833.72,8572.79C1833.72,8572.51 1832.46,8571.31 1830.91,8570.12C1827.58,8567.56 1825.42,8565.18 1824.14,8562.68C1823.07,8560.58 1821.43,8554.44 1820.94,8550.69C1820.59,8547.97 1819.79,8546.76 1818.33,8546.76C1817.08,8546.76 1816.96,8547.04 1815.64,8553.62C1813.9,8562.3 1811.61,8566.31 1806.37,8569.86C1803.05,8572.11 1802.83,8573.04 1805.18,8574.85C1806.21,8575.65 1808.26,8577.5 1809.74,8578.98Z" style="fill-rule:nonzero;"/>
        <path d="M1739.97,8676.11C1738.11,8674.64 1737.52,8673.48 1736.89,8670.06C1736.32,8666.94 1735.31,8665.81 1734.04,8666.86C1733.54,8667.28 1733.28,8668.29 1733.28,8669.83C1733.28,8673.24 1732.13,8673.87 1725.84,8673.87C1719.7,8673.87 1717.46,8672.85 1713.61,8668.32C1710.94,8665.17 1709.64,8664.5 1709.33,8666.11C1708.75,8669.16 1713.77,8675.15 1718.25,8676.75C1719.51,8677.2 1722.6,8677.67 1725.11,8677.81C1728.89,8678.01 1730.1,8677.89 1732.12,8677.12L1734.57,8676.18L1736.55,8678.03C1737.94,8679.33 1738.96,8679.87 1739.99,8679.87C1742.17,8679.87 1742.16,8677.86 1739.97,8676.11Z" style="fill-rule:nonzero;"/>
        <path d="M1717.1,8653.28C1718.29,8654.97 1718.85,8655.38 1719.81,8655.27C1720.7,8655.16 1721.06,8654.8 1721.17,8653.92C1721.37,8652.12 1718.85,8648.49 1716.65,8647.42C1714.08,8646.18 1710.05,8646.23 1707.57,8647.54C1704.02,8649.41 1701.35,8653.23 1702.57,8654.7C1703.44,8655.74 1704.12,8655.5 1706.13,8653.45C1710.16,8649.32 1714.26,8649.25 1717.1,8653.28Z" style="fill-rule:nonzero;"/>
        <path d="M1749,8646.58C1748.15,8646.97 1747.37,8648.4 1745.87,8652.31C1742.16,8662.03 1741.85,8664.92 1744.25,8667.5C1746.42,8669.83 1749.9,8668.82 1751.24,8665.46C1752.54,8662.22 1752.12,8648.06 1750.68,8646.62C1750.28,8646.22 1749.82,8646.21 1749,8646.58Z" style="fill-rule:nonzero;"/>
        <path d="M1864.8,8637.1C1863.65,8637.92 1861.89,8639.67 1860.88,8640.99C1859.87,8642.31 1858.58,8644.69 1858.01,8646.27C1857.05,8648.92 1856.31,8649.55 1856.3,8647.72C1856.28,8645.14 1852.19,8639.29 1848.56,8636.64L1846.82,8635.38L1849.52,8633.23C1852.59,8630.79 1855.07,8627.37 1855.9,8624.44C1856.75,8621.46 1857.05,8621.42 1857.95,8624.15C1858.39,8625.52 1859.26,8627.42 1859.87,8628.38C1861.11,8630.34 1865.6,8634.7 1866.38,8634.7C1867.43,8634.7 1866.8,8635.66 1864.8,8637.1ZM1862.58,8625.15C1861.51,8623.06 1859.88,8616.92 1859.39,8613.16C1859.03,8610.44 1858.23,8609.23 1856.78,8609.23C1855.52,8609.23 1855.41,8609.51 1854.09,8616.09C1852.34,8624.77 1850.05,8628.78 1844.81,8632.33C1841.49,8634.59 1841.27,8635.51 1843.62,8637.32C1844.65,8638.12 1846.71,8639.98 1848.19,8641.45C1851.37,8644.63 1852.5,8647.24 1854.14,8655.31C1854.76,8658.32 1855.55,8660.97 1855.9,8661.19C1856.26,8661.41 1856.8,8661.6 1857.12,8661.6C1857.99,8661.62 1859.19,8659.64 1859.19,8658.2C1859.19,8656.08 1861.42,8647.99 1862.69,8645.47C1863.76,8643.37 1865.97,8641.03 1870.67,8637.04C1871.49,8636.34 1872.16,8635.54 1872.16,8635.26C1872.16,8634.99 1870.9,8633.78 1869.36,8632.6C1866.02,8630.03 1863.86,8627.66 1862.58,8625.15Z" style="fill-rule:nonzero;"/>
    </g>
</svg>
