<?xml version="1.0" encoding="UTF-8" standalone="no"?>
<!DOCTYPE svg PUBLIC "-//W3C//DTD SVG 1.1//EN" "http://www.w3.org/Graphics/SVG/1.1/DTD/svg11.dtd">
<svg width="100%" height="100%" viewBox="0 0 1096 1081" version="1.1" xmlns="http://www.w3.org/2000/svg" xmlns:xlink="http://www.w3.org/1999/xlink" xml:space="preserve" xmlns:serif="http://www.serif.com/" style="fill-rule:evenodd;clip-rule:evenodd;stroke-linejoin:round;stroke-miterlimit:2;">
    <g transform="matrix(5.55556,0,0,5.55556,-9346.41,-48653.1)">
        <path d="M1819.54,8818.56C1819.74,8818.79 1821.67,8817.27 1823.82,8815.2C1825.97,8813.12 1828.25,8811.22 1828.88,8810.98C1831.23,8810.07 1832.48,8812.78 1832.48,8818.79L1832.49,8822.31L1834.29,8821.21C1835.28,8820.61 1837.45,8819.08 1839.12,8817.81C1842.56,8815.2 1844.46,8814.84 1845.67,8816.57C1846.73,8818.08 1846.61,8819.8 1845.17,8823.54C1843.48,8827.95 1841.11,8834.87 1841.26,8834.98C1841.32,8835.04 1842.57,8835.46 1844.02,8835.93C1849.71,8837.76 1852.19,8839.46 1852.19,8841.52C1852.19,8843.04 1850.28,8844.49 1845.58,8846.57L1843.04,8847.7L1845.21,8849.78C1847.01,8851.5 1847.38,8852.16 1847.38,8853.62C1847.38,8855.18 1847.17,8855.48 1845.48,8856.34C1844.43,8856.88 1843.3,8857.32 1842.96,8857.32C1842.62,8857.32 1842.03,8857.52 1841.65,8857.76C1841.1,8858.11 1841.23,8858.5 1842.37,8859.88C1843.15,8860.81 1843.93,8861.58 1844.12,8861.6C1844.31,8861.62 1847.34,8860.27 1850.85,8858.59C1863.61,8852.51 1869.49,8849.45 1869.49,8848.89C1869.49,8848.07 1864.89,8843.84 1861.66,8841.7C1857.96,8839.24 1857.61,8837.93 1860.13,8835.95C1863.22,8833.5 1871.89,8824.97 1871.89,8824.37C1871.89,8823.83 1867.22,8823.24 1856.41,8822.43C1851.43,8822.06 1850.7,8821.54 1851.87,8819.22C1852.93,8817.11 1857.3,8806.44 1858.79,8802.29C1859.46,8800.44 1860.84,8797.11 1861.86,8794.89C1862.89,8792.68 1863.72,8790.67 1863.72,8790.44C1863.72,8789.83 1855.05,8794.31 1850.03,8797.51C1843.52,8801.66 1833.57,8807.33 1832.82,8807.33C1831.28,8807.33 1830.57,8805.53 1829.64,8799.21C1829.13,8795.7 1828.61,8792.73 1828.49,8792.61C1828.37,8792.49 1825.65,8795.77 1822.44,8799.9L1816.61,8807.41L1817.89,8812.78C1818.59,8815.73 1819.33,8818.33 1819.54,8818.56Z" style="fill:white;fill-rule:nonzero;"/>
        <path d="M1828.31,8816.49C1828.1,8816.5 1826.21,8818.1 1824.12,8820.03L1820.32,8823.56L1822.33,8831.91C1823.63,8837.29 1824.81,8841.05 1825.66,8842.5C1827.27,8845.25 1837.14,8854.37 1838.49,8854.36C1839.02,8854.36 1840.31,8854.1 1841.35,8853.78L1843.24,8853.21L1840.5,8850.88C1838.99,8849.58 1837.77,8848.15 1837.77,8847.65C1837.77,8846.51 1840.78,8844.31 1844.25,8842.9C1845.71,8842.31 1846.9,8841.65 1846.9,8841.44C1846.9,8841.05 1844.92,8840.23 1840.22,8838.7C1838.78,8838.23 1837.39,8837.48 1837.11,8837.03C1836.54,8836.12 1837.67,8832.14 1840.47,8825.15C1841.36,8822.92 1841.98,8821 1841.85,8820.86C1841.72,8820.73 1841.13,8821.08 1840.53,8821.63C1838.9,8823.14 1831.48,8827.52 1830.54,8827.52C1828.82,8827.52 1828.39,8826.16 1828.55,8821.2C1828.63,8818.59 1828.52,8816.48 1828.31,8816.49Z" style="fill:white;fill-rule:nonzero;"/>
        <path d="M1744.54,8801.57C1746.3,8801.57 1751.82,8812.99 1751.87,8816.74C1751.93,8820.84 1747.9,8822.86 1745.28,8820.04C1743.85,8818.49 1743.23,8815.7 1742.85,8808.94C1742.52,8803.18 1742.9,8801.57 1744.54,8801.57ZM1754.39,8828.39C1755.06,8827.61 1755.6,8826.49 1755.6,8825.92C1755.6,8824.03 1756.6,8821.22 1757.38,8820.93C1758.35,8820.55 1759.44,8822.01 1759.44,8823.68C1759.44,8824.75 1759.83,8825.1 1762.1,8826.04C1767.36,8828.22 1773.93,8826.83 1779.04,8822.45C1781.32,8820.5 1781.49,8819.79 1780.1,8818.04C1778.97,8816.59 1778.85,8814.63 1779.87,8814.23C1780.27,8814.08 1781.39,8814.56 1782.39,8815.33C1783.6,8816.25 1784.96,8816.78 1786.54,8816.94C1788.06,8817.1 1789.08,8817.48 1789.42,8818.03C1790.23,8819.32 1789.21,8820.52 1787.15,8820.7C1785.72,8820.82 1785.14,8821.22 1783.91,8822.93C1782.15,8825.39 1779.29,8827.54 1775.43,8829.32C1771.5,8831.13 1764.93,8831.44 1761.61,8829.97C1758.78,8828.72 1758.62,8828.72 1758.23,8829.95C1758.05,8830.5 1757.23,8831.36 1756.39,8831.87C1754.6,8832.97 1754.52,8832.98 1753.77,8832.23C1752.86,8831.32 1753.09,8829.94 1754.39,8828.39ZM1782.02,8790.99C1783.78,8790.99 1789.3,8802.41 1789.36,8806.17C1789.42,8810.27 1785.38,8812.29 1782.77,8809.47C1781.33,8807.92 1780.72,8805.13 1780.33,8798.36C1780.01,8792.61 1780.38,8790.99 1782.02,8790.99ZM1721.26,8837.13C1724.23,8850.84 1725.63,8856.35 1726.12,8856.35C1726.24,8856.35 1729.3,8855.41 1732.92,8854.25C1736.54,8853.1 1742.09,8851.39 1745.26,8850.45C1748.44,8849.51 1754.92,8847.55 1759.68,8846.09C1764.44,8844.63 1770.39,8842.87 1772.9,8842.17C1775.41,8841.47 1780.92,8839.75 1785.15,8838.34C1789.38,8836.93 1795.22,8835.08 1798.13,8834.23C1801.03,8833.38 1803.6,8832.52 1803.82,8832.31C1804.05,8832.1 1802.88,8827.1 1801.24,8821.2C1797.57,8808.05 1797.76,8808.84 1795.73,8799.16C1794.4,8792.8 1791.38,8781.04 1790.96,8780.56C1790.82,8780.4 1782.01,8783.09 1774.1,8785.72C1770.13,8787.03 1763.65,8789.05 1759.68,8790.2C1755.72,8791.34 1749.44,8793.2 1745.74,8794.31C1742.04,8795.43 1736.96,8796.97 1734.45,8797.72C1731.94,8798.48 1727.07,8799.96 1723.64,8801.02C1720.2,8802.07 1716.47,8803.18 1715.35,8803.47C1713.79,8803.88 1713.31,8804.24 1713.31,8804.98C1713.31,8806.16 1715.08,8813.32 1717.65,8822.47C1718.69,8826.17 1720.31,8832.77 1721.26,8837.13Z" style="fill:white;fill-rule:nonzero;"/>
        <path d="M1823.94,8866.41C1820.58,8867.46 1816.42,8868.66 1814.71,8869.09C1812.99,8869.51 1803.15,8872.65 1792.84,8876.07C1773.74,8882.39 1764.2,8885.22 1753.91,8887.6C1750.74,8888.34 1747.07,8889.36 1745.74,8889.88C1742.85,8891.01 1740.4,8891.39 1738.78,8890.98C1737.27,8890.59 1736.97,8889.26 1738.25,8888.57C1740.4,8887.42 1747.88,8885.04 1753.37,8883.75C1763.57,8881.37 1771.2,8879.1 1791.4,8872.46C1802.23,8868.89 1813.21,8865.44 1815.79,8864.78C1818.36,8864.12 1822.05,8863.04 1823.99,8862.37C1827.99,8860.99 1829.71,8860.85 1830.54,8861.85C1831.81,8863.39 1830.32,8864.42 1823.94,8866.41ZM1836.3,8870.5C1837.58,8872.04 1836.09,8873.07 1829.71,8875.06C1826.35,8876.11 1822.19,8877.31 1820.47,8877.74C1818.75,8878.16 1808.91,8881.3 1798.61,8884.72C1779.51,8891.04 1769.97,8893.87 1759.68,8896.25C1756.51,8896.99 1752.83,8898.01 1751.51,8898.53C1748.62,8899.66 1746.16,8900.04 1744.55,8899.63C1743.03,8899.24 1742.74,8897.91 1744.01,8897.22C1746.17,8896.07 1753.65,8893.69 1759.14,8892.4C1769.33,8890.02 1776.97,8887.75 1797.16,8881.11C1808,8877.54 1819.03,8874.07 1821.67,8873.38C1824.32,8872.7 1828.01,8871.61 1829.88,8870.97C1833.77,8869.64 1835.49,8869.51 1836.3,8870.5ZM1834.59,8901.45C1834.2,8902.57 1833.35,8902.91 1825.03,8905.25C1820.01,8906.66 1810.61,8909.36 1804.13,8911.24C1797.46,8913.18 1791.08,8914.76 1789.4,8914.88L1786.45,8915.09L1782.6,8910.44C1780.48,8907.88 1778.14,8904.62 1777.39,8903.19C1776.19,8900.9 1776.11,8900.51 1776.74,8899.92C1777.96,8898.78 1785.07,8896.33 1797.89,8892.65C1820.92,8886.02 1822.74,8885.56 1823.8,8886.13C1825.24,8886.9 1834.4,8897.73 1834.74,8899.06C1834.9,8899.7 1834.83,8900.77 1834.59,8901.45ZM1731.09,8884.25C1729.58,8883.86 1729.28,8882.53 1730.56,8881.85C1732.72,8880.69 1740.19,8878.31 1745.68,8877.03C1755.88,8874.64 1763.51,8872.37 1783.71,8865.73C1794.55,8862.16 1805.52,8858.71 1808.1,8858.05C1810.67,8857.4 1814.37,8856.31 1816.3,8855.64C1820.3,8854.26 1822.02,8854.13 1822.85,8855.12C1824.13,8856.66 1822.63,8857.69 1816.26,8859.68C1812.89,8860.73 1808.73,8861.94 1807.02,8862.36C1805.3,8862.79 1795.46,8865.93 1785.15,8869.34C1766.05,8875.66 1756.51,8878.49 1746.23,8880.87C1743.05,8881.61 1739.38,8882.63 1738.06,8883.15C1735.16,8884.28 1732.71,8884.66 1731.09,8884.25ZM1822.36,8848.66C1820.89,8848.66 1817.57,8849.63 1802.45,8854.45C1795.05,8856.8 1785.97,8859.63 1782.27,8860.72C1778.57,8861.81 1773.19,8863.45 1770.32,8864.35C1767.45,8865.26 1762.58,8866.62 1759.51,8867.37C1748.76,8870 1740.42,8872.33 1735.17,8874.16C1732.26,8875.18 1727.08,8876.79 1723.65,8877.75C1720.21,8878.72 1717.22,8879.61 1717,8879.75C1716.78,8879.89 1718.2,8881.65 1720.14,8883.67C1722.09,8885.69 1726.48,8890.7 1729.89,8894.8C1744.24,8912.05 1761.68,8930.97 1762.8,8930.51C1763.2,8930.34 1765.69,8929.51 1768.33,8928.65C1785.35,8923.1 1792.6,8920.93 1801.97,8918.56C1807.79,8917.09 1814.81,8915.16 1817.59,8914.28C1826.28,8911.52 1832.11,8909.79 1836.11,8908.78C1838.24,8908.24 1842.12,8907.02 1844.75,8906.07C1849.34,8904.41 1866.37,8899.12 1867.13,8899.12C1867.34,8899.12 1868.08,8898.9 1868.78,8898.64L1870.05,8898.15L1868.75,8896.6C1868.03,8895.74 1865.01,8892.44 1862.03,8889.27C1859.05,8886.1 1855.78,8882.5 1854.76,8881.27C1852.4,8878.43 1839.61,8865.02 1830.46,8855.8C1825.77,8851.07 1823.03,8848.66 1822.36,8848.66Z" style="fill:white;fill-rule:nonzero;"/>
        <path d="M1831.76,8915.98C1828.06,8917.07 1822.69,8918.71 1819.82,8919.62C1816.95,8920.53 1812.08,8921.88 1809,8922.64C1798.22,8925.28 1790.15,8927.54 1784.07,8929.62C1769.82,8934.49 1760.84,8936.34 1758.45,8934.89C1756.88,8933.94 1737.48,8912.83 1730.84,8904.84C1730.05,8903.9 1727.34,8900.65 1724.82,8897.64C1722.3,8894.62 1718.96,8890.54 1717.4,8888.58C1714.68,8885.15 1714.55,8885.05 1714.23,8886.24C1713.82,8887.77 1714.48,8894.43 1715.26,8896.72C1715.58,8897.64 1716.86,8899.48 1718.11,8900.8C1719.37,8902.12 1723.28,8906.67 1726.8,8910.9C1740.45,8927.26 1754.5,8942.57 1754.94,8941.54C1755.56,8940.07 1756.93,8938.86 1757.65,8939.14C1758.08,8939.3 1758.77,8940.71 1759.23,8942.34C1760.11,8945.47 1760.13,8945.48 1762.75,8944.8C1769.75,8942.98 1776.54,8940.99 1782.51,8938.99C1786.34,8937.71 1794.67,8935.34 1801.01,8933.73C1807.35,8932.11 1814.81,8930.06 1817.59,8929.18C1826.24,8926.43 1832.1,8924.69 1836.09,8923.68C1838.2,8923.14 1842.34,8921.84 1845.28,8920.79C1850.07,8919.08 1862.95,8915.13 1869.24,8913.43C1871.24,8912.9 1871.82,8912.47 1872.72,8910.88C1873.81,8908.95 1874.19,8905.26 1873.42,8904.05C1872.9,8903.23 1868.78,8904.31 1851.95,8909.69C1844.55,8912.06 1835.47,8914.89 1831.76,8915.98Z" style="fill:white;fill-rule:nonzero;"/>
        <path d="M1730.61,8924.59C1730.44,8924.59 1729.97,8925.3 1729.55,8926.17C1728.19,8929.02 1726.33,8930.84 1724.77,8930.84C1723.53,8930.84 1723.22,8930.54 1722.35,8928.56C1720.61,8924.55 1720.49,8924.49 1716.58,8925.82C1714.72,8926.46 1712.22,8927.52 1711.03,8928.19C1708.63,8929.53 1707.54,8929.68 1706.67,8928.82C1705.76,8927.91 1705.95,8927.18 1708.52,8921.57C1709.86,8918.66 1710.88,8916.01 1710.81,8915.67C1710.73,8915.33 1709.6,8914.34 1708.3,8913.46C1702.84,8909.77 1702.97,8907.78 1708.86,8905.02C1710.91,8904.06 1712.68,8903.21 1712.79,8903.12C1712.9,8903.03 1712.44,8902.36 1711.77,8901.64C1710.65,8900.44 1709.55,8897.7 1708.77,8894.2C1708.49,8892.91 1708.4,8892.87 1705.07,8892.87C1702.03,8892.87 1692.73,8894.14 1692.2,8894.62C1692.08,8894.72 1692.33,8895.07 1692.75,8895.4C1694.25,8896.59 1699.84,8903.96 1700.14,8905.15C1700.55,8906.78 1699.62,8907.73 1694.98,8910.46C1692.9,8911.67 1691.11,8912.82 1690.99,8913.01C1690.87,8913.2 1693.41,8914.54 1696.63,8915.99C1704.31,8919.44 1704.24,8918.76 1698.23,8931.09C1695.72,8936.24 1693.22,8941.08 1692.67,8941.85C1692.13,8942.61 1691.68,8943.37 1691.68,8943.52C1691.68,8943.87 1696.59,8942.01 1700.94,8940.01C1702.73,8939.18 1707.47,8937.2 1711.47,8935.59C1720.46,8931.99 1720.42,8931.99 1721.95,8937.65C1723.15,8942.11 1724.78,8946.7 1725.16,8946.7C1725.3,8946.7 1725.82,8946.21 1726.32,8945.62C1726.82,8945.02 1729.3,8941.45 1731.82,8937.67L1736.42,8930.82L1733.67,8927.7C1732.15,8925.99 1730.78,8924.59 1730.61,8924.59Z" style="fill:white;fill-rule:nonzero;"/>
        <path d="M1727.41,8920.58C1725.77,8918.46 1715.58,8906.33 1715.45,8906.33C1715.38,8906.33 1713.86,8906.98 1712.08,8907.78L1708.83,8909.24L1710.95,8910.58C1712.11,8911.32 1713.44,8912.3 1713.91,8912.77C1715.09,8913.95 1714.96,8916.43 1713.52,8919.85C1712.84,8921.46 1712.36,8922.84 1712.44,8922.92C1712.52,8923 1714.18,8922.54 1716.13,8921.91C1718.08,8921.27 1720.18,8920.75 1720.8,8920.75C1722.07,8920.75 1723.34,8921.94 1724.65,8924.37C1725.14,8925.29 1725.59,8926.03 1725.65,8926.03C1725.71,8926.03 1726.33,8925.06 1727.03,8923.87C1728.27,8921.76 1728.27,8921.7 1727.41,8920.58Z" style="fill:white;fill-rule:nonzero;"/>
        <path d="M1702.29,8868.75C1702.78,8870.95 1703.65,8873.57 1704.21,8874.58C1705.57,8877 1709.33,8878.87 1710.15,8877.54C1710.3,8877.31 1709.45,8873.14 1708.27,8868.29C1707.09,8863.44 1705.7,8857.53 1705.19,8855.15C1704.68,8852.77 1703.7,8848.45 1703.01,8845.54C1702.32,8842.63 1701.22,8837.77 1700.55,8834.73C1698.74,8826.39 1697.15,8819.71 1695.54,8813.59C1694.74,8810.55 1693.86,8805.7 1693.58,8802.8C1693.31,8799.9 1692.99,8797.43 1692.87,8797.31C1692.21,8796.65 1690.21,8798.45 1689.1,8800.66C1686.79,8805.3 1687.35,8810.11 1692.41,8829.2C1694.99,8838.94 1701.03,8863.13 1702.29,8868.75Z" style="fill:white;fill-rule:nonzero;"/>
        <path d="M1709.31,8802.7C1709.54,8801.29 1709.78,8801.14 1713.23,8800.14C1715.26,8799.56 1719.51,8798.27 1722.68,8797.26C1725.85,8796.26 1731.04,8794.67 1734.21,8793.74C1737.38,8792.8 1743.87,8790.84 1748.63,8789.38C1753.39,8787.93 1759.33,8786.17 1761.84,8785.48C1764.35,8784.78 1769.22,8783.26 1772.66,8782.1C1780.25,8779.53 1791.5,8776.09 1792.27,8776.11C1793.83,8776.13 1796.98,8786.38 1800.51,8802.89C1801.2,8806.12 1803.17,8813.69 1804.87,8819.71C1806.58,8825.72 1807.98,8831.56 1807.98,8832.67C1807.98,8835.24 1807.46,8835.58 1800.53,8837.6C1797.62,8838.44 1791.03,8840.51 1785.87,8842.19C1780.72,8843.88 1774.45,8845.81 1771.94,8846.5C1769.42,8847.18 1765.42,8848.38 1763.04,8849.16C1760.67,8849.94 1755.48,8851.53 1751.51,8852.69C1747.55,8853.84 1741.6,8855.61 1738.3,8856.61C1722.67,8861.33 1722.92,8861.26 1722.92,8860.91C1722.92,8860.78 1722.38,8858.65 1721.72,8856.18C1721.07,8853.71 1719.44,8846.78 1718.11,8840.77C1716.78,8834.76 1714.75,8826.46 1713.59,8822.32C1710.55,8811.4 1709.02,8804.43 1709.31,8802.7ZM1750.89,8781.48C1752.42,8779.95 1754.71,8781.85 1753.67,8783.79C1753.18,8784.71 1751.31,8785.1 1750.63,8784.43C1750.11,8783.91 1750.26,8782.1 1750.89,8781.48ZM1702,8815.5C1703.44,8821.45 1704.75,8827.07 1704.91,8828C1705.07,8828.92 1706.08,8833.46 1707.14,8838.09C1708.21,8842.72 1710.12,8851.04 1711.4,8856.59C1714.77,8871.23 1715.46,8874.13 1715.57,8874.13C1715.62,8874.13 1718.97,8873.17 1723.02,8872C1727.06,8870.83 1731.16,8869.53 1732.13,8869.12C1734.37,8868.18 1746.99,8864.62 1756.08,8862.37C1759.91,8861.42 1765.32,8859.91 1768.09,8859.01C1770.87,8858.12 1776.27,8856.5 1780.1,8855.41C1783.94,8854.32 1791.29,8852.05 1796.44,8850.36C1801.6,8848.66 1808.52,8846.49 1811.82,8845.53C1815.13,8844.56 1818.12,8843.68 1818.48,8843.57C1818.88,8843.45 1819.05,8842.93 1818.92,8842.29C1818.69,8841.19 1815.17,8826 1813.04,8816.95C1812.39,8814.17 1811.32,8809.63 1810.67,8806.85C1810.02,8804.08 1809.03,8799.54 1808.48,8796.76C1807.93,8793.99 1806.64,8788.58 1805.62,8784.75C1804.59,8780.92 1803.61,8777.02 1803.43,8776.1C1802.95,8773.58 1800.83,8766.47 1800.01,8764.64C1799.62,8763.75 1799.03,8763.12 1798.71,8763.23C1795.16,8764.46 1770.6,8772.22 1765.45,8773.74C1761.75,8774.83 1756.37,8776.46 1753.5,8777.37C1750.63,8778.28 1745.76,8779.64 1742.69,8780.39C1731.94,8783.02 1723.6,8785.35 1718.35,8787.18C1715.45,8788.2 1710.25,8789.8 1706.82,8790.75C1696.58,8793.59 1697.32,8793.23 1697.62,8795.25C1698.19,8799.1 1699.51,8805.2 1702,8815.5Z" style="fill:white;fill-rule:nonzero;"/>
        <path d="M1822.01,8889.99C1821.31,8889.99 1808.03,8893.65 1799.33,8896.24C1796.82,8896.98 1791.84,8898.41 1788.27,8899.41C1784.71,8900.41 1781.61,8901.37 1781.38,8901.56C1780.89,8901.97 1782.42,8904.3 1785.75,8908.22C1787.14,8909.85 1788.27,8911.39 1788.27,8911.64C1788.27,8912.33 1788.84,8912.22 1793.02,8910.68C1795.13,8909.9 1803.09,8907.5 1810.71,8905.34C1829.36,8900.06 1830.34,8899.77 1830.25,8899.38C1830.02,8898.45 1822.61,8889.99 1822.01,8889.99Z" style="fill:white;fill-rule:nonzero;"/>
        <path d="M1746.23,8880.87C1756.51,8878.49 1766.05,8875.66 1785.15,8869.34C1795.46,8865.93 1805.3,8862.79 1807.02,8862.36C1808.73,8861.94 1812.89,8860.73 1816.26,8859.68C1822.63,8857.69 1824.13,8856.66 1822.85,8855.12C1822.02,8854.13 1820.3,8854.26 1816.3,8855.64C1814.37,8856.31 1810.67,8857.4 1808.1,8858.05C1805.52,8858.71 1794.55,8862.16 1783.71,8865.73C1763.51,8872.37 1755.88,8874.64 1745.68,8877.03C1740.19,8878.31 1732.72,8880.69 1730.56,8881.85C1729.28,8882.53 1729.58,8883.86 1731.09,8884.25C1732.71,8884.66 1735.16,8884.28 1738.06,8883.15C1739.38,8882.63 1743.05,8881.61 1746.23,8880.87Z" style="fill-rule:nonzero;"/>
        <path d="M1745.28,8820.04C1747.9,8822.86 1751.93,8820.84 1751.87,8816.74C1751.82,8812.99 1746.3,8801.57 1744.54,8801.57C1742.9,8801.57 1742.52,8803.18 1742.85,8808.94C1743.23,8815.7 1743.85,8818.49 1745.28,8820.04Z" style="fill-rule:nonzero;"/>
        <path d="M1782.77,8809.47C1785.38,8812.29 1789.42,8810.27 1789.36,8806.17C1789.3,8802.41 1783.78,8790.99 1782.02,8790.99C1780.38,8790.99 1780.01,8792.61 1780.33,8798.36C1780.72,8805.13 1781.33,8807.92 1782.77,8809.47Z" style="fill-rule:nonzero;"/>
        <path d="M1753.77,8832.23C1754.52,8832.98 1754.6,8832.97 1756.39,8831.87C1757.23,8831.36 1758.05,8830.5 1758.23,8829.95C1758.62,8828.72 1758.78,8828.72 1761.61,8829.97C1764.93,8831.44 1771.5,8831.13 1775.43,8829.32C1779.29,8827.54 1782.15,8825.39 1783.91,8822.93C1785.14,8821.22 1785.72,8820.82 1787.15,8820.7C1789.21,8820.52 1790.23,8819.32 1789.42,8818.03C1789.08,8817.48 1788.06,8817.1 1786.54,8816.94C1784.96,8816.78 1783.6,8816.25 1782.39,8815.33C1781.39,8814.56 1780.27,8814.08 1779.87,8814.23C1778.85,8814.63 1778.97,8816.59 1780.1,8818.04C1781.49,8819.79 1781.32,8820.5 1779.04,8822.45C1773.93,8826.83 1767.36,8828.22 1762.1,8826.04C1759.83,8825.1 1759.44,8824.75 1759.44,8823.68C1759.44,8822.01 1758.35,8820.55 1757.38,8820.93C1756.6,8821.22 1755.6,8824.03 1755.6,8825.92C1755.6,8826.49 1755.06,8827.61 1754.39,8828.39C1753.09,8829.94 1752.86,8831.32 1753.77,8832.23Z" style="fill-rule:nonzero;"/>
        <path d="M1750.63,8784.43C1751.31,8785.1 1753.18,8784.71 1753.67,8783.79C1754.71,8781.85 1752.42,8779.95 1750.89,8781.48C1750.26,8782.1 1750.11,8783.91 1750.63,8784.43Z" style="fill-rule:nonzero;"/>
        <path d="M1810.71,8905.34C1803.09,8907.5 1795.13,8909.9 1793.02,8910.68C1788.84,8912.22 1788.27,8912.33 1788.27,8911.64C1788.27,8911.39 1787.14,8909.85 1785.75,8908.22C1782.42,8904.3 1780.89,8901.97 1781.38,8901.56C1781.61,8901.37 1784.71,8900.41 1788.27,8899.41C1791.84,8898.41 1796.82,8896.98 1799.33,8896.24C1808.03,8893.65 1821.31,8889.99 1822.01,8889.99C1822.61,8889.99 1830.02,8898.45 1830.25,8899.38C1830.34,8899.77 1829.36,8900.06 1810.71,8905.34ZM1823.8,8886.13C1822.74,8885.56 1820.92,8886.02 1797.89,8892.65C1785.07,8896.33 1777.96,8898.78 1776.74,8899.92C1776.11,8900.51 1776.19,8900.9 1777.39,8903.19C1778.14,8904.62 1780.48,8907.88 1782.6,8910.44L1786.45,8915.09L1789.4,8914.88C1791.08,8914.76 1797.46,8913.18 1804.13,8911.24C1810.61,8909.36 1820.01,8906.66 1825.03,8905.25C1833.35,8902.91 1834.2,8902.57 1834.59,8901.45C1834.83,8900.77 1834.9,8899.7 1834.74,8899.06C1834.4,8897.73 1825.24,8886.9 1823.8,8886.13Z" style="fill-rule:nonzero;"/>
        <path d="M1689.1,8800.66C1690.21,8798.45 1692.21,8796.65 1692.87,8797.31C1692.99,8797.43 1693.31,8799.9 1693.58,8802.8C1693.86,8805.7 1694.74,8810.55 1695.54,8813.59C1697.15,8819.71 1698.74,8826.39 1700.55,8834.73C1701.22,8837.77 1702.32,8842.63 1703.01,8845.54C1703.7,8848.45 1704.68,8852.77 1705.19,8855.15C1705.7,8857.53 1707.09,8863.44 1708.27,8868.29C1709.45,8873.14 1710.3,8877.31 1710.15,8877.54C1709.33,8878.87 1705.57,8877 1704.21,8874.58C1703.65,8873.57 1702.78,8870.95 1702.29,8868.75C1701.03,8863.13 1694.99,8838.94 1692.41,8829.2C1687.35,8810.11 1686.79,8805.3 1689.1,8800.66ZM1706.82,8790.75C1710.25,8789.8 1715.45,8788.2 1718.35,8787.18C1723.6,8785.35 1731.94,8783.02 1742.69,8780.39C1745.76,8779.64 1750.63,8778.28 1753.5,8777.37C1756.37,8776.46 1761.75,8774.83 1765.45,8773.74C1770.6,8772.22 1795.16,8764.46 1798.71,8763.23C1799.03,8763.12 1799.62,8763.75 1800.01,8764.64C1800.83,8766.47 1802.95,8773.58 1803.43,8776.1C1803.61,8777.02 1804.59,8780.92 1805.62,8784.75C1806.64,8788.58 1807.93,8793.99 1808.48,8796.76C1809.03,8799.54 1810.02,8804.08 1810.67,8806.85C1811.32,8809.63 1812.39,8814.17 1813.04,8816.95C1815.17,8826 1818.69,8841.19 1818.92,8842.29C1819.05,8842.93 1818.88,8843.45 1818.48,8843.57C1818.12,8843.68 1815.13,8844.56 1811.82,8845.53C1808.52,8846.49 1801.6,8848.66 1796.44,8850.36C1791.29,8852.05 1783.94,8854.32 1780.1,8855.41C1776.27,8856.5 1770.87,8858.12 1768.09,8859.01C1765.32,8859.91 1759.91,8861.42 1756.08,8862.37C1746.99,8864.62 1734.37,8868.18 1732.13,8869.12C1731.16,8869.53 1727.06,8870.83 1723.02,8872C1718.97,8873.17 1715.62,8874.13 1715.57,8874.13C1715.46,8874.13 1714.77,8871.23 1711.4,8856.59C1710.12,8851.04 1708.21,8842.72 1707.14,8838.09C1706.08,8833.46 1705.07,8828.92 1704.91,8828C1704.75,8827.07 1703.44,8821.45 1702,8815.5C1699.51,8805.2 1698.19,8799.1 1697.62,8795.25C1697.32,8793.23 1696.58,8793.59 1706.82,8790.75ZM1822.44,8799.9C1825.65,8795.77 1828.37,8792.49 1828.49,8792.61C1828.61,8792.73 1829.13,8795.7 1829.64,8799.21C1830.57,8805.53 1831.28,8807.33 1832.82,8807.33C1833.57,8807.33 1843.52,8801.66 1850.03,8797.51C1855.05,8794.31 1863.72,8789.83 1863.72,8790.44C1863.72,8790.67 1862.89,8792.68 1861.86,8794.89C1860.84,8797.11 1859.46,8800.44 1858.79,8802.29C1857.3,8806.44 1852.93,8817.11 1851.87,8819.22C1850.7,8821.54 1851.43,8822.06 1856.41,8822.43C1867.22,8823.24 1871.89,8823.83 1871.89,8824.37C1871.89,8824.97 1863.22,8833.5 1860.13,8835.95C1857.61,8837.93 1857.96,8839.24 1861.66,8841.7C1864.89,8843.84 1869.49,8848.07 1869.49,8848.89C1869.49,8849.45 1863.61,8852.51 1850.85,8858.59C1847.34,8860.27 1844.31,8861.62 1844.12,8861.6C1843.93,8861.58 1843.15,8860.81 1842.37,8859.88C1841.23,8858.5 1841.1,8858.11 1841.65,8857.76C1842.03,8857.52 1842.62,8857.32 1842.96,8857.32C1843.3,8857.32 1844.43,8856.88 1845.48,8856.34C1847.17,8855.48 1847.38,8855.18 1847.38,8853.62C1847.38,8852.16 1847.01,8851.5 1845.21,8849.78L1843.04,8847.7L1845.58,8846.57C1850.28,8844.49 1852.19,8843.04 1852.19,8841.52C1852.19,8839.46 1849.71,8837.76 1844.02,8835.93C1842.57,8835.46 1841.32,8835.04 1841.26,8834.98C1841.11,8834.87 1843.48,8827.95 1845.17,8823.54C1846.61,8819.8 1846.73,8818.08 1845.67,8816.57C1844.46,8814.84 1842.56,8815.2 1839.12,8817.81C1837.45,8819.08 1835.28,8820.61 1834.29,8821.21L1832.49,8822.31L1832.48,8818.79C1832.48,8812.78 1831.23,8810.07 1828.88,8810.98C1828.25,8811.22 1825.97,8813.12 1823.82,8815.2C1821.67,8817.27 1819.74,8818.79 1819.54,8818.56C1819.33,8818.33 1818.59,8815.73 1817.89,8812.78L1816.61,8807.41L1822.44,8799.9ZM1830.54,8827.52C1831.48,8827.52 1838.9,8823.14 1840.53,8821.63C1841.13,8821.08 1841.72,8820.73 1841.85,8820.86C1841.98,8821 1841.36,8822.92 1840.47,8825.15C1837.67,8832.14 1836.54,8836.12 1837.11,8837.03C1837.39,8837.48 1838.78,8838.23 1840.22,8838.7C1844.92,8840.23 1846.9,8841.05 1846.9,8841.44C1846.9,8841.65 1845.71,8842.31 1844.25,8842.9C1840.78,8844.31 1837.77,8846.51 1837.77,8847.65C1837.77,8848.15 1838.99,8849.58 1840.5,8850.88L1843.24,8853.21L1841.35,8853.78C1840.31,8854.1 1839.02,8854.36 1838.49,8854.36C1837.14,8854.37 1827.27,8845.25 1825.66,8842.5C1824.81,8841.05 1823.63,8837.29 1822.33,8831.91L1820.32,8823.56L1824.12,8820.03C1826.21,8818.1 1828.1,8816.5 1828.31,8816.49C1828.52,8816.48 1828.63,8818.59 1828.55,8821.2C1828.39,8826.16 1828.82,8827.52 1830.54,8827.52ZM1854.76,8881.27C1855.78,8882.5 1859.05,8886.1 1862.03,8889.27C1865.01,8892.44 1868.03,8895.74 1868.75,8896.6L1870.05,8898.15L1868.78,8898.64C1868.08,8898.9 1867.34,8899.12 1867.13,8899.12C1866.37,8899.12 1849.34,8904.41 1844.75,8906.07C1842.12,8907.02 1838.24,8908.24 1836.11,8908.78C1832.11,8909.79 1826.28,8911.52 1817.59,8914.28C1814.81,8915.16 1807.79,8917.09 1801.97,8918.56C1792.6,8920.93 1785.35,8923.1 1768.33,8928.65C1765.69,8929.51 1763.2,8930.34 1762.8,8930.51C1761.68,8930.97 1744.24,8912.05 1729.89,8894.8C1726.48,8890.7 1722.09,8885.69 1720.14,8883.67C1718.2,8881.65 1716.78,8879.89 1717,8879.75C1717.22,8879.61 1720.21,8878.72 1723.65,8877.75C1727.08,8876.79 1732.26,8875.18 1735.17,8874.16C1740.42,8872.33 1748.76,8870 1759.51,8867.37C1762.58,8866.62 1767.45,8865.26 1770.32,8864.35C1773.19,8863.45 1778.57,8861.81 1782.27,8860.72C1785.97,8859.63 1795.05,8856.8 1802.45,8854.45C1817.57,8849.63 1820.89,8848.66 1822.36,8848.66C1823.03,8848.66 1825.77,8851.07 1830.46,8855.8C1839.61,8865.02 1852.4,8878.43 1854.76,8881.27ZM1873.42,8904.05C1874.19,8905.26 1873.81,8908.95 1872.72,8910.88C1871.82,8912.47 1871.24,8912.9 1869.24,8913.43C1862.95,8915.13 1850.07,8919.08 1845.28,8920.79C1842.34,8921.84 1838.2,8923.14 1836.09,8923.68C1832.1,8924.69 1826.24,8926.43 1817.59,8929.18C1814.81,8930.06 1807.35,8932.11 1801.01,8933.73C1794.67,8935.34 1786.34,8937.71 1782.51,8938.99C1776.54,8940.99 1769.75,8942.98 1762.75,8944.8C1760.13,8945.48 1760.11,8945.47 1759.23,8942.34C1758.77,8940.71 1758.08,8939.3 1757.65,8939.14C1756.93,8938.86 1755.56,8940.07 1754.94,8941.54C1754.5,8942.57 1740.45,8927.26 1726.8,8910.9C1723.28,8906.67 1719.37,8902.12 1718.11,8900.8C1716.86,8899.48 1715.58,8897.64 1715.26,8896.72C1714.48,8894.43 1713.82,8887.77 1714.23,8886.24C1714.55,8885.05 1714.68,8885.15 1717.4,8888.58C1718.96,8890.54 1722.3,8894.62 1724.82,8897.64C1727.34,8900.65 1730.05,8903.9 1730.84,8904.84C1737.48,8912.83 1756.88,8933.94 1758.45,8934.89C1760.84,8936.34 1769.82,8934.49 1784.07,8929.62C1790.15,8927.54 1798.22,8925.28 1809,8922.64C1812.08,8921.88 1816.95,8920.53 1819.82,8919.62C1822.69,8918.71 1828.06,8917.07 1831.76,8915.98C1835.47,8914.89 1844.55,8912.06 1851.95,8909.69C1868.78,8904.31 1872.9,8903.23 1873.42,8904.05ZM1727.03,8923.87C1726.33,8925.06 1725.71,8926.03 1725.65,8926.03C1725.59,8926.03 1725.14,8925.29 1724.65,8924.37C1723.34,8921.94 1722.07,8920.75 1720.8,8920.75C1720.18,8920.75 1718.08,8921.27 1716.13,8921.91C1714.18,8922.54 1712.52,8923 1712.44,8922.92C1712.36,8922.84 1712.84,8921.46 1713.52,8919.85C1714.96,8916.43 1715.09,8913.95 1713.91,8912.77C1713.44,8912.3 1712.11,8911.32 1710.95,8910.58L1708.83,8909.24L1712.08,8907.78C1713.86,8906.98 1715.38,8906.33 1715.45,8906.33C1715.58,8906.33 1725.77,8918.46 1727.41,8920.58C1728.27,8921.7 1728.27,8921.76 1727.03,8923.87ZM1731.82,8937.67C1729.3,8941.45 1726.82,8945.02 1726.32,8945.62C1725.82,8946.21 1725.3,8946.7 1725.16,8946.7C1724.78,8946.7 1723.15,8942.11 1721.95,8937.65C1720.42,8931.99 1720.46,8931.99 1711.47,8935.59C1707.47,8937.2 1702.73,8939.18 1700.94,8940.01C1696.59,8942.01 1691.68,8943.87 1691.68,8943.52C1691.68,8943.37 1692.13,8942.61 1692.67,8941.85C1693.22,8941.08 1695.72,8936.24 1698.23,8931.09C1704.24,8918.76 1704.31,8919.44 1696.63,8915.99C1693.41,8914.54 1690.87,8913.2 1690.99,8913.01C1691.11,8912.82 1692.9,8911.67 1694.98,8910.46C1699.62,8907.73 1700.55,8906.78 1700.14,8905.15C1699.84,8903.96 1694.25,8896.59 1692.75,8895.4C1692.33,8895.07 1692.08,8894.72 1692.2,8894.62C1692.73,8894.14 1702.03,8892.87 1705.07,8892.87C1708.4,8892.87 1708.49,8892.91 1708.77,8894.2C1709.55,8897.7 1710.65,8900.44 1711.77,8901.64C1712.44,8902.36 1712.9,8903.03 1712.79,8903.12C1712.68,8903.21 1710.91,8904.06 1708.86,8905.02C1702.97,8907.78 1702.84,8909.77 1708.3,8913.46C1709.6,8914.34 1710.73,8915.33 1710.81,8915.67C1710.88,8916.01 1709.86,8918.66 1708.52,8921.57C1705.95,8927.18 1705.76,8927.91 1706.67,8928.82C1707.54,8929.68 1708.63,8929.53 1711.03,8928.19C1712.22,8927.52 1714.72,8926.46 1716.58,8925.82C1720.49,8924.49 1720.61,8924.55 1722.35,8928.56C1723.22,8930.54 1723.53,8930.84 1724.77,8930.84C1726.33,8930.84 1728.19,8929.02 1729.55,8926.17C1729.97,8925.3 1730.44,8924.59 1730.61,8924.59C1730.78,8924.59 1732.15,8925.99 1733.67,8927.7L1736.42,8930.82L1731.82,8937.67ZM1684.92,8822.95C1686.29,8828.24 1688.38,8836.46 1689.56,8841.21C1690.74,8845.97 1692.76,8854.08 1694.06,8859.24C1695.35,8864.39 1696.67,8869.79 1696.99,8871.25C1697.31,8872.7 1698.24,8875.28 1699.07,8876.98C1700.75,8880.41 1703.44,8882.58 1706.69,8883.1L1708.5,8883.39L1708.5,8885.94C1708.5,8887.46 1708.26,8888.64 1707.9,8888.86C1707.57,8889.07 1705.9,8889.19 1704.18,8889.14C1702.46,8889.08 1699.81,8889.26 1698.29,8889.54C1696.77,8889.81 1693.77,8890.23 1691.63,8890.48C1685.23,8891.21 1684.8,8892.58 1689.41,8897.55C1691.07,8899.34 1693.23,8901.82 1694.22,8903.05L1696.02,8905.3L1690.69,8908.51C1685.13,8911.86 1683.67,8913.45 1684.99,8914.72C1685.77,8915.48 1693.79,8918.93 1696.85,8919.82C1697.97,8920.15 1698.89,8920.55 1698.89,8920.7C1698.88,8921.37 1690.7,8937.62 1688.88,8940.56C1683.88,8948.71 1684.63,8951.04 1691.35,8948.2C1693.25,8947.4 1697.18,8945.74 1700.09,8944.5C1709.77,8940.4 1716.84,8937.57 1717.41,8937.57C1717.72,8937.57 1718.32,8938.98 1718.75,8940.71C1719.18,8942.44 1720.38,8945.68 1721.43,8947.92C1723.18,8951.64 1723.45,8951.98 1724.72,8951.98C1726.42,8951.98 1729.2,8948.73 1734.95,8940C1737.05,8936.81 1738.93,8934.23 1739.13,8934.25C1739.33,8934.28 1741.11,8936.07 1743.08,8938.22C1752.16,8948.14 1755.29,8951.16 1756.89,8951.52C1757.77,8951.72 1758.48,8951.69 1758.48,8951.45C1758.48,8951.22 1759.27,8951.02 1760.25,8951.02C1762.32,8951.02 1777.07,8946.98 1784.67,8944.33C1789.91,8942.5 1798.25,8940.17 1809,8937.53C1812.08,8936.78 1816.95,8935.42 1819.82,8934.51C1822.69,8933.61 1828.06,8931.97 1831.76,8930.88C1835.46,8929.79 1844.55,8926.96 1851.95,8924.59C1859.35,8922.23 1867.45,8919.76 1869.95,8919.11C1874.95,8917.82 1876.09,8916.92 1878.21,8912.63C1880.12,8908.77 1879.86,8903.17 1877.63,8900.04C1877.12,8899.32 1876.7,8898.41 1876.7,8898.02C1876.7,8896.7 1865,8883.4 1852.22,8870.19C1849.47,8867.35 1847.33,8864.89 1847.48,8864.74C1847.63,8864.59 1852.81,8861.98 1858.98,8858.93C1871.62,8852.7 1875.26,8850.51 1875.26,8849.12C1875.26,8848.61 1874.56,8847.59 1873.72,8846.86C1872.87,8846.13 1870.76,8844.24 1869.03,8842.66C1867.3,8841.07 1865.34,8839.4 1864.68,8838.95C1863.69,8838.27 1863.6,8838.05 1864.18,8837.66C1866.01,8836.43 1875.47,8826.56 1876.52,8824.78C1877.89,8822.48 1877.57,8821.11 1875.54,8820.6C1873.61,8820.12 1861.77,8818.88 1859.04,8818.87C1857.65,8818.87 1856.51,8818.69 1856.51,8818.47C1856.51,8818.26 1857.39,8816.04 1858.47,8813.55C1859.55,8811.06 1861.14,8807.07 1862.02,8804.69C1862.9,8802.31 1864.83,8797.64 1866.31,8794.32C1870.16,8785.68 1869.85,8783.38 1865.09,8785.26C1861.53,8786.66 1853.8,8790.66 1849.31,8793.42C1842.11,8797.85 1834.85,8802.05 1834.4,8802.05C1833.96,8802.05 1833.84,8801.47 1832.98,8795.46C1832.71,8793.55 1832.1,8790.96 1831.63,8789.69C1830.89,8787.68 1830.59,8787.37 1829.27,8787.24C1827.93,8787.11 1827.47,8787.44 1825.24,8790.13C1823.85,8791.79 1821.21,8795.16 1819.37,8797.6C1817.53,8800.05 1815.87,8802.05 1815.68,8802.05C1815.34,8802.05 1814.54,8798.78 1813.96,8795.08C1813.67,8793.18 1807.14,8767.63 1805.7,8762.74C1804.85,8759.87 1803.05,8758.04 1800.61,8757.58C1798.96,8757.27 1788.04,8760.35 1778.36,8763.85C1775.77,8764.79 1771.92,8765.99 1769.79,8766.53C1765.79,8767.54 1759.97,8769.27 1751.27,8772.04C1748.5,8772.92 1741.04,8774.96 1734.69,8776.58C1728.35,8778.2 1720.02,8780.57 1716.19,8781.85C1712.36,8783.14 1707.17,8784.76 1704.66,8785.46C1702.15,8786.16 1698.58,8787.48 1696.72,8788.38C1694.87,8789.29 1693.2,8790.03 1693.01,8790.03C1692.34,8790.03 1687.11,8793.53 1686.26,8794.54C1685.79,8795.1 1684.7,8796.86 1683.85,8798.44C1682.34,8801.27 1682.31,8801.44 1682.37,8807.33C1682.43,8812.91 1682.61,8814.03 1684.92,8822.95Z" style="fill-rule:nonzero;"/>
        <path d="M1715.35,8803.47C1716.47,8803.18 1720.2,8802.07 1723.64,8801.02C1727.07,8799.96 1731.94,8798.48 1734.45,8797.72C1736.96,8796.97 1742.04,8795.43 1745.74,8794.31C1749.44,8793.2 1755.72,8791.34 1759.68,8790.2C1763.65,8789.05 1770.13,8787.03 1774.1,8785.72C1782.01,8783.09 1790.82,8780.4 1790.96,8780.56C1791.38,8781.04 1794.4,8792.8 1795.73,8799.16C1797.76,8808.84 1797.57,8808.05 1801.24,8821.2C1802.88,8827.1 1804.05,8832.1 1803.82,8832.31C1803.6,8832.52 1801.03,8833.38 1798.13,8834.23C1795.22,8835.08 1789.38,8836.93 1785.15,8838.34C1780.92,8839.75 1775.41,8841.47 1772.9,8842.17C1770.39,8842.87 1764.44,8844.63 1759.68,8846.09C1754.92,8847.55 1748.44,8849.51 1745.26,8850.45C1742.09,8851.39 1736.54,8853.1 1732.92,8854.25C1729.3,8855.41 1726.24,8856.35 1726.12,8856.35C1725.63,8856.35 1724.23,8850.84 1721.26,8837.13C1720.31,8832.77 1718.69,8826.17 1717.65,8822.47C1715.08,8813.32 1713.31,8806.16 1713.31,8804.98C1713.31,8804.24 1713.79,8803.88 1715.35,8803.47ZM1718.11,8840.77C1719.44,8846.78 1721.07,8853.71 1721.72,8856.18C1722.38,8858.65 1722.92,8860.78 1722.92,8860.91C1722.92,8861.26 1722.67,8861.33 1738.3,8856.61C1741.6,8855.61 1747.55,8853.84 1751.51,8852.69C1755.48,8851.53 1760.67,8849.94 1763.04,8849.16C1765.42,8848.38 1769.42,8847.18 1771.94,8846.5C1774.45,8845.81 1780.72,8843.88 1785.87,8842.19C1791.03,8840.51 1797.62,8838.44 1800.53,8837.6C1807.46,8835.58 1807.98,8835.24 1807.98,8832.67C1807.98,8831.56 1806.58,8825.72 1804.87,8819.71C1803.17,8813.69 1801.2,8806.12 1800.51,8802.89C1796.98,8786.38 1793.83,8776.13 1792.27,8776.11C1791.5,8776.09 1780.25,8779.53 1772.66,8782.1C1769.22,8783.26 1764.35,8784.78 1761.84,8785.48C1759.33,8786.17 1753.39,8787.93 1748.63,8789.38C1743.87,8790.84 1737.38,8792.8 1734.21,8793.74C1731.04,8794.67 1725.85,8796.26 1722.68,8797.26C1719.51,8798.27 1715.26,8799.56 1713.23,8800.14C1709.78,8801.14 1709.54,8801.29 1709.31,8802.7C1709.02,8804.43 1710.55,8811.4 1713.59,8822.32C1714.75,8826.46 1716.78,8834.76 1718.11,8840.77Z" style="fill-rule:nonzero;"/>
        <path d="M1823.99,8862.37C1822.05,8863.04 1818.36,8864.12 1815.79,8864.78C1813.21,8865.44 1802.23,8868.89 1791.4,8872.46C1771.2,8879.1 1763.57,8881.37 1753.37,8883.75C1747.88,8885.04 1740.4,8887.42 1738.25,8888.57C1736.97,8889.26 1737.27,8890.59 1738.78,8890.98C1740.4,8891.39 1742.85,8891.01 1745.74,8889.88C1747.07,8889.36 1750.74,8888.34 1753.91,8887.6C1764.2,8885.22 1773.74,8882.39 1792.84,8876.07C1803.15,8872.65 1812.99,8869.51 1814.71,8869.09C1816.42,8868.66 1820.58,8867.46 1823.94,8866.41C1830.32,8864.42 1831.81,8863.39 1830.54,8861.85C1829.71,8860.85 1827.99,8860.99 1823.99,8862.37Z" style="fill-rule:nonzero;"/>
        <path d="M1821.67,8873.38C1819.03,8874.07 1808,8877.54 1797.16,8881.11C1776.97,8887.75 1769.33,8890.02 1759.14,8892.4C1753.65,8893.69 1746.17,8896.07 1744.01,8897.22C1742.74,8897.91 1743.03,8899.24 1744.55,8899.63C1746.16,8900.04 1748.62,8899.66 1751.51,8898.53C1752.83,8898.01 1756.51,8896.99 1759.68,8896.25C1769.97,8893.87 1779.51,8891.04 1798.61,8884.72C1808.91,8881.3 1818.75,8878.16 1820.47,8877.74C1822.19,8877.31 1826.35,8876.11 1829.71,8875.06C1836.09,8873.07 1837.58,8872.04 1836.3,8870.5C1835.49,8869.51 1833.77,8869.64 1829.88,8870.97C1828.01,8871.61 1824.32,8872.7 1821.67,8873.38Z" style="fill-rule:nonzero;"/>
    </g>
</svg>
