<?xml version="1.0" encoding="UTF-8" standalone="no"?>
<!DOCTYPE svg PUBLIC "-//W3C//DTD SVG 1.1//EN" "http://www.w3.org/Graphics/SVG/1.1/DTD/svg11.dtd">
<svg width="100%" height="100%" viewBox="0 0 1092 1084" version="1.1" xmlns="http://www.w3.org/2000/svg" xmlns:xlink="http://www.w3.org/1999/xlink" xml:space="preserve" xmlns:serif="http://www.serif.com/" style="fill-rule:evenodd;clip-rule:evenodd;stroke-linejoin:round;stroke-miterlimit:2;">
    <g transform="matrix(5.55556,0,0,5.55556,-10866.2,-47482)">
        <path d="M2133.28,8634.7C2132.5,8634.7 2128.01,8630.34 2126.77,8628.38C2126.16,8627.42 2125.29,8625.52 2124.85,8624.15C2123.95,8621.42 2123.65,8621.46 2122.8,8624.44C2121.97,8627.37 2119.49,8630.79 2116.42,8633.23L2113.72,8635.38L2115.46,8636.64C2119.1,8639.29 2123.18,8645.14 2123.2,8647.72C2123.21,8649.55 2123.95,8648.92 2124.91,8646.27C2125.48,8644.69 2126.77,8642.31 2127.78,8640.99C2128.79,8639.67 2130.55,8637.92 2131.7,8637.1C2133.7,8635.66 2134.33,8634.7 2133.28,8634.7Z" style="fill:white;fill-rule:nonzero;"/>
        <path d="M2084.75,8585.24C2084.77,8587.07 2085.5,8586.45 2086.47,8583.8C2087.04,8582.21 2088.33,8579.84 2089.34,8578.52C2090.34,8577.2 2092.11,8575.45 2093.25,8574.62C2095.25,8573.19 2095.88,8572.23 2094.83,8572.23C2094.06,8572.23 2089.57,8567.87 2088.33,8565.91C2087.72,8564.95 2086.85,8563.04 2086.4,8561.68C2085.51,8558.95 2085.2,8558.99 2084.35,8561.97C2083.52,8564.9 2081.04,8568.31 2077.97,8570.75L2075.27,8572.9L2077.01,8574.17C2080.65,8576.81 2084.74,8582.66 2084.75,8585.24Z" style="fill:white;fill-rule:nonzero;"/>
        <path d="M2054.36,8642.11C2050.68,8640.86 2049.74,8641.95 2047,8650.69C2045.92,8654.14 2046.36,8655.74 2048.72,8656.93C2050.43,8657.78 2055.65,8658.09 2056.71,8657.4C2057,8657.2 2057.49,8655.23 2057.79,8653C2058.09,8650.76 2058.87,8647.78 2059.54,8646.31C2060.89,8643.37 2060.68,8642.89 2058.05,8642.88C2057.24,8642.87 2055.58,8642.53 2054.36,8642.11Z" style="fill:rgb(225,244,42);fill-rule:nonzero;"/>
        <path d="M2018.14,8665.46C2016.8,8668.82 2013.32,8669.83 2011.15,8667.5C2008.75,8664.92 2009.06,8662.03 2012.77,8652.31C2014.27,8648.4 2015.05,8646.97 2015.9,8646.58C2016.72,8646.21 2017.18,8646.22 2017.58,8646.62C2019.02,8648.06 2019.44,8662.22 2018.14,8665.46ZM2006.89,8679.87C2005.86,8679.87 2004.85,8679.33 2003.45,8678.03L2001.47,8676.18L1999.02,8677.12C1997,8677.89 1995.79,8678.01 1992.01,8677.81C1989.5,8677.67 1986.41,8677.2 1985.15,8676.75C1980.67,8675.15 1975.65,8669.16 1976.23,8666.11C1976.54,8664.5 1977.84,8665.17 1980.51,8668.32C1984.37,8672.85 1986.6,8673.87 1992.74,8673.87C1999.03,8673.87 2000.18,8673.24 2000.18,8669.83C2000.18,8668.29 2000.44,8667.28 2000.94,8666.86C2002.21,8665.81 2003.22,8666.94 2003.79,8670.06C2004.42,8673.48 2005.01,8674.64 2006.87,8676.11C2009.06,8677.86 2009.07,8679.87 2006.89,8679.87ZM1973.03,8653.45C1971.02,8655.5 1970.34,8655.74 1969.47,8654.7C1968.25,8653.23 1970.92,8649.41 1974.47,8647.54C1976.95,8646.23 1980.98,8646.18 1983.55,8647.42C1985.75,8648.49 1988.27,8652.12 1988.07,8653.92C1987.96,8654.8 1987.6,8655.16 1986.71,8655.27C1985.75,8655.38 1985.19,8654.97 1984,8653.28C1981.16,8649.25 1977.06,8649.32 1973.03,8653.45ZM2061.33,8678.41C2057.55,8676.82 2057.87,8675.41 2062.35,8673.9C2065.54,8672.83 2069.47,8670.15 2071.81,8667.45C2075.57,8663.1 2078.99,8654.11 2078.99,8648.56C2078.99,8646.87 2079.26,8645.97 2079.95,8645.27C2082.01,8643.21 2083.02,8644.29 2083.55,8649.12C2084.26,8655.63 2085.99,8662.49 2086.73,8661.75C2087.65,8660.83 2089.6,8652.99 2089.88,8649.08C2090.23,8644.16 2089.45,8641.23 2086.87,8637.86C2085.22,8635.69 2085.16,8635.66 2082.45,8635.69C2079.81,8635.72 2079.65,8635.79 2078.03,8637.81C2076.12,8640.19 2073.08,8642.05 2069.72,8642.9C2067.52,8643.45 2067.33,8643.63 2065.78,8646.71C2063.89,8650.46 2062.66,8656.59 2062.66,8662.24C2062.65,8666.57 2062.15,8667.86 2060.47,8667.86C2059.25,8667.86 2057.37,8665.53 2057.37,8664.01C2057.37,8663.42 2056.51,8663.29 2052.56,8663.28L2047.76,8663.27L2047.76,8664.99C2047.76,8666.94 2047.06,8667.86 2045.59,8667.86C2043.96,8667.86 2042.64,8666.22 2041.47,8662.72C2039.82,8657.82 2040.03,8653.55 2042.27,8646.91C2043.24,8644.03 2044.33,8641.08 2044.69,8640.37C2045.06,8639.66 2045.35,8638.24 2045.35,8637.22C2045.35,8633.61 2046.49,8633.48 2054.43,8636.14C2063.16,8639.07 2068.96,8638.69 2072.83,8634.93C2078.25,8629.67 2075.34,8618.55 2066.92,8612.35C2061.72,8608.52 2054.92,8607.33 2047.8,8609.01C2042.9,8610.17 2039.34,8612.34 2034.48,8617.17C2030.52,8621.1 2029.85,8622.03 2027.6,8626.79C2021.72,8639.26 2021.17,8640.04 2019.53,8638.4C2016.68,8635.55 2022.2,8621.52 2029.01,8614.28C2030.5,8612.7 2031.22,8611.13 2033.08,8605.5C2035.49,8598.21 2037.74,8594.16 2040.67,8591.86C2041.56,8591.16 2044.22,8589.55 2046.59,8588.28C2058.53,8581.85 2062.93,8574.77 2058.55,8569.03C2057.03,8567.04 2054.97,8566.07 2050.81,8565.38C2046.86,8564.73 2039.79,8565.96 2035.67,8568.01C2028.37,8571.66 2018.74,8584.33 2014.55,8595.81C2012.49,8601.46 2010.06,8610.74 2008.58,8618.6C2007.13,8626.29 2005.93,8629.57 2004.65,8629.33C2004.19,8629.24 2003.54,8628.63 2003.2,8627.97C2002.37,8626.32 2002.43,8620.24 2003.33,8615.41C2004.32,8610.15 2007.53,8598.23 2009.06,8594.16C2011.49,8587.71 2015.97,8579.81 2020.49,8574.02C2021.55,8572.66 2021.83,8571.9 2021.6,8571C2021.14,8569.15 2019.32,8568.66 2015.2,8569.29C2010.41,8570.01 2006.88,8571.93 2002.72,8576.09C1996.5,8582.29 1992.81,8590.14 1989.91,8603.32C1988.24,8610.93 1987.5,8615.42 1986.97,8621.24C1986.37,8627.78 1985.08,8630.82 1983.22,8630.11C1979.33,8628.61 1982.25,8604.45 1988.27,8588.4C1990.39,8582.74 1990.36,8581.73 1988.05,8581.45C1984.98,8581.08 1978.98,8585.51 1974.65,8591.32C1967.69,8600.68 1964.76,8609.14 1962.22,8627.25C1961.43,8632.88 1961.16,8648.26 1961.72,8655.36C1963.23,8674.25 1968.27,8686.31 1978.07,8694.44C1989.27,8703.73 1996.3,8707.12 2007.63,8708.67C2012.34,8709.32 2024.63,8708.94 2029.41,8708C2033.84,8707.13 2039.72,8704.74 2042.12,8702.82C2042.97,8702.14 2044.46,8700.95 2045.43,8700.18C2046.4,8699.41 2048.83,8696.85 2050.84,8694.49C2055.76,8688.7 2059.69,8685.46 2063.73,8683.88C2065.55,8683.17 2067.13,8682.42 2067.26,8682.21C2067.57,8681.71 2064.5,8679.75 2061.33,8678.41Z" style="fill:white;fill-rule:nonzero;"/>
        <path d="M2085,8614.04C2081.83,8616.67 2079.74,8618.74 2079.77,8619.23C2079.81,8619.68 2080.18,8621.33 2080.61,8622.91C2081.04,8624.48 2081.4,8626.7 2081.4,8627.83L2081.4,8629.89L2083.44,8629.93C2084.56,8629.95 2085.91,8630.15 2086.44,8630.38C2086.97,8630.6 2087.65,8630.8 2087.95,8630.82C2088.25,8630.84 2090.52,8628.43 2093,8625.46L2093,8625.45C2095.47,8622.49 2099.33,8617.97 2101.58,8615.42C2109.69,8606.22 2122.77,8590.28 2127.16,8584.24C2128.8,8581.99 2132.31,8577.45 2134.98,8574.15C2144.14,8562.79 2146.27,8559.48 2146.27,8556.62C2146.27,8554.98 2146.21,8554.92 2145.19,8555.46C2144.6,8555.77 2132,8568.1 2117.2,8582.84C2102.4,8597.59 2087.91,8611.63 2085,8614.04Z" style="fill:rgb(225,244,42);fill-rule:nonzero;"/>
        <path d="M2013.82,8714.79L2007.04,8714.5L2006.7,8720.05C2006.32,8726.09 2005.55,8729.75 2003.99,8732.8C2003.45,8733.87 2003.09,8734.85 2003.21,8734.97C2003.33,8735.09 2004.81,8735.37 2006.49,8735.61C2010.66,8736.18 2017.02,8735.74 2018.06,8734.8C2018.51,8734.4 2019.38,8732.63 2019.98,8730.88C2020.91,8728.21 2021.08,8726.7 2021.08,8721.6C2021.08,8718.25 2020.98,8715.42 2020.85,8715.3C2020.71,8715.18 2017.55,8714.95 2013.82,8714.79Z" style="fill:white;fill-rule:nonzero;"/>
        <path d="M1997.78,8712.35C1990.01,8710.17 1982.29,8705.67 1974.23,8698.62C1970.09,8695 1969.48,8694.7 1967.36,8695.28C1965.2,8695.88 1963.5,8697.88 1962.44,8701.07C1960.34,8707.39 1963.64,8715.09 1971.69,8722.69C1976.75,8727.46 1986,8731.99 1993.69,8733.46C1998.65,8734.41 1998.75,8734.37 2000.57,8730.79C2002.02,8727.94 2002.23,8727 2002.71,8721.05C2003.06,8716.91 2003.09,8714.32 2002.8,8714.05C2002.55,8713.82 2000.29,8713.06 1997.78,8712.35Z" style="fill:rgb(225,244,42);fill-rule:nonzero;"/>
        <path d="M2034.94,8713.12C2033.44,8712.98 2025.7,8714.26 2025.23,8714.73C2025.09,8714.87 2024.96,8718.06 2024.93,8721.82C2024.88,8727.4 2024.69,8729.17 2023.88,8731.46L2022.88,8734.27L2024.36,8733.98C2025.17,8733.82 2026.95,8733.17 2028.32,8732.54C2034.92,8729.52 2038.21,8722.92 2036.84,8715.43C2036.48,8713.46 2036.31,8713.26 2034.94,8713.12Z" style="fill:rgb(225,244,42);fill-rule:nonzero;"/>
        <path d="M2082.09,8661.52L2081.24,8658.79L2079.14,8663.08C2076.84,8667.79 2072.74,8672.63 2069.11,8674.92C2067.94,8675.66 2066.99,8676.38 2066.99,8676.51C2067,8676.64 2067.89,8677.4 2068.98,8678.19C2073.06,8681.17 2078.25,8688.79 2079.21,8693.21C2079.55,8694.77 2080.43,8695.39 2080.43,8694.07C2080.43,8692.84 2084.14,8686.18 2086.19,8683.74C2087.75,8681.87 2090.57,8679.47 2093.31,8677.67C2093.39,8677.62 2091.77,8675.88 2089.71,8673.8C2085.77,8669.84 2083.57,8666.29 2082.09,8661.52Z" style="fill:white;fill-rule:nonzero;"/>
        <path d="M2146.27,8556.62C2146.27,8559.48 2144.14,8562.79 2134.98,8574.15C2132.31,8577.45 2128.8,8581.99 2127.16,8584.24C2122.77,8590.28 2109.69,8606.22 2101.58,8615.42C2099.33,8617.97 2095.47,8622.49 2093,8625.45L2093,8625.46C2090.52,8628.43 2088.25,8630.84 2087.95,8630.82C2087.65,8630.8 2086.97,8630.6 2086.44,8630.38C2085.91,8630.15 2084.56,8629.95 2083.44,8629.93L2081.4,8629.89L2081.4,8627.83C2081.4,8626.7 2081.04,8624.48 2080.61,8622.91C2080.18,8621.33 2079.81,8619.68 2079.77,8619.23C2079.74,8618.74 2081.83,8616.67 2085,8614.04C2087.91,8611.63 2102.4,8597.59 2117.2,8582.84C2132,8568.1 2144.6,8555.77 2145.19,8555.46C2146.21,8554.92 2146.27,8554.98 2146.27,8556.62ZM2093.31,8677.67C2090.57,8679.47 2087.75,8681.87 2086.19,8683.74C2084.14,8686.18 2080.43,8692.84 2080.43,8694.07C2080.43,8695.39 2079.55,8694.77 2079.21,8693.21C2078.25,8688.79 2073.06,8681.17 2068.98,8678.19C2067.89,8677.4 2067,8676.64 2066.99,8676.51C2066.99,8676.38 2067.94,8675.66 2069.11,8674.92C2072.74,8672.63 2076.84,8667.79 2079.14,8663.08L2081.24,8658.79L2082.09,8661.52C2083.57,8666.29 2085.77,8669.84 2089.71,8673.8C2091.77,8675.88 2093.39,8677.62 2093.31,8677.67ZM2059.54,8646.31C2058.87,8647.78 2058.09,8650.76 2057.79,8653C2057.49,8655.23 2057,8657.2 2056.71,8657.4C2055.65,8658.09 2050.43,8657.78 2048.72,8656.93C2046.36,8655.74 2045.92,8654.14 2047,8650.69C2049.74,8641.95 2050.68,8640.86 2054.36,8642.11C2055.58,8642.53 2057.24,8642.87 2058.05,8642.88C2060.68,8642.89 2060.89,8643.37 2059.54,8646.31ZM2067.26,8682.21C2067.13,8682.42 2065.55,8683.17 2063.73,8683.88C2059.69,8685.46 2055.76,8688.7 2050.84,8694.49C2048.83,8696.85 2046.4,8699.41 2045.43,8700.18C2044.46,8700.95 2042.97,8702.14 2042.12,8702.82C2039.72,8704.74 2033.84,8707.13 2029.41,8708C2024.63,8708.94 2012.34,8709.32 2007.63,8708.67C1996.3,8707.12 1989.27,8703.73 1978.07,8694.44C1968.27,8686.31 1963.23,8674.25 1961.72,8655.36C1961.16,8648.26 1961.43,8632.88 1962.22,8627.25C1964.76,8609.14 1967.69,8600.68 1974.65,8591.32C1978.98,8585.51 1984.98,8581.08 1988.05,8581.45C1990.36,8581.73 1990.39,8582.74 1988.27,8588.4C1982.25,8604.45 1979.33,8628.61 1983.22,8630.11C1985.08,8630.82 1986.37,8627.78 1986.97,8621.24C1987.5,8615.42 1988.24,8610.93 1989.91,8603.32C1992.81,8590.14 1996.5,8582.29 2002.72,8576.09C2006.88,8571.93 2010.41,8570.01 2015.2,8569.29C2019.32,8568.66 2021.14,8569.15 2021.6,8571C2021.83,8571.9 2021.55,8572.66 2020.49,8574.02C2015.97,8579.81 2011.49,8587.71 2009.06,8594.16C2007.53,8598.23 2004.32,8610.15 2003.33,8615.41C2002.43,8620.24 2002.37,8626.32 2003.2,8627.97C2003.54,8628.63 2004.19,8629.24 2004.65,8629.33C2005.93,8629.57 2007.13,8626.29 2008.58,8618.6C2010.06,8610.74 2012.49,8601.46 2014.55,8595.81C2018.74,8584.33 2028.37,8571.66 2035.67,8568.01C2039.79,8565.96 2046.86,8564.73 2050.81,8565.38C2054.97,8566.07 2057.03,8567.04 2058.55,8569.03C2062.93,8574.77 2058.53,8581.85 2046.59,8588.28C2044.22,8589.55 2041.56,8591.16 2040.67,8591.86C2037.74,8594.16 2035.49,8598.21 2033.08,8605.5C2031.22,8611.13 2030.5,8612.7 2029.01,8614.28C2022.2,8621.52 2016.68,8635.55 2019.53,8638.4C2021.17,8640.04 2021.72,8639.26 2027.6,8626.79C2029.85,8622.03 2030.52,8621.1 2034.48,8617.17C2039.34,8612.34 2042.9,8610.17 2047.8,8609.01C2054.92,8607.33 2061.72,8608.52 2066.92,8612.35C2075.34,8618.55 2078.25,8629.67 2072.83,8634.93C2068.96,8638.69 2063.16,8639.07 2054.43,8636.14C2046.49,8633.48 2045.35,8633.61 2045.35,8637.22C2045.35,8638.24 2045.06,8639.66 2044.69,8640.37C2044.33,8641.08 2043.24,8644.03 2042.27,8646.91C2040.03,8653.55 2039.82,8657.82 2041.47,8662.72C2042.64,8666.22 2043.96,8667.86 2045.59,8667.86C2047.06,8667.86 2047.76,8666.94 2047.76,8664.99L2047.76,8663.27L2052.56,8663.28C2056.51,8663.29 2057.37,8663.42 2057.37,8664.01C2057.37,8665.53 2059.25,8667.86 2060.47,8667.86C2062.15,8667.86 2062.65,8666.57 2062.66,8662.24C2062.66,8656.59 2063.89,8650.46 2065.78,8646.71C2067.33,8643.63 2067.52,8643.45 2069.72,8642.9C2073.08,8642.05 2076.12,8640.19 2078.03,8637.81C2079.65,8635.79 2079.81,8635.72 2082.45,8635.69C2085.16,8635.66 2085.22,8635.69 2086.87,8637.86C2089.45,8641.23 2090.23,8644.16 2089.88,8649.08C2089.6,8652.99 2087.65,8660.83 2086.73,8661.75C2085.99,8662.49 2084.26,8655.63 2083.55,8649.12C2083.02,8644.29 2082.01,8643.21 2079.95,8645.27C2079.26,8645.97 2078.99,8646.87 2078.99,8648.56C2078.99,8654.11 2075.57,8663.1 2071.81,8667.45C2069.47,8670.15 2065.54,8672.83 2062.35,8673.9C2057.87,8675.41 2057.55,8676.82 2061.33,8678.41C2064.5,8679.75 2067.57,8681.71 2067.26,8682.21ZM2028.32,8732.54C2026.95,8733.17 2025.17,8733.82 2024.36,8733.98L2022.88,8734.27L2023.88,8731.46C2024.69,8729.17 2024.88,8727.4 2024.93,8721.82C2024.96,8718.06 2025.09,8714.87 2025.23,8714.73C2025.7,8714.26 2033.44,8712.98 2034.94,8713.12C2036.31,8713.26 2036.48,8713.46 2036.84,8715.43C2038.21,8722.92 2034.92,8729.52 2028.32,8732.54ZM2019.98,8730.88C2019.38,8732.63 2018.51,8734.4 2018.06,8734.8C2017.02,8735.74 2010.66,8736.18 2006.49,8735.61C2004.81,8735.37 2003.33,8735.09 2003.21,8734.97C2003.09,8734.85 2003.45,8733.87 2003.99,8732.8C2005.55,8729.75 2006.32,8726.09 2006.7,8720.05L2007.04,8714.5L2013.82,8714.79C2017.55,8714.95 2020.71,8715.18 2020.85,8715.3C2020.98,8715.42 2021.08,8718.25 2021.08,8721.6C2021.08,8726.7 2020.91,8728.21 2019.98,8730.88ZM2002.71,8721.05C2002.23,8727 2002.02,8727.94 2000.57,8730.79C1998.75,8734.37 1998.65,8734.41 1993.69,8733.46C1986,8731.99 1976.75,8727.46 1971.69,8722.69C1963.64,8715.09 1960.34,8707.39 1962.44,8701.07C1963.5,8697.88 1965.2,8695.88 1967.36,8695.28C1969.48,8694.7 1970.09,8695 1974.23,8698.62C1982.29,8705.67 1990.01,8710.17 1997.78,8712.35C2000.29,8713.06 2002.55,8713.82 2002.8,8714.05C2003.09,8714.32 2003.06,8716.91 2002.71,8721.05ZM2105.3,8586.56L2077.07,8614.87L2076.08,8613.27C2074.96,8611.46 2070.25,8607.37 2067.28,8605.64C2064.33,8603.92 2058.62,8602.5 2054.66,8602.5C2050.77,8602.5 2045.05,8603.49 2042.37,8604.63C2041.38,8605.05 2040.46,8605.39 2040.32,8605.39C2039.55,8605.39 2040.27,8601.93 2041.47,8599.83C2043.11,8596.97 2044.98,8595.45 2049.94,8592.91C2057.32,8589.14 2063.1,8583.53 2065.22,8578.1C2067.88,8571.27 2063.56,8563.03 2056.09,8560.69C2048.03,8558.17 2035.74,8560.28 2029.14,8565.32L2027.55,8566.53L2026,8565.59C2023.4,8564.02 2020.78,8563.41 2017,8563.47C2009.91,8563.6 2004.2,8566.35 1998.09,8572.59L1994.79,8575.96L1990.85,8575.71C1984.3,8575.3 1980.77,8576.86 1974.31,8582.99C1971.62,8585.54 1967.1,8591.78 1964.65,8596.32C1961.54,8602.09 1959.07,8610.55 1957.39,8621.19C1956.01,8629.95 1955.91,8631.44 1955.92,8643.1C1955.93,8649.98 1956.16,8657.72 1956.43,8660.31C1957.14,8667.01 1958.96,8674.62 1961.23,8680.34C1962.6,8683.8 1963.18,8685.98 1963.18,8687.69C1963.18,8689.93 1963,8690.3 1960.85,8692.57C1954.06,8699.75 1954.57,8710.44 1962.19,8720.67C1970.12,8731.32 1980.78,8737.06 1998.02,8739.96C2002.51,8740.72 2007.05,8741.42 2008.11,8741.52C2009.17,8741.62 2010.32,8741.74 2010.67,8741.78C2011.03,8741.83 2013.4,8741.63 2015.96,8741.34C2029.07,8739.86 2037,8735.79 2040.44,8728.8C2042.58,8724.44 2043.28,8720.11 2042.55,8715.75C2041.81,8711.36 2042.31,8709.74 2044.95,8707.99C2047.73,8706.15 2050.6,8703.39 2055.69,8697.63C2058.15,8694.84 2061.03,8691.96 2062.09,8691.23C2064.08,8689.85 2070.42,8687.08 2071.59,8687.08C2073.54,8687.08 2077.06,8698.11 2077.07,8704.24C2077.07,8707.19 2077.23,8707.86 2078.13,8708.69C2078.7,8709.23 2079.44,8709.67 2079.75,8709.67C2080.85,8709.67 2081.91,8707.24 2082.35,8703.7C2083.37,8695.73 2085.66,8690.2 2089.83,8685.7C2092.49,8682.83 2096.51,8679.88 2097.78,8679.87C2098.15,8679.87 2099.28,8679.64 2100.29,8679.36C2101.73,8678.96 2102.09,8678.64 2101.97,8677.89C2101.82,8676.91 2100.98,8676.34 2097.55,8674.86C2095.34,8673.91 2091.88,8671.17 2090.8,8669.51C2090.08,8668.42 2090.1,8668.21 2090.99,8666.45C2092.37,8663.75 2094.32,8657.64 2095.13,8653.52C2095.99,8649.06 2095.99,8645.77 2095.09,8642.27C2094.71,8640.75 2094.09,8638.33 2093.73,8636.91C2093.02,8634.1 2093.24,8633.22 2095.06,8631.58C2096.22,8630.52 2105.94,8619.34 2110.43,8613.88C2111.99,8611.99 2114.8,8608.62 2116.67,8606.4C2123.33,8598.52 2127.73,8593.05 2132.36,8586.88C2134.94,8583.45 2139.62,8577.47 2142.74,8573.61C2151.05,8563.35 2153.43,8558.25 2151.91,8553.98C2151.09,8551.68 2148.64,8550.12 2145.84,8550.12C2143.78,8550.12 2143.27,8550.41 2138.58,8554.18C2135.63,8556.56 2121.82,8570 2105.3,8586.56Z" style="fill-rule:nonzero;"/>
        <path d="M2006.87,8676.11C2005.01,8674.64 2004.42,8673.48 2003.79,8670.06C2003.22,8666.94 2002.21,8665.81 2000.94,8666.86C2000.44,8667.28 2000.18,8668.29 2000.18,8669.83C2000.18,8673.24 1999.03,8673.87 1992.74,8673.87C1986.6,8673.87 1984.37,8672.85 1980.51,8668.32C1977.84,8665.17 1976.54,8664.5 1976.23,8666.11C1975.65,8669.16 1980.67,8675.15 1985.15,8676.75C1986.41,8677.2 1989.5,8677.67 1992.01,8677.81C1995.79,8678.01 1997,8677.89 1999.02,8677.12L2001.47,8676.18L2003.45,8678.03C2004.85,8679.33 2005.86,8679.87 2006.89,8679.87C2009.07,8679.87 2009.06,8677.86 2006.87,8676.11Z" style="fill-rule:nonzero;"/>
        <path d="M1984,8653.28C1985.19,8654.97 1985.75,8655.38 1986.71,8655.27C1987.6,8655.16 1987.96,8654.8 1988.07,8653.92C1988.27,8652.12 1985.75,8648.49 1983.55,8647.42C1980.98,8646.18 1976.95,8646.23 1974.47,8647.54C1970.92,8649.41 1968.25,8653.23 1969.47,8654.7C1970.34,8655.74 1971.02,8655.5 1973.03,8653.45C1977.06,8649.32 1981.16,8649.25 1984,8653.28Z" style="fill-rule:nonzero;"/>
        <path d="M2015.9,8646.58C2015.05,8646.97 2014.27,8648.4 2012.77,8652.31C2009.06,8662.03 2008.75,8664.92 2011.15,8667.5C2013.32,8669.83 2016.8,8668.82 2018.14,8665.46C2019.44,8662.22 2019.02,8648.06 2017.58,8646.62C2017.18,8646.22 2016.72,8646.21 2015.9,8646.58Z" style="fill-rule:nonzero;"/>
        <path d="M2131.7,8637.1C2130.55,8637.92 2128.79,8639.67 2127.78,8640.99C2126.77,8642.31 2125.48,8644.69 2124.91,8646.27C2123.95,8648.92 2123.21,8649.55 2123.2,8647.72C2123.18,8645.14 2119.1,8639.29 2115.46,8636.64L2113.72,8635.38L2116.42,8633.23C2119.49,8630.79 2121.97,8627.37 2122.8,8624.44C2123.65,8621.46 2123.95,8621.42 2124.85,8624.15C2125.29,8625.52 2126.16,8627.42 2126.77,8628.38C2128.01,8630.34 2132.5,8634.7 2133.28,8634.7C2134.33,8634.7 2133.7,8635.66 2131.7,8637.1ZM2129.48,8625.15C2128.41,8623.06 2126.78,8616.92 2126.29,8613.16C2125.93,8610.44 2125.13,8609.23 2123.68,8609.23C2122.42,8609.23 2122.31,8609.51 2120.99,8616.09C2119.24,8624.77 2116.95,8628.78 2111.71,8632.33C2108.39,8634.59 2108.17,8635.51 2110.52,8637.32C2111.55,8638.12 2113.61,8639.98 2115.09,8641.45C2118.27,8644.63 2119.4,8647.24 2121.04,8655.31C2121.66,8658.32 2122.45,8660.97 2122.8,8661.19C2123.16,8661.41 2123.7,8661.6 2124.02,8661.6C2124.89,8661.62 2126.09,8659.64 2126.09,8658.2C2126.09,8656.08 2128.32,8647.99 2129.59,8645.47C2130.66,8643.37 2132.87,8641.03 2137.57,8637.04C2138.39,8636.34 2139.06,8635.54 2139.06,8635.26C2139.06,8634.99 2137.8,8633.78 2136.26,8632.6C2132.92,8630.03 2130.76,8627.66 2129.48,8625.15Z" style="fill-rule:nonzero;"/>
        <path d="M2077.97,8570.75C2081.04,8568.31 2083.52,8564.9 2084.35,8561.97C2085.2,8558.99 2085.51,8558.95 2086.4,8561.68C2086.85,8563.04 2087.72,8564.95 2088.33,8565.91C2089.57,8567.87 2094.06,8572.23 2094.83,8572.23C2095.88,8572.23 2095.25,8573.19 2093.25,8574.62C2092.11,8575.45 2090.34,8577.2 2089.34,8578.52C2088.33,8579.84 2087.04,8582.21 2086.47,8583.8C2085.5,8586.45 2084.77,8587.07 2084.75,8585.24C2084.74,8582.66 2080.65,8576.81 2077.01,8574.17L2075.27,8572.9L2077.97,8570.75ZM2076.64,8578.98C2079.83,8582.15 2080.95,8584.77 2082.6,8592.84C2083.21,8595.85 2084,8598.49 2084.36,8598.72C2084.71,8598.94 2085.26,8599.13 2085.57,8599.13C2086.44,8599.14 2087.64,8597.17 2087.64,8595.73C2087.64,8593.61 2089.87,8585.51 2091.15,8583C2092.21,8580.89 2094.42,8578.56 2099.13,8574.57C2099.95,8573.87 2100.62,8573.07 2100.62,8572.79C2100.62,8572.51 2099.36,8571.31 2097.81,8570.12C2094.48,8567.56 2092.32,8565.18 2091.04,8562.68C2089.97,8560.58 2088.33,8554.44 2087.84,8550.69C2087.49,8547.97 2086.69,8546.76 2085.23,8546.76C2083.98,8546.76 2083.86,8547.04 2082.54,8553.62C2080.8,8562.3 2078.51,8566.31 2073.27,8569.86C2069.95,8572.11 2069.73,8573.04 2072.08,8574.85C2073.11,8575.65 2075.16,8577.5 2076.64,8578.98Z" style="fill-rule:nonzero;"/>
    </g>
</svg>
