<?xml version="1.0" encoding="UTF-8" standalone="no"?>
<!DOCTYPE svg PUBLIC "-//W3C//DTD SVG 1.1//EN" "http://www.w3.org/Graphics/SVG/1.1/DTD/svg11.dtd">
<svg width="100%" height="100%" viewBox="0 0 1096 1081" version="1.1" xmlns="http://www.w3.org/2000/svg" xmlns:xlink="http://www.w3.org/1999/xlink" xml:space="preserve" xmlns:serif="http://www.serif.com/" style="fill-rule:evenodd;clip-rule:evenodd;stroke-linejoin:round;stroke-miterlimit:2;">
    <g transform="matrix(5.55556,0,0,5.55556,-10829.2,-48653.1)">
        <path d="M2086.44,8818.56C2086.64,8818.79 2088.57,8817.27 2090.72,8815.2C2092.87,8813.12 2095.15,8811.22 2095.78,8810.98C2098.13,8810.07 2099.38,8812.78 2099.38,8818.79L2099.39,8822.31L2101.19,8821.21C2102.18,8820.61 2104.35,8819.08 2106.02,8817.81C2109.46,8815.2 2111.36,8814.84 2112.57,8816.57C2113.63,8818.08 2113.51,8819.8 2112.07,8823.54C2110.38,8827.95 2108.01,8834.87 2108.16,8834.98C2108.22,8835.04 2109.47,8835.46 2110.92,8835.93C2116.61,8837.76 2119.09,8839.46 2119.09,8841.52C2119.09,8843.04 2117.18,8844.49 2112.48,8846.57L2109.94,8847.7L2112.11,8849.78C2113.91,8851.5 2114.28,8852.16 2114.28,8853.62C2114.28,8855.18 2114.07,8855.48 2112.38,8856.34C2111.33,8856.88 2110.2,8857.32 2109.86,8857.32C2109.52,8857.32 2108.93,8857.52 2108.55,8857.76C2108,8858.11 2108.13,8858.5 2109.27,8859.88C2110.05,8860.81 2110.83,8861.58 2111.02,8861.6C2111.21,8861.62 2114.24,8860.27 2117.75,8858.59C2130.51,8852.51 2136.39,8849.45 2136.39,8848.89C2136.39,8848.07 2131.79,8843.84 2128.56,8841.7C2124.86,8839.24 2124.51,8837.93 2127.03,8835.95C2130.12,8833.5 2138.79,8824.97 2138.79,8824.37C2138.79,8823.83 2134.12,8823.24 2123.31,8822.43C2118.33,8822.06 2117.6,8821.54 2118.77,8819.22C2119.83,8817.11 2124.2,8806.44 2125.69,8802.29C2126.36,8800.44 2127.74,8797.11 2128.76,8794.89C2129.79,8792.68 2130.62,8790.67 2130.62,8790.44C2130.62,8789.83 2121.95,8794.31 2116.93,8797.51C2110.42,8801.66 2100.47,8807.33 2099.72,8807.33C2098.18,8807.33 2097.47,8805.53 2096.54,8799.21C2096.03,8795.7 2095.51,8792.73 2095.39,8792.61C2095.27,8792.49 2092.55,8795.77 2089.34,8799.9L2083.51,8807.41L2084.79,8812.78C2085.49,8815.73 2086.23,8818.33 2086.44,8818.56Z" style="fill:rgb(225,244,42);fill-rule:nonzero;"/>
        <path d="M2095.21,8816.49C2095,8816.5 2093.11,8818.1 2091.02,8820.03L2087.22,8823.56L2089.23,8831.91C2090.53,8837.29 2091.71,8841.05 2092.56,8842.5C2094.17,8845.25 2104.04,8854.37 2105.39,8854.36C2105.92,8854.36 2107.21,8854.1 2108.25,8853.78L2110.14,8853.21L2107.4,8850.88C2105.89,8849.58 2104.67,8848.15 2104.67,8847.65C2104.67,8846.51 2107.68,8844.31 2111.15,8842.9C2112.61,8842.31 2113.8,8841.65 2113.8,8841.44C2113.8,8841.05 2111.82,8840.23 2107.12,8838.7C2105.68,8838.23 2104.29,8837.48 2104.01,8837.03C2103.44,8836.12 2104.57,8832.14 2107.37,8825.15C2108.26,8822.92 2108.88,8821 2108.75,8820.86C2108.62,8820.73 2108.03,8821.08 2107.43,8821.63C2105.8,8823.14 2098.38,8827.52 2097.44,8827.52C2095.72,8827.52 2095.29,8826.16 2095.45,8821.2C2095.53,8818.59 2095.42,8816.48 2095.21,8816.49Z" style="fill:white;fill-rule:nonzero;"/>
        <path d="M2011.44,8801.57C2013.2,8801.57 2018.72,8812.99 2018.77,8816.74C2018.83,8820.84 2014.8,8822.86 2012.18,8820.04C2010.75,8818.49 2010.13,8815.7 2009.75,8808.94C2009.42,8803.18 2009.8,8801.57 2011.44,8801.57ZM2021.29,8828.39C2021.96,8827.61 2022.5,8826.49 2022.5,8825.92C2022.5,8824.03 2023.5,8821.22 2024.28,8820.93C2025.25,8820.55 2026.34,8822.01 2026.34,8823.68C2026.34,8824.75 2026.73,8825.1 2029,8826.04C2034.26,8828.22 2040.83,8826.83 2045.94,8822.45C2048.22,8820.5 2048.39,8819.79 2047,8818.04C2045.87,8816.59 2045.75,8814.63 2046.77,8814.23C2047.18,8814.08 2048.29,8814.56 2049.29,8815.33C2050.5,8816.25 2051.86,8816.78 2053.44,8816.94C2054.96,8817.1 2055.98,8817.48 2056.32,8818.03C2057.13,8819.32 2056.11,8820.52 2054.05,8820.7C2052.62,8820.82 2052.04,8821.22 2050.81,8822.93C2049.05,8825.39 2046.19,8827.54 2042.33,8829.32C2038.4,8831.13 2031.83,8831.44 2028.51,8829.97C2025.68,8828.72 2025.52,8828.72 2025.13,8829.95C2024.95,8830.5 2024.13,8831.36 2023.29,8831.87C2021.5,8832.97 2021.42,8832.98 2020.67,8832.23C2019.76,8831.32 2019.99,8829.94 2021.29,8828.39ZM2048.92,8790.99C2050.68,8790.99 2056.2,8802.41 2056.26,8806.17C2056.32,8810.27 2052.28,8812.29 2049.67,8809.47C2048.23,8807.92 2047.62,8805.13 2047.23,8798.36C2046.91,8792.61 2047.28,8790.99 2048.92,8790.99ZM1988.16,8837.13C1991.13,8850.84 1992.53,8856.35 1993.02,8856.35C1993.14,8856.35 1996.2,8855.41 1999.82,8854.25C2003.44,8853.1 2008.99,8851.39 2012.16,8850.45C2015.34,8849.51 2021.82,8847.55 2026.58,8846.09C2031.34,8844.63 2037.29,8842.87 2039.8,8842.17C2042.31,8841.47 2047.82,8839.75 2052.05,8838.34C2056.28,8836.93 2062.12,8835.08 2065.03,8834.23C2067.93,8833.38 2070.5,8832.52 2070.72,8832.31C2070.95,8832.1 2069.78,8827.1 2068.14,8821.2C2064.47,8808.05 2064.66,8808.84 2062.64,8799.16C2061.3,8792.8 2058.28,8781.04 2057.86,8780.56C2057.72,8780.4 2048.91,8783.09 2041,8785.72C2037.03,8787.03 2030.55,8789.05 2026.58,8790.2C2022.62,8791.34 2016.35,8793.2 2012.64,8794.31C2008.94,8795.43 2003.86,8796.97 2001.35,8797.72C1998.84,8798.48 1993.97,8799.96 1990.54,8801.02C1987.1,8802.07 1983.37,8803.18 1982.25,8803.47C1980.69,8803.88 1980.21,8804.24 1980.21,8804.98C1980.21,8806.16 1981.98,8813.32 1984.55,8822.47C1985.59,8826.17 1987.21,8832.77 1988.16,8837.13Z" style="fill:rgb(225,244,42);fill-rule:nonzero;"/>
        <path d="M2090.85,8866.41C2087.48,8867.46 2083.32,8868.66 2081.61,8869.09C2079.89,8869.51 2070.05,8872.65 2059.74,8876.07C2040.64,8882.39 2031.1,8885.22 2020.81,8887.6C2017.64,8888.34 2013.97,8889.36 2012.64,8889.88C2009.75,8891.01 2007.3,8891.39 2005.68,8890.98C2004.17,8890.59 2003.87,8889.26 2005.15,8888.57C2007.31,8887.42 2014.78,8885.04 2020.27,8883.75C2030.47,8881.37 2038.1,8879.1 2058.3,8872.46C2069.13,8868.89 2080.11,8865.44 2082.69,8864.78C2085.26,8864.12 2088.95,8863.04 2090.89,8862.37C2094.89,8860.99 2096.61,8860.85 2097.44,8861.85C2098.71,8863.39 2097.22,8864.42 2090.85,8866.41ZM2103.2,8870.5C2104.48,8872.04 2102.99,8873.07 2096.61,8875.06C2093.25,8876.11 2089.09,8877.31 2087.37,8877.74C2085.65,8878.16 2075.81,8881.3 2065.51,8884.72C2046.41,8891.04 2036.87,8893.87 2026.58,8896.25C2023.41,8896.99 2019.73,8898.01 2018.41,8898.53C2015.52,8899.66 2013.06,8900.04 2011.45,8899.63C2009.93,8899.24 2009.64,8897.91 2010.91,8897.22C2013.07,8896.07 2020.55,8893.69 2026.04,8892.4C2036.23,8890.02 2043.87,8887.75 2064.06,8881.11C2074.9,8877.54 2085.93,8874.07 2088.57,8873.38C2091.22,8872.7 2094.91,8871.61 2096.78,8870.97C2100.67,8869.64 2102.39,8869.51 2103.2,8870.5ZM2101.49,8901.45C2101.1,8902.57 2100.25,8902.91 2091.93,8905.25C2086.91,8906.66 2077.51,8909.36 2071.03,8911.24C2064.36,8913.18 2057.98,8914.76 2056.3,8914.88L2053.35,8915.09L2049.5,8910.44C2047.38,8907.88 2045.04,8904.62 2044.29,8903.19C2043.09,8900.9 2043.01,8900.51 2043.64,8899.92C2044.86,8898.78 2051.97,8896.33 2064.79,8892.65C2087.82,8886.02 2089.64,8885.56 2090.7,8886.13C2092.14,8886.9 2101.3,8897.73 2101.64,8899.06C2101.8,8899.7 2101.73,8900.77 2101.49,8901.45ZM1997.99,8884.25C1996.48,8883.86 1996.18,8882.53 1997.46,8881.85C1999.62,8880.69 2007.09,8878.31 2012.58,8877.03C2022.78,8874.64 2030.41,8872.37 2050.61,8865.73C2061.45,8862.16 2072.42,8858.71 2075,8858.05C2077.57,8857.4 2081.27,8856.31 2083.2,8855.64C2087.2,8854.26 2088.92,8854.13 2089.75,8855.12C2091.03,8856.66 2089.53,8857.69 2083.16,8859.68C2079.79,8860.73 2075.63,8861.94 2073.92,8862.36C2072.2,8862.79 2062.36,8865.93 2052.05,8869.34C2032.95,8875.66 2023.41,8878.49 2013.13,8880.87C2009.95,8881.61 2006.28,8882.63 2004.96,8883.15C2002.06,8884.28 1999.61,8884.66 1997.99,8884.25ZM2089.26,8848.66C2087.79,8848.66 2084.47,8849.63 2069.35,8854.45C2061.95,8856.8 2052.87,8859.63 2049.17,8860.72C2045.47,8861.81 2040.09,8863.45 2037.22,8864.35C2034.35,8865.26 2029.48,8866.62 2026.41,8867.37C2015.66,8870 2007.32,8872.33 2002.07,8874.16C1999.16,8875.18 1993.98,8876.79 1990.55,8877.75C1987.11,8878.72 1984.12,8879.61 1983.9,8879.75C1983.68,8879.89 1985.1,8881.65 1987.04,8883.67C1988.99,8885.69 1993.38,8890.7 1996.79,8894.8C2011.14,8912.05 2028.58,8930.97 2029.7,8930.51C2030.1,8930.34 2032.59,8929.51 2035.23,8928.65C2052.25,8923.1 2059.5,8920.93 2068.87,8918.56C2074.69,8917.09 2081.71,8915.16 2084.49,8914.28C2093.18,8911.52 2099.01,8909.79 2103.01,8908.78C2105.14,8908.24 2109.02,8907.02 2111.65,8906.07C2116.24,8904.41 2133.27,8899.12 2134.03,8899.12C2134.24,8899.12 2134.98,8898.9 2135.68,8898.64L2136.95,8898.15L2135.65,8896.6C2134.93,8895.74 2131.91,8892.44 2128.93,8889.27C2125.95,8886.1 2122.68,8882.5 2121.66,8881.27C2119.3,8878.43 2106.51,8865.02 2097.36,8855.8C2092.67,8851.07 2089.93,8848.66 2089.26,8848.66Z" style="fill:white;fill-rule:nonzero;"/>
        <path d="M2098.66,8915.98C2094.96,8917.07 2089.59,8918.71 2086.72,8919.62C2083.85,8920.53 2078.98,8921.88 2075.91,8922.64C2065.12,8925.28 2057.05,8927.54 2050.97,8929.62C2036.72,8934.49 2027.74,8936.34 2025.35,8934.89C2023.78,8933.94 2004.38,8912.83 1997.74,8904.84C1996.95,8903.9 1994.24,8900.65 1991.72,8897.64C1989.2,8894.62 1985.86,8890.54 1984.3,8888.58C1981.58,8885.15 1981.45,8885.05 1981.13,8886.24C1980.72,8887.77 1981.38,8894.43 1982.16,8896.72C1982.48,8897.64 1983.76,8899.48 1985.01,8900.8C1986.27,8902.12 1990.18,8906.67 1993.7,8910.9C2007.35,8927.26 2021.4,8942.57 2021.84,8941.54C2022.46,8940.07 2023.83,8938.86 2024.55,8939.14C2024.98,8939.3 2025.67,8940.71 2026.13,8942.34C2027.01,8945.47 2027.03,8945.48 2029.65,8944.8C2036.65,8942.98 2043.44,8940.99 2049.41,8938.99C2053.24,8937.71 2061.57,8935.34 2067.91,8933.73C2074.25,8932.11 2081.71,8930.06 2084.49,8929.18C2093.14,8926.43 2099,8924.69 2102.99,8923.68C2105.1,8923.14 2109.24,8921.84 2112.18,8920.79C2116.97,8919.08 2129.85,8915.13 2136.14,8913.43C2138.14,8912.9 2138.72,8912.47 2139.62,8910.88C2140.71,8908.95 2141.09,8905.26 2140.32,8904.05C2139.8,8903.23 2135.68,8904.31 2118.85,8909.69C2111.45,8912.06 2102.37,8914.89 2098.66,8915.98Z" style="fill:white;fill-rule:nonzero;"/>
        <path d="M1997.51,8924.59C1997.34,8924.59 1996.87,8925.3 1996.45,8926.17C1995.1,8929.02 1993.23,8930.84 1991.67,8930.84C1990.43,8930.84 1990.12,8930.54 1989.25,8928.56C1987.51,8924.55 1987.39,8924.49 1983.48,8925.82C1981.62,8926.46 1979.12,8927.52 1977.93,8928.19C1975.53,8929.53 1974.44,8929.68 1973.58,8928.82C1972.66,8927.91 1972.85,8927.18 1975.42,8921.57C1976.76,8918.66 1977.78,8916.01 1977.71,8915.67C1977.63,8915.33 1976.5,8914.34 1975.2,8913.46C1969.74,8909.77 1969.87,8907.78 1975.76,8905.02C1977.81,8904.06 1979.58,8903.21 1979.69,8903.12C1979.8,8903.03 1979.34,8902.36 1978.67,8901.64C1977.55,8900.44 1976.45,8897.7 1975.68,8894.2C1975.39,8892.91 1975.3,8892.87 1971.97,8892.87C1968.93,8892.87 1959.63,8894.14 1959.1,8894.62C1958.98,8894.72 1959.23,8895.07 1959.65,8895.4C1961.15,8896.59 1966.74,8903.96 1967.04,8905.15C1967.45,8906.78 1966.52,8907.73 1961.88,8910.46C1959.8,8911.67 1958.01,8912.82 1957.89,8913.01C1957.77,8913.2 1960.31,8914.54 1963.53,8915.99C1971.21,8919.44 1971.14,8918.76 1965.13,8931.09C1962.62,8936.24 1960.12,8941.08 1959.57,8941.85C1959.03,8942.61 1958.58,8943.37 1958.58,8943.52C1958.58,8943.87 1963.49,8942.01 1967.84,8940.01C1969.63,8939.18 1974.37,8937.2 1978.37,8935.59C1987.36,8931.99 1987.32,8931.99 1988.85,8937.65C1990.05,8942.11 1991.68,8946.7 1992.06,8946.7C1992.2,8946.7 1992.72,8946.21 1993.22,8945.62C1993.72,8945.02 1996.2,8941.45 1998.72,8937.67L2003.32,8930.82L2000.57,8927.7C1999.05,8925.99 1997.68,8924.59 1997.51,8924.59Z" style="fill:rgb(225,244,42);fill-rule:nonzero;"/>
        <path d="M1994.31,8920.58C1992.67,8918.46 1982.48,8906.33 1982.35,8906.33C1982.28,8906.33 1980.76,8906.98 1978.98,8907.78L1975.73,8909.24L1977.85,8910.58C1979.01,8911.32 1980.35,8912.3 1980.81,8912.77C1981.99,8913.95 1981.86,8916.43 1980.42,8919.85C1979.74,8921.46 1979.26,8922.84 1979.34,8922.92C1979.42,8923 1981.08,8922.54 1983.03,8921.91C1984.98,8921.27 1987.08,8920.75 1987.7,8920.75C1988.97,8920.75 1990.24,8921.94 1991.55,8924.37C1992.04,8925.29 1992.49,8926.03 1992.55,8926.03C1992.61,8926.03 1993.23,8925.06 1993.93,8923.87C1995.17,8921.76 1995.17,8921.7 1994.31,8920.58Z" style="fill:white;fill-rule:nonzero;"/>
        <path d="M1969.19,8868.75C1969.68,8870.95 1970.55,8873.57 1971.12,8874.58C1972.47,8877 1976.23,8878.87 1977.05,8877.54C1977.2,8877.31 1976.35,8873.14 1975.17,8868.29C1973.99,8863.44 1972.6,8857.53 1972.09,8855.15C1971.58,8852.77 1970.6,8848.45 1969.91,8845.54C1969.22,8842.63 1968.12,8837.77 1967.45,8834.73C1965.64,8826.39 1964.05,8819.71 1962.44,8813.59C1961.64,8810.55 1960.76,8805.7 1960.48,8802.8C1960.21,8799.9 1959.89,8797.43 1959.77,8797.31C1959.11,8796.65 1957.11,8798.45 1956,8800.66C1953.69,8805.3 1954.25,8810.11 1959.31,8829.2C1961.89,8838.94 1967.93,8863.13 1969.19,8868.75Z" style="fill:white;fill-rule:nonzero;"/>
        <path d="M1976.21,8802.7C1976.44,8801.29 1976.68,8801.14 1980.13,8800.14C1982.16,8799.56 1986.41,8798.27 1989.58,8797.26C1992.75,8796.26 1997.94,8794.67 2001.11,8793.74C2004.28,8792.8 2010.77,8790.84 2015.53,8789.38C2020.29,8787.93 2026.23,8786.17 2028.74,8785.48C2031.25,8784.78 2036.12,8783.26 2039.56,8782.1C2047.15,8779.53 2058.4,8776.09 2059.17,8776.11C2060.73,8776.13 2063.88,8786.38 2067.41,8802.89C2068.1,8806.12 2070.07,8813.69 2071.77,8819.71C2073.48,8825.72 2074.88,8831.56 2074.88,8832.67C2074.88,8835.24 2074.36,8835.58 2067.43,8837.6C2064.52,8838.44 2057.93,8840.51 2052.77,8842.19C2047.62,8843.88 2041.35,8845.81 2038.84,8846.5C2036.32,8847.18 2032.32,8848.38 2029.94,8849.16C2027.57,8849.94 2022.38,8851.53 2018.41,8852.69C2014.45,8853.84 2008.5,8855.61 2005.2,8856.61C1989.57,8861.33 1989.82,8861.26 1989.82,8860.91C1989.82,8860.78 1989.28,8858.65 1988.62,8856.18C1987.97,8853.71 1986.34,8846.78 1985.01,8840.77C1983.68,8834.76 1981.65,8826.46 1980.49,8822.32C1977.45,8811.4 1975.92,8804.43 1976.21,8802.7ZM2017.79,8781.48C2019.32,8779.95 2021.61,8781.85 2020.57,8783.79C2020.08,8784.71 2018.21,8785.1 2017.53,8784.43C2017.01,8783.91 2017.16,8782.1 2017.79,8781.48ZM1968.9,8815.5C1970.34,8821.45 1971.65,8827.07 1971.81,8828C1971.97,8828.92 1972.98,8833.46 1974.04,8838.09C1975.11,8842.72 1977.02,8851.04 1978.3,8856.59C1981.67,8871.23 1982.36,8874.13 1982.47,8874.13C1982.52,8874.13 1985.87,8873.17 1989.92,8872C1993.96,8870.83 1998.06,8869.53 1999.03,8869.12C2001.27,8868.18 2013.89,8864.62 2022.98,8862.37C2026.81,8861.42 2032.22,8859.91 2034.99,8859.01C2037.77,8858.12 2043.17,8856.5 2047,8855.41C2050.84,8854.32 2058.19,8852.05 2063.34,8850.36C2068.5,8848.66 2075.42,8846.49 2078.72,8845.53C2082.03,8844.56 2085.02,8843.68 2085.38,8843.57C2085.78,8843.45 2085.95,8842.93 2085.82,8842.29C2085.59,8841.19 2082.07,8826 2079.94,8816.95C2079.29,8814.17 2078.22,8809.63 2077.57,8806.85C2076.92,8804.08 2075.93,8799.54 2075.38,8796.76C2074.83,8793.99 2073.54,8788.58 2072.52,8784.75C2071.49,8780.92 2070.51,8777.02 2070.33,8776.1C2069.85,8773.58 2067.73,8766.47 2066.91,8764.64C2066.52,8763.75 2065.93,8763.12 2065.61,8763.23C2062.06,8764.46 2037.5,8772.22 2032.35,8773.74C2028.65,8774.83 2023.27,8776.46 2020.4,8777.37C2017.53,8778.28 2012.66,8779.64 2009.59,8780.39C1998.84,8783.02 1990.5,8785.35 1985.25,8787.18C1982.35,8788.2 1977.16,8789.8 1973.72,8790.75C1963.48,8793.59 1964.22,8793.23 1964.52,8795.25C1965.09,8799.1 1966.41,8805.2 1968.9,8815.5Z" style="fill:white;fill-rule:nonzero;"/>
        <path d="M2088.91,8889.99C2088.21,8889.99 2074.93,8893.65 2066.23,8896.24C2063.72,8896.98 2058.74,8898.41 2055.17,8899.41C2051.61,8900.41 2048.51,8901.37 2048.28,8901.56C2047.79,8901.97 2049.32,8904.3 2052.65,8908.22C2054.04,8909.85 2055.17,8911.39 2055.17,8911.64C2055.17,8912.33 2055.74,8912.22 2059.92,8910.68C2062.03,8909.9 2069.99,8907.5 2077.61,8905.34C2096.26,8900.06 2097.24,8899.77 2097.15,8899.38C2096.92,8898.45 2089.51,8889.99 2088.91,8889.99Z" style="fill:white;fill-rule:nonzero;"/>
        <path d="M2013.13,8880.87C2023.41,8878.49 2032.95,8875.66 2052.05,8869.34C2062.36,8865.93 2072.2,8862.79 2073.92,8862.36C2075.63,8861.94 2079.79,8860.73 2083.16,8859.68C2089.53,8857.69 2091.03,8856.66 2089.75,8855.12C2088.92,8854.13 2087.2,8854.26 2083.2,8855.64C2081.27,8856.31 2077.57,8857.4 2075,8858.05C2072.42,8858.71 2061.45,8862.16 2050.61,8865.73C2030.41,8872.37 2022.78,8874.64 2012.58,8877.03C2007.09,8878.31 1999.62,8880.69 1997.46,8881.85C1996.18,8882.53 1996.48,8883.86 1997.99,8884.25C1999.61,8884.66 2002.06,8884.28 2004.96,8883.15C2006.28,8882.63 2009.95,8881.61 2013.13,8880.87Z" style="fill-rule:nonzero;"/>
        <path d="M2012.18,8820.04C2014.8,8822.86 2018.83,8820.84 2018.77,8816.74C2018.72,8812.99 2013.2,8801.57 2011.44,8801.57C2009.8,8801.57 2009.42,8803.18 2009.75,8808.94C2010.13,8815.7 2010.75,8818.49 2012.18,8820.04Z" style="fill-rule:nonzero;"/>
        <path d="M2049.67,8809.47C2052.28,8812.29 2056.32,8810.27 2056.26,8806.17C2056.2,8802.41 2050.68,8790.99 2048.92,8790.99C2047.28,8790.99 2046.91,8792.61 2047.23,8798.36C2047.62,8805.13 2048.23,8807.92 2049.67,8809.47Z" style="fill-rule:nonzero;"/>
        <path d="M2020.67,8832.23C2021.42,8832.98 2021.5,8832.97 2023.29,8831.87C2024.13,8831.36 2024.95,8830.5 2025.13,8829.95C2025.52,8828.72 2025.68,8828.72 2028.51,8829.97C2031.83,8831.44 2038.4,8831.13 2042.33,8829.32C2046.19,8827.54 2049.05,8825.39 2050.81,8822.93C2052.04,8821.22 2052.62,8820.82 2054.05,8820.7C2056.11,8820.52 2057.13,8819.32 2056.32,8818.03C2055.98,8817.48 2054.96,8817.1 2053.44,8816.94C2051.86,8816.78 2050.5,8816.25 2049.29,8815.33C2048.29,8814.56 2047.18,8814.08 2046.77,8814.23C2045.75,8814.63 2045.87,8816.59 2047,8818.04C2048.39,8819.79 2048.22,8820.5 2045.94,8822.45C2040.83,8826.83 2034.26,8828.22 2029,8826.04C2026.73,8825.1 2026.34,8824.75 2026.34,8823.68C2026.34,8822.01 2025.25,8820.55 2024.28,8820.93C2023.5,8821.22 2022.5,8824.03 2022.5,8825.92C2022.5,8826.49 2021.96,8827.61 2021.29,8828.39C2019.99,8829.94 2019.76,8831.32 2020.67,8832.23Z" style="fill-rule:nonzero;"/>
        <path d="M2017.53,8784.43C2018.21,8785.1 2020.08,8784.71 2020.57,8783.79C2021.61,8781.85 2019.32,8779.95 2017.79,8781.48C2017.16,8782.1 2017.01,8783.91 2017.53,8784.43Z" style="fill-rule:nonzero;"/>
        <path d="M2077.61,8905.34C2069.99,8907.5 2062.03,8909.9 2059.92,8910.68C2055.74,8912.22 2055.17,8912.33 2055.17,8911.64C2055.17,8911.39 2054.04,8909.85 2052.65,8908.22C2049.32,8904.3 2047.79,8901.97 2048.28,8901.56C2048.51,8901.37 2051.61,8900.41 2055.17,8899.41C2058.74,8898.41 2063.72,8896.98 2066.23,8896.24C2074.93,8893.65 2088.21,8889.99 2088.91,8889.99C2089.51,8889.99 2096.92,8898.45 2097.15,8899.38C2097.24,8899.77 2096.26,8900.06 2077.61,8905.34ZM2090.7,8886.13C2089.64,8885.56 2087.82,8886.02 2064.79,8892.65C2051.97,8896.33 2044.86,8898.78 2043.64,8899.92C2043.01,8900.51 2043.09,8900.9 2044.29,8903.19C2045.04,8904.62 2047.38,8907.88 2049.5,8910.44L2053.35,8915.09L2056.3,8914.88C2057.98,8914.76 2064.36,8913.18 2071.03,8911.24C2077.51,8909.36 2086.91,8906.66 2091.93,8905.25C2100.25,8902.91 2101.1,8902.57 2101.49,8901.45C2101.73,8900.77 2101.8,8899.7 2101.64,8899.06C2101.3,8897.73 2092.14,8886.9 2090.7,8886.13Z" style="fill-rule:nonzero;"/>
        <path d="M1956,8800.66C1957.11,8798.45 1959.11,8796.65 1959.77,8797.31C1959.89,8797.43 1960.21,8799.9 1960.48,8802.8C1960.76,8805.7 1961.64,8810.55 1962.44,8813.59C1964.05,8819.71 1965.64,8826.39 1967.45,8834.73C1968.12,8837.77 1969.22,8842.63 1969.91,8845.54C1970.6,8848.45 1971.58,8852.77 1972.09,8855.15C1972.6,8857.53 1973.99,8863.44 1975.17,8868.29C1976.35,8873.14 1977.2,8877.31 1977.05,8877.54C1976.23,8878.87 1972.47,8877 1971.12,8874.58C1970.55,8873.57 1969.68,8870.95 1969.19,8868.75C1967.93,8863.13 1961.89,8838.94 1959.31,8829.2C1954.25,8810.11 1953.69,8805.3 1956,8800.66ZM1973.72,8790.75C1977.16,8789.8 1982.35,8788.2 1985.25,8787.18C1990.5,8785.35 1998.84,8783.02 2009.59,8780.39C2012.66,8779.64 2017.53,8778.28 2020.4,8777.37C2023.27,8776.46 2028.65,8774.83 2032.35,8773.74C2037.5,8772.22 2062.06,8764.46 2065.61,8763.23C2065.93,8763.12 2066.52,8763.75 2066.91,8764.64C2067.73,8766.47 2069.85,8773.58 2070.33,8776.1C2070.51,8777.02 2071.49,8780.92 2072.52,8784.75C2073.54,8788.58 2074.83,8793.99 2075.38,8796.76C2075.93,8799.54 2076.92,8804.08 2077.57,8806.85C2078.22,8809.63 2079.29,8814.17 2079.94,8816.95C2082.07,8826 2085.59,8841.19 2085.82,8842.29C2085.95,8842.93 2085.78,8843.45 2085.38,8843.57C2085.02,8843.68 2082.03,8844.56 2078.72,8845.53C2075.42,8846.49 2068.5,8848.66 2063.34,8850.36C2058.19,8852.05 2050.84,8854.32 2047,8855.41C2043.17,8856.5 2037.77,8858.12 2034.99,8859.01C2032.22,8859.91 2026.81,8861.42 2022.98,8862.37C2013.89,8864.62 2001.27,8868.18 1999.03,8869.12C1998.06,8869.53 1993.96,8870.83 1989.92,8872C1985.87,8873.17 1982.52,8874.13 1982.47,8874.13C1982.36,8874.13 1981.67,8871.23 1978.3,8856.59C1977.02,8851.04 1975.11,8842.72 1974.04,8838.09C1972.98,8833.46 1971.97,8828.92 1971.81,8828C1971.65,8827.07 1970.34,8821.45 1968.9,8815.5C1966.41,8805.2 1965.09,8799.1 1964.52,8795.25C1964.22,8793.23 1963.48,8793.59 1973.72,8790.75ZM2089.34,8799.9C2092.55,8795.77 2095.27,8792.49 2095.39,8792.61C2095.51,8792.73 2096.03,8795.7 2096.54,8799.21C2097.47,8805.53 2098.18,8807.33 2099.72,8807.33C2100.47,8807.33 2110.42,8801.66 2116.93,8797.51C2121.95,8794.31 2130.62,8789.83 2130.62,8790.44C2130.62,8790.67 2129.79,8792.68 2128.76,8794.89C2127.74,8797.11 2126.36,8800.44 2125.69,8802.29C2124.2,8806.44 2119.83,8817.11 2118.77,8819.22C2117.6,8821.54 2118.33,8822.06 2123.31,8822.43C2134.12,8823.24 2138.79,8823.83 2138.79,8824.37C2138.79,8824.97 2130.12,8833.5 2127.03,8835.95C2124.51,8837.93 2124.86,8839.24 2128.56,8841.7C2131.79,8843.84 2136.39,8848.07 2136.39,8848.89C2136.39,8849.45 2130.51,8852.51 2117.75,8858.59C2114.24,8860.27 2111.21,8861.62 2111.02,8861.6C2110.83,8861.58 2110.05,8860.81 2109.27,8859.88C2108.13,8858.5 2108,8858.11 2108.55,8857.76C2108.93,8857.52 2109.52,8857.32 2109.86,8857.32C2110.2,8857.32 2111.33,8856.88 2112.38,8856.34C2114.07,8855.48 2114.28,8855.18 2114.28,8853.62C2114.28,8852.16 2113.91,8851.5 2112.11,8849.78L2109.94,8847.7L2112.48,8846.57C2117.18,8844.49 2119.09,8843.04 2119.09,8841.52C2119.09,8839.46 2116.61,8837.76 2110.92,8835.93C2109.47,8835.46 2108.22,8835.04 2108.16,8834.98C2108.01,8834.87 2110.38,8827.95 2112.07,8823.54C2113.51,8819.8 2113.63,8818.08 2112.57,8816.57C2111.36,8814.84 2109.46,8815.2 2106.02,8817.81C2104.35,8819.08 2102.18,8820.61 2101.19,8821.21L2099.39,8822.31L2099.38,8818.79C2099.38,8812.78 2098.13,8810.07 2095.78,8810.98C2095.15,8811.22 2092.87,8813.12 2090.72,8815.2C2088.57,8817.27 2086.64,8818.79 2086.44,8818.56C2086.23,8818.33 2085.49,8815.73 2084.79,8812.78L2083.51,8807.41L2089.34,8799.9ZM2097.44,8827.52C2098.38,8827.52 2105.8,8823.14 2107.43,8821.63C2108.03,8821.08 2108.62,8820.73 2108.75,8820.86C2108.88,8821 2108.26,8822.92 2107.37,8825.15C2104.57,8832.14 2103.44,8836.12 2104.01,8837.03C2104.29,8837.48 2105.68,8838.23 2107.12,8838.7C2111.82,8840.23 2113.8,8841.05 2113.8,8841.44C2113.8,8841.65 2112.61,8842.31 2111.15,8842.9C2107.68,8844.31 2104.67,8846.51 2104.67,8847.65C2104.67,8848.15 2105.89,8849.58 2107.4,8850.88L2110.14,8853.21L2108.25,8853.78C2107.21,8854.1 2105.92,8854.36 2105.39,8854.36C2104.04,8854.37 2094.17,8845.25 2092.56,8842.5C2091.71,8841.05 2090.53,8837.29 2089.23,8831.91L2087.22,8823.56L2091.02,8820.03C2093.11,8818.1 2095,8816.5 2095.21,8816.49C2095.42,8816.48 2095.53,8818.59 2095.45,8821.2C2095.29,8826.16 2095.72,8827.52 2097.44,8827.52ZM2121.66,8881.27C2122.68,8882.5 2125.95,8886.1 2128.93,8889.27C2131.91,8892.44 2134.93,8895.74 2135.65,8896.6L2136.95,8898.15L2135.68,8898.64C2134.98,8898.9 2134.24,8899.12 2134.03,8899.12C2133.27,8899.12 2116.24,8904.41 2111.65,8906.07C2109.02,8907.02 2105.14,8908.24 2103.01,8908.78C2099.01,8909.79 2093.18,8911.52 2084.49,8914.28C2081.71,8915.16 2074.69,8917.09 2068.87,8918.56C2059.5,8920.93 2052.25,8923.1 2035.23,8928.65C2032.59,8929.51 2030.1,8930.34 2029.7,8930.51C2028.58,8930.97 2011.14,8912.05 1996.79,8894.8C1993.38,8890.7 1988.99,8885.69 1987.04,8883.67C1985.1,8881.65 1983.68,8879.89 1983.9,8879.75C1984.12,8879.61 1987.11,8878.72 1990.55,8877.75C1993.98,8876.79 1999.16,8875.18 2002.07,8874.16C2007.32,8872.33 2015.66,8870 2026.41,8867.37C2029.48,8866.62 2034.35,8865.26 2037.22,8864.35C2040.09,8863.45 2045.47,8861.81 2049.17,8860.72C2052.87,8859.63 2061.95,8856.8 2069.35,8854.45C2084.47,8849.63 2087.79,8848.66 2089.26,8848.66C2089.93,8848.66 2092.67,8851.07 2097.36,8855.8C2106.51,8865.02 2119.3,8878.43 2121.66,8881.27ZM2140.32,8904.05C2141.09,8905.26 2140.71,8908.95 2139.62,8910.88C2138.72,8912.47 2138.14,8912.9 2136.14,8913.43C2129.85,8915.13 2116.97,8919.08 2112.18,8920.79C2109.24,8921.84 2105.1,8923.14 2102.99,8923.68C2099,8924.69 2093.14,8926.43 2084.49,8929.18C2081.71,8930.06 2074.25,8932.11 2067.91,8933.73C2061.57,8935.34 2053.24,8937.71 2049.41,8938.99C2043.44,8940.99 2036.65,8942.98 2029.65,8944.8C2027.03,8945.48 2027.01,8945.47 2026.13,8942.34C2025.67,8940.71 2024.98,8939.3 2024.55,8939.14C2023.83,8938.86 2022.46,8940.07 2021.84,8941.54C2021.4,8942.57 2007.35,8927.26 1993.7,8910.9C1990.18,8906.67 1986.27,8902.12 1985.01,8900.8C1983.76,8899.48 1982.48,8897.64 1982.16,8896.72C1981.38,8894.43 1980.72,8887.77 1981.13,8886.24C1981.45,8885.05 1981.58,8885.15 1984.3,8888.58C1985.86,8890.54 1989.2,8894.62 1991.72,8897.64C1994.24,8900.65 1996.95,8903.9 1997.74,8904.84C2004.38,8912.83 2023.78,8933.94 2025.35,8934.89C2027.74,8936.34 2036.72,8934.49 2050.97,8929.62C2057.05,8927.54 2065.12,8925.28 2075.91,8922.64C2078.98,8921.88 2083.85,8920.53 2086.72,8919.62C2089.59,8918.71 2094.96,8917.07 2098.66,8915.98C2102.37,8914.89 2111.45,8912.06 2118.85,8909.69C2135.68,8904.31 2139.8,8903.23 2140.32,8904.05ZM1993.93,8923.87C1993.23,8925.06 1992.61,8926.03 1992.55,8926.03C1992.49,8926.03 1992.04,8925.29 1991.55,8924.37C1990.24,8921.94 1988.97,8920.75 1987.7,8920.75C1987.08,8920.75 1984.98,8921.27 1983.03,8921.91C1981.08,8922.54 1979.42,8923 1979.34,8922.92C1979.26,8922.84 1979.74,8921.46 1980.42,8919.85C1981.86,8916.43 1981.99,8913.95 1980.81,8912.77C1980.35,8912.3 1979.01,8911.32 1977.85,8910.58L1975.73,8909.24L1978.98,8907.78C1980.76,8906.98 1982.28,8906.33 1982.35,8906.33C1982.48,8906.33 1992.67,8918.46 1994.31,8920.58C1995.17,8921.7 1995.17,8921.76 1993.93,8923.87ZM1998.72,8937.67C1996.2,8941.45 1993.72,8945.02 1993.22,8945.62C1992.72,8946.21 1992.2,8946.7 1992.06,8946.7C1991.68,8946.7 1990.05,8942.11 1988.85,8937.65C1987.32,8931.99 1987.36,8931.99 1978.37,8935.59C1974.37,8937.2 1969.63,8939.18 1967.84,8940.01C1963.49,8942.01 1958.58,8943.87 1958.58,8943.52C1958.58,8943.37 1959.03,8942.61 1959.57,8941.85C1960.12,8941.08 1962.62,8936.24 1965.13,8931.09C1971.14,8918.76 1971.21,8919.44 1963.53,8915.99C1960.31,8914.54 1957.77,8913.2 1957.89,8913.01C1958.01,8912.82 1959.8,8911.67 1961.88,8910.46C1966.52,8907.73 1967.45,8906.78 1967.04,8905.15C1966.74,8903.96 1961.15,8896.59 1959.65,8895.4C1959.23,8895.07 1958.98,8894.72 1959.1,8894.62C1959.63,8894.14 1968.93,8892.87 1971.97,8892.87C1975.3,8892.87 1975.39,8892.91 1975.68,8894.2C1976.45,8897.7 1977.55,8900.44 1978.67,8901.64C1979.34,8902.36 1979.8,8903.03 1979.69,8903.12C1979.58,8903.21 1977.81,8904.06 1975.76,8905.02C1969.87,8907.78 1969.74,8909.77 1975.2,8913.46C1976.5,8914.34 1977.63,8915.33 1977.71,8915.67C1977.78,8916.01 1976.76,8918.66 1975.42,8921.57C1972.85,8927.18 1972.66,8927.91 1973.58,8928.82C1974.44,8929.68 1975.53,8929.53 1977.93,8928.19C1979.12,8927.52 1981.62,8926.46 1983.48,8925.82C1987.39,8924.49 1987.51,8924.55 1989.25,8928.56C1990.12,8930.54 1990.43,8930.84 1991.67,8930.84C1993.23,8930.84 1995.1,8929.02 1996.45,8926.17C1996.87,8925.3 1997.34,8924.59 1997.51,8924.59C1997.68,8924.59 1999.05,8925.99 2000.57,8927.7L2003.32,8930.82L1998.72,8937.67ZM1951.82,8822.95C1953.19,8828.24 1955.28,8836.46 1956.46,8841.21C1957.64,8845.97 1959.66,8854.08 1960.96,8859.24C1962.25,8864.39 1963.57,8869.79 1963.89,8871.25C1964.21,8872.7 1965.14,8875.28 1965.97,8876.98C1967.65,8880.41 1970.34,8882.58 1973.59,8883.1L1975.4,8883.39L1975.4,8885.94C1975.4,8887.46 1975.16,8888.64 1974.8,8888.86C1974.47,8889.07 1972.8,8889.19 1971.08,8889.14C1969.36,8889.08 1966.71,8889.26 1965.19,8889.54C1963.67,8889.81 1960.67,8890.23 1958.53,8890.48C1952.13,8891.21 1951.7,8892.58 1956.31,8897.55C1957.97,8899.34 1960.13,8901.82 1961.12,8903.05L1962.92,8905.3L1957.59,8908.51C1952.03,8911.86 1950.57,8913.45 1951.89,8914.72C1952.67,8915.48 1960.69,8918.93 1963.75,8919.82C1964.87,8920.15 1965.79,8920.55 1965.79,8920.7C1965.78,8921.37 1957.6,8937.62 1955.78,8940.56C1950.78,8948.71 1951.53,8951.04 1958.25,8948.2C1960.15,8947.4 1964.08,8945.74 1966.99,8944.5C1976.67,8940.4 1983.74,8937.57 1984.31,8937.57C1984.62,8937.57 1985.22,8938.98 1985.65,8940.71C1986.08,8942.44 1987.28,8945.68 1988.33,8947.92C1990.08,8951.64 1990.35,8951.98 1991.62,8951.98C1993.32,8951.98 1996.1,8948.73 2001.85,8940C2003.95,8936.81 2005.83,8934.23 2006.03,8934.25C2006.23,8934.28 2008.01,8936.07 2009.98,8938.22C2019.06,8948.14 2022.19,8951.16 2023.79,8951.52C2024.67,8951.72 2025.38,8951.69 2025.38,8951.45C2025.38,8951.22 2026.18,8951.02 2027.15,8951.02C2029.22,8951.02 2043.97,8946.98 2051.57,8944.33C2056.81,8942.5 2065.15,8940.17 2075.9,8937.53C2078.98,8936.78 2083.85,8935.42 2086.72,8934.51C2089.59,8933.61 2094.96,8931.97 2098.66,8930.88C2102.37,8929.79 2111.45,8926.96 2118.85,8924.59C2126.25,8922.23 2134.35,8919.76 2136.85,8919.11C2141.85,8917.82 2142.99,8916.92 2145.11,8912.63C2147.02,8908.77 2146.76,8903.17 2144.53,8900.04C2144.02,8899.32 2143.6,8898.41 2143.6,8898.02C2143.6,8896.7 2131.9,8883.4 2119.12,8870.19C2116.37,8867.35 2114.23,8864.89 2114.38,8864.74C2114.53,8864.59 2119.71,8861.98 2125.88,8858.93C2138.52,8852.7 2142.16,8850.51 2142.16,8849.12C2142.16,8848.61 2141.46,8847.59 2140.62,8846.86C2139.77,8846.13 2137.66,8844.24 2135.93,8842.66C2134.2,8841.07 2132.24,8839.4 2131.58,8838.95C2130.59,8838.27 2130.5,8838.05 2131.08,8837.66C2132.91,8836.43 2142.37,8826.56 2143.42,8824.78C2144.79,8822.48 2144.47,8821.11 2142.44,8820.6C2140.51,8820.12 2128.67,8818.88 2125.94,8818.87C2124.55,8818.87 2123.41,8818.69 2123.41,8818.47C2123.41,8818.26 2124.29,8816.04 2125.37,8813.55C2126.45,8811.06 2128.04,8807.07 2128.92,8804.69C2129.8,8802.31 2131.73,8797.64 2133.21,8794.32C2137.06,8785.68 2136.75,8783.38 2131.99,8785.26C2128.43,8786.66 2120.7,8790.66 2116.21,8793.42C2109.01,8797.85 2101.75,8802.05 2101.3,8802.05C2100.86,8802.05 2100.74,8801.47 2099.88,8795.46C2099.61,8793.55 2099,8790.96 2098.53,8789.69C2097.79,8787.68 2097.49,8787.37 2096.17,8787.24C2094.83,8787.11 2094.37,8787.44 2092.14,8790.13C2090.75,8791.79 2088.11,8795.16 2086.27,8797.6C2084.43,8800.05 2082.77,8802.05 2082.58,8802.05C2082.24,8802.05 2081.44,8798.78 2080.87,8795.08C2080.57,8793.18 2074.04,8767.63 2072.6,8762.74C2071.75,8759.87 2069.95,8758.04 2067.51,8757.58C2065.86,8757.27 2054.94,8760.35 2045.26,8763.85C2042.67,8764.79 2038.82,8765.99 2036.69,8766.53C2032.69,8767.54 2026.87,8769.27 2018.17,8772.04C2015.4,8772.92 2007.94,8774.96 2001.59,8776.58C1995.25,8778.2 1986.92,8780.57 1983.09,8781.85C1979.26,8783.14 1974.07,8784.76 1971.56,8785.46C1969.05,8786.16 1965.48,8787.48 1963.62,8788.38C1961.77,8789.29 1960.1,8790.03 1959.91,8790.03C1959.24,8790.03 1954.01,8793.53 1953.16,8794.54C1952.69,8795.1 1951.6,8796.86 1950.75,8798.44C1949.24,8801.27 1949.21,8801.44 1949.27,8807.33C1949.33,8812.91 1949.51,8814.03 1951.82,8822.95Z" style="fill-rule:nonzero;"/>
        <path d="M1982.25,8803.47C1983.37,8803.18 1987.1,8802.07 1990.54,8801.02C1993.97,8799.96 1998.84,8798.48 2001.35,8797.72C2003.86,8796.97 2008.94,8795.43 2012.64,8794.31C2016.35,8793.2 2022.62,8791.34 2026.58,8790.2C2030.55,8789.05 2037.03,8787.03 2041,8785.72C2048.91,8783.09 2057.72,8780.4 2057.86,8780.56C2058.28,8781.04 2061.3,8792.8 2062.64,8799.16C2064.66,8808.84 2064.47,8808.05 2068.14,8821.2C2069.78,8827.1 2070.95,8832.1 2070.72,8832.31C2070.5,8832.52 2067.93,8833.38 2065.03,8834.23C2062.12,8835.08 2056.28,8836.93 2052.05,8838.34C2047.82,8839.75 2042.31,8841.47 2039.8,8842.17C2037.29,8842.87 2031.34,8844.63 2026.58,8846.09C2021.82,8847.55 2015.34,8849.51 2012.16,8850.45C2008.99,8851.39 2003.44,8853.1 1999.82,8854.25C1996.2,8855.41 1993.14,8856.35 1993.02,8856.35C1992.53,8856.35 1991.13,8850.84 1988.16,8837.13C1987.21,8832.77 1985.59,8826.17 1984.55,8822.47C1981.98,8813.32 1980.21,8806.16 1980.21,8804.98C1980.21,8804.24 1980.69,8803.88 1982.25,8803.47ZM1985.01,8840.77C1986.34,8846.78 1987.97,8853.71 1988.62,8856.18C1989.28,8858.65 1989.82,8860.78 1989.82,8860.91C1989.82,8861.26 1989.57,8861.33 2005.2,8856.61C2008.5,8855.61 2014.45,8853.84 2018.41,8852.69C2022.38,8851.53 2027.57,8849.94 2029.94,8849.16C2032.32,8848.38 2036.32,8847.18 2038.84,8846.5C2041.35,8845.81 2047.62,8843.88 2052.77,8842.19C2057.93,8840.51 2064.52,8838.44 2067.43,8837.6C2074.36,8835.58 2074.88,8835.24 2074.88,8832.67C2074.88,8831.56 2073.48,8825.72 2071.77,8819.71C2070.07,8813.69 2068.1,8806.12 2067.41,8802.89C2063.88,8786.38 2060.73,8776.13 2059.17,8776.11C2058.4,8776.09 2047.15,8779.53 2039.56,8782.1C2036.12,8783.26 2031.25,8784.78 2028.74,8785.48C2026.23,8786.17 2020.29,8787.93 2015.53,8789.38C2010.77,8790.84 2004.28,8792.8 2001.11,8793.74C1997.94,8794.67 1992.75,8796.26 1989.58,8797.26C1986.41,8798.27 1982.16,8799.56 1980.13,8800.14C1976.68,8801.14 1976.44,8801.29 1976.21,8802.7C1975.92,8804.43 1977.45,8811.4 1980.49,8822.32C1981.65,8826.46 1983.68,8834.76 1985.01,8840.77Z" style="fill-rule:nonzero;"/>
        <path d="M2090.89,8862.37C2088.95,8863.04 2085.26,8864.12 2082.69,8864.78C2080.11,8865.44 2069.13,8868.89 2058.3,8872.46C2038.1,8879.1 2030.47,8881.37 2020.27,8883.75C2014.78,8885.04 2007.31,8887.42 2005.15,8888.57C2003.87,8889.26 2004.17,8890.59 2005.68,8890.98C2007.3,8891.39 2009.75,8891.01 2012.64,8889.88C2013.97,8889.36 2017.64,8888.34 2020.81,8887.6C2031.1,8885.22 2040.64,8882.39 2059.74,8876.07C2070.05,8872.65 2079.89,8869.51 2081.61,8869.09C2083.32,8868.66 2087.48,8867.46 2090.85,8866.41C2097.22,8864.42 2098.71,8863.39 2097.44,8861.85C2096.61,8860.85 2094.89,8860.99 2090.89,8862.37Z" style="fill-rule:nonzero;"/>
        <path d="M2088.57,8873.38C2085.93,8874.07 2074.9,8877.54 2064.06,8881.11C2043.87,8887.75 2036.23,8890.02 2026.04,8892.4C2020.55,8893.69 2013.07,8896.07 2010.91,8897.22C2009.64,8897.91 2009.93,8899.24 2011.45,8899.63C2013.06,8900.04 2015.52,8899.66 2018.41,8898.53C2019.73,8898.01 2023.41,8896.99 2026.58,8896.25C2036.87,8893.87 2046.41,8891.04 2065.51,8884.72C2075.81,8881.3 2085.65,8878.16 2087.37,8877.74C2089.09,8877.31 2093.25,8876.11 2096.61,8875.06C2102.99,8873.07 2104.48,8872.04 2103.2,8870.5C2102.39,8869.51 2100.67,8869.64 2096.78,8870.97C2094.91,8871.61 2091.22,8872.7 2088.57,8873.38Z" style="fill-rule:nonzero;"/>
    </g>
</svg>
