<?xml version="1.0" encoding="UTF-8" standalone="no"?>
<!DOCTYPE svg PUBLIC "-//W3C//DTD SVG 1.1//EN" "http://www.w3.org/Graphics/SVG/1.1/DTD/svg11.dtd">
<svg width="100%" height="100%" viewBox="0 0 1054 1099" version="1.1" xmlns="http://www.w3.org/2000/svg" xmlns:xlink="http://www.w3.org/1999/xlink" xml:space="preserve" xmlns:serif="http://www.serif.com/" style="fill-rule:evenodd;clip-rule:evenodd;stroke-linejoin:round;stroke-miterlimit:2;">
    <g transform="matrix(5.55556,0,0,5.55556,-10828.7,-49801.4)">
        <path d="M2084.92,9052.16C2086.75,9051 2087.93,9048.03 2087.93,9044.6C2087.93,9041.53 2087.93,9041.52 2086.43,9041.22C2083.87,9040.71 2078.82,9037.96 2076.34,9035.73C2073.67,9033.33 2070.52,9028.26 2069.12,9024.12L2068.18,9021.34L2065.83,9021.07C2060.39,9020.42 2056.69,9023.54 2056.7,9028.76C2056.71,9031.75 2058.16,9034.83 2061.93,9039.82C2069.9,9050.37 2079.56,9055.56 2084.92,9052.16Z" style="fill:white;fill-rule:nonzero;"/>
        <path d="M1966.72,9148.23C1972.98,9153.22 1976.68,9155.01 1982.29,9155.74C1987.09,9156.36 1988.01,9156.32 1991.77,9155.28C1995.97,9154.11 1999.13,9152.6 1998.07,9152.26C1987.48,9148.89 1983.63,9146.77 1975.4,9139.74C1971.24,9136.18 1965.14,9128.35 1963.03,9123.86C1961.03,9119.58 1958.66,9112.37 1958.66,9110.54C1958.66,9107.96 1957.48,9109.74 1956.24,9114.2C1952.88,9126.26 1957.35,9140.76 1966.72,9148.23Z" style="fill:white;fill-rule:nonzero;"/>
        <path d="M2028.25,9118.19C2027.49,9118.95 2022.81,9118.9 2020.6,9118.11C2017.43,9116.98 2015.44,9115.39 2013.47,9112.45C2011.61,9109.66 2010.1,9105.77 2010.06,9103.66C2010.05,9103.08 2009.41,9102.27 2008.5,9101.7C2007.52,9101.09 2006.91,9100.28 2006.81,9099.48C2006.61,9097.77 2007.8,9097.41 2010.39,9098.4C2012.19,9099.08 2012.78,9099.11 2014.67,9098.58C2016.57,9098.05 2016.98,9098.07 2017.61,9098.7C2018.73,9099.82 2017.98,9101.31 2015.79,9102.27C2013.95,9103.09 2013.87,9103.2 2014.17,9104.8C2015.21,9110.3 2019.93,9114.89 2024.59,9114.91C2028.12,9114.94 2029.91,9116.53 2028.25,9118.19ZM2010.55,9087.38C2013.11,9085.22 2018.17,9085.15 2021.9,9087.22C2024.34,9088.57 2025.94,9091.65 2025.94,9094.98C2025.94,9098.6 2023.95,9100.73 2022.21,9098.99C2021.84,9098.62 2021.75,9097.49 2021.94,9095.65C2022.21,9093.04 2022.14,9092.79 2020.8,9091.45C2018.89,9089.54 2015.79,9089.05 2012.46,9090.14C2011.13,9090.57 2009.84,9090.8 2009.58,9090.64C2008.69,9090.09 2009.14,9088.57 2010.55,9087.38ZM2071.86,9056.38C2070.16,9055.5 2067.3,9053.55 2065.5,9052.04C2061.84,9048.98 2055.97,9041.95 2054,9038.28C2053.29,9036.95 2052.64,9035.79 2052.56,9035.7C2052.49,9035.6 2050.93,9036.52 2049.1,9037.74C2046.04,9039.77 2045.75,9040.11 2045.5,9041.94C2045.34,9043.17 2044.86,9044.22 2044.31,9044.83C2044.31,9044.92 2044.32,9045.02 2044.33,9045.11L2044.37,9045.79C2044.38,9046.02 2044.4,9046.25 2044.41,9046.48C2044.42,9046.67 2044.43,9046.87 2044.43,9047.06C2044.43,9047.23 2044.43,9047.4 2044.42,9047.57C2044.41,9047.72 2044.4,9047.87 2044.38,9048.02C2044.36,9048.16 2044.34,9048.3 2044.31,9048.43C2044.29,9048.55 2044.26,9048.67 2044.22,9048.79C2044.19,9048.9 2044.15,9049.01 2044.1,9049.12C2044.06,9049.23 2044.01,9049.34 2043.96,9049.44C2043.91,9049.55 2043.85,9049.65 2043.79,9049.75C2043.73,9049.85 2043.66,9049.95 2043.6,9050.05C2043.53,9050.16 2043.46,9050.27 2043.38,9050.37C2043.3,9050.49 2043.22,9050.6 2043.14,9050.72C2043.05,9050.84 2042.97,9050.97 2042.88,9051.1C2042.78,9051.24 2042.69,9051.38 2042.59,9051.52C2042.49,9051.66 2042.39,9051.81 2042.31,9051.97L2042.2,9052.2L2042.19,9052.24L2042.18,9052.26L2042.16,9052.32L2042.11,9052.43C2042.05,9052.6 2042,9052.76 2041.96,9052.93C2041.92,9053.09 2041.88,9053.26 2041.85,9053.43L2041.81,9053.69L2041.8,9053.75L2041.8,9053.8L2041.78,9053.93C2041.76,9054.1 2041.74,9054.28 2041.73,9054.45C2041.71,9054.62 2041.7,9054.79 2041.68,9054.96C2041.67,9055.14 2041.65,9055.31 2041.64,9055.48C2041.62,9055.65 2041.6,9055.82 2041.58,9055.99C2041.55,9056.15 2041.53,9056.32 2041.49,9056.48C2041.46,9056.64 2041.42,9056.79 2041.37,9056.95C2041.32,9057.11 2041.27,9057.26 2041.2,9057.41C2041.13,9057.55 2041.06,9057.7 2040.97,9057.83L2040.9,9057.93L2040.82,9058.02L2040.67,9058.18C2040.56,9058.28 2040.44,9058.38 2040.31,9058.46C2040.19,9058.55 2040.06,9058.62 2039.93,9058.69C2039.79,9058.76 2039.65,9058.82 2039.5,9058.87C2039.36,9058.93 2039.21,9058.98 2039.06,9059.02C2038.91,9059.06 2038.76,9059.1 2038.6,9059.14C2038.45,9059.18 2038.29,9059.21 2038.14,9059.25C2037.98,9059.28 2037.82,9059.32 2037.67,9059.35C2037.51,9059.39 2037.36,9059.42 2037.2,9059.46C2037.05,9059.5 2036.9,9059.54 2036.76,9059.58C2036.61,9059.62 2036.47,9059.67 2036.33,9059.73L2036.09,9059.82L2036.06,9059.84L2036.05,9059.84L2036.04,9059.85L2035.98,9059.87L2035.86,9059.92C2035.71,9059.99 2035.56,9060.06 2035.42,9060.14C2035.3,9060.2 2035.18,9060.28 2035.06,9060.35L2034.9,9060.46L2034.83,9060.52L2034.81,9060.53L2034.81,9060.52L2034.8,9060.54L2034.76,9060.57L2034.52,9060.79L2034.41,9060.91L2034.36,9060.96L2034.34,9060.99L2034.32,9061.01L2034.16,9061.25L2034.04,9061.5L2034.03,9061.51L2034.03,9061.52L2034.02,9061.55L2033.99,9061.62L2033.95,9061.75C2033.92,9061.84 2033.89,9061.93 2033.87,9062.02C2033.85,9062.12 2033.83,9062.21 2033.81,9062.31C2033.79,9062.41 2033.78,9062.51 2033.76,9062.61C2033.74,9062.72 2033.73,9062.83 2033.71,9062.93C2033.69,9063.04 2033.67,9063.16 2033.65,9063.27C2033.63,9063.39 2033.61,9063.51 2033.59,9063.63C2033.56,9063.75 2033.54,9063.88 2033.5,9064C2033.47,9064.14 2033.44,9064.27 2033.39,9064.41C2033.35,9064.55 2033.31,9064.69 2033.25,9064.83L2033.21,9064.94L2033.17,9065.06L2033.08,9065.29C2033.02,9065.44 2032.95,9065.58 2032.87,9065.71C2032.79,9065.85 2032.71,9065.98 2032.61,9066.1C2032.52,9066.23 2032.42,9066.34 2032.32,9066.46C2032.22,9066.57 2032.11,9066.68 2032,9066.78C2031.88,9066.88 2031.76,9066.98 2031.64,9067.07C2031.52,9067.16 2031.39,9067.25 2031.26,9067.33C2031.14,9067.42 2031,9067.49 2030.87,9067.57C2030.73,9067.65 2030.6,9067.72 2030.46,9067.79C2030.32,9067.86 2030.18,9067.92 2030.04,9067.99C2029.89,9068.05 2029.74,9068.12 2029.59,9068.18L2029.52,9068.21C2029.68,9068.65 2029.75,9069.13 2029.7,9069.59C2029.57,9070.77 2029.03,9071.2 2025.7,9072.82C2018.84,9076.15 2017.06,9076.64 2011,9076.86C2004.89,9077.08 1998.79,9076.15 1995.55,9074.49L1993.75,9073.58L1987.18,9078.75C1975.79,9087.73 1974.12,9089.28 1973.51,9091.53C1971.99,9097.08 1973.72,9104.01 1978.86,9112.99C1983.15,9120.48 1988.18,9126.08 1994.2,9130.04C2000.95,9134.5 2005.73,9136.85 2011.28,9138.47C2013.93,9139.23 2016.33,9139.87 2016.63,9139.89C2016.93,9139.9 2020.08,9136.83 2023.64,9133.07C2030.15,9126.17 2036.77,9118.52 2038.91,9115.41C2039.55,9114.48 2040.91,9112.72 2041.94,9111.48C2044.29,9108.65 2044.21,9107.35 2041.59,9106.07C2039.79,9105.19 2039.6,9105.19 2037.44,9105.95C2036.2,9106.39 2034.83,9106.76 2034.41,9106.76C2033.08,9106.76 2033.48,9104.56 2035.06,9103.24C2037.69,9101.02 2040.74,9101.02 2044.6,9103.24C2045.74,9103.9 2046.74,9104.36 2046.81,9104.28C2047.46,9103.45 2056.45,9089.22 2059.67,9083.93C2061.91,9080.23 2064.75,9075.66 2065.96,9073.77C2067.17,9071.88 2068.57,9069.5 2069.08,9068.48C2069.58,9067.46 2071.11,9064.81 2072.48,9062.58C2073.84,9060.36 2074.96,9058.41 2074.96,9058.26C2074.96,9058.11 2073.56,9057.26 2071.86,9056.38Z" style="fill:white;fill-rule:nonzero;"/>
        <path d="M1999.78,9029.35C2005.33,9031.91 2029.88,9050.57 2033.12,9054.69C2033.88,9055.66 2033.99,9056.11 2033.57,9056.61C2032.79,9057.55 2032.58,9057.48 2028.97,9055.03C2027.17,9053.81 2022.56,9050.38 2018.73,9047.43C2014.9,9044.48 2009.28,9040.25 2006.24,9038.03C2001.57,9034.64 1995.29,9029.61 1993.5,9027.82C1992.62,9026.95 1996.75,9027.95 1999.78,9029.35ZM2028.72,9033.37C2031.25,9035.86 2037.65,9046.62 2037.39,9047.95C2037.1,9049.43 2036.17,9049.16 2034.36,9047.07C2032.44,9044.84 2028.31,9038.12 2027.14,9035.32C2026.75,9034.37 2026.42,9033.03 2026.42,9032.35C2026.42,9031.15 2026.51,9031.19 2028.72,9033.37ZM2017.73,9061.88C2009.3,9059.61 2005.53,9057.85 2004.34,9055.62C2003.13,9053.36 2002.9,9053.32 2017.29,9057.73C2024.25,9059.87 2026.66,9060.99 2026.66,9062.09C2026.66,9063.22 2022.34,9063.12 2017.73,9061.88ZM1978.1,9031.16C1978.16,9038.02 1978.34,9039.85 1979.3,9043.32C1981.58,9051.59 1985.68,9058.58 1992.13,9065.22C1996.4,9069.6 1997.7,9070.19 2005.57,9071.25C2011.26,9072.02 2014.85,9071.43 2020.73,9068.78C2026.34,9066.26 2027.83,9065.98 2028.99,9067.26C2029.2,9067.5 2029.36,9067.8 2029.48,9068.11L2029.52,9068.1L2029.63,9068.06L2029.66,9068.04L2029.68,9068.04L2029.73,9068.01L2029.94,9067.92C2030.09,9067.86 2030.23,9067.79 2030.37,9067.72C2030.51,9067.65 2030.64,9067.58 2030.78,9067.51C2030.91,9067.43 2031.05,9067.35 2031.18,9067.27C2031.31,9067.19 2031.43,9067.1 2031.55,9067.01L2031.6,9066.98L2031.62,9066.96L2031.63,9066.95L2031.72,9066.88L2031.9,9066.73C2032.01,9066.63 2032.12,9066.53 2032.22,9066.42L2032.37,9066.25L2032.44,9066.16L2032.48,9066.11L2032.49,9066.1L2032.51,9066.08C2032.6,9065.95 2032.69,9065.83 2032.76,9065.7C2032.84,9065.56 2032.91,9065.42 2032.98,9065.28L2033,9065.22L2033,9065.21L2033.01,9065.2L2033.02,9065.17L2033.07,9065.06L2033.11,9064.94L2033.15,9064.83C2033.2,9064.69 2033.25,9064.55 2033.29,9064.41C2033.33,9064.27 2033.37,9064.14 2033.4,9064C2033.43,9063.88 2033.46,9063.75 2033.49,9063.62C2033.51,9063.5 2033.53,9063.38 2033.55,9063.26C2033.57,9063.15 2033.59,9063.04 2033.61,9062.93C2033.63,9062.82 2033.64,9062.71 2033.66,9062.61C2033.68,9062.51 2033.69,9062.41 2033.71,9062.3C2033.73,9062.21 2033.75,9062.11 2033.77,9062.02C2033.79,9061.92 2033.82,9061.83 2033.84,9061.74L2033.94,9061.48L2034.06,9061.22L2034.22,9060.98L2034.42,9060.74L2034.67,9060.52C2034.77,9060.44 2034.87,9060.36 2034.97,9060.29C2035.09,9060.21 2035.21,9060.14 2035.33,9060.07C2035.47,9060 2035.61,9059.93 2035.76,9059.86C2035.92,9059.79 2036.08,9059.72 2036.25,9059.65C2036.39,9059.59 2036.53,9059.55 2036.68,9059.5C2036.82,9059.45 2036.97,9059.41 2037.12,9059.38C2037.28,9059.34 2037.43,9059.3 2037.58,9059.27C2037.74,9059.23 2037.9,9059.2 2038.06,9059.16C2038.21,9059.13 2038.37,9059.1 2038.52,9059.06C2038.68,9059.02 2038.83,9058.98 2038.98,9058.94C2039.13,9058.9 2039.28,9058.85 2039.42,9058.8L2039.64,9058.71L2039.66,9058.7L2039.68,9058.69L2039.73,9058.67L2039.84,9058.62C2039.97,9058.56 2040.1,9058.49 2040.22,9058.4L2040.31,9058.34L2040.36,9058.31L2040.38,9058.29L2040.39,9058.28L2040.56,9058.14L2040.72,9057.98L2040.8,9057.89L2040.83,9057.85L2040.84,9057.84L2040.84,9057.83L2040.86,9057.81L2040.99,9057.61L2041.1,9057.4L2041.14,9057.29L2041.15,9057.28L2041.15,9057.27L2041.16,9057.24L2041.18,9057.18L2041.26,9056.96C2041.31,9056.8 2041.35,9056.65 2041.39,9056.49C2041.42,9056.33 2041.45,9056.16 2041.48,9056L2041.48,9055.94L2041.49,9055.91L2041.49,9055.89L2041.51,9055.76L2041.53,9055.51C2041.55,9055.34 2041.57,9055.17 2041.58,9055C2041.59,9054.83 2041.61,9054.66 2041.62,9054.48C2041.64,9054.31 2041.66,9054.14 2041.68,9053.97C2041.7,9053.79 2041.72,9053.62 2041.75,9053.44C2041.78,9053.28 2041.81,9053.11 2041.85,9052.94C2041.89,9052.77 2041.94,9052.61 2042,9052.45C2042.06,9052.28 2042.13,9052.12 2042.21,9051.96C2042.28,9051.81 2042.37,9051.65 2042.47,9051.51L2042.55,9051.4L2042.62,9051.29L2042.77,9051.08C2042.85,9050.95 2042.94,9050.83 2043.03,9050.7C2043.11,9050.58 2043.19,9050.47 2043.27,9050.35C2043.35,9050.25 2043.42,9050.14 2043.49,9050.03C2043.56,9049.93 2043.63,9049.83 2043.69,9049.73C2043.75,9049.63 2043.8,9049.53 2043.86,9049.42L2043.93,9049.27L2043.97,9049.19L2043.98,9049.15L2043.99,9049.14L2043.99,9049.13L2044,9049.12C2044.04,9049.02 2044.08,9048.91 2044.12,9048.8C2044.15,9048.68 2044.18,9048.56 2044.21,9048.44L2044.25,9048.25L2044.26,9048.15L2044.27,9048.09L2044.27,9048.08L2044.27,9048.09L2044.27,9048.06C2044.29,9047.91 2044.31,9047.76 2044.31,9047.61C2044.32,9047.44 2044.33,9047.27 2044.33,9047.1C2044.33,9046.91 2044.32,9046.72 2044.31,9046.52C2044.31,9046.41 2044.3,9046.3 2044.29,9046.19C2044.29,9046.07 2044.28,9045.96 2044.27,9045.85C2044.26,9045.62 2044.24,9045.39 2044.23,9045.16L2044.21,9044.93C2043.76,9045.38 2043.26,9045.56 2042.82,9045.28C2042.45,9045.05 2041.88,9043.12 2041.52,9040.87C2040.87,9036.77 2038.88,9032.03 2036.19,9028.16C2035.44,9027.09 2033.5,9024.26 2031.88,9021.89C2026.47,9013.96 2022.25,9011.08 2009.36,9006.51C2001.27,9003.64 1989.2,8997.62 1982.21,8992.98C1974.36,8987.77 1967.21,8980.56 1964.71,8975.33L1962.88,8971.5L1961.92,8972.69C1959.19,8976.06 1956.26,8983.21 1956.26,8986.49C1956.26,8989.25 1956.34,8989.38 1960.53,8992.93C1962.49,8994.59 1962.49,8996.46 1960.53,9000.55C1957.77,9006.3 1958.13,9013.05 1961.39,9016.86C1964,9019.91 1966.28,9020.86 1971.77,9021.21C1975.18,9021.42 1976.68,9021.72 1977.25,9022.29C1977.91,9022.96 1978.05,9024.37 1978.1,9031.16Z" style="fill:rgb(225,244,42);fill-rule:nonzero;"/>
        <path d="M1975.24,9134.07C1981.6,9140.75 1989.66,9145.83 1997.45,9148.05C2002.38,9149.45 2004.08,9149.33 2007.44,9147.32C2009.02,9146.37 2010.92,9145.03 2011.64,9144.35L2012.96,9143.1L2008.07,9141.5C2005.38,9140.62 2001.76,9139.11 2000.02,9138.14C1987.21,9131.01 1980.97,9124.92 1974.74,9113.48C1971.11,9106.81 1969.76,9103.11 1969.4,9098.79C1969.23,9096.83 1968.93,9095.22 1968.72,9095.22C1968.13,9095.22 1963.43,9100.63 1962.87,9101.95C1962.59,9102.61 1962.37,9104.99 1962.37,9107.24C1962.38,9110.9 1962.6,9111.93 1964.59,9117.26C1967.18,9124.22 1969.79,9128.34 1975.24,9134.07Z" style="fill:rgb(225,244,42);fill-rule:nonzero;"/>
        <path d="M2081.81,9032.84C2085.09,9035.18 2088.37,9036.09 2093.46,9036.09C2096.1,9036.09 2099.78,9035.88 2101.63,9035.61C2106.6,9034.91 2110.56,9033.44 2114.59,9030.8L2118.19,9028.45L2117.21,9026.79C2116.67,9025.88 2116.01,9023.66 2115.73,9021.85C2114.97,9016.93 2115.26,9017.13 2108.91,9017.13C2104.09,9017.13 2103.22,9017.01 2102.03,9016.14C2099.44,9014.24 2098.88,9012.44 2099.19,9006.92L2099.46,9001.99L2097.82,9001.99C2096.92,9001.99 2094.82,9002.42 2093.14,9002.95C2091.47,9003.47 2089.32,9003.91 2088.36,9003.91C2086.36,9003.91 2083.67,9002.29 2082.78,9000.54C2082.05,8999.09 2081.99,8995.32 2082.66,8993.55C2082.93,8992.83 2083.07,8992.17 2082.97,8992.07C2082.53,8991.63 2078.42,8995.88 2077.02,8998.21C2075.12,9001.41 2073.03,9009.27 2073.04,9013.22C2073.07,9021.13 2076.66,9029.17 2081.81,9032.84Z" style="fill:white;fill-rule:nonzero;"/>
        <path d="M2069.31,9079.34C2069.24,9079.5 2070.84,9079.89 2072.86,9080.21C2078.59,9081.12 2081.56,9083.31 2077.99,9083.98C2076.38,9084.28 2073.46,9083.96 2068.44,9082.94C2067.07,9082.66 2066.88,9082.8 2065.81,9084.82C2065.17,9086.02 2064.76,9087.09 2064.88,9087.19C2065,9087.3 2067.2,9088.5 2069.76,9089.88C2075.83,9093.13 2080.53,9096.57 2079.85,9097.25C2078.76,9098.33 2071.43,9095.4 2065.9,9091.67C2064.49,9090.72 2063.17,9089.94 2062.98,9089.94C2062.79,9089.94 2062.17,9090.77 2061.6,9091.78L2060.57,9093.62L2062.04,9095.02C2064.85,9097.7 2066.33,9101.95 2064.44,9101.95C2063.52,9101.95 2060.61,9099.06 2059.56,9097.11C2059.02,9096.1 2058.67,9096.52 2054.04,9103.68C2051.32,9107.88 2048.42,9112.23 2047.61,9113.34C2046.79,9114.45 2046.12,9115.58 2046.12,9115.85C2046.12,9116.66 2047.97,9117.39 2052.32,9118.31C2057.04,9119.32 2065.28,9119.18 2069.43,9118.03C2071.79,9117.38 2076.15,9115 2079.11,9112.74C2079.93,9112.11 2081.27,9110.43 2082.08,9109C2084.08,9105.45 2085.09,9105.25 2089.73,9107.45C2092.85,9108.94 2093.79,9109.16 2096.93,9109.16C2100.05,9109.16 2100.91,9108.96 2103.39,9107.64C2109,9104.65 2110.26,9103.09 2114.48,9093.95C2115.26,9092.25 2117.01,9091.74 2119.87,9092.37C2122.08,9092.87 2122.56,9092.83 2124.24,9091.96C2126.74,9090.67 2128.98,9088.28 2130.18,9085.61C2131.14,9083.5 2131.49,9081.29 2130.87,9081.29C2130.7,9081.29 2128.49,9081.98 2125.95,9082.83C2121.48,9084.33 2121.07,9084.38 2113.4,9084.37C2106.85,9084.36 2104.79,9084.18 2101.52,9083.32C2093.94,9081.33 2089.87,9079.42 2080.68,9073.51C2077.88,9071.71 2075.39,9070.24 2075.15,9070.25C2074.82,9070.26 2069.95,9077.83 2069.31,9079.34Z" style="fill:rgb(225,244,42);fill-rule:nonzero;"/>
        <path d="M2092.38,8999.11C2093.94,8998.56 2096.35,8998.15 2097.97,8998.15C2100.58,8998.15 2100.93,8998.28 2102.1,8999.67C2103.35,9001.15 2103.37,9001.28 2103.05,9005.84C2102.87,9008.4 2102.85,9010.93 2103.02,9011.46C2103.56,9013.13 2105.46,9013.6 2110.26,9013.25C2116.95,9012.76 2118.67,9014.11 2119.36,9020.43C2119.67,9023.25 2120.32,9025.06 2121.02,9025.06C2121.23,9025.06 2121.95,9024.47 2122.64,9023.74L2122.63,9023.74C2126.08,9020.07 2130.83,9011.21 2132.18,9005.95C2133.87,8999.33 2133.03,8986.17 2130.37,8977.78L2129.17,8973.97L2125.25,8978.07C2121.05,8982.46 2119.4,8983.51 2114.12,8985.15C2110.68,8986.22 2099.62,8988.05 2096.56,8988.05C2094.42,8988.06 2090.53,8989.97 2087.93,8992.29C2086.35,8993.7 2085.88,8994.49 2085.67,8996.12C2085.17,8999.95 2087.29,9000.9 2092.38,8999.11Z" style="fill:rgb(225,244,42);fill-rule:nonzero;"/>
        <path d="M1956.24,9114.2C1957.48,9109.74 1958.66,9107.96 1958.66,9110.54C1958.66,9112.37 1961.03,9119.58 1963.03,9123.86C1965.14,9128.35 1971.24,9136.18 1975.4,9139.74C1983.63,9146.77 1987.48,9148.89 1998.07,9152.26C1999.13,9152.6 1995.97,9154.11 1991.77,9155.28C1988.01,9156.32 1987.09,9156.36 1982.29,9155.74C1976.68,9155.01 1972.98,9153.22 1966.72,9148.23C1957.35,9140.76 1952.88,9126.26 1956.24,9114.2ZM1962.87,9101.95C1963.43,9100.63 1968.13,9095.22 1968.72,9095.22C1968.93,9095.22 1969.23,9096.83 1969.4,9098.79C1969.76,9103.11 1971.11,9106.81 1974.74,9113.48C1980.97,9124.92 1987.21,9131.01 2000.02,9138.14C2001.76,9139.11 2005.38,9140.62 2008.07,9141.5L2012.96,9143.1L2011.64,9144.35C2010.92,9145.03 2009.02,9146.37 2007.44,9147.32C2004.08,9149.33 2002.38,9149.45 1997.45,9148.05C1989.66,9145.83 1981.6,9140.75 1975.24,9134.07C1969.79,9128.34 1967.18,9124.22 1964.59,9117.26C1962.6,9111.93 1962.38,9110.9 1962.37,9107.24C1962.37,9104.99 1962.59,9102.61 1962.87,9101.95ZM1973.51,9091.53C1974.12,9089.28 1975.79,9087.73 1987.18,9078.75L1993.75,9073.58L1995.55,9074.49C1998.79,9076.15 2004.89,9077.08 2011,9076.86C2017.06,9076.64 2018.84,9076.15 2025.7,9072.82C2029.03,9071.2 2029.57,9070.77 2029.7,9069.59C2029.8,9068.76 2029.51,9067.85 2028.99,9067.26C2027.83,9065.98 2026.34,9066.26 2020.73,9068.78C2014.85,9071.43 2011.26,9072.02 2005.57,9071.25C1997.7,9070.19 1996.4,9069.6 1992.13,9065.22C1985.68,9058.58 1981.58,9051.59 1979.3,9043.32C1978.34,9039.85 1978.16,9038.02 1978.1,9031.16C1978.05,9024.37 1977.91,9022.96 1977.25,9022.29C1976.68,9021.72 1975.18,9021.42 1971.77,9021.21C1966.28,9020.86 1964,9019.91 1961.39,9016.86C1958.13,9013.05 1957.77,9006.3 1960.53,9000.55C1962.49,8996.46 1962.49,8994.59 1960.53,8992.93C1956.34,8989.38 1956.26,8989.25 1956.26,8986.49C1956.26,8983.21 1959.19,8976.06 1961.92,8972.69L1962.88,8971.5L1964.71,8975.33C1967.21,8980.56 1974.36,8987.77 1982.21,8992.98C1989.2,8997.62 2001.27,9003.64 2009.36,9006.51C2022.25,9011.08 2026.47,9013.96 2031.88,9021.89C2033.5,9024.26 2035.44,9027.09 2036.19,9028.16C2038.88,9032.03 2040.87,9036.77 2041.52,9040.87C2041.88,9043.12 2042.45,9045.05 2042.82,9045.28C2043.84,9045.91 2045.2,9044.22 2045.5,9041.94C2045.75,9040.11 2046.04,9039.77 2049.1,9037.74C2050.93,9036.52 2052.49,9035.6 2052.56,9035.7C2052.64,9035.79 2053.29,9036.95 2054,9038.28C2055.97,9041.95 2061.84,9048.98 2065.5,9052.04C2067.3,9053.55 2070.16,9055.5 2071.86,9056.38C2073.56,9057.26 2074.96,9058.11 2074.96,9058.26C2074.96,9058.41 2073.84,9060.36 2072.48,9062.58C2071.11,9064.81 2069.58,9067.46 2069.08,9068.48C2068.57,9069.5 2067.17,9071.88 2065.96,9073.77C2064.74,9075.66 2061.91,9080.23 2059.66,9083.93C2056.45,9089.22 2047.46,9103.45 2046.81,9104.28C2046.74,9104.36 2045.74,9103.9 2044.6,9103.24C2040.74,9101.02 2037.69,9101.02 2035.06,9103.24C2033.48,9104.56 2033.08,9106.76 2034.41,9106.76C2034.83,9106.76 2036.2,9106.39 2037.44,9105.95C2039.6,9105.19 2039.79,9105.19 2041.59,9106.07C2044.21,9107.35 2044.29,9108.65 2041.94,9111.48C2040.91,9112.72 2039.55,9114.48 2038.91,9115.41C2036.77,9118.52 2030.15,9126.17 2023.64,9133.07C2020.08,9136.83 2016.93,9139.9 2016.63,9139.89C2016.33,9139.87 2013.93,9139.23 2011.28,9138.47C2005.72,9136.85 2000.95,9134.5 1994.2,9130.04C1988.18,9126.08 1983.15,9120.48 1978.86,9112.99C1973.72,9104.01 1971.99,9097.08 1973.51,9091.53ZM2065.83,9021.07L2068.18,9021.34L2069.12,9024.12C2070.52,9028.26 2073.67,9033.33 2076.34,9035.73C2078.82,9037.96 2083.87,9040.71 2086.43,9041.22C2087.93,9041.52 2087.93,9041.53 2087.93,9044.6C2087.93,9048.03 2086.75,9051 2084.92,9052.16C2079.56,9055.56 2069.9,9050.37 2061.93,9039.82C2058.16,9034.83 2056.71,9031.75 2056.7,9028.76C2056.69,9023.54 2060.39,9020.42 2065.83,9021.07ZM2077.02,8998.21C2078.42,8995.88 2082.53,8991.63 2082.97,8992.07C2083.07,8992.17 2082.93,8992.83 2082.66,8993.55C2081.99,8995.32 2082.05,8999.09 2082.78,9000.54C2083.67,9002.29 2086.36,9003.91 2088.36,9003.91C2089.32,9003.91 2091.47,9003.47 2093.14,9002.95C2094.82,9002.42 2096.92,9001.99 2097.82,9001.99L2099.46,9001.99L2099.19,9006.92C2098.88,9012.44 2099.44,9014.24 2102.03,9016.14C2103.22,9017.01 2104.09,9017.13 2108.91,9017.13C2115.26,9017.13 2114.97,9016.93 2115.73,9021.85C2116.01,9023.66 2116.67,9025.88 2117.21,9026.79L2118.19,9028.45L2114.59,9030.8C2110.56,9033.44 2106.6,9034.91 2101.63,9035.61C2099.78,9035.88 2096.1,9036.09 2093.46,9036.09C2088.37,9036.09 2085.09,9035.18 2081.81,9032.84C2076.66,9029.17 2073.07,9021.13 2073.04,9013.22C2073.03,9009.27 2075.12,9001.41 2077.02,8998.21ZM2085.67,8996.12C2085.88,8994.49 2086.35,8993.7 2087.93,8992.29C2090.53,8989.97 2094.42,8988.06 2096.56,8988.05C2099.62,8988.05 2110.68,8986.22 2114.12,8985.15C2119.4,8983.51 2121.05,8982.46 2125.25,8978.07L2129.17,8973.97L2130.37,8977.78C2133.03,8986.17 2133.87,8999.33 2132.18,9005.95C2130.83,9011.21 2126.08,9020.07 2122.63,9023.74L2122.64,9023.74C2121.95,9024.47 2121.23,9025.06 2121.02,9025.06C2120.32,9025.06 2119.67,9023.25 2119.36,9020.43C2118.67,9014.11 2116.95,9012.76 2110.26,9013.25C2105.46,9013.6 2103.56,9013.13 2103.02,9011.46C2102.85,9010.93 2102.87,9008.4 2103.05,9005.84C2103.37,9001.28 2103.35,9001.15 2102.1,8999.67C2100.93,8998.28 2100.58,8998.15 2097.97,8998.15C2096.35,8998.15 2093.94,8998.56 2092.38,8999.11C2087.29,9000.9 2085.17,8999.95 2085.67,8996.12ZM2080.68,9073.51C2089.87,9079.42 2093.94,9081.33 2101.52,9083.32C2104.79,9084.18 2106.85,9084.36 2113.4,9084.37C2121.07,9084.38 2121.48,9084.33 2125.95,9082.83C2128.49,9081.98 2130.7,9081.29 2130.87,9081.29C2131.49,9081.29 2131.14,9083.5 2130.18,9085.61C2128.98,9088.28 2126.74,9090.67 2124.24,9091.96C2122.56,9092.83 2122.08,9092.87 2119.87,9092.37C2117.01,9091.74 2115.26,9092.25 2114.48,9093.95C2110.26,9103.09 2109,9104.65 2103.39,9107.64C2100.91,9108.96 2100.05,9109.16 2096.93,9109.16C2093.79,9109.16 2092.85,9108.94 2089.73,9107.45C2085.09,9105.25 2084.08,9105.45 2082.08,9109C2081.27,9110.43 2079.93,9112.11 2079.11,9112.74C2076.15,9115 2071.79,9117.38 2069.43,9118.03C2065.28,9119.18 2057.04,9119.32 2052.32,9118.31C2047.97,9117.39 2046.12,9116.66 2046.12,9115.85C2046.12,9115.58 2046.79,9114.45 2047.61,9113.34C2048.42,9112.23 2051.32,9107.88 2054.04,9103.68C2058.67,9096.52 2059.02,9096.1 2059.56,9097.11C2060.61,9099.06 2063.52,9101.95 2064.44,9101.95C2066.33,9101.95 2064.85,9097.7 2062.04,9095.02L2060.57,9093.62L2061.6,9091.78C2062.17,9090.77 2062.79,9089.94 2062.98,9089.94C2063.17,9089.94 2064.49,9090.72 2065.9,9091.67C2071.43,9095.4 2078.76,9098.33 2079.85,9097.25C2080.53,9096.57 2075.83,9093.13 2069.76,9089.88C2067.2,9088.5 2065,9087.3 2064.88,9087.19C2064.76,9087.09 2065.17,9086.02 2065.81,9084.82C2066.88,9082.8 2067.07,9082.66 2068.44,9082.94C2073.46,9083.96 2076.38,9084.28 2077.99,9083.98C2081.56,9083.31 2078.59,9081.12 2072.86,9080.21C2070.84,9079.89 2069.24,9079.5 2069.31,9079.34C2069.95,9077.83 2074.82,9070.26 2075.15,9070.25C2075.39,9070.24 2077.88,9071.71 2080.68,9073.51ZM1960.07,9149.7C1964.89,9154.74 1971.91,9159.2 1977.16,9160.57C1978.49,9160.92 1979.78,9161.41 1980.05,9161.66C1981.01,9162.57 1990.36,9161.75 1994.7,9160.37C1998.4,9159.2 2006.41,9154.91 2012.31,9150.96C2018.32,9146.93 2031.08,9134.31 2038.43,9125.14C2040.15,9122.99 2041.91,9121.22 2042.34,9121.21C2042.77,9121.19 2044.09,9121.6 2045.27,9122.13C2048.96,9123.76 2053.95,9124.54 2060.71,9124.54C2067.86,9124.54 2070.93,9123.93 2075.56,9121.59C2081.21,9118.74 2084.82,9115.86 2086.79,9112.61C2086.84,9112.53 2087.82,9112.95 2088.97,9113.56C2090.79,9114.52 2091.76,9114.66 2096.62,9114.67C2102.16,9114.69 2102.21,9114.68 2105.92,9112.79C2110.98,9110.23 2115.17,9106.14 2117.29,9101.68L2118.9,9098.28L2121.8,9098.29C2125.25,9098.31 2127.43,9097.3 2131.07,9094.03C2133.79,9091.59 2136.19,9087.24 2136.72,9083.83C2137.18,9080.8 2136.18,9076.7 2134.69,9075.53C2133.25,9074.39 2131.11,9074.27 2129.6,9075.25C2127.8,9076.42 2121.52,9078.31 2117.67,9078.83C2110.94,9079.76 2101.2,9078.01 2093.82,9074.56C2090.35,9072.93 2080.14,9066.72 2078.43,9065.2C2077.95,9064.76 2078.22,9064.04 2079.74,9061.67C2081.45,9059.03 2081.84,9058.7 2083.24,9058.69C2088.83,9058.65 2093.7,9052.31 2093.7,9045.05L2093.7,9042.02L2096.65,9041.71C2098.28,9041.54 2100.37,9041.4 2101.31,9041.4C2108.17,9041.4 2120.26,9035.32 2125.53,9029.22C2130.67,9023.26 2135.36,9015.07 2137.4,9008.48C2139.58,9001.43 2139.01,8986.92 2136.17,8977.09C2135.05,8973.23 2134.63,8972.29 2131.75,8967.2C2129.41,8963.07 2127.13,8963.28 2125.49,8967.78C2124.22,8971.25 2119.26,8976.89 2116.16,8978.39C2113.21,8979.81 2106.92,8981.17 2099.23,8982.05C2090.95,8982.99 2084.69,8984.33 2081.85,8985.75C2078.73,8987.3 2073.5,8992.59 2071.74,8995.99C2069.68,8999.93 2067.8,9006.71 2067.43,9011.48L2067.13,9015.45L2063.95,9015.45C2059.63,9015.45 2055.58,9017.34 2053.18,9020.48C2051.68,9022.44 2051.43,9023.17 2051.15,9026.42L2050.82,9030.13L2047.95,9031.72C2046.38,9032.6 2044.99,9033.21 2044.87,9033.1C2044.75,9032.98 2043.81,9031.13 2042.78,9029C2041.74,9026.86 2039.56,9023.1 2037.91,9020.64C2030.48,9009.5 2027,9006.91 2012.48,9001.68C2004.93,8998.96 1991.53,8992.41 1985.67,8988.58C1983.21,8986.97 1979.04,8983.56 1976.4,8981C1971.57,8976.31 1969.93,8973.82 1968.24,8968.59C1967.48,8966.22 1965.74,8964.51 1964.09,8964.51C1963.15,8964.51 1961.96,8965.44 1959.34,8968.23C1952.06,8975.99 1949.13,8983.86 1951.01,8990.63C1951.32,8991.72 1952.41,8993.36 1953.68,8994.64L1955.84,8996.8L1954.55,9000C1952.23,9005.74 1952.49,9013.01 1955.2,9018.02C1957.75,9022.73 1963.31,9026.3 1968.9,9026.82L1972.12,9027.12L1972.12,9031.02C1972.13,9044.84 1977.32,9057.93 1986.65,9067.64L1989.01,9070.1L1983.84,9074.13C1974.6,9081.34 1970.47,9084.96 1965.12,9090.53C1958.39,9097.54 1956.47,9100.08 1953.21,9106.28C1949.94,9112.49 1948.76,9117.76 1949.28,9123.82C1950.23,9134.93 1953.55,9142.9 1960.07,9149.7Z" style="fill-rule:nonzero;"/>
        <path d="M2034.36,9047.07C2036.17,9049.16 2037.1,9049.43 2037.39,9047.95C2037.65,9046.62 2031.25,9035.86 2028.72,9033.37C2026.51,9031.19 2026.42,9031.15 2026.42,9032.35C2026.42,9033.03 2026.75,9034.37 2027.14,9035.32C2028.31,9038.12 2032.44,9044.84 2034.36,9047.07Z" style="fill-rule:nonzero;"/>
        <path d="M2033.57,9056.61C2033.99,9056.11 2033.88,9055.66 2033.12,9054.69C2029.88,9050.57 2005.33,9031.91 1999.78,9029.35C1996.75,9027.95 1992.62,9026.95 1993.5,9027.82C1995.29,9029.61 2001.57,9034.64 2006.24,9038.03C2009.28,9040.25 2014.9,9044.48 2018.73,9047.43C2022.56,9050.38 2027.17,9053.81 2028.97,9055.03C2032.58,9057.48 2032.79,9057.55 2033.57,9056.61Z" style="fill-rule:nonzero;"/>
        <path d="M2009.58,9090.64C2009.84,9090.8 2011.13,9090.57 2012.46,9090.14C2015.79,9089.05 2018.89,9089.54 2020.8,9091.45C2022.14,9092.79 2022.21,9093.04 2021.94,9095.65C2021.75,9097.49 2021.84,9098.62 2022.21,9098.99C2023.95,9100.73 2025.94,9098.6 2025.94,9094.98C2025.94,9091.65 2024.34,9088.57 2021.9,9087.22C2018.17,9085.15 2013.11,9085.22 2010.55,9087.38C2009.14,9088.57 2008.69,9090.09 2009.58,9090.64Z" style="fill-rule:nonzero;"/>
        <path d="M2008.5,9101.7C2009.41,9102.27 2010.05,9103.08 2010.06,9103.66C2010.1,9105.77 2011.61,9109.66 2013.47,9112.45C2015.44,9115.39 2017.43,9116.98 2020.6,9118.11C2022.81,9118.9 2027.49,9118.95 2028.25,9118.19C2029.91,9116.53 2028.12,9114.94 2024.59,9114.91C2019.93,9114.89 2015.21,9110.3 2014.17,9104.8C2013.87,9103.2 2013.95,9103.09 2015.79,9102.27C2017.98,9101.31 2018.73,9099.82 2017.61,9098.7C2016.98,9098.07 2016.57,9098.05 2014.67,9098.58C2012.78,9099.11 2012.19,9099.08 2010.39,9098.4C2007.8,9097.41 2006.61,9097.77 2006.81,9099.48C2006.91,9100.28 2007.52,9101.09 2008.5,9101.7Z" style="fill-rule:nonzero;"/>
        <path d="M2017.29,9057.73C2002.9,9053.32 2003.13,9053.36 2004.34,9055.62C2005.53,9057.85 2009.3,9059.61 2017.73,9061.88C2022.34,9063.12 2026.66,9063.22 2026.66,9062.09C2026.66,9060.99 2024.25,9059.87 2017.29,9057.73Z" style="fill-rule:nonzero;"/>
    </g>
</svg>
