<?xml version="1.0" encoding="UTF-8" standalone="no"?>
<!DOCTYPE svg PUBLIC "-//W3C//DTD SVG 1.1//EN" "http://www.w3.org/Graphics/SVG/1.1/DTD/svg11.dtd">
<svg width="100%" height="100%" viewBox="0 0 1061 1051" version="1.1" xmlns="http://www.w3.org/2000/svg" xmlns:xlink="http://www.w3.org/1999/xlink" xml:space="preserve" xmlns:serif="http://www.serif.com/" style="fill-rule:evenodd;clip-rule:evenodd;stroke-linejoin:round;stroke-miterlimit:2;">
    <g transform="matrix(5.55556,0,0,5.55556,-9356.17,-46319.4)">
        <path d="M1739.89,8502.02L1737.45,8499.44C1734.68,8496.51 1732.8,8492.85 1732.35,8489.52C1732.18,8488.26 1731.89,8487.23 1731.7,8487.23C1731.52,8487.23 1730.86,8488.32 1730.24,8489.65C1728.84,8492.63 1725.56,8496.02 1722.25,8497.88L1719.74,8499.3L1721.8,8501.19C1724.29,8503.49 1726.56,8507.64 1727.38,8511.38C1727.72,8512.9 1728.04,8514.15 1728.1,8514.15C1728.16,8514.15 1728.76,8513.01 1729.44,8511.62C1730.97,8508.49 1734.01,8505.35 1737.35,8503.46L1739.89,8502.02Z" style="fill:white;fill-rule:nonzero;"/>
        <path d="M1762.8,8393.55C1765.79,8391.57 1768.18,8390.94 1772.77,8390.95C1777.35,8390.96 1781.08,8391.97 1784.22,8394.05C1787.98,8396.54 1789.95,8400.42 1788.29,8402.08C1787.1,8403.27 1785.42,8402.68 1782.61,8400.08C1779.47,8397.17 1777.34,8396.41 1772.35,8396.41C1768.36,8396.41 1767.46,8396.78 1763.55,8400C1760.61,8402.42 1758.8,8403.18 1757.95,8402.34C1756.52,8400.9 1759.3,8395.86 1762.8,8393.55ZM1816.82,8415.15C1821.38,8413.3 1824.01,8411.65 1826.85,8408.89C1828.69,8407.1 1829.24,8406.26 1828.98,8405.65C1828.27,8404 1828.18,8402.15 1828.76,8401.45C1830.01,8399.94 1831.69,8400.61 1834.73,8403.81C1837.87,8407.12 1839.09,8407.94 1840.91,8407.94C1843.39,8407.94 1844.71,8411.67 1842.62,8412.78C1841.04,8413.63 1837.21,8413.06 1835.08,8411.65L1833.21,8410.41L1831.34,8412.33C1825.15,8418.68 1813.68,8423.33 1804.25,8423.3C1796.31,8423.28 1787.73,8421.38 1783.93,8418.79L1782.21,8417.63L1781.1,8419.29C1778.85,8422.61 1773.09,8425.63 1771.69,8424.22C1770.31,8422.82 1770.99,8421.09 1773.94,8418.54C1776.36,8416.44 1776.94,8415.61 1777.82,8412.99C1779.08,8409.2 1780.44,8407.36 1781.84,8407.56C1782.72,8407.68 1782.88,8408.06 1783.01,8410.4L1783.15,8413.1L1786.85,8414.43C1799.25,8418.87 1807.18,8419.06 1816.82,8415.15ZM1706.82,8422.44C1709.34,8424.16 1718.9,8429.06 1719.75,8429.08C1720.22,8429.09 1722.89,8421.99 1723.27,8419.72C1723.83,8416.38 1724.52,8414.68 1725.53,8414.14C1727.39,8413.14 1727.85,8414.41 1728.32,8421.95C1728.57,8425.79 1728.86,8429.23 1728.98,8429.6C1729.1,8429.98 1729.33,8430.89 1729.49,8431.63C1729.83,8433.18 1730.13,8433.32 1738.17,8435.64C1744.58,8437.49 1755.89,8439.6 1760.88,8439.88C1762.66,8439.98 1765.96,8440.31 1768.21,8440.62C1780.13,8442.26 1803.68,8442.29 1817.46,8440.68C1843.41,8437.65 1859.78,8432.33 1867.17,8424.51C1869.31,8422.24 1869.5,8421.85 1869.82,8418.82C1870.15,8415.75 1870.09,8415.45 1868.81,8413.61C1868.07,8412.53 1864.1,8408.58 1860,8404.82C1840.32,8386.79 1842.74,8388.74 1840.05,8388.73C1835.23,8388.72 1830.64,8391.03 1827.32,8395.17C1824.39,8398.8 1821.89,8399.62 1821.27,8397.14C1820.29,8393.23 1827.3,8386.02 1833.99,8384.08L1836.62,8383.31L1834.21,8381.09C1832.89,8379.87 1829.89,8377.25 1827.55,8375.26C1825.21,8373.28 1822.49,8370.95 1821.5,8370.09L1819.7,8368.52L1818.1,8369.44C1816,8370.64 1809.55,8372.69 1805.93,8373.31C1802.02,8373.98 1791.53,8374.69 1788.87,8374.46C1783.62,8374.01 1774.87,8372.7 1771.5,8371.86C1766.66,8370.65 1758.86,8366.95 1755.06,8364.06L1753.29,8362.7L1751.5,8363.81C1745.98,8367.2 1724.23,8381.54 1718.47,8385.58C1714.77,8388.18 1708.71,8392.34 1705.01,8394.85C1695.76,8401.1 1695.16,8401.71 1695.16,8404.91C1695.16,8410.6 1699.92,8417.76 1706.82,8422.44Z" style="fill:white;fill-rule:nonzero;"/>
        <path d="M1763.87,8362.85C1769.18,8365.77 1773.6,8367.09 1781.18,8368.04C1783.43,8368.32 1785.81,8368.64 1786.47,8368.75C1788.42,8369.08 1800.88,8368.59 1804.15,8368.05C1807.84,8367.44 1814.82,8365.27 1814.82,8364.74C1814.82,8363.97 1805.82,8356.48 1792.63,8346.29C1790.1,8344.33 1788,8343.07 1787.28,8343.07C1786.64,8343.07 1784.52,8343.97 1782.57,8345.06C1766.9,8353.89 1758.56,8359 1758.75,8359.65C1758.83,8359.91 1761.13,8361.35 1763.87,8362.85Z" style="fill:white;fill-rule:nonzero;"/>
        <path d="M1701.96,8498.57C1705.35,8500.83 1712.24,8504.19 1718.22,8506.51C1720.19,8507.27 1721.88,8507.9 1721.96,8507.9C1722.47,8507.9 1720.54,8505.33 1717.92,8502.55C1716.24,8500.75 1714.87,8499.12 1714.87,8498.91C1714.89,8498.12 1715.66,8497.45 1718.04,8496.17C1721.65,8494.22 1725.03,8491.06 1726.63,8488.13C1727.4,8486.71 1728.81,8483.3 1729.76,8480.55C1731.56,8475.32 1732.49,8474.1 1733.97,8475.03C1734.65,8475.47 1734.92,8476.82 1735.39,8482.29C1736.16,8491.2 1737.02,8493.49 1741.35,8498.04C1743.26,8500.05 1744.66,8501.95 1744.66,8502.52C1744.66,8503.25 1743.87,8503.94 1741.74,8505.07C1738.24,8506.94 1733.67,8511.04 1734.35,8511.72C1735.09,8512.46 1749.22,8515.14 1754.99,8515.64C1757.9,8515.89 1761.79,8516.28 1763.64,8516.51C1765.49,8516.73 1767.65,8516.89 1768.45,8516.85L1769.89,8516.79L1770,8511.98C1770.07,8509.34 1770.57,8500.8 1771.13,8493C1772.04,8480.43 1772.29,8478.5 1773.33,8475.94C1773.98,8474.36 1774.88,8472.73 1775.33,8472.34C1775.78,8471.94 1776.87,8470.48 1777.75,8469.1C1782.19,8462.13 1791.25,8457.24 1801.93,8456.04C1807.61,8455.41 1814.49,8456.15 1819,8457.9C1822.52,8459.25 1828.16,8462.71 1831.1,8465.32C1833.13,8467.11 1835.47,8471.25 1836.2,8474.36C1837.16,8478.44 1837.11,8482.66 1835.92,8498.68C1835.36,8506.16 1835,8512.38 1835.13,8512.51C1835.61,8512.99 1847.05,8509.15 1851.58,8506.98C1856.73,8504.52 1860.36,8501.99 1862.8,8499.19C1864.13,8497.65 1864.32,8497.1 1864.31,8494.62C1864.31,8493.07 1865.3,8478.21 1866.51,8461.6C1867.72,8444.99 1868.6,8431.29 1868.47,8431.16C1868.34,8431.02 1867.28,8431.57 1866.13,8432.36C1858.82,8437.39 1848.29,8441.03 1833.08,8443.78C1817.81,8446.53 1811.03,8447.09 1793.2,8447.05C1781.58,8447.02 1774.53,8446.78 1769.65,8446.25C1765.82,8445.83 1761.17,8445.35 1759.32,8445.18C1754.73,8444.75 1744.48,8442.84 1738.71,8441.34C1736.09,8440.66 1733.87,8440.2 1733.77,8440.3C1733.28,8440.78 1737.96,8445.09 1740.31,8446.32C1741.76,8447.07 1743.15,8448.03 1743.41,8448.44C1744.18,8449.66 1742.9,8450.71 1740.64,8450.71C1736.92,8450.71 1730.85,8454.69 1727.17,8459.54C1724.66,8462.84 1722.73,8467.17 1721.54,8472.19C1720.08,8478.34 1718.87,8479.71 1716.78,8477.61C1715.9,8476.74 1715.84,8476.26 1716.12,8472.87C1717.1,8461.14 1711.99,8450.24 1703.54,8446C1702.46,8445.46 1701.28,8444.65 1700.91,8444.2C1700.32,8443.49 1700.37,8443.28 1701.34,8442.5C1701.94,8442.01 1703.23,8441.49 1704.21,8441.34C1705.18,8441.2 1707.27,8440.43 1708.86,8439.65C1711.75,8438.21 1716.31,8434.68 1716.31,8433.86C1716.31,8433.62 1714.26,8432.46 1711.76,8431.29C1705.73,8428.48 1700.6,8424.86 1696.81,8420.78C1694.66,8418.45 1693.72,8417.71 1693.72,8418.34C1693.72,8418.83 1692.72,8432.86 1691.5,8449.51C1689.09,8482.4 1689.09,8482.23 1691.52,8487.54C1693.01,8490.8 1697.68,8495.73 1701.96,8498.57Z" style="fill:white;fill-rule:nonzero;"/>
        <path d="M1732.49,8444.96C1729.3,8441.51 1726.26,8435.58 1725.41,8431.13L1724.83,8428.12L1722.78,8431.62C1720.39,8435.7 1715.06,8440.98 1711.5,8442.78C1710.18,8443.45 1709.1,8444.13 1709.1,8444.29C1709.1,8444.45 1710.39,8445.96 1711.97,8447.65C1715.19,8451.1 1718.25,8456.9 1719.23,8461.43L1719.83,8464.22L1721.55,8460.95C1722.6,8458.94 1724.58,8456.36 1726.68,8454.24C1728.57,8452.35 1730.95,8450.36 1731.98,8449.81C1735.5,8447.95 1735.47,8448.18 1732.49,8444.96Z" style="fill:white;fill-rule:nonzero;"/>
        <path d="M1817.64,8463.36C1812.49,8461.13 1811.8,8461.34 1814.23,8464.41C1818.4,8469.67 1818.44,8470.03 1817,8488.63L1816.05,8500.84L1818.92,8503.46C1823.75,8507.87 1828.49,8511.67 1829,8511.55C1829.27,8511.47 1829.95,8504.87 1830.59,8495.91C1831.86,8478.2 1831.71,8475.49 1829.16,8471.66C1827.36,8468.94 1822.61,8465.51 1817.64,8463.36Z" style="fill:white;fill-rule:nonzero;"/>
        <path d="M1804.12,8461.74C1801.32,8460.53 1790.28,8464.23 1786.04,8467.8C1785.19,8468.51 1782.96,8471.17 1781.07,8473.72L1777.64,8478.34L1777.03,8487.23C1776.7,8492.12 1776.33,8497.07 1776.21,8498.23L1776,8500.33L1786.16,8500.08C1793.36,8499.91 1798.13,8499.53 1802.53,8498.79C1805.95,8498.21 1809.21,8497.86 1809.78,8498.01C1810.81,8498.26 1810.84,8498.12 1811.37,8489.99C1812.67,8470.47 1812.68,8471.87 1811.14,8469.59C1808.55,8465.78 1805.45,8462.31 1804.12,8461.74Z" style="fill:white;fill-rule:nonzero;"/>
        <path d="M1783.15,8413.1L1783.01,8410.4C1782.88,8408.06 1782.72,8407.68 1781.84,8407.56C1780.44,8407.36 1779.08,8409.2 1777.82,8412.99C1776.94,8415.61 1776.36,8416.44 1773.94,8418.54C1770.99,8421.09 1770.31,8422.82 1771.69,8424.22C1773.09,8425.63 1778.85,8422.61 1781.1,8419.29L1782.21,8417.63L1783.93,8418.79C1787.73,8421.38 1796.31,8423.28 1804.25,8423.3C1813.68,8423.33 1825.15,8418.68 1831.34,8412.33L1833.21,8410.41L1835.08,8411.65C1837.21,8413.06 1841.04,8413.63 1842.62,8412.78C1844.71,8411.67 1843.39,8407.94 1840.91,8407.94C1839.09,8407.94 1837.87,8407.12 1834.73,8403.81C1831.69,8400.61 1830.01,8399.94 1828.76,8401.45C1828.18,8402.15 1828.27,8404 1828.98,8405.65C1829.24,8406.26 1828.69,8407.1 1826.85,8408.89C1824.01,8411.65 1821.38,8413.3 1816.82,8415.15C1807.18,8419.06 1799.25,8418.87 1786.85,8414.43L1783.15,8413.1Z" style="fill-rule:nonzero;"/>
        <path d="M1763.55,8400C1767.46,8396.78 1768.36,8396.41 1772.35,8396.41C1777.34,8396.41 1779.47,8397.17 1782.61,8400.08C1785.42,8402.68 1787.1,8403.27 1788.29,8402.08C1789.95,8400.42 1787.98,8396.54 1784.22,8394.05C1781.08,8391.97 1777.35,8390.96 1772.77,8390.95C1768.18,8390.94 1765.79,8391.57 1762.8,8393.55C1759.3,8395.86 1756.52,8400.9 1757.95,8402.34C1758.8,8403.18 1760.61,8402.42 1763.55,8400Z" style="fill-rule:nonzero;"/>
        <path d="M1691.5,8449.51C1692.72,8432.86 1693.72,8418.83 1693.72,8418.34C1693.72,8417.71 1694.66,8418.45 1696.81,8420.78C1700.6,8424.86 1705.73,8428.48 1711.76,8431.29C1714.26,8432.46 1716.31,8433.62 1716.31,8433.86C1716.31,8434.68 1711.75,8438.21 1708.86,8439.65C1707.27,8440.43 1705.18,8441.2 1704.21,8441.34C1703.23,8441.49 1701.94,8442.01 1701.34,8442.5C1700.37,8443.28 1700.32,8443.49 1700.91,8444.2C1701.28,8444.65 1702.46,8445.46 1703.54,8446C1711.99,8450.24 1717.1,8461.14 1716.12,8472.87C1715.84,8476.26 1715.9,8476.74 1716.78,8477.61C1718.87,8479.71 1720.08,8478.34 1721.54,8472.19C1722.73,8467.17 1724.66,8462.84 1727.17,8459.54C1730.85,8454.69 1736.92,8450.71 1740.64,8450.71C1742.9,8450.71 1744.18,8449.66 1743.41,8448.44C1743.15,8448.03 1741.76,8447.07 1740.31,8446.32C1737.96,8445.09 1733.28,8440.78 1733.77,8440.3C1733.87,8440.2 1736.09,8440.66 1738.71,8441.34C1744.48,8442.84 1754.73,8444.75 1759.32,8445.18C1761.17,8445.35 1765.82,8445.83 1769.65,8446.25C1774.53,8446.78 1781.58,8447.02 1793.2,8447.05C1811.03,8447.09 1817.81,8446.53 1833.08,8443.78C1848.29,8441.03 1858.82,8437.39 1866.13,8432.36C1867.28,8431.57 1868.34,8431.02 1868.47,8431.16C1868.6,8431.29 1867.72,8444.99 1866.51,8461.6C1865.3,8478.21 1864.31,8493.07 1864.31,8494.62C1864.32,8497.1 1864.13,8497.65 1862.8,8499.19C1860.36,8501.99 1856.73,8504.52 1851.58,8506.98C1847.05,8509.15 1835.61,8512.99 1835.13,8512.51C1835,8512.38 1835.36,8506.16 1835.92,8498.68C1837.11,8482.66 1837.16,8478.44 1836.2,8474.36C1835.47,8471.25 1833.13,8467.11 1831.1,8465.32C1828.16,8462.71 1822.52,8459.25 1819,8457.9C1814.49,8456.15 1807.61,8455.41 1801.93,8456.04C1791.25,8457.24 1782.19,8462.13 1777.75,8469.1C1776.87,8470.48 1775.78,8471.94 1775.33,8472.34C1774.88,8472.73 1773.98,8474.36 1773.33,8475.94C1772.29,8478.5 1772.04,8480.43 1771.13,8493C1770.57,8500.8 1770.07,8509.34 1770,8511.98L1769.89,8516.79L1768.45,8516.85C1767.65,8516.89 1765.49,8516.73 1763.64,8516.51C1761.79,8516.28 1757.9,8515.89 1754.99,8515.64C1749.22,8515.14 1735.09,8512.46 1734.35,8511.72C1733.67,8511.04 1738.24,8506.94 1741.74,8505.07C1743.87,8503.94 1744.66,8503.25 1744.66,8502.52C1744.66,8501.95 1743.26,8500.05 1741.35,8498.04C1737.02,8493.49 1736.16,8491.2 1735.39,8482.29C1734.92,8476.82 1734.65,8475.47 1733.97,8475.03C1732.49,8474.1 1731.56,8475.32 1729.76,8480.55C1728.81,8483.3 1727.4,8486.71 1726.63,8488.13C1725.03,8491.06 1721.65,8494.22 1718.04,8496.17C1715.66,8497.45 1714.89,8498.12 1714.87,8498.91C1714.87,8499.12 1716.24,8500.75 1717.92,8502.55C1720.54,8505.33 1722.47,8507.9 1721.96,8507.9C1721.88,8507.9 1720.19,8507.27 1718.22,8506.51C1712.24,8504.19 1705.35,8500.83 1701.96,8498.57C1697.68,8495.73 1693.01,8490.8 1691.52,8487.54C1689.09,8482.23 1689.09,8482.4 1691.5,8449.51ZM1726.68,8454.24C1724.58,8456.36 1722.6,8458.94 1721.55,8460.95L1719.83,8464.22L1719.23,8461.43C1718.25,8456.9 1715.19,8451.1 1711.97,8447.65C1710.39,8445.96 1709.1,8444.45 1709.1,8444.29C1709.1,8444.13 1710.18,8443.45 1711.5,8442.78C1715.06,8440.98 1720.39,8435.7 1722.78,8431.62L1724.83,8428.12L1725.41,8431.13C1726.26,8435.58 1729.3,8441.51 1732.49,8444.96C1735.47,8448.18 1735.5,8447.95 1731.98,8449.81C1730.95,8450.36 1728.57,8452.35 1726.68,8454.24ZM1705.01,8394.85C1708.71,8392.34 1714.77,8388.18 1718.47,8385.58C1724.23,8381.54 1745.98,8367.2 1751.5,8363.81L1753.29,8362.7L1755.06,8364.06C1758.86,8366.95 1766.66,8370.65 1771.5,8371.86C1774.87,8372.7 1783.62,8374.01 1788.87,8374.46C1791.53,8374.69 1802.02,8373.98 1805.93,8373.31C1809.55,8372.69 1816,8370.64 1818.1,8369.44L1819.7,8368.52L1821.5,8370.09C1822.49,8370.95 1825.21,8373.28 1827.55,8375.26C1829.89,8377.25 1832.89,8379.87 1834.21,8381.09L1836.62,8383.31L1833.99,8384.08C1827.3,8386.02 1820.29,8393.23 1821.27,8397.14C1821.89,8399.62 1824.39,8398.8 1827.32,8395.17C1830.64,8391.03 1835.23,8388.72 1840.05,8388.73C1842.74,8388.74 1840.32,8386.79 1860,8404.82C1864.1,8408.58 1868.07,8412.53 1868.81,8413.61C1870.09,8415.45 1870.15,8415.75 1869.82,8418.82C1869.5,8421.85 1869.31,8422.24 1867.17,8424.51C1859.78,8432.33 1843.41,8437.65 1817.46,8440.68C1803.68,8442.29 1780.13,8442.26 1768.21,8440.62C1765.96,8440.31 1762.66,8439.98 1760.88,8439.88C1755.89,8439.6 1744.58,8437.49 1738.17,8435.64C1730.13,8433.32 1729.83,8433.18 1729.49,8431.63C1729.33,8430.89 1729.1,8429.98 1728.98,8429.6C1728.86,8429.23 1728.57,8425.79 1728.32,8421.95C1727.85,8414.41 1727.39,8413.14 1725.53,8414.14C1724.52,8414.68 1723.83,8416.38 1723.27,8419.72C1722.89,8421.99 1720.22,8429.09 1719.75,8429.08C1718.9,8429.06 1709.34,8424.16 1706.82,8422.44C1699.92,8417.76 1695.16,8410.6 1695.16,8404.91C1695.16,8401.71 1695.76,8401.1 1705.01,8394.85ZM1782.57,8345.06C1784.52,8343.97 1786.64,8343.07 1787.28,8343.07C1788,8343.07 1790.1,8344.33 1792.63,8346.29C1805.82,8356.48 1814.82,8363.97 1814.82,8364.74C1814.82,8365.27 1807.84,8367.44 1804.15,8368.05C1800.88,8368.59 1788.42,8369.08 1786.47,8368.75C1785.81,8368.64 1783.43,8368.32 1781.18,8368.04C1773.6,8367.09 1769.18,8365.77 1763.87,8362.85C1761.13,8361.35 1758.83,8359.91 1758.75,8359.65C1758.56,8359 1766.9,8353.89 1782.57,8345.06ZM1830.59,8495.91C1829.95,8504.87 1829.27,8511.47 1829,8511.55C1828.49,8511.67 1823.75,8507.87 1818.92,8503.46L1816.05,8500.84L1817,8488.63C1818.44,8470.03 1818.4,8469.67 1814.23,8464.41C1811.8,8461.34 1812.49,8461.13 1817.64,8463.36C1822.61,8465.51 1827.36,8468.94 1829.16,8471.66C1831.71,8475.49 1831.86,8478.2 1830.59,8495.91ZM1811.37,8489.99C1810.84,8498.12 1810.81,8498.26 1809.78,8498.01C1809.21,8497.86 1805.95,8498.21 1802.53,8498.79C1798.13,8499.53 1793.36,8499.91 1786.16,8500.08L1776,8500.33L1776.21,8498.23C1776.33,8497.07 1776.7,8492.12 1777.03,8487.23L1777.64,8478.34L1781.07,8473.72C1782.96,8471.17 1785.19,8468.51 1786.04,8467.8C1790.28,8464.23 1801.32,8460.53 1804.12,8461.74C1805.45,8462.31 1808.55,8465.78 1811.14,8469.59C1812.68,8471.87 1812.67,8470.47 1811.37,8489.99ZM1729.44,8511.62C1728.76,8513.01 1728.16,8514.15 1728.1,8514.15C1728.04,8514.15 1727.72,8512.9 1727.38,8511.38C1726.56,8507.64 1724.29,8503.49 1721.8,8501.19L1719.74,8499.3L1722.25,8497.88C1725.56,8496.02 1728.84,8492.63 1730.24,8489.65C1730.86,8488.32 1731.52,8487.23 1731.7,8487.23C1731.89,8487.23 1732.18,8488.26 1732.35,8489.52C1732.8,8492.85 1734.68,8496.51 1737.45,8499.44L1739.89,8502.02L1737.35,8503.46C1734.01,8505.35 1730.97,8508.49 1729.44,8511.62ZM1698.76,8502.86C1702.99,8505.67 1712.64,8510.24 1719.49,8512.68C1723.8,8514.21 1723.89,8514.27 1724.17,8515.99C1724.33,8516.96 1724.47,8519.36 1724.47,8521.32C1724.47,8523.95 1724.68,8525.11 1725.27,8525.76C1727.01,8527.68 1728.05,8526.56 1729.97,8520.73C1731.08,8517.37 1731.52,8516.57 1732.12,8516.8C1733.77,8517.43 1740.91,8518.94 1746.6,8519.86C1751.27,8520.62 1771.15,8522.8 1773.39,8522.8C1773.63,8522.8 1774.21,8519.03 1774.7,8514.43L1775.57,8506.06L1778.83,8505.73C1780.62,8505.55 1782.27,8505.52 1782.49,8505.65C1783.21,8506.1 1798.15,8505.1 1802.78,8504.3C1808.97,8503.22 1810.78,8503.69 1815,8507.43C1818.66,8510.68 1827.09,8517.5 1828.95,8518.72C1830.15,8519.51 1830.39,8519.5 1834.17,8518.47C1852.51,8513.47 1861.28,8509.21 1866.55,8502.74C1869.07,8499.64 1869.57,8497.9 1869.86,8490.98C1869.99,8488 1871.21,8470.96 1872.58,8453.11C1875.52,8414.88 1875.54,8414.19 1873.78,8411.18C1873.07,8409.97 1871.66,8408.26 1870.64,8407.38C1867.72,8404.86 1851.53,8389.94 1847.02,8385.61C1843.07,8381.83 1833.13,8373.05 1820.33,8362.05C1816.94,8359.14 1813.3,8355.99 1812.22,8355.04C1810.48,8353.53 1805.52,8349.57 1794.94,8341.27C1789.11,8336.69 1786.8,8336.42 1781.18,8339.68C1779.46,8340.67 1776.33,8342.46 1774.21,8343.64C1764.22,8349.25 1765.96,8348.17 1737.45,8366.46C1731.5,8370.27 1722.74,8376.1 1717.99,8379.4C1713.23,8382.71 1706.1,8387.61 1702.14,8390.31C1694.06,8395.81 1692.02,8397.64 1690.52,8400.75C1689.58,8402.71 1689.25,8406.22 1686.79,8440.62C1685.3,8461.37 1684.1,8479.43 1684.11,8480.75C1684.13,8483.48 1685.78,8488.54 1687.75,8491.92C1689.73,8495.31 1694.42,8499.97 1698.76,8502.86Z" style="fill-rule:nonzero;"/>
    </g>
</svg>
