<?xml version="1.0" encoding="UTF-8" standalone="no"?>
<!DOCTYPE svg PUBLIC "-//W3C//DTD SVG 1.1//EN" "http://www.w3.org/Graphics/SVG/1.1/DTD/svg11.dtd">
<svg width="100%" height="100%" viewBox="0 0 1054 1099" version="1.1" xmlns="http://www.w3.org/2000/svg" xmlns:xlink="http://www.w3.org/1999/xlink" xml:space="preserve" xmlns:serif="http://www.serif.com/" style="fill-rule:evenodd;clip-rule:evenodd;stroke-linejoin:round;stroke-miterlimit:2;">
    <g transform="matrix(5.55556,0,0,5.55556,-9345.9,-49801.4)">
        <path d="M1818.02,9052.16C1819.85,9051 1821.03,9048.03 1821.03,9044.6C1821.03,9041.53 1821.03,9041.52 1819.53,9041.22C1816.97,9040.71 1811.92,9037.96 1809.44,9035.73C1806.77,9033.33 1803.62,9028.26 1802.22,9024.12L1801.28,9021.34L1798.93,9021.07C1793.49,9020.42 1789.79,9023.54 1789.8,9028.76C1789.81,9031.75 1791.26,9034.83 1795.03,9039.82C1803,9050.37 1812.66,9055.56 1818.02,9052.16Z" style="fill:white;fill-rule:nonzero;"/>
        <path d="M1699.82,9148.23C1706.08,9153.22 1709.78,9155.01 1715.39,9155.74C1720.19,9156.36 1721.11,9156.32 1724.87,9155.28C1729.07,9154.11 1732.23,9152.6 1731.17,9152.26C1720.58,9148.89 1716.73,9146.77 1708.5,9139.74C1704.34,9136.18 1698.23,9128.35 1696.13,9123.86C1694.13,9119.58 1691.76,9112.37 1691.76,9110.54C1691.76,9107.96 1690.58,9109.74 1689.34,9114.2C1685.98,9126.26 1690.45,9140.76 1699.82,9148.23Z" style="fill:white;fill-rule:nonzero;"/>
        <path d="M1743.49,9098.4C1745.29,9099.08 1745.88,9099.11 1747.77,9098.58C1749.67,9098.05 1750.08,9098.07 1750.71,9098.7C1751.83,9099.82 1751.08,9101.31 1748.89,9102.27C1747.05,9103.09 1746.97,9103.2 1747.27,9104.8C1748.31,9110.3 1753.03,9114.89 1757.69,9114.91C1761.22,9114.94 1763.01,9116.53 1761.35,9118.19C1760.59,9118.95 1755.91,9118.9 1753.7,9118.11C1750.53,9116.98 1748.54,9115.39 1746.57,9112.45C1744.71,9109.66 1743.2,9105.77 1743.16,9103.66C1743.15,9103.08 1742.51,9102.27 1741.6,9101.7C1740.62,9101.09 1740,9100.28 1739.91,9099.48C1739.71,9097.77 1740.9,9097.41 1743.49,9098.4ZM1743.65,9087.38C1746.21,9085.22 1751.27,9085.15 1755,9087.22C1757.44,9088.57 1759.04,9091.65 1759.04,9094.98C1759.04,9098.6 1757.05,9100.73 1755.31,9098.99C1754.94,9098.62 1754.85,9097.49 1755.04,9095.65C1755.31,9093.04 1755.24,9092.79 1753.9,9091.45C1751.99,9089.54 1748.89,9089.05 1745.56,9090.14C1744.23,9090.57 1742.94,9090.8 1742.68,9090.64C1741.79,9090.09 1742.24,9088.57 1743.65,9087.38ZM1762.07,9055.03C1760.27,9053.81 1755.66,9050.38 1751.83,9047.43C1748,9044.48 1742.38,9040.25 1739.34,9038.03C1734.67,9034.64 1728.39,9029.61 1726.6,9027.82C1725.72,9026.95 1729.85,9027.95 1732.88,9029.35C1738.43,9031.91 1762.98,9050.57 1766.22,9054.69C1766.98,9055.66 1767.09,9056.11 1766.67,9056.61C1765.89,9057.55 1765.68,9057.48 1762.07,9055.03ZM1750.83,9061.88C1742.4,9059.61 1738.63,9057.85 1737.44,9055.62C1736.23,9053.36 1736,9053.32 1750.39,9057.73C1757.35,9059.87 1759.76,9060.99 1759.76,9062.09C1759.76,9063.22 1755.44,9063.12 1750.83,9061.88ZM1761.82,9033.37C1764.35,9035.86 1770.75,9046.62 1770.49,9047.95C1770.2,9049.43 1769.27,9049.16 1767.46,9047.07C1765.54,9044.84 1761.41,9038.12 1760.24,9035.32C1759.85,9034.37 1759.52,9033.03 1759.52,9032.35C1759.52,9031.15 1759.61,9031.19 1761.82,9033.37ZM1727.3,9130.04C1734.05,9134.5 1738.82,9136.85 1744.38,9138.47C1747.03,9139.23 1749.43,9139.87 1749.73,9139.89C1750.03,9139.9 1753.18,9136.83 1756.74,9133.07C1763.25,9126.17 1769.87,9118.52 1772.01,9115.41C1772.65,9114.48 1774.01,9112.72 1775.04,9111.48C1777.39,9108.65 1777.31,9107.35 1774.69,9106.07C1772.89,9105.19 1772.7,9105.19 1770.54,9105.95C1769.3,9106.39 1767.93,9106.76 1767.51,9106.76C1766.18,9106.76 1766.58,9104.56 1768.16,9103.24C1770.79,9101.02 1773.84,9101.02 1777.7,9103.24C1778.84,9103.9 1779.84,9104.36 1779.91,9104.28C1780.56,9103.45 1789.55,9089.22 1792.76,9083.93C1795.01,9080.23 1797.84,9075.66 1799.06,9073.77C1800.27,9071.88 1801.67,9069.5 1802.18,9068.48C1802.68,9067.46 1804.21,9064.81 1805.58,9062.58C1806.94,9060.36 1808.06,9058.41 1808.06,9058.26C1808.06,9058.11 1806.66,9057.26 1804.96,9056.38C1803.26,9055.5 1800.4,9053.55 1798.6,9052.04C1794.94,9048.98 1789.07,9041.95 1787.1,9038.28C1786.39,9036.95 1785.74,9035.79 1785.66,9035.7C1785.59,9035.6 1784.03,9036.52 1782.2,9037.74C1779.14,9039.77 1778.85,9040.11 1778.6,9041.94C1778.3,9044.22 1776.94,9045.91 1775.92,9045.28C1775.55,9045.05 1774.98,9043.12 1774.62,9040.87C1773.97,9036.77 1771.98,9032.03 1769.29,9028.16C1768.54,9027.09 1766.6,9024.26 1764.98,9021.89C1759.57,9013.96 1755.35,9011.08 1742.46,9006.51C1734.37,9003.64 1722.3,8997.62 1715.31,8992.98C1707.46,8987.77 1700.31,8980.56 1697.81,8975.33L1695.98,8971.5L1695.02,8972.69C1692.29,8976.06 1689.36,8983.21 1689.36,8986.49C1689.36,8989.25 1689.44,8989.38 1693.63,8992.93C1695.59,8994.59 1695.59,8996.46 1693.63,9000.55C1690.87,9006.3 1691.23,9013.05 1694.49,9016.86C1697.1,9019.91 1699.38,9020.86 1704.87,9021.21C1708.28,9021.42 1709.77,9021.72 1710.35,9022.29C1711.01,9022.96 1711.15,9024.37 1711.2,9031.16C1711.26,9038.02 1711.44,9039.85 1712.4,9043.32C1714.68,9051.59 1718.78,9058.58 1725.23,9065.22C1729.5,9069.6 1730.8,9070.19 1738.67,9071.25C1744.36,9072.02 1747.95,9071.43 1753.83,9068.78C1759.44,9066.26 1760.93,9065.98 1762.09,9067.26C1762.61,9067.85 1762.9,9068.76 1762.8,9069.59C1762.67,9070.77 1762.13,9071.2 1758.8,9072.82C1751.94,9076.15 1750.16,9076.64 1744.1,9076.86C1737.99,9077.08 1731.89,9076.15 1728.65,9074.49L1726.85,9073.58L1720.28,9078.75C1708.89,9087.73 1707.22,9089.28 1706.61,9091.53C1705.09,9097.08 1706.82,9104.01 1711.96,9112.99C1716.25,9120.48 1721.28,9126.08 1727.3,9130.04Z" style="fill:white;fill-rule:nonzero;"/>
        <path d="M1708.34,9134.07C1714.7,9140.75 1722.76,9145.83 1730.55,9148.05C1735.48,9149.45 1737.18,9149.33 1740.54,9147.32C1742.12,9146.37 1744.02,9145.03 1744.74,9144.35L1746.06,9143.1L1741.17,9141.5C1738.48,9140.62 1734.86,9139.11 1733.12,9138.14C1720.31,9131.01 1714.07,9124.92 1707.84,9113.48C1704.21,9106.81 1702.86,9103.11 1702.5,9098.79C1702.33,9096.83 1702.03,9095.22 1701.82,9095.22C1701.23,9095.22 1696.53,9100.63 1695.97,9101.95C1695.69,9102.61 1695.47,9104.99 1695.47,9107.24C1695.48,9110.9 1695.7,9111.93 1697.69,9117.26C1700.28,9124.22 1702.89,9128.34 1708.34,9134.07Z" style="fill:white;fill-rule:nonzero;"/>
        <path d="M1814.91,9032.84C1818.19,9035.18 1821.47,9036.09 1826.56,9036.09C1829.2,9036.09 1832.88,9035.88 1834.73,9035.61C1839.7,9034.91 1843.65,9033.44 1847.69,9030.8L1851.29,9028.45L1850.31,9026.79C1849.77,9025.88 1849.11,9023.66 1848.83,9021.85C1848.07,9016.93 1848.36,9017.13 1842.01,9017.13C1837.19,9017.13 1836.32,9017.01 1835.13,9016.14C1832.54,9014.24 1831.98,9012.44 1832.29,9006.92L1832.56,9001.99L1830.92,9001.99C1830.02,9001.99 1827.92,9002.42 1826.24,9002.95C1824.57,9003.47 1822.42,9003.91 1821.46,9003.91C1819.46,9003.91 1816.77,9002.29 1815.88,9000.54C1815.15,8999.09 1815.09,8995.32 1815.76,8993.55C1816.03,8992.83 1816.17,8992.17 1816.07,8992.07C1815.63,8991.63 1811.52,8995.88 1810.12,8998.21C1808.22,9001.41 1806.13,9009.27 1806.14,9013.22C1806.17,9021.13 1809.76,9029.17 1814.91,9032.84Z" style="fill:white;fill-rule:nonzero;"/>
        <path d="M1802.41,9079.34C1802.34,9079.5 1803.94,9079.89 1805.96,9080.21C1811.69,9081.12 1814.66,9083.31 1811.09,9083.98C1809.48,9084.28 1806.56,9083.96 1801.54,9082.94C1800.17,9082.66 1799.98,9082.8 1798.91,9084.82C1798.27,9086.02 1797.86,9087.09 1797.98,9087.19C1798.1,9087.3 1800.3,9088.5 1802.86,9089.88C1808.93,9093.13 1813.63,9096.57 1812.95,9097.25C1811.86,9098.33 1804.53,9095.4 1799,9091.67C1797.59,9090.72 1796.27,9089.94 1796.08,9089.94C1795.89,9089.94 1795.27,9090.77 1794.7,9091.78L1793.67,9093.62L1795.14,9095.02C1797.95,9097.7 1799.43,9101.95 1797.54,9101.95C1796.62,9101.95 1793.71,9099.06 1792.66,9097.11C1792.12,9096.1 1791.77,9096.52 1787.14,9103.68C1784.42,9107.88 1781.52,9112.23 1780.71,9113.34C1779.89,9114.45 1779.22,9115.58 1779.22,9115.85C1779.22,9116.66 1781.07,9117.39 1785.42,9118.31C1790.14,9119.32 1798.38,9119.18 1802.53,9118.03C1804.89,9117.38 1809.25,9115 1812.21,9112.74C1813.03,9112.11 1814.37,9110.43 1815.18,9109C1817.18,9105.45 1818.19,9105.25 1822.83,9107.45C1825.95,9108.94 1826.89,9109.16 1830.03,9109.16C1833.15,9109.16 1834.01,9108.96 1836.49,9107.64C1842.1,9104.65 1843.36,9103.09 1847.58,9093.95C1848.36,9092.25 1850.11,9091.74 1852.96,9092.37C1855.18,9092.87 1855.66,9092.83 1857.34,9091.96C1859.84,9090.67 1862.08,9088.28 1863.28,9085.61C1864.24,9083.5 1864.59,9081.29 1863.97,9081.29C1863.8,9081.29 1861.59,9081.98 1859.05,9082.83C1854.58,9084.33 1854.17,9084.38 1846.5,9084.37C1839.95,9084.36 1837.89,9084.18 1834.62,9083.32C1827.04,9081.33 1822.97,9079.42 1813.78,9073.51C1810.98,9071.71 1808.49,9070.24 1808.25,9070.25C1807.92,9070.26 1803.05,9077.83 1802.41,9079.34Z" style="fill:white;fill-rule:nonzero;"/>
        <path d="M1825.48,8999.11C1827.04,8998.56 1829.45,8998.15 1831.07,8998.15C1833.68,8998.15 1834.03,8998.28 1835.2,8999.67C1836.45,9001.15 1836.47,9001.28 1836.15,9005.84C1835.97,9008.4 1835.95,9010.93 1836.12,9011.46C1836.66,9013.13 1838.56,9013.6 1843.36,9013.25C1850.05,9012.76 1851.77,9014.11 1852.46,9020.43C1852.77,9023.25 1853.42,9025.06 1854.12,9025.06C1854.33,9025.06 1855.05,9024.47 1855.73,9023.74C1859.18,9020.07 1863.93,9011.21 1865.28,9005.95C1866.97,8999.33 1866.13,8986.17 1863.47,8977.78L1862.27,8973.97L1858.35,8978.07C1854.15,8982.46 1852.5,8983.51 1847.22,8985.15C1843.78,8986.22 1832.72,8988.05 1829.66,8988.05C1827.52,8988.06 1823.63,8989.97 1821.03,8992.29C1819.45,8993.7 1818.98,8994.49 1818.77,8996.12C1818.27,8999.95 1820.39,9000.9 1825.48,8999.11Z" style="fill:white;fill-rule:nonzero;"/>
        <path d="M1689.34,9114.2C1690.58,9109.74 1691.76,9107.96 1691.76,9110.54C1691.76,9112.37 1694.13,9119.58 1696.13,9123.86C1698.23,9128.35 1704.34,9136.18 1708.5,9139.74C1716.73,9146.77 1720.58,9148.89 1731.17,9152.26C1732.23,9152.6 1729.07,9154.11 1724.87,9155.28C1721.11,9156.32 1720.19,9156.36 1715.39,9155.74C1709.78,9155.01 1706.08,9153.22 1699.82,9148.23C1690.45,9140.76 1685.98,9126.26 1689.34,9114.2ZM1695.97,9101.95C1696.53,9100.63 1701.23,9095.22 1701.82,9095.22C1702.03,9095.22 1702.33,9096.83 1702.5,9098.79C1702.86,9103.11 1704.21,9106.81 1707.84,9113.48C1714.07,9124.92 1720.31,9131.01 1733.12,9138.14C1734.86,9139.11 1738.48,9140.62 1741.17,9141.5L1746.06,9143.1L1744.74,9144.35C1744.02,9145.03 1742.12,9146.37 1740.54,9147.32C1737.18,9149.33 1735.48,9149.45 1730.55,9148.05C1722.76,9145.83 1714.7,9140.75 1708.34,9134.07C1702.89,9128.34 1700.28,9124.22 1697.69,9117.26C1695.7,9111.93 1695.48,9110.9 1695.47,9107.24C1695.47,9104.99 1695.69,9102.61 1695.97,9101.95ZM1706.61,9091.53C1707.22,9089.28 1708.89,9087.73 1720.28,9078.75L1726.85,9073.58L1728.65,9074.49C1731.89,9076.15 1737.99,9077.08 1744.1,9076.86C1750.16,9076.64 1751.94,9076.15 1758.8,9072.82C1762.13,9071.2 1762.67,9070.77 1762.8,9069.59C1762.9,9068.76 1762.61,9067.85 1762.09,9067.26C1760.93,9065.98 1759.44,9066.26 1753.83,9068.78C1747.95,9071.43 1744.36,9072.02 1738.67,9071.25C1730.8,9070.19 1729.5,9069.6 1725.23,9065.22C1718.78,9058.58 1714.68,9051.59 1712.4,9043.32C1711.44,9039.85 1711.26,9038.02 1711.2,9031.16C1711.15,9024.37 1711.01,9022.96 1710.35,9022.29C1709.77,9021.72 1708.28,9021.42 1704.87,9021.21C1699.38,9020.86 1697.1,9019.91 1694.49,9016.86C1691.23,9013.05 1690.87,9006.3 1693.63,9000.55C1695.59,8996.46 1695.59,8994.59 1693.63,8992.93C1689.44,8989.38 1689.36,8989.25 1689.36,8986.49C1689.36,8983.21 1692.29,8976.06 1695.02,8972.69L1695.98,8971.5L1697.81,8975.33C1700.31,8980.56 1707.46,8987.77 1715.31,8992.98C1722.3,8997.62 1734.37,9003.64 1742.46,9006.51C1755.35,9011.08 1759.57,9013.96 1764.98,9021.89C1766.6,9024.26 1768.54,9027.09 1769.29,9028.16C1771.98,9032.03 1773.97,9036.77 1774.62,9040.87C1774.98,9043.12 1775.55,9045.05 1775.92,9045.28C1776.94,9045.91 1778.3,9044.22 1778.6,9041.94C1778.85,9040.11 1779.14,9039.77 1782.2,9037.74C1784.03,9036.52 1785.59,9035.6 1785.66,9035.7C1785.74,9035.79 1786.39,9036.95 1787.1,9038.28C1789.07,9041.95 1794.94,9048.98 1798.6,9052.04C1800.4,9053.55 1803.26,9055.5 1804.96,9056.38C1806.66,9057.26 1808.06,9058.11 1808.06,9058.26C1808.06,9058.41 1806.94,9060.36 1805.58,9062.58C1804.21,9064.81 1802.68,9067.46 1802.18,9068.48C1801.67,9069.5 1800.27,9071.88 1799.06,9073.77C1797.84,9075.66 1795.01,9080.23 1792.76,9083.93C1789.55,9089.22 1780.56,9103.45 1779.91,9104.28C1779.84,9104.36 1778.84,9103.9 1777.7,9103.24C1773.84,9101.02 1770.79,9101.02 1768.16,9103.24C1766.58,9104.56 1766.18,9106.76 1767.51,9106.76C1767.93,9106.76 1769.3,9106.39 1770.54,9105.95C1772.7,9105.19 1772.89,9105.19 1774.69,9106.07C1777.31,9107.35 1777.39,9108.65 1775.04,9111.48C1774.01,9112.72 1772.65,9114.48 1772.01,9115.41C1769.87,9118.52 1763.25,9126.17 1756.74,9133.07C1753.18,9136.83 1750.03,9139.9 1749.73,9139.89C1749.43,9139.87 1747.03,9139.23 1744.38,9138.47C1738.82,9136.85 1734.05,9134.5 1727.3,9130.04C1721.28,9126.08 1716.25,9120.48 1711.96,9112.99C1706.82,9104.01 1705.09,9097.08 1706.61,9091.53ZM1798.93,9021.07L1801.28,9021.34L1802.22,9024.12C1803.62,9028.26 1806.77,9033.33 1809.44,9035.73C1811.92,9037.96 1816.97,9040.71 1819.53,9041.22C1821.03,9041.52 1821.03,9041.53 1821.03,9044.6C1821.03,9048.03 1819.85,9051 1818.02,9052.16C1812.66,9055.56 1803,9050.37 1795.03,9039.82C1791.26,9034.83 1789.81,9031.75 1789.8,9028.76C1789.79,9023.54 1793.49,9020.42 1798.93,9021.07ZM1810.12,8998.21C1811.52,8995.88 1815.63,8991.63 1816.07,8992.07C1816.17,8992.17 1816.03,8992.83 1815.76,8993.55C1815.09,8995.32 1815.15,8999.09 1815.88,9000.54C1816.77,9002.29 1819.46,9003.91 1821.46,9003.91C1822.42,9003.91 1824.57,9003.47 1826.24,9002.95C1827.92,9002.42 1830.02,9001.99 1830.92,9001.99L1832.56,9001.99L1832.29,9006.92C1831.98,9012.44 1832.54,9014.24 1835.13,9016.14C1836.32,9017.01 1837.19,9017.13 1842.01,9017.13C1848.36,9017.13 1848.07,9016.93 1848.83,9021.85C1849.11,9023.66 1849.77,9025.88 1850.31,9026.79L1851.29,9028.45L1847.69,9030.8C1843.65,9033.44 1839.7,9034.91 1834.73,9035.61C1832.88,9035.88 1829.2,9036.09 1826.56,9036.09C1821.47,9036.09 1818.19,9035.18 1814.91,9032.84C1809.76,9029.17 1806.17,9021.13 1806.14,9013.22C1806.13,9009.27 1808.22,9001.41 1810.12,8998.21ZM1818.77,8996.12C1818.98,8994.49 1819.45,8993.7 1821.03,8992.29C1823.63,8989.97 1827.52,8988.06 1829.66,8988.05C1832.72,8988.05 1843.78,8986.22 1847.22,8985.15C1852.5,8983.51 1854.15,8982.46 1858.35,8978.07L1862.27,8973.97L1863.47,8977.78C1866.13,8986.17 1866.97,8999.33 1865.28,9005.95C1863.93,9011.21 1859.18,9020.07 1855.73,9023.74C1855.05,9024.47 1854.33,9025.06 1854.12,9025.06C1853.42,9025.06 1852.77,9023.25 1852.46,9020.43C1851.77,9014.11 1850.05,9012.76 1843.36,9013.25C1838.56,9013.6 1836.66,9013.13 1836.12,9011.46C1835.95,9010.93 1835.97,9008.4 1836.15,9005.84C1836.47,9001.28 1836.45,9001.15 1835.2,8999.67C1834.03,8998.28 1833.68,8998.15 1831.07,8998.15C1829.45,8998.15 1827.04,8998.56 1825.48,8999.11C1820.39,9000.9 1818.27,8999.95 1818.77,8996.12ZM1813.78,9073.51C1822.97,9079.42 1827.04,9081.33 1834.62,9083.32C1837.89,9084.18 1839.95,9084.36 1846.5,9084.37C1854.17,9084.38 1854.58,9084.33 1859.05,9082.83C1861.59,9081.98 1863.8,9081.29 1863.97,9081.29C1864.59,9081.29 1864.24,9083.5 1863.28,9085.61C1862.08,9088.28 1859.84,9090.67 1857.34,9091.96C1855.66,9092.83 1855.18,9092.87 1852.96,9092.37C1850.11,9091.74 1848.36,9092.25 1847.58,9093.95C1843.36,9103.09 1842.1,9104.65 1836.49,9107.64C1834.01,9108.96 1833.15,9109.16 1830.03,9109.16C1826.89,9109.16 1825.95,9108.94 1822.83,9107.45C1818.19,9105.25 1817.18,9105.45 1815.18,9109C1814.37,9110.43 1813.03,9112.11 1812.21,9112.74C1809.25,9115 1804.89,9117.38 1802.53,9118.03C1798.38,9119.18 1790.14,9119.32 1785.42,9118.31C1781.07,9117.39 1779.22,9116.66 1779.22,9115.85C1779.22,9115.58 1779.89,9114.45 1780.71,9113.34C1781.52,9112.23 1784.42,9107.88 1787.14,9103.68C1791.77,9096.52 1792.12,9096.1 1792.66,9097.11C1793.71,9099.06 1796.62,9101.95 1797.54,9101.95C1799.43,9101.95 1797.95,9097.7 1795.14,9095.02L1793.67,9093.62L1794.7,9091.78C1795.27,9090.77 1795.89,9089.94 1796.08,9089.94C1796.27,9089.94 1797.59,9090.72 1799,9091.67C1804.53,9095.4 1811.86,9098.33 1812.95,9097.25C1813.63,9096.57 1808.93,9093.13 1802.86,9089.88C1800.3,9088.5 1798.1,9087.3 1797.98,9087.19C1797.86,9087.09 1798.27,9086.02 1798.91,9084.82C1799.98,9082.8 1800.17,9082.66 1801.54,9082.94C1806.56,9083.96 1809.48,9084.28 1811.09,9083.98C1814.66,9083.31 1811.69,9081.12 1805.96,9080.21C1803.94,9079.89 1802.34,9079.5 1802.41,9079.34C1803.05,9077.83 1807.92,9070.26 1808.25,9070.25C1808.49,9070.24 1810.98,9071.71 1813.78,9073.51ZM1693.17,9149.7C1697.99,9154.74 1705,9159.2 1710.26,9160.57C1711.59,9160.92 1712.88,9161.41 1713.15,9161.66C1714.11,9162.57 1723.46,9161.75 1727.8,9160.37C1731.5,9159.2 1739.51,9154.91 1745.41,9150.96C1751.42,9146.93 1764.18,9134.31 1771.53,9125.14C1773.25,9122.99 1775.01,9121.22 1775.44,9121.21C1775.87,9121.19 1777.19,9121.6 1778.37,9122.13C1782.06,9123.76 1787.05,9124.54 1793.81,9124.54C1800.96,9124.54 1804.03,9123.93 1808.66,9121.59C1814.31,9118.74 1817.92,9115.86 1819.89,9112.61C1819.94,9112.53 1820.92,9112.95 1822.07,9113.56C1823.89,9114.52 1824.86,9114.66 1829.72,9114.67C1835.26,9114.69 1835.31,9114.68 1839.02,9112.79C1844.08,9110.23 1848.27,9106.14 1850.39,9101.68L1852,9098.28L1854.9,9098.29C1858.35,9098.31 1860.53,9097.3 1864.17,9094.03C1866.89,9091.59 1869.29,9087.24 1869.82,9083.83C1870.28,9080.8 1869.28,9076.7 1867.79,9075.53C1866.35,9074.39 1864.21,9074.27 1862.7,9075.25C1860.9,9076.42 1854.62,9078.31 1850.77,9078.83C1844.04,9079.76 1834.3,9078.01 1826.92,9074.56C1823.45,9072.93 1813.24,9066.72 1811.53,9065.2C1811.05,9064.76 1811.32,9064.04 1812.84,9061.67C1814.55,9059.03 1814.94,9058.7 1816.34,9058.69C1821.93,9058.65 1826.8,9052.31 1826.8,9045.05L1826.8,9042.02L1829.75,9041.71C1831.38,9041.54 1833.47,9041.4 1834.41,9041.4C1841.27,9041.4 1853.36,9035.32 1858.63,9029.22C1863.77,9023.26 1868.46,9015.07 1870.5,9008.48C1872.68,9001.43 1872.11,8986.92 1869.27,8977.09C1868.15,8973.23 1867.73,8972.29 1864.85,8967.2C1862.51,8963.07 1860.23,8963.28 1858.59,8967.78C1857.32,8971.25 1852.36,8976.89 1849.26,8978.39C1846.31,8979.81 1840.02,8981.17 1832.33,8982.05C1824.05,8982.99 1817.79,8984.33 1814.95,8985.75C1811.83,8987.3 1806.6,8992.59 1804.84,8995.99C1802.78,8999.93 1800.9,9006.71 1800.53,9011.48L1800.23,9015.45L1797.05,9015.45C1792.73,9015.45 1788.68,9017.34 1786.28,9020.48C1784.78,9022.44 1784.53,9023.17 1784.25,9026.42L1783.92,9030.13L1781.05,9031.72C1779.48,9032.6 1778.09,9033.21 1777.97,9033.1C1777.85,9032.98 1776.91,9031.13 1775.88,9029C1774.84,9026.86 1772.65,9023.1 1771.01,9020.64C1763.58,9009.5 1760.1,9006.91 1745.58,9001.68C1738.03,8998.96 1724.63,8992.41 1718.77,8988.58C1716.31,8986.97 1712.14,8983.56 1709.5,8981C1704.67,8976.31 1703.03,8973.82 1701.34,8968.59C1700.58,8966.22 1698.84,8964.51 1697.19,8964.51C1696.25,8964.51 1695.06,8965.44 1692.44,8968.23C1685.16,8975.99 1682.23,8983.86 1684.11,8990.63C1684.42,8991.72 1685.51,8993.36 1686.78,8994.64L1688.94,8996.8L1687.65,9000C1685.33,9005.74 1685.59,9013.01 1688.3,9018.02C1690.85,9022.73 1696.41,9026.3 1702,9026.82L1705.22,9027.12L1705.22,9031.02C1705.23,9044.84 1710.42,9057.93 1719.75,9067.64L1722.11,9070.1L1716.94,9074.13C1707.7,9081.34 1703.57,9084.96 1698.22,9090.53C1691.49,9097.54 1689.57,9100.08 1686.31,9106.28C1683.04,9112.49 1681.86,9117.76 1682.38,9123.82C1683.33,9134.93 1686.65,9142.9 1693.17,9149.7Z" style="fill-rule:nonzero;"/>
        <path d="M1767.46,9047.07C1769.27,9049.16 1770.2,9049.43 1770.49,9047.95C1770.75,9046.62 1764.35,9035.86 1761.82,9033.37C1759.61,9031.19 1759.52,9031.15 1759.52,9032.35C1759.52,9033.03 1759.85,9034.37 1760.24,9035.32C1761.41,9038.12 1765.54,9044.84 1767.46,9047.07Z" style="fill-rule:nonzero;"/>
        <path d="M1766.67,9056.61C1767.09,9056.11 1766.98,9055.66 1766.22,9054.69C1762.98,9050.57 1738.43,9031.91 1732.88,9029.35C1729.85,9027.95 1725.72,9026.95 1726.6,9027.82C1728.39,9029.61 1734.67,9034.64 1739.34,9038.03C1742.38,9040.25 1748,9044.48 1751.83,9047.43C1755.66,9050.38 1760.27,9053.81 1762.07,9055.03C1765.68,9057.48 1765.89,9057.55 1766.67,9056.61Z" style="fill-rule:nonzero;"/>
        <path d="M1742.68,9090.64C1742.94,9090.8 1744.23,9090.57 1745.56,9090.14C1748.89,9089.05 1751.99,9089.54 1753.9,9091.45C1755.24,9092.79 1755.31,9093.04 1755.04,9095.65C1754.85,9097.49 1754.94,9098.62 1755.31,9098.99C1757.05,9100.73 1759.04,9098.6 1759.04,9094.98C1759.04,9091.65 1757.44,9088.57 1755,9087.22C1751.27,9085.15 1746.21,9085.22 1743.65,9087.38C1742.24,9088.57 1741.79,9090.09 1742.68,9090.64Z" style="fill-rule:nonzero;"/>
        <path d="M1741.6,9101.7C1742.51,9102.27 1743.15,9103.08 1743.16,9103.66C1743.2,9105.77 1744.71,9109.66 1746.57,9112.45C1748.54,9115.39 1750.53,9116.98 1753.7,9118.11C1755.91,9118.9 1760.59,9118.95 1761.35,9118.19C1763.01,9116.53 1761.22,9114.94 1757.69,9114.91C1753.03,9114.89 1748.31,9110.3 1747.27,9104.8C1746.97,9103.2 1747.05,9103.09 1748.89,9102.27C1751.08,9101.31 1751.83,9099.82 1750.71,9098.7C1750.08,9098.07 1749.67,9098.05 1747.77,9098.58C1745.88,9099.11 1745.29,9099.08 1743.49,9098.4C1740.9,9097.41 1739.71,9097.77 1739.91,9099.48C1740,9100.28 1740.62,9101.09 1741.6,9101.7Z" style="fill-rule:nonzero;"/>
        <path d="M1750.39,9057.73C1736,9053.32 1736.23,9053.36 1737.44,9055.62C1738.63,9057.85 1742.4,9059.61 1750.83,9061.88C1755.44,9063.12 1759.76,9063.22 1759.76,9062.09C1759.76,9060.99 1757.35,9059.87 1750.39,9057.73Z" style="fill-rule:nonzero;"/>
    </g>
</svg>
