<?xml version="1.0" encoding="UTF-8" standalone="no"?>
<!DOCTYPE svg PUBLIC "-//W3C//DTD SVG 1.1//EN" "http://www.w3.org/Graphics/SVG/1.1/DTD/svg11.dtd">
<svg width="100%" height="100%" viewBox="0 0 1079 1080" version="1.1" xmlns="http://www.w3.org/2000/svg" xmlns:xlink="http://www.w3.org/1999/xlink" xml:space="preserve" xmlns:serif="http://www.serif.com/" style="fill-rule:evenodd;clip-rule:evenodd;stroke-linejoin:round;stroke-miterlimit:2;">
    <g transform="matrix(5.55556,0,0,5.55556,-10828.2,-50974.9)">
        <path d="M2110.53,9264.7C2109.4,9268.91 2105.19,9270.81 2102.19,9268.46C2101.49,9267.9 2100.57,9266.78 2100.14,9265.95C2099.04,9263.82 2099.55,9256.92 2101.39,9249.08C2103.22,9241.3 2104.36,9239.79 2106.58,9242.19C2107.29,9242.96 2108,9245.29 2109.03,9250.24C2110.91,9259.22 2111.22,9262.16 2110.53,9264.7ZM2106.26,9287.44C2105.44,9288.42 2103.63,9288.41 2100.69,9287.4C2098.96,9286.81 2098.29,9286.75 2098.16,9287.17C2098.05,9287.48 2097.11,9289.02 2096.06,9290.59C2091.38,9297.6 2083.23,9300.18 2072.52,9298.05C2069.28,9297.4 2067.1,9296.49 2064.84,9294.81C2063.64,9293.93 2063.49,9293.92 2062.04,9294.67C2058.27,9296.62 2057.01,9294.43 2060.17,9291.4C2061.6,9290.03 2062.48,9288.65 2062.97,9287C2063.51,9285.22 2063.95,9284.56 2064.7,9284.45C2066.42,9284.21 2067.06,9285.54 2066.51,9288.23C2066.07,9290.36 2066.12,9290.69 2067.02,9291.5C2069.56,9293.82 2075.8,9295.24 2081.59,9294.82C2087.21,9294.42 2092.03,9291.09 2094.24,9286.09C2095.26,9283.78 2095.26,9283.69 2094.43,9281.23C2092.81,9276.47 2094.9,9275.59 2097.81,9279.81C2099.79,9282.69 2100.52,9283.25 2103.77,9284.36C2106.29,9285.21 2107.18,9286.32 2106.26,9287.44ZM2053.23,9280.86C2051.65,9283.77 2047.87,9284.75 2045.49,9282.87C2043.11,9281.01 2042.63,9279.37 2042.94,9274.28C2043.27,9268.92 2045.79,9257.68 2046.94,9256.41C2049.12,9254 2050.55,9256.19 2052.41,9264.83C2054.22,9273.23 2054.49,9278.53 2053.23,9280.86ZM2037.5,9253.12C2035.61,9254.01 2030.13,9255.67 2026.45,9256.46C2024.2,9256.94 2021.45,9257.58 2020.34,9257.88L2018.32,9258.43L2018.42,9265.27C2018.47,9269.03 2018.34,9272.57 2018.14,9273.14C2017.64,9274.52 2016.56,9274.88 2015.65,9273.97C2015.06,9273.38 2014.92,9271.89 2014.92,9266.35L2014.92,9259.46L2012.63,9260.18C2006.36,9262.14 2003.63,9262.82 1998.34,9263.75C1990.09,9265.18 1988.19,9265.35 1987.77,9264.66C1987.57,9264.34 1987.71,9263.8 1988.07,9263.46C1988.73,9262.84 1992.73,9261.37 1996.51,9260.36C1998.44,9259.85 1998.5,9259.78 1998.05,9258.49C1997.8,9257.75 1997.65,9254.35 1997.72,9250.93C1997.85,9244.98 1997.9,9244.7 1998.89,9244.56C2000.49,9244.34 2001.18,9247.08 2001.2,9253.73L2001.22,9259.39L2002.66,9259.08C2003.45,9258.91 2006.48,9258.03 2009.39,9257.11C2016.71,9254.81 2025,9252.65 2026.51,9252.64C2027.21,9252.64 2028.95,9252.1 2030.39,9251.44C2033.88,9249.84 2037.09,9249.4 2037.92,9250.4C2038.68,9251.32 2038.47,9252.66 2037.5,9253.12ZM2032.07,9302.88C2030.59,9305.77 2027.33,9309.04 2024.9,9310.04C2022.8,9310.92 2019.39,9310.94 2016.35,9310.1C2011.58,9308.79 2008.51,9306.31 2006.61,9302.24C2005.3,9299.44 2005.2,9298.85 2005.44,9295.65C2006.07,9287.26 2011,9282.21 2018.52,9282.24C2026.63,9282.27 2032.58,9288.22 2033.08,9296.81C2033.26,9300.07 2033.14,9300.79 2032.07,9302.88ZM2137.34,9281.76C2137.01,9281.67 2135.34,9281.33 2133.63,9281.01C2128.01,9279.96 2124.55,9277.47 2122.42,9272.92C2121.12,9270.13 2121.01,9269.54 2121.25,9266.33C2121.88,9257.99 2126.69,9253.03 2134.3,9252.88L2137.7,9252.81L2137.83,9237.59C2137.9,9229.22 2137.83,9222.36 2137.69,9222.36C2137.15,9222.36 2130.92,9224.46 2128.93,9225.31L2126.89,9226.18L2126.89,9232.12C2126.89,9237.38 2126.78,9238.17 2125.96,9238.91C2125.21,9239.59 2124.85,9239.64 2123.99,9239.18C2122.99,9238.64 2122.95,9238.37 2123.11,9233.13C2123.21,9230.12 2123.15,9227.65 2122.99,9227.65C2122.82,9227.65 2121.74,9227.99 2120.58,9228.4C2116.71,9229.78 2097.88,9235.47 2092.05,9237.02L2086.28,9238.54L2086.04,9245.95C2085.91,9250.03 2085.62,9253.63 2085.41,9253.96C2084.7,9255.05 2083.29,9254.62 2082.67,9253.12C2082.24,9252.07 2082.17,9250.06 2082.42,9245.67C2082.67,9241.48 2082.61,9239.66 2082.25,9239.66C2081.97,9239.66 2078.7,9240.64 2074.99,9241.83C2071.27,9243.02 2067.84,9243.99 2067.35,9243.99C2066.24,9243.99 2065.17,9242.78 2065.63,9242.04C2066.55,9240.55 2076.66,9236.98 2088.68,9233.91C2094.94,9232.31 2103.66,9229.75 2104.17,9229.36C2104.23,9229.31 2104.09,9228.58 2103.85,9227.74C2103.61,9226.91 2103.34,9223.41 2103.26,9219.97C2103.14,9214.74 2103,9213.72 2102.39,9213.74C2101.99,9213.76 2097.98,9214.8 2093.49,9216.05C2086.28,9218.06 2085.25,9218.48 2084.72,9219.57C2084.39,9220.24 2083.85,9221.03 2083.51,9221.31C2082.27,9222.34 2068.02,9226.77 2059.95,9228.63C2055.4,9229.69 2050.77,9230.79 2049.65,9231.08C2048.49,9231.39 2046.35,9231.48 2044.61,9231.3C2041.98,9231.03 2040.87,9231.21 2036.09,9232.69C2033.07,9233.63 2030.55,9234.45 2030.49,9234.51C2030.44,9234.57 2030.57,9235.75 2030.79,9237.14C2031.02,9238.53 2031.34,9241.68 2031.53,9244.15C2031.88,9248.97 2031.44,9250.72 2029.87,9250.72C2028.46,9250.72 2027.93,9248.69 2027.59,9241.83C2027.41,9238.26 2027.17,9235.34 2027.05,9235.34C2026.49,9235.34 2019.93,9237.13 2009.24,9240.19C2002.81,9242.04 1995.24,9244.09 1992.42,9244.75C1985.2,9246.45 1980.62,9247.85 1980.2,9248.49C1979.76,9249.16 1979.72,9362.42 1980.16,9362.85C1980.61,9363.3 1980.83,9363.27 1984.23,9362.26C1985.91,9361.77 1989.68,9360.79 1992.6,9360.1C1995.53,9359.41 2001.26,9357.88 2005.34,9356.69C2009.42,9355.51 2014.97,9353.94 2017.68,9353.21L2022.6,9351.89L2022.6,9341.91C2022.6,9336.42 2022.51,9331.93 2022.4,9331.93C2022.28,9331.93 2019.42,9332.57 2016.03,9333.34C2010.32,9334.65 2007.79,9335.36 2004.1,9336.69C1998.4,9338.75 1990.03,9341.09 1988.79,9340.97C1987.66,9340.86 1987.25,9340.56 1987.13,9339.77C1986.95,9338.46 1988.05,9337.86 1994.49,9335.77C2002.03,9333.34 2001.46,9334.2 2001.46,9325.25C2001.46,9317.22 2001.71,9316.26 2003.72,9316.64C2004.5,9316.79 2004.6,9317.53 2004.72,9324.37C2004.81,9329.95 2005,9331.93 2005.44,9331.93C2005.76,9331.92 2007.11,9331.59 2008.43,9331.18C2009.75,9330.78 2012.87,9330.02 2015.37,9329.5C2017.87,9328.98 2022.08,9327.88 2024.74,9327.06C2027.4,9326.24 2032.38,9324.88 2035.82,9324.04L2042.07,9322.51L2042.38,9319.66C2042.55,9318.08 2042.71,9314.84 2042.74,9312.44C2042.79,9307.55 2043.5,9305.81 2045.04,9306.75C2046.28,9307.51 2046.72,9310.76 2046.37,9316.4L2046.06,9321.3L2049.11,9320.59C2054.14,9319.42 2060.7,9317.57 2065.02,9316.11C2069.95,9314.45 2072.58,9313.97 2074.49,9314.39C2077.78,9315.11 2075.58,9316.81 2068.26,9319.2C2066.01,9319.93 2064.09,9320.6 2063.98,9320.69C2063.88,9320.78 2064.1,9321.22 2064.47,9321.66C2064.96,9322.26 2065.18,9324.59 2065.3,9330.83L2065.47,9339.2L2066.98,9338.87C2067.82,9338.7 2070.34,9338.07 2072.58,9337.48L2076.67,9336.41L2076.91,9331.07C2077.04,9328.13 2077.36,9325.53 2077.63,9325.28C2077.89,9325.03 2081.14,9324.15 2084.84,9323.32C2095.21,9320.98 2103.69,9318.66 2108.66,9316.8C2111.84,9315.61 2113.62,9315.19 2114.63,9315.39C2115.42,9315.55 2118.49,9316.76 2121.44,9318.08L2126.81,9320.48L2132.26,9318.57L2137.7,9316.66L2137.82,9299.3C2137.92,9285.63 2137.82,9281.89 2137.34,9281.76Z" style="fill:rgb(225,244,42);fill-rule:nonzero;"/>
        <path d="M2130.23,9257.81C2127.08,9259.41 2125.5,9262.08 2125.1,9266.47C2124.87,9268.98 2125.01,9269.65 2126.17,9271.79C2126.91,9273.14 2127.93,9274.63 2128.45,9275.1C2129.62,9276.16 2134.34,9277.6 2136.26,9277.48L2137.7,9277.39L2137.83,9267.41L2137.96,9257.43L2136.72,9256.96C2134.68,9256.19 2132.98,9256.41 2130.23,9257.81Z" style="fill:white;fill-rule:nonzero;"/>
        <path d="M2075.83,9220.15L2080.75,9218.39L2080.75,9214.13C2080.75,9211.79 2080.62,9209.87 2080.46,9209.87C2080.29,9209.87 2077.43,9210.75 2074.09,9211.83C2068.6,9213.59 2061.55,9215.41 2052.87,9217.3C2047.68,9218.43 2047.11,9218.75 2047.12,9220.55C2047.12,9221.42 2047.26,9223.28 2047.43,9224.69L2047.74,9227.26L2049.78,9226.95C2050.9,9226.78 2056.11,9225.58 2061.36,9224.27C2066.61,9222.97 2073.12,9221.11 2075.83,9220.15Z" style="fill:white;fill-rule:nonzero;"/>
        <path d="M2132.32,9203.13C2128.06,9204.76 2113.78,9209.9 2109.16,9211.47L2106.09,9212.51L2106.39,9217.8C2106.56,9220.71 2106.7,9224.35 2106.7,9225.9C2106.7,9227.95 2106.87,9228.66 2107.3,9228.49C2107.63,9228.37 2109.53,9227.79 2111.51,9227.21C2115.15,9226.14 2116.49,9225.68 2128.48,9221.38C2132.13,9220.07 2135.75,9219 2136.53,9219L2137.94,9219L2137.94,9210.35C2137.94,9200.28 2138.37,9200.83 2132.32,9203.13Z" style="fill:white;fill-rule:nonzero;"/>
        <path d="M2107.17,9340.32C2101.99,9341.45 2101.42,9341.77 2101.42,9343.57C2101.42,9344.44 2101.56,9346.3 2101.73,9347.72L2102.04,9350.28L2104.08,9349.98C2105.2,9349.81 2110.41,9348.6 2115.66,9347.3C2120.91,9345.99 2127.42,9344.13 2130.13,9343.17L2135.06,9341.42L2135.06,9337.16C2135.06,9334.81 2134.92,9332.89 2134.76,9332.89C2134.6,9332.89 2131.73,9333.77 2128.39,9334.85C2122.91,9336.62 2115.85,9338.44 2107.17,9340.32Z" style="fill:white;fill-rule:nonzero;"/>
        <path d="M2097.73,9345.27L2097.43,9341.11L2094.98,9339.42C2093.63,9338.49 2091.23,9336.77 2089.64,9335.59C2088.06,9334.41 2085.4,9332.57 2083.74,9331.5L2080.72,9329.54L2080.85,9333.96L2080.99,9338.38L2084.44,9340.41C2086.34,9341.53 2090.1,9344.08 2092.8,9346.09C2095.5,9348.09 2097.78,9349.66 2097.87,9349.58C2097.95,9349.5 2097.89,9347.55 2097.73,9345.27Z" style="fill:white;fill-rule:nonzero;"/>
        <path d="M2115.51,9334.31C2126.15,9331.71 2133.93,9329.17 2133.25,9328.5C2132.27,9327.52 2115.53,9319.44 2114.48,9319.44C2113.84,9319.44 2110.26,9320.43 2106.52,9321.63C2102.79,9322.84 2096.3,9324.64 2092.1,9325.63L2084.47,9327.44L2086.2,9328.46C2087.15,9329.02 2090.02,9331.04 2092.57,9332.95C2099.26,9337.96 2099.85,9338.21 2102.96,9337.4C2104.36,9337.04 2110.01,9335.65 2115.51,9334.31Z" style="fill:white;fill-rule:nonzero;"/>
        <path d="M2019.41,9285.99C2017.48,9285.77 2016.63,9285.96 2014.45,9287.08C2011.26,9288.73 2009.69,9291.39 2009.29,9295.79C2009.06,9298.3 2009.19,9298.97 2010.36,9301.11C2012.11,9304.33 2013.03,9305.1 2016.28,9306.09C2020.13,9307.26 2023.16,9306.95 2025.39,9305.17C2027.85,9303.19 2029.5,9300.08 2029.41,9297.62C2029.17,9291.37 2025.09,9286.62 2019.41,9285.99Z" style="fill:white;fill-rule:nonzero;"/>
        <path d="M2043.42,9222.24L2043.13,9218.08L2040.68,9216.4C2039.33,9215.47 2036.91,9213.76 2035.31,9212.61L2032.39,9210.5L2029.94,9213.22L2027.5,9215.94L2030.22,9217.45C2031.71,9218.27 2035.29,9220.69 2038.18,9222.82C2041.06,9224.96 2043.48,9226.64 2043.57,9226.55C2043.65,9226.47 2043.58,9224.53 2043.42,9222.24Z" style="fill:white;fill-rule:nonzero;"/>
        <path d="M2076.75,9199.83C2079.35,9201.22 2082.18,9203.09 2083.03,9203.99C2084.51,9205.53 2084.6,9205.8 2084.6,9209.24C2084.6,9212.26 2084.72,9212.81 2085.32,9212.58C2085.71,9212.43 2090.32,9211.12 2095.55,9209.68C2100.79,9208.24 2107.98,9205.98 2111.53,9204.67C2116.72,9202.75 2134.28,9196.61 2137.46,9195.61C2138.49,9195.28 2136.16,9193.5 2131.57,9191.1C2129.52,9190.03 2126.6,9188.07 2125.08,9186.73C2123.56,9185.39 2121.41,9183.67 2120.3,9182.9L2118.27,9181.49L2114.77,9182.42C2112.84,9182.93 2109.65,9183.99 2107.66,9184.78C2105.68,9185.57 2102.11,9186.87 2099.73,9187.66C2097.36,9188.46 2092.43,9190.22 2088.78,9191.57C2085.13,9192.92 2079.97,9194.66 2077.32,9195.43C2074.66,9196.2 2072.38,9196.93 2072.26,9197.06C2072.13,9197.19 2074.15,9198.44 2076.75,9199.83Z" style="fill:white;fill-rule:nonzero;"/>
        <path d="M2053.24,9323.58C2048.68,9324.8 2042.36,9326.41 2039.18,9327.16C2036.01,9327.91 2031.9,9328.97 2030.05,9329.51C2028.2,9330.05 2026.64,9330.49 2026.57,9330.49C2026.5,9330.49 2026.45,9335.03 2026.45,9340.58C2026.45,9348.02 2026.6,9350.67 2027.02,9350.67C2027.33,9350.67 2030.19,9349.9 2033.38,9348.95C2036.57,9348 2044.16,9345.65 2050.24,9343.72L2061.29,9340.23L2061.53,9330.79C2061.66,9325.6 2061.71,9321.36 2061.65,9321.36C2061.58,9321.36 2057.79,9322.36 2053.24,9323.58Z" style="fill:white;fill-rule:nonzero;"/>
        <path d="M2007.48,9213.35C2008.11,9212.9 2019.74,9199.9 2022.64,9196.41C2025.94,9192.44 2029.84,9187.16 2029.64,9186.95C2029.1,9186.41 2010.33,9189.28 2008.71,9190.15C2008.19,9190.43 2006.74,9192 2005.49,9193.66C2000.91,9199.71 1997.78,9203.49 1993.42,9208.24C1990.97,9210.92 1988.97,9213.24 1988.97,9213.41C1988.97,9213.84 2006.88,9213.78 2007.48,9213.35Z" style="fill:rgb(225,244,42);fill-rule:nonzero;"/>
        <path d="M2011.07,9215.84C2011.07,9216.39 2012.23,9218.08 2014.78,9221.27C2015.25,9221.86 2015.86,9222.3 2016.13,9222.24C2016.4,9222.17 2018.89,9219.64 2021.66,9216.6C2029.38,9208.14 2037.03,9198.67 2037.84,9196.57C2038.02,9196.09 2033.43,9189.69 2032.91,9189.69C2032.81,9189.69 2031.8,9190.93 2030.68,9192.45C2027.37,9196.91 2022.27,9202.96 2016.48,9209.31C2013.5,9212.57 2011.07,9215.51 2011.07,9215.84Z" style="fill:white;fill-rule:nonzero;"/>
        <path d="M2035.12,9207.39C2035.15,9207.83 2042.63,9213.26 2044.55,9214.24C2045.95,9214.95 2046.4,9214.96 2048.66,9214.38C2050.06,9214.02 2055.7,9212.62 2061.21,9211.28C2071.85,9208.69 2079.62,9206.15 2078.95,9205.47C2077.97,9204.5 2061.23,9196.41 2060.18,9196.41C2059.55,9196.41 2055.72,9197.48 2051.68,9198.77C2047.64,9200.07 2043.1,9201.41 2041.58,9201.74C2039.16,9202.29 2038.6,9202.65 2036.96,9204.72C2035.94,9206.01 2035.11,9207.22 2035.12,9207.39Z" style="fill:rgb(225,244,42);fill-rule:nonzero;"/>
        <path d="M1991.8,9224.53L2001.91,9224.53C2008.92,9224.53 2012.03,9224.37 2012.03,9224C2012.03,9223.71 2011.57,9223.06 2011.01,9222.56C2010.46,9222.06 2009.36,9220.73 2008.59,9219.6L2007.18,9217.56L1997.11,9217.56C1990.3,9217.56 1987.04,9217.73 1987.04,9218.07C1987.04,9218.63 1988.98,9221.41 1990.71,9223.33L1991.8,9224.53Z" style="fill:white;fill-rule:nonzero;"/>
        <path d="M1961.98,9353.61C1964,9354.72 1966.84,9356.7 1968.28,9358.01C1970.39,9359.93 1973.81,9362.51 1974.43,9362.66C1974.49,9362.68 1974.55,9336.87 1974.55,9305.32L1974.55,9247.94L1971.3,9246C1969.52,9244.94 1966.62,9242.8 1964.87,9241.26C1960.92,9237.81 1956,9234.68 1955.06,9235.04C1954.46,9235.28 1954.37,9242.81 1954.37,9292.03L1954.37,9348.75L1956.34,9350.18C1957.42,9350.96 1959.96,9352.51 1961.98,9353.61Z" style="fill:white;fill-rule:nonzero;"/>
        <path d="M1962.19,9232.47C1964.25,9233.58 1967.14,9235.59 1968.63,9236.95C1971.02,9239.15 1976.21,9242.89 1977.01,9242.99C1977.17,9243.01 1979.44,9242.41 1982.05,9241.65L1982.06,9241.65C1984.67,9240.89 1989.18,9239.7 1992.09,9239.01C1995,9238.32 2000.4,9236.88 2004.1,9235.81C2007.8,9234.74 2015.92,9232.48 2022.15,9230.8C2028.37,9229.11 2034.17,9227.44 2035.02,9227.09L2036.58,9226.45L2033.8,9224.43C2032.27,9223.32 2029.67,9221.55 2028.02,9220.49L2025.03,9218.56L2021.59,9222.5C2016.32,9228.54 2016.86,9228.38 2002.97,9228.21C1996.52,9228.13 1990.77,9227.88 1990.19,9227.66C1989.6,9227.44 1988.06,9226.06 1986.76,9224.59L1984.4,9221.93L1980.32,9223.13C1978.07,9223.79 1973.64,9224.98 1970.46,9225.77C1958.43,9228.78 1957.14,9229.19 1957.82,9229.86C1958.17,9230.19 1960.13,9231.37 1962.19,9232.47Z" style="fill:white;fill-rule:nonzero;"/>
        <path d="M2046.94,9256.41C2045.79,9257.68 2043.27,9268.92 2042.94,9274.28C2042.63,9279.37 2043.11,9281.01 2045.49,9282.87C2047.87,9284.75 2051.65,9283.77 2053.23,9280.86C2054.49,9278.53 2054.22,9273.23 2052.41,9264.83C2050.55,9256.19 2049.12,9254 2046.94,9256.41Z" style="fill-rule:nonzero;"/>
        <path d="M2103.77,9284.36C2100.52,9283.25 2099.79,9282.69 2097.81,9279.81C2094.9,9275.59 2092.81,9276.47 2094.43,9281.23C2095.26,9283.69 2095.26,9283.78 2094.24,9286.09C2092.03,9291.09 2087.21,9294.42 2081.59,9294.82C2075.8,9295.24 2069.56,9293.82 2067.02,9291.5C2066.12,9290.69 2066.07,9290.36 2066.51,9288.23C2067.06,9285.54 2066.42,9284.21 2064.7,9284.45C2063.95,9284.56 2063.51,9285.22 2062.97,9287C2062.48,9288.65 2061.6,9290.03 2060.17,9291.4C2057.01,9294.43 2058.27,9296.62 2062.04,9294.67C2063.49,9293.92 2063.64,9293.93 2064.84,9294.81C2067.1,9296.49 2069.28,9297.4 2072.52,9298.05C2083.23,9300.18 2091.38,9297.6 2096.06,9290.59C2097.11,9289.02 2098.05,9287.48 2098.16,9287.17C2098.29,9286.75 2098.96,9286.81 2100.69,9287.4C2103.63,9288.41 2105.44,9288.42 2106.26,9287.44C2107.18,9286.32 2106.29,9285.21 2103.77,9284.36Z" style="fill-rule:nonzero;"/>
        <path d="M2106.58,9242.19C2104.36,9239.79 2103.22,9241.3 2101.39,9249.08C2099.55,9256.92 2099.04,9263.82 2100.14,9265.95C2100.57,9266.78 2101.49,9267.9 2102.19,9268.46C2105.19,9270.81 2109.4,9268.91 2110.53,9264.7C2111.22,9262.16 2110.91,9259.22 2109.03,9250.24C2108,9245.29 2107.29,9242.96 2106.58,9242.19Z" style="fill-rule:nonzero;"/>
        <path d="M2025.39,9305.17C2023.16,9306.95 2020.13,9307.26 2016.28,9306.09C2013.03,9305.1 2012.11,9304.33 2010.36,9301.11C2009.19,9298.97 2009.06,9298.3 2009.29,9295.79C2009.69,9291.39 2011.26,9288.73 2014.45,9287.08C2016.63,9285.96 2017.48,9285.77 2019.41,9285.99C2025.09,9286.62 2029.17,9291.37 2029.41,9297.62C2029.5,9300.08 2027.85,9303.19 2025.39,9305.17ZM2018.52,9282.24C2011,9282.21 2006.07,9287.26 2005.44,9295.65C2005.2,9298.85 2005.3,9299.44 2006.61,9302.24C2008.51,9306.31 2011.58,9308.79 2016.35,9310.1C2019.39,9310.94 2022.8,9310.92 2024.9,9310.04C2027.33,9309.04 2030.59,9305.77 2032.07,9302.88C2033.14,9300.79 2033.26,9300.07 2033.08,9296.81C2032.58,9288.22 2026.63,9282.27 2018.52,9282.24Z" style="fill-rule:nonzero;"/>
        <path d="M2030.39,9251.44C2028.95,9252.1 2027.21,9252.64 2026.51,9252.64C2025,9252.65 2016.71,9254.81 2009.39,9257.11C2006.48,9258.03 2003.45,9258.91 2002.66,9259.08L2001.22,9259.39L2001.2,9253.73C2001.18,9247.08 2000.49,9244.34 1998.89,9244.56C1997.9,9244.7 1997.85,9244.98 1997.72,9250.93C1997.65,9254.35 1997.8,9257.75 1998.05,9258.49C1998.5,9259.78 1998.44,9259.85 1996.51,9260.36C1992.73,9261.37 1988.73,9262.84 1988.07,9263.46C1987.71,9263.8 1987.57,9264.34 1987.77,9264.66C1988.19,9265.35 1990.09,9265.18 1998.34,9263.75C2003.63,9262.82 2006.36,9262.14 2012.63,9260.18L2014.92,9259.46L2014.92,9266.35C2014.92,9271.89 2015.06,9273.38 2015.65,9273.97C2016.56,9274.88 2017.64,9274.52 2018.14,9273.14C2018.34,9272.57 2018.47,9269.03 2018.42,9265.27L2018.32,9258.43L2020.34,9257.88C2021.45,9257.58 2024.2,9256.94 2026.45,9256.46C2030.13,9255.67 2035.61,9254.01 2037.5,9253.12C2038.47,9252.66 2038.68,9251.32 2037.92,9250.4C2037.09,9249.4 2033.88,9249.84 2030.39,9251.44Z" style="fill-rule:nonzero;"/>
        <path d="M1954.37,9292.03C1954.37,9242.81 1954.46,9235.28 1955.06,9235.04C1956,9234.68 1960.92,9237.81 1964.87,9241.26C1966.62,9242.8 1969.52,9244.94 1971.3,9246L1974.55,9247.94L1974.55,9305.32C1974.55,9336.87 1974.49,9362.68 1974.43,9362.66C1973.81,9362.51 1970.39,9359.93 1968.28,9358.01C1966.84,9356.7 1964,9354.72 1961.98,9353.61C1959.96,9352.51 1957.42,9350.96 1956.34,9350.18L1954.37,9348.75L1954.37,9292.03ZM1970.46,9225.77C1973.64,9224.98 1978.07,9223.79 1980.32,9223.13L1984.4,9221.93L1986.76,9224.59C1988.06,9226.06 1989.6,9227.44 1990.19,9227.66C1990.77,9227.88 1996.52,9228.13 2002.97,9228.21C2016.86,9228.38 2016.32,9228.54 2021.59,9222.5L2025.03,9218.56L2028.02,9220.49C2029.67,9221.55 2032.27,9223.32 2033.8,9224.43L2036.58,9226.45L2035.02,9227.09C2034.17,9227.44 2028.37,9229.11 2022.15,9230.8C2015.92,9232.48 2007.8,9234.74 2004.1,9235.81C2000.4,9236.88 1995,9238.32 1992.09,9239.01C1989.18,9239.7 1984.67,9240.89 1982.06,9241.65L1982.05,9241.65C1979.44,9242.41 1977.17,9243.01 1977.01,9242.99C1976.21,9242.89 1971.02,9239.15 1968.63,9236.95C1967.14,9235.59 1964.25,9233.58 1962.19,9232.47C1960.13,9231.37 1958.17,9230.19 1957.82,9229.86C1957.14,9229.19 1958.43,9228.78 1970.46,9225.77ZM1997.11,9217.56L2007.18,9217.56L2008.59,9219.6C2009.36,9220.73 2010.46,9222.06 2011.01,9222.56C2011.57,9223.06 2012.03,9223.71 2012.03,9224C2012.03,9224.37 2008.92,9224.53 2001.91,9224.53L1991.8,9224.53L1990.71,9223.33C1988.98,9221.41 1987.04,9218.63 1987.04,9218.07C1987.04,9217.73 1990.3,9217.56 1997.11,9217.56ZM1993.42,9208.24C1997.78,9203.49 2000.91,9199.71 2005.49,9193.66C2006.74,9192 2008.19,9190.43 2008.71,9190.15C2010.33,9189.28 2029.1,9186.41 2029.64,9186.95C2029.84,9187.16 2025.94,9192.44 2022.64,9196.41C2019.74,9199.9 2008.11,9212.9 2007.48,9213.35C2006.88,9213.78 1988.97,9213.84 1988.97,9213.41C1988.97,9213.24 1990.97,9210.92 1993.42,9208.24ZM2030.68,9192.45C2031.8,9190.93 2032.81,9189.69 2032.91,9189.69C2033.43,9189.69 2038.02,9196.09 2037.84,9196.57C2037.03,9198.67 2029.38,9208.14 2021.66,9216.6C2018.89,9219.64 2016.4,9222.17 2016.13,9222.24C2015.86,9222.3 2015.25,9221.86 2014.78,9221.27C2012.23,9218.08 2011.07,9216.39 2011.07,9215.84C2011.07,9215.51 2013.5,9212.57 2016.48,9209.31C2022.27,9202.96 2027.37,9196.91 2030.68,9192.45ZM2041.58,9201.74C2043.1,9201.41 2047.64,9200.07 2051.68,9198.77C2055.72,9197.48 2059.55,9196.41 2060.18,9196.41C2061.23,9196.41 2077.97,9204.5 2078.95,9205.47C2079.62,9206.15 2071.85,9208.69 2061.21,9211.28C2055.7,9212.62 2050.06,9214.02 2048.66,9214.38C2046.4,9214.96 2045.95,9214.95 2044.55,9214.24C2042.63,9213.26 2035.15,9207.83 2035.12,9207.39C2035.11,9207.22 2035.94,9206.01 2036.96,9204.72C2038.6,9202.65 2039.16,9202.29 2041.58,9201.74ZM2077.32,9195.43C2079.97,9194.66 2085.13,9192.92 2088.78,9191.57C2092.43,9190.22 2097.36,9188.46 2099.73,9187.66C2102.11,9186.87 2105.68,9185.57 2107.66,9184.78C2109.65,9183.99 2112.84,9182.93 2114.77,9182.42L2118.27,9181.49L2120.3,9182.9C2121.41,9183.67 2123.56,9185.39 2125.08,9186.73C2126.6,9188.07 2129.52,9190.03 2131.57,9191.1C2136.16,9193.5 2138.49,9195.28 2137.46,9195.61C2134.28,9196.61 2116.72,9202.75 2111.53,9204.67C2107.98,9205.98 2100.79,9208.24 2095.55,9209.68C2090.32,9211.12 2085.71,9212.43 2085.32,9212.58C2084.72,9212.81 2084.6,9212.26 2084.6,9209.24C2084.6,9205.8 2084.51,9205.53 2083.03,9203.99C2082.18,9203.09 2079.35,9201.22 2076.75,9199.83C2074.15,9198.44 2072.13,9197.19 2072.26,9197.06C2072.38,9196.93 2074.66,9196.2 2077.32,9195.43ZM2137.94,9210.35L2137.94,9219L2136.53,9219C2135.75,9219 2132.13,9220.07 2128.48,9221.38C2116.49,9225.68 2115.15,9226.14 2111.51,9227.21C2109.53,9227.79 2107.63,9228.37 2107.3,9228.49C2106.87,9228.66 2106.7,9227.95 2106.7,9225.9C2106.7,9224.35 2106.56,9220.71 2106.39,9217.8L2106.09,9212.51L2109.16,9211.47C2113.78,9209.9 2128.06,9204.76 2132.32,9203.13C2138.37,9200.83 2137.94,9200.28 2137.94,9210.35ZM2137.83,9267.41L2137.7,9277.39L2136.26,9277.48C2134.34,9277.6 2129.62,9276.16 2128.45,9275.1C2127.93,9274.63 2126.91,9273.14 2126.17,9271.79C2125.01,9269.65 2124.87,9268.98 2125.1,9266.47C2125.5,9262.08 2127.08,9259.41 2130.23,9257.81C2132.98,9256.41 2134.68,9256.19 2136.72,9256.96L2137.96,9257.43L2137.83,9267.41ZM2049.78,9226.95L2047.74,9227.26L2047.43,9224.69C2047.26,9223.28 2047.12,9221.42 2047.12,9220.55C2047.11,9218.75 2047.68,9218.43 2052.87,9217.3C2061.55,9215.41 2068.6,9213.59 2074.09,9211.83C2077.43,9210.75 2080.29,9209.87 2080.46,9209.87C2080.62,9209.87 2080.75,9211.79 2080.75,9214.13L2080.75,9218.39L2075.83,9220.15C2073.12,9221.11 2066.61,9222.97 2061.36,9224.27C2056.11,9225.58 2050.9,9226.78 2049.78,9226.95ZM2038.18,9222.82C2035.29,9220.69 2031.71,9218.27 2030.22,9217.45L2027.5,9215.94L2029.94,9213.22L2032.39,9210.5L2035.31,9212.61C2036.91,9213.76 2039.33,9215.47 2040.68,9216.4L2043.13,9218.08L2043.42,9222.24C2043.58,9224.53 2043.65,9226.47 2043.57,9226.55C2043.48,9226.64 2041.06,9224.96 2038.18,9222.82ZM2137.82,9299.3L2137.7,9316.66L2132.26,9318.57L2126.81,9320.48L2121.44,9318.08C2118.49,9316.76 2115.42,9315.55 2114.63,9315.39C2113.62,9315.19 2111.84,9315.61 2108.66,9316.8C2103.69,9318.66 2095.21,9320.98 2084.84,9323.32C2081.14,9324.15 2077.89,9325.03 2077.63,9325.28C2077.36,9325.53 2077.04,9328.13 2076.91,9331.07L2076.67,9336.41L2072.58,9337.48C2070.34,9338.07 2067.82,9338.7 2066.98,9338.87L2065.47,9339.2L2065.3,9330.83C2065.18,9324.59 2064.96,9322.26 2064.47,9321.66C2064.1,9321.22 2063.88,9320.78 2063.98,9320.69C2064.09,9320.6 2066.01,9319.93 2068.26,9319.2C2075.58,9316.81 2077.78,9315.11 2074.49,9314.39C2072.58,9313.97 2069.95,9314.45 2065.02,9316.11C2060.7,9317.57 2054.14,9319.42 2049.11,9320.59L2046.06,9321.3L2046.37,9316.4C2046.72,9310.76 2046.28,9307.51 2045.04,9306.75C2043.5,9305.81 2042.79,9307.55 2042.74,9312.44C2042.71,9314.84 2042.55,9318.08 2042.38,9319.66L2042.07,9322.51L2035.82,9324.04C2032.38,9324.88 2027.4,9326.24 2024.74,9327.06C2022.08,9327.88 2017.87,9328.98 2015.37,9329.5C2012.87,9330.02 2009.75,9330.78 2008.43,9331.18C2007.11,9331.59 2005.76,9331.92 2005.44,9331.93C2005,9331.93 2004.81,9329.95 2004.72,9324.37C2004.6,9317.53 2004.5,9316.79 2003.72,9316.64C2001.71,9316.26 2001.46,9317.22 2001.46,9325.25C2001.46,9334.2 2002.03,9333.34 1994.49,9335.77C1988.05,9337.86 1986.95,9338.46 1987.13,9339.77C1987.25,9340.56 1987.66,9340.86 1988.79,9340.97C1990.03,9341.09 1998.4,9338.75 2004.1,9336.69C2007.79,9335.36 2010.32,9334.65 2016.03,9333.34C2019.42,9332.57 2022.28,9331.93 2022.4,9331.93C2022.51,9331.93 2022.6,9336.42 2022.6,9341.91L2022.6,9351.89L2017.68,9353.21C2014.97,9353.94 2009.42,9355.51 2005.34,9356.69C2001.26,9357.88 1995.53,9359.41 1992.6,9360.1C1989.68,9360.79 1985.91,9361.77 1984.23,9362.26C1980.83,9363.27 1980.61,9363.3 1980.16,9362.85C1979.72,9362.42 1979.76,9249.16 1980.2,9248.49C1980.62,9247.85 1985.2,9246.45 1992.42,9244.75C1995.24,9244.09 2002.81,9242.04 2009.24,9240.19C2019.93,9237.13 2026.49,9235.34 2027.05,9235.34C2027.17,9235.34 2027.41,9238.26 2027.59,9241.83C2027.93,9248.69 2028.46,9250.72 2029.87,9250.72C2031.44,9250.72 2031.88,9248.97 2031.53,9244.15C2031.34,9241.68 2031.02,9238.53 2030.79,9237.14C2030.57,9235.75 2030.44,9234.57 2030.49,9234.51C2030.55,9234.45 2033.07,9233.63 2036.09,9232.69C2040.87,9231.21 2041.98,9231.03 2044.61,9231.3C2046.35,9231.48 2048.49,9231.39 2049.65,9231.08C2050.77,9230.79 2055.4,9229.69 2059.95,9228.63C2068.02,9226.77 2082.27,9222.34 2083.51,9221.31C2083.85,9221.03 2084.39,9220.24 2084.72,9219.57C2085.25,9218.48 2086.28,9218.06 2093.49,9216.05C2097.98,9214.8 2101.99,9213.76 2102.39,9213.74C2103,9213.72 2103.14,9214.74 2103.26,9219.97C2103.34,9223.41 2103.61,9226.91 2103.85,9227.74C2104.09,9228.58 2104.23,9229.31 2104.17,9229.36C2103.66,9229.75 2094.94,9232.31 2088.68,9233.91C2076.66,9236.98 2066.55,9240.55 2065.63,9242.04C2065.17,9242.78 2066.24,9243.99 2067.35,9243.99C2067.84,9243.99 2071.27,9243.02 2074.99,9241.83C2078.7,9240.64 2081.97,9239.66 2082.25,9239.66C2082.61,9239.66 2082.67,9241.48 2082.42,9245.67C2082.17,9250.06 2082.24,9252.07 2082.67,9253.12C2083.29,9254.62 2084.7,9255.05 2085.41,9253.96C2085.62,9253.63 2085.91,9250.03 2086.04,9245.95L2086.28,9238.54L2092.05,9237.02C2097.88,9235.47 2116.71,9229.78 2120.58,9228.4C2121.74,9227.99 2122.82,9227.65 2122.99,9227.65C2123.15,9227.65 2123.21,9230.12 2123.11,9233.13C2122.95,9238.37 2122.99,9238.64 2123.99,9239.18C2124.85,9239.64 2125.21,9239.59 2125.96,9238.91C2126.78,9238.17 2126.89,9237.38 2126.89,9232.12L2126.89,9226.18L2128.93,9225.31C2130.92,9224.46 2137.15,9222.36 2137.69,9222.36C2137.83,9222.36 2137.9,9229.22 2137.83,9237.59L2137.7,9252.81L2134.3,9252.88C2126.69,9253.03 2121.88,9257.99 2121.25,9266.33C2121.01,9269.54 2121.12,9270.13 2122.42,9272.92C2124.55,9277.47 2128.01,9279.96 2133.63,9281.01C2135.34,9281.33 2137.01,9281.67 2137.34,9281.76C2137.82,9281.89 2137.92,9285.63 2137.82,9299.3ZM2134.76,9332.89C2134.92,9332.89 2135.06,9334.81 2135.06,9337.16L2135.06,9341.42L2130.13,9343.17C2127.42,9344.13 2120.91,9345.99 2115.66,9347.3C2110.41,9348.6 2105.2,9349.81 2104.08,9349.98L2102.04,9350.28L2101.73,9347.72C2101.56,9346.3 2101.42,9344.44 2101.42,9343.57C2101.42,9341.77 2101.99,9341.45 2107.17,9340.32C2115.85,9338.44 2122.91,9336.62 2128.39,9334.85C2131.73,9333.77 2134.6,9332.89 2134.76,9332.89ZM2092.57,9332.95C2090.02,9331.04 2087.15,9329.02 2086.2,9328.46L2084.47,9327.44L2092.1,9325.63C2096.3,9324.64 2102.79,9322.84 2106.52,9321.63C2110.26,9320.43 2113.84,9319.44 2114.48,9319.44C2115.53,9319.44 2132.27,9327.52 2133.25,9328.5C2133.93,9329.17 2126.15,9331.71 2115.51,9334.31C2110.01,9335.65 2104.36,9337.04 2102.96,9337.4C2099.85,9338.21 2099.26,9337.96 2092.57,9332.95ZM2097.87,9349.58C2097.78,9349.66 2095.5,9348.09 2092.8,9346.09C2090.1,9344.08 2086.34,9341.53 2084.44,9340.41L2080.99,9338.38L2080.85,9333.96L2080.72,9329.54L2083.74,9331.5C2085.4,9332.57 2088.06,9334.41 2089.64,9335.59C2091.23,9336.77 2093.63,9338.49 2094.98,9339.42L2097.43,9341.11L2097.73,9345.27C2097.89,9347.55 2097.95,9349.5 2097.87,9349.58ZM2061.53,9330.79L2061.29,9340.23L2050.24,9343.72C2044.16,9345.65 2036.57,9348 2033.38,9348.95C2030.19,9349.9 2027.33,9350.67 2027.02,9350.67C2026.6,9350.67 2026.45,9348.02 2026.45,9340.58C2026.45,9335.03 2026.5,9330.49 2026.57,9330.49C2026.64,9330.49 2028.2,9330.05 2030.05,9329.51C2031.9,9328.97 2036.01,9327.91 2039.18,9327.16C2042.36,9326.41 2048.68,9324.8 2053.24,9323.58C2057.79,9322.36 2061.58,9321.36 2061.65,9321.36C2061.71,9321.36 2061.66,9325.6 2061.53,9330.79ZM1958.89,9357.99C1961.28,9359.56 1964.23,9361.77 1965.45,9362.91C1967.83,9365.14 1970.63,9367.04 1974.07,9368.76C1976.84,9370.15 1977.4,9370.15 1982.27,9368.67C1984.5,9368 1988.92,9366.82 1992.09,9366.06C1995.26,9365.3 2002.07,9363.46 2007.23,9361.98C2012.38,9360.5 2019.52,9358.52 2023.08,9357.59C2031.66,9355.35 2044.21,9351.65 2053.12,9348.73C2057.08,9347.43 2064.59,9345.28 2069.79,9343.95L2079.26,9341.53L2083.25,9344.17C2085.44,9345.62 2088.43,9347.69 2089.88,9348.75C2095.81,9353.1 2097.55,9354.13 2099.47,9354.39C2101.47,9354.65 2102.4,9354.48 2115.78,9351.32C2123.79,9349.43 2136.83,9345.19 2138.06,9344.08C2138.79,9343.42 2138.9,9342.37 2138.9,9336.14C2138.9,9328.09 2138.62,9327.26 2135.24,9325.17C2133.2,9323.91 2133.46,9323.66 2138.01,9322.54C2143.57,9321.18 2142.97,9328.64 2143.11,9258.99C2143.25,9191.35 2143.43,9195.15 2140.01,9191.15C2139.01,9189.99 2136.14,9187.69 2133.62,9186.05C2131.11,9184.41 2128.51,9182.48 2127.85,9181.75C2126.55,9180.32 2120.21,9175.99 2118.72,9175.51C2118.2,9175.35 2116.8,9175.74 2115.4,9176.45C2114.07,9177.12 2112.58,9177.67 2112.09,9177.67C2111.6,9177.67 2109.7,9178.2 2107.87,9178.84C2099.65,9181.73 2087.75,9185.94 2082.91,9187.67C2080.01,9188.71 2074.61,9190.38 2070.91,9191.38C2064.65,9193.08 2064.02,9193.16 2061.54,9192.65C2059.05,9192.14 2058.63,9192.19 2055.04,9193.55C2051.83,9194.76 2043.35,9197.38 2042.63,9197.38C2042.52,9197.38 2042.3,9196.78 2042.14,9196.05C2041.74,9194.24 2034.36,9184.32 2032.78,9183.48C2031.7,9182.91 2030.53,9182.9 2025.49,9183.37C2018.24,9184.06 2009.3,9185.6 2006.85,9186.58C2005.78,9187.01 2004.6,9188.02 2003.91,9189.1C2001.54,9192.8 1995,9200.81 1988.49,9207.98C1984.79,9212.06 1981.76,9215.66 1981.76,9215.98C1981.76,9216.3 1981.38,9216.76 1980.92,9217.01C1980.02,9217.48 1969.32,9220.42 1964.94,9221.4C1958.66,9222.8 1950.23,9225.4 1949.68,9226.11C1949.21,9226.71 1949.08,9239.78 1949.08,9287.79L1949.08,9348.7L1951.81,9351.91C1953.59,9354.02 1956.04,9356.12 1958.89,9357.99Z" style="fill-rule:nonzero;"/>
    </g>
</svg>
