<?xml version="1.0" encoding="UTF-8" standalone="no"?>
<!DOCTYPE svg PUBLIC "-//W3C//DTD SVG 1.1//EN" "http://www.w3.org/Graphics/SVG/1.1/DTD/svg11.dtd">
<svg width="100%" height="100%" viewBox="0 0 140 140" version="1.1" xmlns="http://www.w3.org/2000/svg" xmlns:xlink="http://www.w3.org/1999/xlink" xml:space="preserve" xmlns:serif="http://www.serif.com/" style="fill-rule:evenodd;clip-rule:evenodd;stroke-linejoin:round;stroke-miterlimit:2;">
    <g transform="matrix(1,0,0,1,-728.484,-252.421)">
        <path d="M824.306,322.2L865.232,281.273C867.039,279.466 868.035,277.063 868.035,274.508C868.035,271.952 867.039,269.55 865.232,267.744L852.713,255.224C850.906,253.417 848.504,252.421 845.948,252.421C843.393,252.421 840.99,253.417 839.184,255.224L798.257,296.151L757.33,255.224C755.523,253.417 753.12,252.421 750.565,252.421C748.01,252.421 745.606,253.417 743.8,255.224L731.281,267.743C727.552,271.473 727.552,277.543 731.281,281.273L772.208,322.2L731.281,363.126C727.551,366.857 727.551,372.926 731.281,376.657L743.8,389.175C745.606,390.982 748.01,391.978 750.565,391.978C753.12,391.978 755.523,390.982 757.33,389.175L798.257,348.248L839.184,389.175C840.99,390.982 843.393,391.978 845.948,391.978C848.504,391.978 850.906,390.982 852.713,389.175L865.232,376.657C868.963,372.926 868.963,366.857 865.232,363.126L824.306,322.2Z" style="fill-rule:nonzero;"/>
    </g>
</svg>
