<?xml version="1.0" encoding="UTF-8" standalone="no"?>
<!DOCTYPE svg PUBLIC "-//W3C//DTD SVG 1.1//EN" "http://www.w3.org/Graphics/SVG/1.1/DTD/svg11.dtd">
<svg width="100%" height="100%" viewBox="0 0 12588 1548" version="1.1" xmlns="http://www.w3.org/2000/svg" xmlns:xlink="http://www.w3.org/1999/xlink" xml:space="preserve" xmlns:serif="http://www.serif.com/" style="fill-rule:evenodd;clip-rule:evenodd;stroke-linejoin:round;stroke-miterlimit:2;">
    <g transform="matrix(5.55556,0,0,5.55556,517.533,790.923)">
        <path d="M-95.872,-2.774C17.764,-12.836 109.381,-132.887 187.837,-125.468C249.295,-119.656 300.371,-70.464 362.056,-73.854C428.219,-77.489 478.335,-140.823 544.545,-137.95C587.018,-136.107 622.32,-106.942 664.208,-100.4C736.93,-89.042 804.45,-147.598 878.007,-141.986C948.987,-136.572 1000.33,-73.748 1070.65,-63.607C1136.11,-54.169 1197.13,-92.287 1261.61,-106.076C1369.62,-129.173 1479.88,-83.012 1590.66,-75.962C1713.26,-68.159 1698.76,-108.421 1819.45,-129.212C1940.13,-150.004 2039.71,-0.255 2172.63,-2.769L2179.33,143.122L-96.085,136.185L-95.872,-2.774Z" style="fill:rgb(2,2,3);fill-rule:nonzero;"/>
    </g>
</svg>
