<?xml version="1.0" encoding="UTF-8" standalone="no"?>
<!DOCTYPE svg PUBLIC "-//W3C//DTD SVG 1.1//EN" "http://www.w3.org/Graphics/SVG/1.1/DTD/svg11.dtd">
<svg width="100%" height="100%" viewBox="0 0 790 1366" version="1.1" xmlns="http://www.w3.org/2000/svg" xmlns:xlink="http://www.w3.org/1999/xlink" xml:space="preserve" xmlns:serif="http://www.serif.com/" style="fill-rule:evenodd;clip-rule:evenodd;stroke-linejoin:round;stroke-miterlimit:2;">
    <g transform="matrix(-1,0,0,1,24799.1,-34056.9)">
        <g transform="matrix(5.55556,0,0,5.55556,24717.7,34654.5)">
            <path d="M0,30.825C-1.754,29.654 -3.36,28.397 -3.568,28.031C-3.777,27.665 -4.106,23.754 -4.298,19.341C-5.435,-6.701 -5.687,-9.526 -7.266,-13.935C-9.55,-20.313 -14.668,-29.262 -18.065,-32.82C-20.443,-35.311 -25.987,-38.991 -30.544,-41.103C-35.916,-43.594 -36.233,-44.282 -34.94,-50.65C-33.88,-55.874 -34.001,-59.578 -35.362,-63.532C-36.575,-67.056 -37.772,-68.787 -39.951,-70.169C-42.3,-71.659 -44.12,-71.714 -46.981,-70.382C-51.583,-68.239 -54.068,-63.2 -54.065,-56.02C-54.064,-51.751 -52.732,-47.224 -50.69,-44.547C-49.329,-42.763 -45.521,-40.924 -43.364,-41.008C-41.638,-41.076 -40.601,-40.236 -40.368,-38.583C-39.996,-35.944 -46.97,-34.791 -50.921,-36.839C-51.944,-37.369 -53.681,-38.727 -54.781,-39.856C-57.225,-42.365 -59.339,-43.14 -77.79,-48.29C-84.624,-50.197 -89.675,-53.319 -95.18,-59.037C-97.88,-61.842 -99.232,-63.667 -100.531,-66.262C-102.675,-70.546 -105.072,-77.853 -105.685,-81.969C-106.58,-87.992 -108.144,-94.89 -108.989,-96.546C-110.157,-98.836 -113.126,-101.334 -114.49,-101.174C-116.908,-100.89 -118.65,-94.015 -118.093,-86.952C-117.431,-78.556 -115.42,-71.944 -110.479,-61.912C-107.098,-55.046 -102.377,-48.291 -97.88,-43.886C-93.291,-39.389 -82.83,-32.996 -76.356,-30.729L-74.191,-29.972L-72.659,-31.317C-71.816,-32.057 -71.047,-32.663 -70.951,-32.663C-70.092,-32.663 -68.591,-31.477 -68.174,-30.47C-67.723,-29.382 -67.98,-27.763 -70.256,-17.373C-71.684,-10.853 -73.335,-3.056 -73.925,-0.047C-75.75,9.258 -76.386,11.686 -77.258,12.67C-78.124,13.647 -82.28,16.624 -92.198,23.372C-105.952,32.73 -114.177,39.789 -117.81,45.354C-122.078,51.891 -122.203,57.518 -118.348,69.603C-117.204,73.191 -115.794,77.642 -115.216,79.493C-114.638,81.345 -112.726,86.42 -110.967,90.771C-109.208,95.122 -107.77,99.049 -107.77,99.498C-107.77,99.982 -109.63,102.117 -112.357,104.76C-114.88,107.206 -117.164,109.738 -117.433,110.386C-117.701,111.035 -117.862,112.492 -117.79,113.626C-117.667,115.561 -117.557,115.737 -115.976,116.528C-110.199,119.417 -102.556,114.529 -95.613,103.504C-94.892,102.36 -94.303,101.024 -94.303,100.536C-94.303,98.749 -97.705,86.427 -100.403,78.441C-103.907,68.071 -105.665,61.886 -105.665,59.933C-105.665,58.148 -104.596,56.983 -99.984,53.75C-95.812,50.825 -86.082,45.095 -79.152,41.481C-78.288,41.03 -72.015,31.683 -72.005,30.832C-72.001,30.455 -72.311,29.887 -72.694,29.569C-73.077,29.251 -73.655,28.358 -73.979,27.584C-74.494,26.351 -74.485,26.05 -73.904,25.164C-72.923,23.668 -71.049,23.838 -68.034,25.7C-65.846,27.049 -65.071,27.283 -61.957,27.531C-58.955,27.769 -58.265,27.965 -57.617,28.765C-55.498,31.382 -58.138,33.823 -63.095,33.829C-66.362,33.833 -67.586,35.262 -74.399,47.026C-76.161,50.069 -78.512,53.979 -79.623,55.715C-82.271,59.855 -82.89,61.74 -83.201,66.61C-83.447,70.475 -83.389,70.872 -81.898,75.495C-79.036,84.369 -76.48,91.219 -72.055,101.877C-70.197,106.352 -69.052,109.698 -69.052,110.65C-69.052,112.494 -69.867,113.738 -73.945,118.111C-78.415,122.904 -80.039,126.956 -78.683,129.932C-77.814,131.838 -76.378,132.159 -72.032,131.414C-70.509,131.153 -68.777,130.693 -68.184,130.392C-65.13,128.841 -58.229,121.121 -57.253,118.165C-56.201,114.976 -57.664,106.569 -63.376,82.994C-64.747,77.335 -65.685,72.605 -65.546,72.049C-65.257,70.9 -60.982,64.139 -59.162,61.954C-58.468,61.12 -56.29,59.07 -54.322,57.398C-48.782,52.688 -43.621,47.478 -40.085,43.022C-35.489,37.232 -34.576,35.592 -33.859,31.836C-33.516,30.04 -32.382,24.31 -31.34,19.101C-30.298,13.894 -29.169,8.023 -28.831,6.055C-28.492,4.088 -27.618,-0.647 -26.887,-4.466C-26.156,-8.285 -25.57,-11.813 -25.584,-12.305C-25.599,-12.798 -26.767,-15.042 -28.182,-17.294C-29.597,-19.545 -30.755,-21.614 -30.755,-21.891C-30.755,-22.671 -29.837,-23.404 -28.859,-23.404C-26.726,-23.404 -21.577,-18.893 -19.901,-15.555C-16.909,-9.598 -15.642,-1.724 -15.374,12.578C-15.256,18.828 -15.052,26.309 -14.918,29.202L-14.676,34.462L-12.739,36.278C-11.656,37.292 -8.864,39.056 -6.411,40.275L-2.021,42.457L2.118,42.458C6.026,42.459 6.319,42.397 7.365,41.352C8.26,40.46 8.42,40.002 8.196,38.984C7.828,37.309 3.991,33.489 0,30.825" style="fill:white;fill-rule:nonzero;"/>
        </g>
        <g transform="matrix(5.55556,0,0,5.55556,24758.6,34589.7)">
            <path d="M0,53.031C-1.047,54.076 -1.34,54.137 -5.247,54.137L-9.386,54.136L-13.776,51.954C-16.229,50.734 -19.021,48.971 -20.104,47.956L-22.041,46.141L-22.283,40.88C-22.417,37.987 -22.621,30.507 -22.739,24.257C-23.007,9.955 -24.274,2.081 -27.266,-3.876C-28.942,-7.214 -34.091,-11.725 -36.224,-11.725C-37.202,-11.725 -38.12,-10.993 -38.12,-10.212C-38.12,-9.935 -36.962,-7.867 -35.547,-5.615C-34.132,-3.364 -32.964,-1.119 -32.949,-0.626C-32.935,-0.134 -33.521,3.394 -34.252,7.213C-34.983,11.032 -35.857,15.766 -36.196,17.734C-36.534,19.701 -37.664,25.572 -38.706,30.78C-39.748,35.988 -40.881,41.719 -41.224,43.515C-41.941,47.271 -42.854,48.911 -47.45,54.701C-50.987,59.156 -56.147,64.366 -61.688,69.076C-63.655,70.749 -65.833,72.799 -66.527,73.633C-68.347,75.818 -72.622,82.579 -72.911,83.728C-73.05,84.283 -72.112,89.013 -70.741,94.672C-65.029,118.248 -63.566,126.655 -64.618,129.844C-65.594,132.8 -72.495,140.52 -75.549,142.071C-76.142,142.372 -77.874,142.832 -79.398,143.093L-79.397,143.093C-83.743,143.837 -85.18,143.517 -86.048,141.611C-87.404,138.635 -85.78,134.583 -81.31,129.79C-77.232,125.416 -76.417,124.173 -76.417,122.329C-76.417,121.376 -77.562,118.031 -79.42,113.556C-83.845,102.898 -86.401,96.048 -89.263,87.174C-90.754,82.55 -90.812,82.154 -90.566,78.288C-90.255,73.418 -89.636,71.533 -86.988,67.394C-85.877,65.658 -83.526,61.748 -81.764,58.704C-74.951,46.94 -73.728,45.512 -70.46,45.508C-65.503,45.501 -62.863,43.061 -64.982,40.444C-65.63,39.644 -66.32,39.448 -69.322,39.209C-72.436,38.962 -73.211,38.728 -75.399,37.378C-78.414,35.517 -80.288,35.346 -81.269,36.843C-81.85,37.729 -81.859,38.03 -81.344,39.263C-81.02,40.037 -80.442,40.93 -80.059,41.248C-79.676,41.565 -79.366,42.134 -79.371,42.51C-79.38,43.362 -85.653,52.709 -86.517,53.16C-93.447,56.773 -103.177,62.504 -107.349,65.429C-111.961,68.662 -113.031,69.826 -113.031,71.612C-113.031,73.564 -111.272,79.749 -107.768,90.12C-105.07,98.106 -101.668,110.428 -101.668,112.215C-101.668,112.702 -102.257,114.038 -102.978,115.183C-109.921,126.208 -117.564,131.095 -123.341,128.207C-124.923,127.416 -125.033,127.24 -125.155,125.304C-125.227,124.171 -125.066,122.713 -124.798,122.065C-124.529,121.416 -122.245,118.885 -119.722,116.439C-116.995,113.795 -115.135,111.661 -115.135,111.176C-115.135,110.728 -116.574,106.801 -118.332,102.45C-120.091,98.099 -122.003,93.024 -122.581,91.172C-123.159,89.32 -124.569,84.87 -125.713,81.282C-129.568,69.197 -129.443,63.57 -125.175,57.033C-121.543,51.468 -113.317,44.408 -99.563,35.051C-89.645,28.303 -85.489,25.326 -84.623,24.349C-83.751,23.365 -83.115,20.937 -81.29,11.632C-80.7,8.623 -79.049,0.826 -77.621,-5.695C-75.345,-16.084 -75.088,-17.704 -75.539,-18.792C-75.956,-19.798 -77.457,-20.984 -78.316,-20.984C-78.413,-20.984 -79.181,-20.378 -80.024,-19.638L-81.556,-18.293L-83.721,-19.051C-90.195,-21.317 -100.656,-27.711 -105.245,-32.207C-109.742,-36.613 -114.463,-43.367 -117.844,-50.233C-122.786,-60.265 -124.796,-66.877 -125.458,-75.273C-126.015,-82.336 -124.273,-89.212 -121.855,-89.495C-120.492,-89.655 -117.522,-87.157 -116.354,-84.867C-115.509,-83.212 -113.946,-76.313 -113.05,-70.291C-112.438,-66.174 -110.04,-58.868 -107.896,-54.584C-106.597,-51.988 -105.245,-50.164 -102.545,-47.358C-97.04,-41.64 -91.989,-38.519 -85.155,-36.611C-66.704,-31.462 -64.59,-30.687 -62.146,-28.177C-61.046,-27.048 -59.309,-25.69 -58.286,-25.16C-54.335,-23.112 -47.361,-24.265 -47.733,-26.905C-47.966,-28.558 -49.004,-29.397 -50.729,-29.329C-52.886,-29.245 -56.694,-31.085 -58.055,-32.868C-60.097,-35.546 -61.429,-40.072 -61.43,-44.341C-61.433,-51.521 -58.948,-56.56 -54.346,-58.703C-51.485,-60.035 -49.665,-59.98 -47.316,-58.49C-45.137,-57.108 -43.94,-55.378 -42.727,-51.854C-41.366,-47.899 -41.245,-44.195 -42.305,-38.971C-43.598,-32.603 -43.281,-31.915 -37.909,-29.425C-33.352,-27.312 -27.808,-23.632 -25.43,-21.141C-22.033,-17.583 -16.916,-8.634 -14.631,-2.256C-13.052,2.153 -12.8,4.978 -11.663,31.02C-11.471,35.433 -11.142,39.344 -10.934,39.71C-10.725,40.076 -9.119,41.333 -7.365,42.504C-3.374,45.168 0.463,48.987 0.831,50.662C1.055,51.681 0.895,52.138 0,53.031M-1.497,39.623C-3.045,38.719 -4.513,37.733 -4.758,37.431C-5.023,37.106 -5.403,31.913 -5.69,24.683C-6.04,15.896 -6.399,11.423 -6.975,8.691C-7.414,6.605 -7.991,3.383 -8.257,1.531C-9.192,-4.972 -12.684,-13.964 -16.675,-20.142C-20.69,-26.357 -27.31,-31.525 -33.701,-33.433C-35.09,-33.848 -36.377,-34.312 -36.562,-34.465C-36.746,-34.618 -36.561,-36.145 -36.149,-37.859C-34.964,-42.8 -35.169,-48.924 -36.669,-53.374C-39.521,-61.833 -45.359,-66.61 -51.911,-65.848C-56.768,-65.283 -61.76,-62.073 -63.887,-58.146C-66.517,-53.293 -68.158,-45.763 -67.595,-41.134C-67.415,-39.657 -67.335,-38.373 -67.417,-38.28C-67.5,-38.187 -72.021,-39.373 -77.467,-40.916C-85.3,-43.135 -88.002,-44.092 -90.414,-45.501C-94.397,-47.827 -100.588,-53.985 -102.365,-57.387C-103.906,-60.338 -106.495,-68.246 -106.911,-71.275C-107.442,-75.136 -109.188,-83.497 -109.903,-85.606C-110.801,-88.25 -112.527,-90.762 -114.814,-92.751C-119.601,-96.916 -124.449,-96.95 -127.963,-92.844C-131.39,-88.841 -132.296,-81.663 -130.742,-70.848C-129.597,-62.885 -128.916,-60.153 -126.706,-54.652C-118.755,-34.859 -109.067,-24.959 -88.612,-15.723C-86.067,-14.574 -83.147,-11.731 -83.172,-10.43C-83.184,-9.869 -83.557,-7.801 -84.001,-5.834C-85.804,2.144 -86.933,8.036 -87.326,11.52C-87.594,13.897 -88.175,16.202 -88.97,18.043C-90.048,20.541 -90.508,21.098 -92.723,22.584C-94.111,23.515 -96.076,24.952 -97.09,25.776C-98.103,26.601 -101.3,28.852 -104.193,30.779C-119.651,41.076 -129.403,50.235 -132.597,57.456C-134.686,62.179 -135.075,64.755 -134.546,70.336C-133.812,78.062 -130.392,88.038 -124.183,100.558L-120.364,108.26L-125.056,112.973C-130.429,118.369 -131.555,120.489 -131.539,125.171C-131.516,131.545 -126.894,135.352 -119.257,135.286C-116.934,135.266 -115.893,135.003 -113.366,133.796C-111.677,132.99 -109.32,131.556 -108.128,130.608C-105.222,128.297 -98.158,119.587 -96.544,116.323C-95.366,113.942 -95.272,113.461 -95.534,111.146C-96.088,106.252 -103.023,83.448 -107.076,73.196C-107.325,72.567 -107.393,71.972 -107.228,71.874C-107.063,71.775 -105.603,70.982 -103.983,70.112C-102.362,69.242 -99.711,67.731 -98.091,66.754C-93.862,64.205 -91.568,63.101 -91.568,63.618C-91.568,63.865 -92.304,65.431 -93.205,67.098C-95.968,72.214 -96.41,74.041 -96.385,80.23C-96.363,85.678 -96.354,85.727 -94.217,92.013C-91.09,101.213 -89.416,105.673 -85.832,114.355L-82.631,122.108L-85.419,125.063C-90.392,130.334 -92.83,135.014 -92.83,139.286C-92.83,144.082 -89.928,148.159 -85.635,149.392C-83.587,149.981 -82.074,149.949 -78.769,149.249C-73.978,148.234 -71.134,146.631 -66.786,142.493C-62.657,138.564 -59.62,134.661 -58.781,132.204C-58.504,131.394 -58.177,129.216 -58.053,127.365C-57.824,123.931 -58.887,117.757 -61.93,104.849C-64.557,93.705 -66.012,87.619 -66.575,85.414L-67.186,83.023L-63.279,79.101C-61.131,76.944 -57.763,73.834 -55.796,72.189C-51.105,68.268 -44.468,61.328 -41.141,56.865C-38.824,53.756 -38.219,52.525 -36.449,47.321C-35.331,44.035 -34.187,39.963 -33.906,38.273C-33.625,36.582 -32.658,31.79 -31.758,27.624C-30.857,23.458 -30,19.049 -29.853,17.827C-29.705,16.605 -29.448,15.521 -29.281,15.418C-29.114,15.315 -28.887,22.4 -28.777,31.163L-28.577,47.096L-27.443,49.031C-25.929,51.614 -21.542,55.069 -16.701,57.49C-6.351,62.666 3.149,61.44 6.654,54.474C8.837,50.135 5.22,43.546 -1.497,39.623" style="fill-rule:nonzero;"/>
        </g>
    </g>
</svg>
