<?xml version="1.0" encoding="UTF-8" standalone="no"?>
<!DOCTYPE svg PUBLIC "-//W3C//DTD SVG 1.1//EN" "http://www.w3.org/Graphics/SVG/1.1/DTD/svg11.dtd">
<svg width="100%" height="100%" viewBox="0 0 589 1471" version="1.1" xmlns="http://www.w3.org/2000/svg" xmlns:xlink="http://www.w3.org/1999/xlink" xml:space="preserve" xmlns:serif="http://www.serif.com/" style="fill-rule:evenodd;clip-rule:evenodd;stroke-linejoin:round;stroke-miterlimit:2;">
    <g transform="matrix(1,0,0,1,-23973.3,-35841.1)">
        <g transform="matrix(5.55556,0,0,5.55556,24493.9,37173.8)">
            <path d="M0,-215.88C-2.246,-223.326 -6.573,-231.18 -9.264,-232.698C-15.113,-235.997 -15.306,-230.036 -10.045,-208.521C-6.013,-192.035 -5.397,-186.683 -6.375,-176.613C-6.829,-171.924 -7.465,-168.003 -8.165,-165.574C-9.407,-161.257 -13.138,-153.257 -14.934,-151.059C-17.208,-148.274 -24.295,-141.996 -26.329,-140.965C-28.986,-139.616 -34.76,-139.233 -35.859,-140.332C-36.858,-141.331 -36.219,-142.257 -33.54,-143.688C-30.534,-145.295 -29.924,-145.874 -28.646,-148.339C-27.657,-150.249 -27.54,-150.997 -27.383,-156.435C-27.248,-161.109 -27.368,-163.069 -27.925,-165.346C-29.667,-172.455 -35.979,-175.456 -42.721,-172.381C-47.86,-170.038 -49.613,-166.942 -49.935,-159.642C-50.167,-154.376 -49.989,-153.367 -47.467,-145.72C-45.445,-139.59 -45.339,-137.057 -47.096,-136.852C-47.805,-136.77 -48.5,-137.087 -49.169,-137.799C-49.722,-138.388 -50.446,-138.87 -50.777,-138.87C-52.383,-138.87 -57.436,-142.177 -61.26,-145.731C-66.713,-150.799 -67.427,-151.729 -70.057,-157.177C-73.208,-163.707 -74.325,-167.959 -75.165,-176.613C-76.142,-186.683 -75.526,-192.034 -71.495,-208.521C-66.997,-226.913 -66.569,-233.561 -69.88,-233.561C-74.283,-233.561 -79.234,-224.769 -83.27,-209.783C-85.762,-200.531 -86.662,-194.817 -87.147,-185.163C-87.911,-169.951 -86.947,-163.782 -82.118,-152.969C-79.744,-147.651 -75.855,-142.134 -70.039,-135.831C-63.193,-128.412 -62.273,-127.18 -62.248,-125.39C-62.238,-124.604 -62.541,-124.209 -63.409,-123.881L-64.584,-123.438L-65.331,-112.952C-65.742,-107.185 -66.25,-99.721 -66.461,-96.365C-66.672,-93.008 -67.062,-87.99 -67.327,-85.212C-67.592,-82.435 -67.946,-76.943 -68.113,-73.008C-68.365,-67.093 -68.688,-64.614 -69.975,-58.699C-70.831,-54.764 -71.905,-50.219 -72.362,-48.599C-72.818,-46.978 -73.769,-43.475 -74.475,-40.813C-75.181,-38.151 -76.582,-33.322 -77.589,-30.081C-78.596,-26.841 -79.995,-22.106 -80.699,-19.56C-81.402,-17.014 -82.55,-13.321 -83.25,-11.353C-85.16,-5.98 -84.801,-2.514 -82.113,-0.4C-80.336,0.998 -76.754,0.473 -71.807,-1.911C-70.363,-2.607 -70.229,-2.818 -70.229,-4.403C-70.229,-7.319 -68.343,-8.087 -66.332,-5.988C-63.716,-3.256 -63.317,0.686 -64.767,9.478C-65.78,15.623 -65.799,16.767 -64.904,17.757C-63.957,18.803 -62.781,18.724 -61.184,17.505L-61.183,17.505C-59.593,16.292 -57.243,11.983 -55.755,7.549C-54.868,4.906 -54.663,3.42 -54.565,-1.079C-54.427,-7.439 -54.927,-9.693 -57.023,-12.14C-57.806,-13.056 -59.319,-14.226 -60.385,-14.742C-62.148,-15.596 -62.708,-15.655 -66.628,-15.402C-70.619,-15.144 -71.018,-15.189 -72.077,-16.022C-73.606,-17.225 -73.492,-19.505 -71.841,-20.732C-70.876,-21.45 -69.999,-21.574 -65.631,-21.616C-60.937,-21.661 -60.524,-21.729 -60.276,-22.506C-60.129,-22.969 -58.407,-26.946 -56.449,-31.344C-52.684,-39.802 -51.291,-43.399 -51.291,-44.661C-51.291,-45.197 -52.22,-45.896 -54.342,-46.956C-58.972,-49.268 -60.129,-50.265 -60.129,-51.942C-60.129,-53.956 -59.257,-54.058 -56.23,-52.395C-51.65,-49.879 -44.128,-48.623 -39.718,-49.638C-38.792,-49.851 -36.33,-50.234 -34.247,-50.489C-32.163,-50.745 -29.353,-51.238 -28.002,-51.586C-26.111,-52.072 -25.409,-52.104 -24.951,-51.724C-23.194,-50.266 -25.379,-47.774 -29.941,-46.032C-31.615,-45.392 -33.146,-44.732 -33.345,-44.563C-33.544,-44.395 -33.475,-43.53 -33.192,-42.64C-32.559,-40.648 -25.329,-24.103 -24.56,-22.888C-24.064,-22.104 -23.459,-21.978 -19.033,-21.741C-13.233,-21.43 -12.025,-20.873 -11.814,-18.409C-11.711,-17.207 -11.906,-16.748 -12.829,-16.022C-13.888,-15.189 -14.287,-15.144 -18.278,-15.402C-22.198,-15.655 -22.758,-15.596 -24.521,-14.743C-25.587,-14.227 -27.1,-13.056 -27.883,-12.141C-29.979,-9.693 -30.479,-7.44 -30.341,-1.079C-30.243,3.42 -30.038,4.906 -29.151,7.548C-26.362,15.857 -22.603,20.117 -20.076,17.83C-19.1,16.946 -19.109,15.727 -20.14,9.478C-21.59,0.686 -21.191,-3.256 -18.574,-5.988C-16.564,-8.087 -14.677,-7.319 -14.677,-4.403C-14.677,-2.818 -14.544,-2.607 -13.099,-1.911C-8.153,0.473 -4.571,0.998 -2.793,-0.4C-0.106,-2.514 0.253,-5.98 -1.657,-11.354C-2.356,-13.321 -3.504,-17.014 -4.208,-19.56C-4.911,-22.106 -6.313,-26.841 -7.323,-30.081C-8.333,-33.322 -9.56,-37.583 -10.049,-39.55C-10.539,-41.518 -11.494,-44.872 -12.171,-47.005C-13.275,-50.484 -13.446,-51.8 -13.838,-59.84C-14.077,-64.768 -14.732,-73.913 -15.292,-80.162C-15.853,-86.412 -16.429,-94.082 -16.573,-97.206C-16.817,-102.505 -17.521,-109.841 -18.451,-116.776C-19.138,-121.902 -19.442,-132.235 -18.941,-133.505C-18.283,-135.176 -16.511,-135.115 -15.788,-133.396L-15.256,-132.131L-11.677,-135.817C-6.036,-141.625 -1.906,-147.405 0.579,-152.969C5.407,-163.782 6.371,-169.952 5.607,-185.163C5.049,-196.276 3.723,-203.542 0,-215.88" style="fill:white;fill-rule:nonzero;"/>
        </g>
        <g transform="matrix(5.55556,0,0,5.55556,24497.1,36828.8)">
            <path d="M0,-90.875C-2.484,-85.312 -6.615,-79.531 -12.256,-73.723L-15.835,-70.037L-16.367,-71.302C-17.089,-73.021 -18.862,-73.082 -19.52,-71.411C-20.02,-70.141 -19.717,-59.808 -19.03,-54.682C-18.099,-47.747 -17.396,-40.412 -17.151,-35.113C-17.007,-31.988 -16.431,-24.318 -15.871,-18.068C-15.311,-11.819 -14.656,-2.674 -14.416,2.253C-14.025,10.294 -13.854,11.609 -12.75,15.089C-12.073,17.222 -11.118,20.576 -10.628,22.543C-10.139,24.511 -8.911,28.772 -7.902,32.013C-6.892,35.253 -5.49,39.988 -4.786,42.534C-4.083,45.08 -2.935,48.773 -2.236,50.74C-0.325,56.114 -0.685,59.58 -3.372,61.694C-5.15,63.092 -8.732,62.567 -13.678,60.183C-15.123,59.487 -15.256,59.276 -15.256,57.69C-15.256,54.774 -17.143,54.007 -19.153,56.106C-21.77,58.838 -22.169,62.78 -20.719,71.572C-19.688,77.821 -19.679,79.04 -20.655,79.924C-23.182,82.21 -26.941,77.951 -29.73,69.642C-30.617,67 -30.822,65.514 -30.92,61.015C-31.058,54.654 -30.557,52.401 -28.462,49.953C-27.678,49.038 -26.166,47.867 -25.1,47.351C-23.337,46.498 -22.777,46.438 -18.857,46.692C-14.866,46.95 -14.467,46.905 -13.408,46.072C-12.485,45.346 -12.29,44.886 -12.393,43.685C-12.604,41.221 -13.812,40.664 -19.612,40.353C-24.038,40.116 -24.643,39.99 -25.139,39.206C-25.908,37.991 -33.138,21.446 -33.771,19.454C-34.053,18.564 -34.123,17.699 -33.924,17.531C-33.725,17.362 -32.193,16.702 -30.52,16.062C-25.958,14.32 -23.773,11.827 -25.53,10.369C-25.987,9.99 -26.69,10.021 -28.581,10.508C-29.932,10.856 -32.742,11.349 -34.825,11.605C-36.908,11.86 -39.37,12.243 -40.296,12.456C-44.707,13.471 -52.229,12.215 -56.809,9.699C-59.836,8.036 -60.707,8.138 -60.707,10.152C-60.707,11.829 -59.55,12.825 -54.921,15.138C-52.799,16.198 -51.87,16.897 -51.87,17.433C-51.87,18.695 -53.263,22.292 -57.028,30.75C-58.986,35.148 -60.708,39.125 -60.855,39.588C-61.102,40.365 -61.515,40.433 -66.21,40.478C-70.578,40.52 -71.455,40.644 -72.42,41.362C-74.07,42.589 -74.185,44.869 -72.656,46.072C-71.597,46.905 -71.198,46.95 -67.207,46.692C-63.287,46.439 -62.727,46.498 -60.963,47.352C-59.898,47.867 -58.385,49.038 -57.602,49.953C-55.506,52.401 -55.005,54.655 -55.144,61.015C-55.241,65.514 -55.446,67 -56.333,69.643C-57.822,74.076 -60.171,78.386 -61.762,79.599L-61.763,79.599C-63.36,80.818 -64.535,80.897 -65.482,79.851C-66.378,78.861 -66.359,77.717 -65.346,71.572C-63.896,62.78 -64.294,58.838 -66.911,56.106C-68.921,54.007 -70.808,54.774 -70.808,57.69C-70.808,59.276 -70.941,59.487 -72.386,60.183C-77.332,62.567 -80.914,63.092 -82.692,61.694C-85.379,59.58 -85.739,56.114 -83.829,50.74C-83.129,48.773 -81.981,45.08 -81.278,42.534C-80.574,39.988 -79.175,35.253 -78.168,32.013C-77.161,28.772 -75.76,23.943 -75.054,21.281C-74.348,18.619 -73.397,15.115 -72.94,13.495C-72.484,11.875 -71.41,7.33 -70.554,3.395C-69.267,-2.52 -68.944,-4.999 -68.692,-10.914C-68.524,-14.849 -68.17,-20.341 -67.905,-23.118C-67.641,-25.896 -67.251,-30.915 -67.04,-34.271C-66.829,-37.627 -66.32,-45.092 -65.91,-50.858L-65.163,-61.344L-63.987,-61.788C-63.12,-62.115 -62.817,-62.51 -62.827,-63.296C-62.852,-65.086 -63.772,-66.318 -70.618,-73.737C-76.434,-80.04 -80.323,-85.557 -82.697,-90.875C-87.526,-101.688 -88.489,-107.857 -87.725,-123.07C-87.24,-132.723 -86.341,-138.437 -83.849,-147.689C-79.813,-162.675 -74.862,-171.467 -70.459,-171.467C-67.147,-171.467 -67.576,-164.819 -72.074,-146.427C-76.105,-129.94 -76.721,-124.589 -75.744,-114.519C-74.904,-105.865 -73.786,-101.613 -70.635,-95.083C-68.006,-89.635 -67.291,-88.705 -61.838,-83.637C-58.015,-80.083 -52.962,-76.777 -51.356,-76.777C-51.025,-76.777 -50.301,-76.294 -49.748,-75.705C-49.079,-74.993 -48.384,-74.676 -47.675,-74.758C-45.918,-74.963 -46.024,-77.496 -48.046,-83.626C-50.567,-91.273 -50.746,-92.282 -50.514,-97.548C-50.192,-104.848 -48.438,-107.944 -43.3,-110.287C-36.558,-113.362 -30.245,-110.361 -28.504,-103.252C-27.947,-100.976 -27.826,-99.015 -27.962,-94.342C-28.119,-88.904 -28.236,-88.155 -29.225,-86.246C-30.503,-83.781 -31.113,-83.201 -34.119,-81.594C-36.797,-80.163 -37.437,-79.238 -36.438,-78.238C-35.339,-77.139 -29.565,-77.522 -26.907,-78.871C-24.874,-79.903 -17.787,-86.18 -15.512,-88.965C-13.717,-91.163 -9.986,-99.164 -8.743,-103.48C-8.044,-105.909 -7.408,-109.83 -6.953,-114.519C-5.976,-124.589 -6.592,-129.941 -10.623,-146.427C-15.885,-167.942 -15.692,-173.904 -9.842,-170.604C-7.151,-169.086 -2.825,-161.232 -0.579,-153.786C3.144,-141.448 4.47,-134.182 5.028,-123.07C5.792,-107.858 4.829,-101.688 0,-90.875M1.9,-164.523C-1.75,-171.854 -4.101,-174.747 -7.891,-176.567C-13.666,-179.339 -18.805,-176.972 -20.352,-170.827C-21.37,-166.783 -20.469,-160.61 -16.391,-143.689C-12.771,-128.673 -12.209,-123.084 -13.331,-113.248C-14.08,-106.676 -15.335,-102.25 -17.874,-97.216C-19.323,-94.343 -21.137,-91.506 -21.526,-91.506C-21.673,-91.506 -21.723,-93.542 -21.638,-96.03C-21.226,-108.168 -26.478,-116.098 -35.973,-117.672C-38.152,-118.033 -39.144,-117.986 -41.363,-117.418C-50.242,-115.148 -54.887,-110.501 -56.326,-102.448C-56.976,-98.81 -57.079,-91.23 -56.512,-88.782C-56.297,-87.863 -56.186,-87.049 -56.262,-86.972C-56.338,-86.896 -57.799,-88.217 -59.508,-89.907C-64.972,-95.31 -68.188,-102.926 -69.365,-113.248C-70.487,-123.084 -69.925,-128.673 -66.306,-143.689C-61.253,-164.653 -60.854,-169.791 -63.922,-174.427C-65.241,-176.42 -67.875,-177.78 -70.414,-177.78C-72.858,-177.779 -76.868,-175.851 -78.846,-173.726C-86.282,-165.738 -92.983,-143.646 -94.02,-123.701C-94.701,-110.592 -94.101,-104.267 -91.406,-96.116C-88.015,-85.865 -83.204,-78.03 -75.036,-69.456C-72.078,-66.351 -71.231,-65.195 -71.236,-64.279C-71.241,-63.63 -71.623,-58.08 -72.086,-51.947C-72.549,-45.812 -73.201,-36.533 -73.535,-31.325C-73.869,-26.117 -74.242,-21.288 -74.365,-20.593C-74.487,-19.899 -74.78,-15.766 -75.015,-11.408C-75.381,-4.643 -75.691,-2.399 -77.138,3.953C-78.963,11.966 -80.914,19.364 -83.318,27.383C-84.151,30.161 -85.722,35.482 -86.81,39.208C-87.898,42.934 -89.404,47.763 -90.157,49.938C-91.339,53.354 -91.5,54.299 -91.334,56.885C-91.099,60.549 -89.905,63.192 -87.249,65.93C-84.12,69.155 -80.249,69.664 -74.262,67.638L-70.772,66.457L-70.996,67.542C-71.657,70.749 -72.482,76.839 -72.457,78.306C-72.44,79.232 -72.205,80.599 -71.933,81.345C-71.307,83.063 -68.911,85.618 -67.247,86.343C-62.379,88.464 -56.387,84.938 -53.016,77.967C-50.274,72.299 -49.286,68.735 -48.911,63.156C-48.334,54.575 -49.507,49.698 -53.137,45.574C-54.316,44.234 -54.815,43.283 -54.815,42.374C-54.815,41.661 -53.05,37.061 -50.884,32.128C-48.723,27.204 -46.63,22.291 -46.233,21.209C-45.304,18.675 -44.749,18.255 -42.542,18.415L-40.728,18.546L-39.411,22.123C-38.687,24.09 -36.546,29.203 -34.653,33.484C-32.76,37.765 -31.112,41.664 -30.991,42.148C-30.832,42.779 -31.322,43.676 -32.708,45.301C-36.613,49.875 -37.74,54.404 -37.151,63.155C-36.776,68.734 -35.789,72.299 -33.047,77.967C-31.215,81.754 -28.576,84.637 -25.646,86.054C-20.83,88.383 -15.335,85.76 -13.916,80.456C-13.478,78.815 -13.514,77.658 -14.139,73.302C-14.549,70.444 -14.982,67.733 -15.101,67.277C-15.307,66.492 -15.133,66.511 -11.815,67.634C-5.813,69.664 -1.946,69.157 1.186,65.93C3.794,63.242 5.016,60.573 5.271,57.011C5.458,54.406 5.282,53.508 3.538,48.113C1.42,41.564 -0.962,33.68 -3.297,25.49C-4.121,22.596 -5.543,17.66 -6.455,14.521C-8.057,9.011 -8.12,8.553 -8.292,1.265C-8.389,-2.887 -8.939,-11.303 -9.513,-17.437C-10.087,-23.571 -10.681,-31.241 -10.833,-34.481C-10.986,-37.722 -11.398,-42.93 -11.749,-46.054C-12.556,-53.226 -12.92,-61.114 -12.541,-63.137C-12.314,-64.347 -11.318,-65.662 -8.081,-69.033C0.422,-77.883 5.26,-85.688 8.709,-96.116C11.405,-104.267 12.005,-110.592 11.323,-123.701C10.588,-137.85 6.62,-155.039 1.9,-164.523" style="fill-rule:nonzero;"/>
        </g>
    </g>
</svg>
