<?xml version="1.0" encoding="UTF-8" standalone="no"?>
<!DOCTYPE svg PUBLIC "-//W3C//DTD SVG 1.1//EN" "http://www.w3.org/Graphics/SVG/1.1/DTD/svg11.dtd">
<svg width="100%" height="100%" viewBox="0 0 1145 604" version="1.1" xmlns="http://www.w3.org/2000/svg" xmlns:xlink="http://www.w3.org/1999/xlink" xml:space="preserve" xmlns:serif="http://www.serif.com/" style="fill-rule:evenodd;clip-rule:evenodd;stroke-linejoin:round;stroke-miterlimit:2;">
    <g transform="matrix(5.55556,0,0,5.55556,-15597.8,-5745.08)">
        <path d="M2995.51,1092.21C2990.52,1090.61 2985.34,1090.51 2979.67,1091.89C2975.36,1092.94 2974.19,1092.78 2971.43,1091.69L2970.04,1091.15L2969.66,1090.03C2967.28,1083.04 2962.88,1078.18 2955.8,1074.75C2952.7,1073.24 2947.87,1071.64 2944.24,1071.12C2943.4,1066.81 2940.16,1057.62 2938.32,1054.57C2935.68,1050.18 2931.2,1044.99 2927.9,1042.51C2919.15,1035.93 2906.44,1032.83 2895.52,1034.61C2885,1036.33 2877.5,1039.86 2870.46,1046.42C2867.17,1049.49 2860.95,1057.56 2858.57,1061.85C2856.29,1065.97 2853.17,1074.99 2852.53,1079.29C2849.8,1079.32 2848.2,1079.69 2845.45,1080.85C2840.18,1083.08 2836.03,1086.51 2833.68,1090.58C2830.14,1090.87 2823.18,1092.67 2820.48,1094.24C2815.41,1097.2 2810.66,1103.63 2808.38,1110.63C2807.05,1114.73 2807.45,1119.98 2809.41,1123.99C2811.68,1128.61 2816.31,1132.97 2822.13,1135.92C2827.41,1138.61 2836.96,1139.11 2843.86,1137.06C2854.04,1134.05 2866.77,1133.58 2875.54,1135.9C2876.92,1136.26 2879.83,1137.34 2881.76,1138.21C2886.03,1140.11 2890.11,1141.56 2893.26,1142.28C2894.71,1142.62 2896.84,1142.78 2899.02,1142.78C2901.59,1142.78 2904.22,1142.55 2905.89,1142.12C2907.83,1141.61 2913.16,1139.18 2916.26,1137.67C2924.61,1133.61 2925.83,1133.23 2929.66,1132.75C2932.8,1132.36 2935.93,1132.7 2938.99,1133.75C2945.66,1136.05 2948.56,1136.55 2953.77,1136.28C2956.37,1136.15 2961.28,1135.56 2964.72,1134.97C2969.98,1134.07 2970.66,1134.03 2976.73,1134.29C2980.56,1134.46 2986.78,1134.6 2990.6,1134.6L2998.38,1134.6L3001.96,1132.83C3003.63,1132.01 3006,1130.49 3007.32,1129.17C3013.1,1123.39 3015.43,1112.24 3012.21,1105.77C3009.34,1100.01 3002.47,1094.43 2995.51,1092.21Z" style="fill:white;fill-rule:nonzero;"/>
        <path d="M2867.34,1095.51C2868.23,1095.05 2868.78,1095.25 2871.19,1096.9C2876.65,1100.65 2886.17,1100.94 2889.32,1097.46C2889.89,1096.84 2889.95,1096.38 2889.67,1094.96C2889.23,1092.78 2889.41,1091.56 2890.21,1091.25C2891.05,1090.92 2891.76,1091.56 2893.39,1094.12C2894.47,1095.81 2895.23,1096.47 2897.07,1097.35C2898.65,1098.1 2899.42,1098.72 2899.5,1099.29C2899.77,1101.19 2897.13,1101.72 2894.34,1100.34C2892.81,1099.58 2892.76,1099.58 2892.09,1100.33C2891.71,1100.74 2890.26,1101.65 2888.86,1102.33C2886.66,1103.42 2885.82,1103.6 2882.6,1103.7C2880.56,1103.76 2878.44,1103.73 2877.88,1103.62C2875.67,1103.2 2871.56,1101.75 2869.98,1100.83C2867.01,1099.11 2865.65,1096.37 2867.34,1095.51ZM2825.53,1126.68C2829.85,1128.98 2835.39,1129.31 2841.52,1127.62C2850.57,1125.13 2857.71,1124.33 2866.84,1124.79C2874.23,1125.16 2878.59,1126.21 2885.66,1129.34C2893.9,1132.99 2898.4,1133.87 2903.2,1132.78C2904.19,1132.55 2908.08,1130.85 2911.84,1129C2919.63,1125.16 2923.49,1123.76 2927.98,1123.12C2932.72,1122.45 2936.88,1122.91 2942.84,1124.78C2945.68,1125.67 2948.65,1126.5 2949.45,1126.63C2951.18,1126.91 2957.83,1126.23 2964.48,1125.1C2968.76,1124.37 2970.18,1124.31 2977.13,1124.58C2981.44,1124.75 2987.5,1124.91 2990.59,1124.93C2996.17,1124.97 2996.24,1124.96 2998.43,1123.73C3000.37,1122.64 3000.83,1122.12 3002.19,1119.47C3004.31,1115.34 3004.63,1111.96 3003.13,1109.39C3001.17,1106.06 2996.77,1102.78 2992.46,1101.45C2989.19,1100.44 2985.85,1100.45 2981.55,1101.49C2977.03,1102.59 2972.77,1102.6 2969.9,1101.53C2959.8,1097.76 2960,1097.78 2956.42,1099.69C2953.08,1101.46 2952.3,1099.92 2955.13,1097.15C2956.07,1096.23 2957.71,1095.09 2958.77,1094.63C2960.95,1093.66 2960.96,1093.51 2959.13,1090.1C2956.95,1086.03 2951.37,1082.56 2944.7,1081.14C2941.82,1080.53 2941.03,1080.5 2938.56,1080.94C2934.61,1081.65 2931.53,1083.32 2927.64,1086.86C2922.92,1091.15 2922.72,1091.26 2921.48,1090.45C2919.25,1088.99 2920.75,1085.39 2925.33,1081.24C2927.75,1079.05 2932.83,1076.15 2934.26,1076.15C2934.61,1076.15 2935,1075.99 2935.12,1075.78C2935.71,1074.83 2931.91,1062.84 2929.98,1059.55C2927.96,1056.1 2924.15,1051.72 2921.56,1049.87C2918.19,1047.47 2915.56,1046.29 2910.64,1044.98C2906.91,1043.99 2906.2,1043.93 2900.79,1044.12C2894.2,1044.36 2890.88,1045.1 2886.1,1047.37C2882.48,1049.09 2880.32,1050.54 2877.26,1053.34C2874.64,1055.72 2868.34,1063.95 2866.8,1066.98C2865.92,1068.71 2863.49,1074.9 2863.29,1075.9C2863.25,1076.1 2864.51,1076.22 2866.1,1076.18C2868.36,1076.12 2869.35,1076.29 2870.72,1076.97C2873.94,1078.59 2876.17,1081.36 2875.71,1083.18C2875.25,1085.03 2872.97,1084.69 2871.72,1082.58C2870.69,1080.83 2868.01,1079.7 2865.65,1080.03C2862.55,1080.45 2861.92,1081.32 2861.44,1085.75C2860.89,1090.9 2859.71,1092.12 2857.19,1090.14C2855.41,1088.74 2852.3,1088.67 2848.98,1089.97C2845.76,1091.24 2843.34,1093.4 2841.3,1096.84C2839.64,1099.64 2838.68,1100.25 2835.83,1100.25C2832.02,1100.26 2826.74,1101.75 2824.3,1103.5C2820.26,1106.4 2816.76,1113.36 2817.39,1117.26C2817.94,1120.76 2820.97,1124.25 2825.53,1126.68Z" style="fill:white;fill-rule:nonzero;"/>
        <path d="M2869.98,1100.83C2871.56,1101.75 2875.67,1103.2 2877.88,1103.62C2878.44,1103.73 2880.56,1103.76 2882.6,1103.7C2885.82,1103.6 2886.66,1103.42 2888.86,1102.33C2890.26,1101.65 2891.71,1100.74 2892.09,1100.33C2892.76,1099.58 2892.81,1099.58 2894.34,1100.34C2897.13,1101.72 2899.77,1101.19 2899.5,1099.29C2899.42,1098.72 2898.65,1098.1 2897.07,1097.35C2895.23,1096.47 2894.47,1095.81 2893.39,1094.12C2891.76,1091.56 2891.05,1090.92 2890.21,1091.25C2889.41,1091.56 2889.23,1092.78 2889.67,1094.96C2889.95,1096.38 2889.89,1096.84 2889.32,1097.46C2886.17,1100.94 2876.65,1100.65 2871.19,1096.9C2868.78,1095.25 2868.23,1095.05 2867.34,1095.51C2865.65,1096.37 2867.01,1099.11 2869.98,1100.83Z" style="fill-rule:nonzero;"/>
        <path d="M2824.3,1103.5C2826.74,1101.75 2832.02,1100.26 2835.83,1100.25C2838.68,1100.25 2839.64,1099.64 2841.3,1096.84C2843.34,1093.4 2845.76,1091.24 2848.98,1089.97C2852.3,1088.67 2855.41,1088.74 2857.19,1090.14C2859.71,1092.12 2860.89,1090.9 2861.44,1085.75C2861.92,1081.32 2862.55,1080.45 2865.65,1080.03C2868.01,1079.7 2870.69,1080.83 2871.72,1082.58C2872.97,1084.69 2875.25,1085.03 2875.71,1083.18C2876.17,1081.36 2873.94,1078.59 2870.72,1076.97C2869.35,1076.29 2868.36,1076.12 2866.1,1076.18C2864.51,1076.22 2863.25,1076.1 2863.29,1075.9C2863.49,1074.9 2865.92,1068.71 2866.8,1066.98C2868.34,1063.95 2874.64,1055.72 2877.26,1053.34C2880.32,1050.54 2882.48,1049.09 2886.1,1047.37C2890.88,1045.1 2894.2,1044.36 2900.79,1044.12C2906.2,1043.93 2906.91,1043.99 2910.64,1044.98C2915.56,1046.29 2918.19,1047.47 2921.56,1049.87C2924.15,1051.72 2927.96,1056.1 2929.98,1059.55C2931.91,1062.84 2935.71,1074.83 2935.12,1075.78C2935,1075.99 2934.61,1076.15 2934.26,1076.15C2932.83,1076.15 2927.75,1079.05 2925.33,1081.24C2920.75,1085.39 2919.25,1088.99 2921.48,1090.45C2922.72,1091.26 2922.92,1091.15 2927.64,1086.86C2931.53,1083.32 2934.61,1081.65 2938.56,1080.94C2941.03,1080.5 2941.82,1080.53 2944.7,1081.14C2951.37,1082.56 2956.95,1086.03 2959.13,1090.1C2960.96,1093.51 2960.95,1093.66 2958.77,1094.63C2957.71,1095.09 2956.07,1096.23 2955.13,1097.15C2952.3,1099.92 2953.08,1101.46 2956.42,1099.69C2960,1097.78 2959.8,1097.76 2969.9,1101.53C2972.77,1102.6 2977.03,1102.59 2981.55,1101.49C2985.85,1100.45 2989.19,1100.44 2992.46,1101.45C2996.77,1102.78 3001.17,1106.06 3003.13,1109.39C3004.63,1111.96 3004.31,1115.34 3002.19,1119.47C3000.83,1122.12 3000.37,1122.64 2998.43,1123.73C2996.24,1124.96 2996.17,1124.97 2990.59,1124.93C2987.5,1124.91 2981.44,1124.75 2977.13,1124.58C2970.18,1124.31 2968.76,1124.37 2964.48,1125.1C2957.83,1126.23 2951.18,1126.91 2949.45,1126.63C2948.65,1126.5 2945.68,1125.67 2942.84,1124.78C2936.88,1122.91 2932.72,1122.45 2927.98,1123.12C2923.49,1123.76 2919.63,1125.16 2911.84,1129C2908.08,1130.85 2904.19,1132.55 2903.2,1132.78C2898.4,1133.87 2893.9,1132.99 2885.66,1129.34C2878.59,1126.21 2874.23,1125.16 2866.84,1124.79C2857.71,1124.33 2850.57,1125.13 2841.52,1127.62C2835.39,1129.31 2829.85,1128.98 2825.53,1126.68C2820.97,1124.25 2817.94,1120.76 2817.39,1117.26C2816.76,1113.36 2820.26,1106.4 2824.3,1103.5ZM2823.94,1132.36C2828.34,1134.59 2836.81,1134.98 2842.73,1133.23C2853.69,1129.98 2867.03,1129.51 2876.57,1132.03C2878.16,1132.45 2881.23,1133.59 2883.4,1134.55C2887.4,1136.34 2891.27,1137.72 2894.16,1138.38C2896.69,1138.97 2902.41,1138.89 2904.89,1138.25C2906.13,1137.92 2910.46,1136.04 2914.51,1134.07C2922.96,1129.96 2924.66,1129.35 2929.16,1128.78C2932.9,1128.32 2936.66,1128.72 2940.29,1129.97C2946.52,1132.11 2948.87,1132.53 2953.56,1132.29C2956.03,1132.16 2960.75,1131.6 2964.04,1131.03C2969.58,1130.08 2970.57,1130.02 2976.9,1130.3C2980.68,1130.46 2986.84,1130.6 2990.6,1130.6L2997.44,1130.6L3000.2,1129.24C3001.71,1128.5 3003.64,1127.19 3004.49,1126.34C3009.05,1121.79 3011.09,1112.49 3008.63,1107.56C3006.25,1102.78 3000.19,1097.9 2994.3,1096.02C2990,1094.64 2985.58,1094.57 2980.62,1095.78C2975.75,1096.97 2973.72,1096.9 2969.96,1095.41L2966.85,1094.19L2965.88,1091.32C2963.85,1085.37 2960.15,1081.3 2954.06,1078.35C2950.35,1076.55 2944.75,1074.95 2942.13,1074.95L2940.68,1074.95L2940.44,1072.63C2940.12,1069.59 2936.62,1059.49 2934.9,1056.63C2932.52,1052.68 2928.4,1047.89 2925.5,1045.71C2917.56,1039.74 2906.08,1036.94 2896.17,1038.56C2886.38,1040.16 2879.67,1043.31 2873.19,1049.35C2870.22,1052.12 2864.23,1059.9 2862.07,1063.79C2859.99,1067.54 2856.98,1076.26 2856.47,1080.01L2856.02,1083.28L2852.99,1083.28C2850.51,1083.29 2849.42,1083.51 2847.01,1084.53C2842.29,1086.53 2838.6,1089.67 2836.79,1093.23C2836.25,1094.28 2835.94,1094.45 2834.23,1094.55C2831.14,1094.74 2824.54,1096.51 2822.5,1097.7C2818.27,1100.17 2814.15,1105.82 2812.19,1111.86C2811.17,1114.98 2811.5,1119.15 2813.01,1122.23C2814.9,1126.09 2818.89,1129.79 2823.94,1132.36Z" style="fill-rule:nonzero;"/>
        <path d="M2901.76,1089.83C2900.74,1090.29 2899.33,1090.13 2898.64,1089.49C2896.76,1087.74 2896.52,1084.2 2897.93,1079.34C2898.97,1075.79 2899.78,1074.4 2900.81,1074.4C2901.45,1074.4 2902.09,1075.61 2903.06,1078.61C2905.08,1084.86 2904.65,1088.53 2901.76,1089.83Z" style="fill-rule:nonzero;"/>
    </g>
</svg>
