<?xml version="1.0" encoding="UTF-8" standalone="no"?>
<!DOCTYPE svg PUBLIC "-//W3C//DTD SVG 1.1//EN" "http://www.w3.org/Graphics/SVG/1.1/DTD/svg11.dtd">
<svg width="100%" height="100%" viewBox="0 0 306 163" version="1.1" xmlns="http://www.w3.org/2000/svg" xmlns:xlink="http://www.w3.org/1999/xlink" xml:space="preserve" xmlns:serif="http://www.serif.com/" style="fill-rule:evenodd;clip-rule:evenodd;stroke-linejoin:round;stroke-miterlimit:2;">
    <g transform="matrix(1,0,0,1,-86.2821,-562.49)">
        <g transform="matrix(1,0,0,1,211.912,632.184)">
            <path d="M0,23.351C-0.034,23.828 -0.12,24.303 -0.278,24.78C0.108,24.658 0.538,24.583 1.015,24.583C1.033,24.583 1.05,24.583 1.067,24.584C0.7,24.208 0.349,23.801 0,23.351M10.605,80.815C4.866,80.815 -1.407,79.075 -11.047,74.809C-21.084,70.367 -27.02,68.93 -37.51,68.405C-39.873,68.286 -42.067,68.228 -44.218,68.228C-54.108,68.228 -62.916,69.492 -73.669,72.454C-77.748,73.578 -81.717,74.147 -85.466,74.147L-85.467,74.147C-90.786,74.147 -95.601,73.018 -99.78,70.79C-107.547,66.651 -112.578,60.67 -113.583,54.384C-114.714,47.304 -109.081,35.81 -101.99,30.733C-97.827,27.751 -89.304,25.312 -82.993,25.293C-80.297,25.286 -79.883,25.285 -77.933,21.99C-74.532,16.241 -70.387,12.559 -64.89,10.403C-62.201,9.347 -59.472,8.789 -56.999,8.789C-54.013,8.789 -51.401,9.589 -49.439,11.102C-49.226,10.334 -48.97,9.08 -48.754,7.066C-48.147,1.394 -47.08,-1.902 -43.265,-3.507C-44.146,-3.761 -44.741,-4.164 -45.236,-4.765L-46.287,-6.04L-45.99,-7.722C-45.581,-9.784 -41.76,-19.301 -40.51,-21.767C-38.046,-26.631 -28.532,-39.049 -24.353,-42.859C-19.605,-47.185 -16.103,-49.547 -10.472,-52.222C-3.009,-55.766 2.364,-56.96 12.523,-57.33C14.81,-57.413 16.517,-57.464 17.958,-57.464C21.986,-57.464 23.922,-57.05 28.042,-55.954C35.736,-53.907 39.918,-52.028 45.255,-48.219C49.503,-45.188 55.383,-38.459 58.641,-32.9C60.358,-29.97 62.602,-23.769 64.13,-18.942C67.656,-7.801 66.898,-6.574 66.164,-5.387C65.196,-3.82 63.38,-3.228 62.057,-3.189C60.542,-2.881 54.406,0.421 51.12,3.398C47.496,6.681 45.981,9.062 45.41,10.41C46.588,9.418 48.217,7.938 49.812,6.488C56.014,0.848 61.175,-1.921 67.626,-3.075C69.347,-3.382 70.702,-3.573 72.132,-3.573C73.876,-3.573 75.543,-3.289 78.011,-2.762C88.869,-0.45 97.915,5.28 101.62,12.191C103.437,15.581 104.534,17.628 103.724,19.981C103.277,21.277 102.383,22.11 101.395,22.72C104.117,23.1 107.66,24.424 114.98,27.161L115.608,27.395C117.272,28.017 119.464,28.346 121.948,28.346C124.64,28.346 127.671,27.956 130.712,27.219C134.218,26.37 137.335,25.956 140.24,25.956C143.148,25.956 145.891,26.367 148.626,27.212C155.865,29.45 162.973,34.781 166.311,40.477C169.165,45.347 168.731,51.474 165.022,58.689C162.818,62.977 161.773,64.331 158.094,66.401C154.721,68.297 153.667,68.635 147.992,68.635C147.089,68.635 146.043,68.627 144.819,68.619C140.22,68.585 131.282,68.355 124.893,68.106C121.555,67.976 118.896,67.889 116.767,67.889C113.094,67.889 111.011,68.132 106.986,68.819C98.594,70.25 90.133,71.211 85.931,71.211C85.017,71.211 84.292,71.166 83.716,71.073C82.173,70.822 77.3,69.422 73.497,68.234C67.509,66.361 62.894,65.526 58.53,65.526C56.791,65.526 55.036,65.654 53.167,65.919C46.933,66.802 41.627,68.748 30.459,74.25C26.269,76.314 19.219,79.571 16.973,80.082C14.806,80.576 12.724,80.815 10.605,80.815" style="fill:white;fill-rule:nonzero;"/>
        </g>
        <g transform="matrix(1,0,0,1,229.871,716.499)">
            <path d="M0,-145.279C-1.494,-145.279 -3.236,-145.226 -5.563,-145.142C-16.145,-144.757 -22.067,-143.433 -29.932,-139.698C-35.915,-136.857 -39.634,-134.349 -44.669,-129.76C-49.143,-125.682 -58.949,-112.88 -61.591,-107.664C-62.868,-105.144 -66.871,-95.295 -67.38,-92.732C-67.692,-91.132 -67.453,-89.513 -66.725,-88.109C-68.946,-85.533 -69.676,-82.066 -70.109,-78.383C-71.617,-78.807 -73.244,-79.024 -74.958,-79.024C-77.906,-79.024 -80.991,-78.401 -84.127,-77.171C-90.304,-74.747 -95.137,-70.473 -98.904,-64.107C-99.4,-63.269 -99.721,-62.807 -99.91,-62.56C-100.125,-62.541 -100.459,-62.522 -100.962,-62.521C-108.008,-62.501 -117.243,-59.824 -121.987,-56.427C-129.33,-51.17 -136.454,-38.485 -134.998,-29.379C-133.818,-22 -128.127,-15.095 -119.385,-10.435C-114.694,-7.935 -109.325,-6.668 -103.426,-6.668C-99.363,-6.668 -95.081,-7.28 -90.698,-8.487C-80.265,-11.36 -71.736,-12.587 -62.178,-12.587C-60.086,-12.587 -57.949,-12.53 -55.644,-12.415C-45.657,-11.914 -40,-10.544 -30.422,-6.305C-20.302,-1.827 -13.619,0 -7.353,0C-4.97,0 -2.633,-0.268 -0.21,-0.82C3.153,-1.585 12.942,-6.381 14.047,-6.925C24.83,-12.237 29.889,-14.107 35.699,-14.93C37.404,-15.172 38.998,-15.289 40.572,-15.289C44.619,-15.289 48.782,-14.527 54.493,-12.741C57.29,-11.866 63.126,-10.124 65.195,-9.788C65.97,-9.662 66.852,-9.603 67.972,-9.603C72.352,-9.603 81.05,-10.585 89.615,-12.046C93.488,-12.706 95.359,-12.925 98.806,-12.925C100.879,-12.925 103.5,-12.841 106.797,-12.712C113.229,-12.461 122.217,-12.229 126.834,-12.196C128.068,-12.187 129.122,-12.179 130.032,-12.179C136.024,-12.179 137.791,-12.581 141.85,-14.863C146.202,-17.31 147.746,-19.298 150.176,-24.026C154.469,-32.375 154.871,-39.636 151.371,-45.607C147.622,-52.006 139.717,-57.969 131.7,-60.447C128.626,-61.396 125.545,-61.858 122.282,-61.858C119.095,-61.858 115.709,-61.413 111.928,-60.497C109.153,-59.824 106.407,-59.468 103.989,-59.468C101.949,-59.468 100.132,-59.727 98.874,-60.198L98.252,-60.43C94.384,-61.876 91.521,-62.946 89.233,-63.703C90.23,-67.276 88.609,-70.3 86.745,-73.777C82.505,-81.688 72.799,-87.94 60.782,-90.501C58.08,-91.076 56.227,-91.387 54.174,-91.387C53.539,-91.387 52.928,-91.358 52.311,-91.302C52.453,-93.659 51.73,-97.294 49.508,-104.313C48.739,-106.743 46.047,-114.983 43.701,-118.985C40.232,-124.905 33.919,-132.108 29.329,-135.383C23.671,-139.421 19.042,-141.507 10.983,-143.651C6.73,-144.783 4.405,-145.279 0,-145.279M-33.368,-56.039C-38.697,-56.039 -44.629,-57.533 -48.877,-60.45C-51.379,-62.168 -52.525,-62.822 -53.442,-62.822C-53.825,-62.822 -54.168,-62.708 -54.554,-62.509C-57.031,-61.235 -55.031,-57.203 -50.666,-54.669C-48.334,-53.315 -42.284,-51.178 -39.028,-50.558L-39.027,-50.558C-38.49,-50.456 -36.944,-50.399 -35.09,-50.399C-34.137,-50.399 -33.101,-50.414 -32.08,-50.446C-27.352,-50.592 -26.105,-50.865 -22.869,-52.458C-20.811,-53.471 -18.672,-54.801 -18.117,-55.415C-17.626,-55.958 -17.362,-56.231 -16.944,-56.231C-16.521,-56.231 -15.94,-55.952 -14.807,-55.391C-13.238,-54.615 -11.702,-54.25 -10.425,-54.25C-8.352,-54.25 -6.96,-55.211 -7.206,-56.939C-7.327,-57.785 -8.455,-58.684 -10.789,-59.797C-13.49,-61.085 -14.61,-62.069 -16.2,-64.554C-18.232,-67.731 -19.289,-68.893 -20.31,-68.893C-20.499,-68.893 -20.686,-68.854 -20.877,-68.781C-22.067,-68.324 -22.332,-66.524 -21.685,-63.31C-21.265,-61.228 -21.359,-60.549 -22.192,-59.629C-24.372,-57.218 -28.632,-56.039 -33.368,-56.039M-24.606,-79.352C-23.609,-79.352 -22.053,-80.273 -19.903,-82.122C-16.872,-84.729 -15.334,-85.626 -13.15,-85.626C-12.549,-85.626 -11.899,-85.558 -11.157,-85.439C-8.287,-84.98 -5.692,-83.166 -4.137,-80.53C-3.332,-79.166 -2.233,-78.527 -1.241,-78.527C0.071,-78.527 1.194,-79.646 1.194,-81.681C1.194,-84.047 -3.415,-88.856 -6.994,-90.224C-8.698,-90.877 -10.787,-91.201 -12.795,-91.201C-14.909,-91.2 -16.934,-90.841 -18.325,-90.128C-23.508,-87.468 -26.358,-83.985 -25.915,-80.854C-25.774,-79.854 -25.342,-79.352 -24.606,-79.352M0,-138.279C3.586,-138.279 5.231,-137.938 9.183,-136.886C16.427,-134.959 20.308,-133.221 25.262,-129.685C29.079,-126.963 34.688,-120.52 37.662,-115.445C40.502,-110.599 46.092,-92.94 45.228,-91.542C45.044,-91.245 44.472,-91.002 43.956,-91.002C41.856,-91.002 34.374,-86.738 30.812,-83.51C24.072,-77.405 21.859,-72.105 25.149,-69.95C25.678,-69.603 26.078,-69.372 26.55,-69.372C27.703,-69.372 29.282,-70.758 34.208,-75.237C39.945,-80.454 44.47,-82.905 50.282,-83.944C51.908,-84.234 53.04,-84.387 54.174,-84.387C55.576,-84.387 56.98,-84.153 59.323,-83.654C69.145,-81.561 77.363,-76.465 80.576,-70.47C83.266,-65.451 83.248,-65.22 80.037,-63.804C78.477,-63.117 76.069,-61.446 74.686,-60.092C71.745,-57.213 71.447,-55.236 73.251,-55.236C74.006,-55.236 75.129,-55.583 76.58,-56.354C78.782,-57.525 80.012,-58.214 81.783,-58.214C84.251,-58.213 87.769,-56.875 96.424,-53.64C98.515,-52.859 101.102,-52.468 103.989,-52.468C106.942,-52.468 110.208,-52.878 113.577,-53.694C116.782,-54.47 119.627,-54.858 122.281,-54.858C124.862,-54.858 127.262,-54.492 129.633,-53.758C135.982,-51.797 142.456,-46.976 145.332,-42.068C147.545,-38.292 147.082,-33.317 143.951,-27.226C141.947,-23.328 141.281,-22.574 138.419,-20.965C135.671,-19.42 135.193,-19.179 130.032,-19.179C129.136,-19.179 128.1,-19.187 126.885,-19.196C122.331,-19.229 113.414,-19.459 107.07,-19.706C103.499,-19.845 100.919,-19.925 98.806,-19.925C94.86,-19.925 92.541,-19.645 88.439,-18.946C80.155,-17.533 71.864,-16.603 67.972,-16.603C67.268,-16.603 66.708,-16.633 66.318,-16.697C65.146,-16.887 60.765,-18.114 56.583,-19.422C50.319,-21.381 45.407,-22.289 40.572,-22.289C38.635,-22.289 36.71,-22.143 34.717,-21.861C28.109,-20.925 22.417,-18.851 10.953,-13.204C5.423,-10.48 -0.3,-7.978 -1.764,-7.645C-3.622,-7.221 -5.448,-7 -7.353,-7C-12.692,-7 -18.64,-8.746 -27.589,-12.707C-37.988,-17.308 -44.404,-18.86 -55.293,-19.406C-57.67,-19.525 -59.953,-19.587 -62.178,-19.587C-72.534,-19.587 -81.592,-18.256 -92.557,-15.235C-96.357,-14.189 -100.003,-13.668 -103.426,-13.668C-108.132,-13.668 -112.415,-14.653 -116.092,-16.613C-122.814,-20.195 -127.264,-25.341 -128.086,-30.483C-129.005,-36.233 -123.859,-46.477 -117.912,-50.736C-114.31,-53.315 -106.543,-55.505 -100.941,-55.521C-96.745,-55.533 -95.318,-56.422 -92.88,-60.543C-89.884,-65.605 -86.323,-68.789 -81.571,-70.654C-79.238,-71.569 -76.973,-72.024 -74.958,-72.024C-72.761,-72.024 -70.86,-71.483 -69.49,-70.405C-68.383,-69.535 -67.452,-69.086 -66.668,-69.086C-64.829,-69.086 -63.803,-71.56 -63.234,-76.876C-62.535,-83.399 -61.6,-84.67 -57.037,-85.295C-56.638,-85.349 -56.232,-85.376 -55.825,-85.376C-52.693,-85.376 -49.446,-83.813 -48.101,-81.537C-47.076,-79.802 -45.574,-78.88 -44.33,-78.88C-43.349,-78.88 -42.529,-79.453 -42.227,-80.652C-41.554,-83.338 -44.83,-87.411 -49.577,-89.792C-51.345,-90.678 -52.682,-90.98 -55.23,-90.98C-55.588,-90.98 -55.97,-90.974 -56.38,-90.963C-56.692,-90.955 -56.996,-90.95 -57.289,-90.95C-59.174,-90.95 -60.562,-91.121 -60.514,-91.369C-60.22,-92.846 -56.635,-101.959 -55.347,-104.5C-53.084,-108.966 -43.799,-121.082 -39.954,-124.587C-35.443,-128.698 -32.271,-130.839 -26.929,-133.375C-19.9,-136.714 -15.006,-137.794 -5.308,-138.146C-3.079,-138.227 -1.394,-138.279 0,-138.279" style="fill:white;fill-rule:nonzero;"/>
        </g>
        <g transform="matrix(1,0,0,1,194.779,644.106)">
            <path d="M0,25.494C-2.276,25.494 -3.82,25.42 -4.589,25.273C-8.239,24.578 -14.669,22.297 -17.33,20.752C-21.486,18.339 -24.119,14.704 -24.037,11.489C-23.985,9.436 -22.9,7.717 -21.062,6.771C-20.146,6.301 -19.259,6.071 -18.349,6.071C-16.301,6.071 -14.51,7.2 -11.803,9.057C-8.393,11.399 -3.209,12.854 1.725,12.854C5.491,12.853 8.666,11.997 10.123,10.604C10.099,10.426 10.055,10.162 9.977,9.774C8.949,4.672 9.953,1.499 12.961,0.345C13.559,0.115 14.171,0 14.782,0C17.8,0 19.611,2.467 21.841,5.952C23.074,7.88 23.705,8.433 25.81,9.436C28.458,10.699 30.963,12.241 31.352,14.959C31.592,16.642 31.141,18.243 30.082,19.464C28.862,20.87 26.94,21.643 24.668,21.643C22.776,21.643 20.723,21.123 18.733,20.139C18.721,20.133 18.709,20.127 18.696,20.12C16.956,21.49 14.141,22.892 13.77,23.076C10.05,24.907 8.358,25.283 3.121,25.445C2.062,25.478 0.989,25.494 0,25.494" style="fill:white;fill-rule:nonzero;"/>
        </g>
        <g transform="matrix(1,0,0,1,209.561,673.099)">
            <path d="M0,-32.494C-1.042,-32.494 -2.076,-32.3 -3.075,-31.917C-8.584,-29.803 -9.019,-24.253 -8.517,-20.238C-9.491,-19.928 -10.977,-19.64 -13.058,-19.64C-17.322,-19.64 -21.747,-20.859 -24.605,-22.822C-27.303,-24.674 -29.851,-26.423 -33.132,-26.423C-34.611,-26.423 -36.022,-26.067 -37.445,-25.335C-40.412,-23.809 -42.234,-20.915 -42.318,-17.594C-42.434,-13.051 -39.197,-8.307 -33.87,-5.216C-30.554,-3.29 -23.705,-0.982 -20.027,-0.282C-19.58,-0.197 -18.54,0 -14.78,0C-13.727,0 -12.612,-0.017 -11.554,-0.05C-6.228,-0.215 -3.867,-0.612 0.532,-2.778C1.361,-3.186 2.859,-3.959 4.32,-4.891C6.187,-4.207 8.081,-3.85 9.885,-3.85C13.187,-3.85 16.049,-5.053 17.943,-7.236C19.677,-9.236 20.42,-11.826 20.034,-14.529C19.326,-19.48 14.565,-21.748 12.532,-22.717C11.008,-23.443 10.89,-23.547 10.007,-24.928C7.964,-28.121 5.166,-32.494 0,-32.494M0,-25.494C1.022,-25.494 2.078,-24.331 4.11,-21.155C5.7,-18.67 6.82,-17.685 9.521,-16.397C11.856,-15.285 12.983,-14.386 13.104,-13.54C13.351,-11.811 11.958,-10.85 9.886,-10.85C8.608,-10.85 7.072,-11.216 5.503,-11.992C4.37,-12.553 3.789,-12.832 3.366,-12.832C2.948,-12.832 2.684,-12.558 2.193,-12.015C1.638,-11.402 -0.5,-10.072 -2.559,-9.058C-5.795,-7.466 -7.042,-7.193 -11.77,-7.047C-12.791,-7.015 -13.826,-7 -14.78,-7C-16.634,-7 -18.18,-7.057 -18.717,-7.159C-21.974,-7.779 -28.024,-9.916 -30.356,-11.269C-34.721,-13.804 -36.721,-17.836 -34.244,-19.11C-33.858,-19.308 -33.515,-19.423 -33.132,-19.423C-32.214,-19.423 -31.069,-18.768 -28.567,-17.051C-24.318,-14.134 -18.387,-12.64 -13.058,-12.64C-8.322,-12.64 -4.062,-13.82 -1.882,-16.229C-1.049,-17.149 -0.955,-17.829 -1.375,-19.911C-2.022,-23.125 -1.757,-24.925 -0.567,-25.382C-0.375,-25.455 -0.189,-25.494 0,-25.494" style="fill:white;fill-rule:nonzero;"/>
        </g>
        <g transform="matrix(1,0,0,1,228.63,621.798)">
            <path d="M0,19.674C-2.325,19.674 -4.534,18.281 -5.91,15.949C-6.931,14.219 -8.635,13.011 -10.468,12.718C-11.077,12.62 -11.534,12.575 -11.908,12.575C-12.767,12.575 -13.497,12.754 -16.379,15.233C-19.327,17.768 -21.416,18.849 -23.364,18.849L-23.365,18.849C-25.272,18.849 -27.667,17.667 -28.14,14.338C-28.812,9.583 -25.365,4.889 -18.682,1.46C-16.848,0.519 -14.316,0 -11.553,0C-9.041,0 -6.536,0.429 -4.502,1.207C-0.299,2.815 5.935,8.484 5.935,13.02C5.935,16.814 3.384,19.674 0,19.674" style="fill:white;fill-rule:nonzero;"/>
        </g>
        <g transform="matrix(1,0,0,1,217.077,644.972)">
            <path d="M0,-26.674C-2.34,-26.674 -5.754,-26.354 -8.726,-24.828C-20.218,-18.932 -20.475,-11.338 -20.052,-8.347C-19.424,-3.918 -16.036,-0.825 -11.811,-0.825C-8.218,-0.825 -5.11,-3.081 -2.544,-5.287C-1.148,-6.488 -0.505,-6.931 -0.223,-7.094C-0.073,-7.084 0.16,-7.06 0.533,-7C1.336,-6.872 2.139,-6.277 2.629,-5.445C4.641,-2.036 7.977,0 11.554,0C16.932,0 20.989,-4.365 20.989,-10.154C20.989,-16.965 12.855,-23.494 8.301,-25.236C5.195,-26.424 2.073,-26.674 0,-26.674M0,-19.674C2.008,-19.674 4.097,-19.35 5.801,-18.697C9.379,-17.329 13.989,-12.52 13.989,-10.154C13.989,-8.118 12.866,-7 11.554,-7C10.562,-7 9.463,-7.639 8.658,-9.003C7.102,-11.639 4.508,-13.453 1.638,-13.912C0.895,-14.031 0.246,-14.099 -0.355,-14.099C-2.539,-14.099 -4.077,-13.202 -7.108,-10.595C-9.258,-8.746 -10.814,-7.825 -11.811,-7.825C-12.547,-7.825 -12.979,-8.327 -13.121,-9.327C-13.563,-12.458 -10.713,-15.942 -5.531,-18.601C-4.139,-19.315 -2.115,-19.674 0,-19.674" style="fill:white;fill-rule:nonzero;"/>
        </g>
        <g transform="matrix(1,0,0,1,167.695,593.767)">
            <path d="M0,99.645C2.269,99.645 4.578,99.706 7.059,99.831C18.416,100.4 25.178,102.034 36.004,106.825C44.683,110.666 50.135,112.232 54.823,112.232C56.413,112.232 57.987,112.049 59.636,111.674C60.637,111.43 65.67,109.3 71.584,106.388C83.375,100.58 89.406,98.397 96.402,97.406C98.601,97.094 100.676,96.943 102.748,96.943C107.851,96.943 113.111,97.876 119.805,99.969C124.37,101.397 128.27,102.453 129.057,102.581C129.087,102.585 129.377,102.628 130.148,102.628C133.936,102.628 142.11,101.686 150.027,100.335C154.203,99.624 156.776,99.306 160.984,99.306C163.227,99.306 165.964,99.395 169.383,99.528C175.713,99.775 184.552,100.002 189.087,100.036C190.292,100.044 191.321,100.052 192.21,100.052C196.505,100.052 196.549,100.027 198.881,98.716C200.951,97.552 201.217,97.402 203.015,93.906C205.557,88.961 206.053,85.101 204.489,82.433C202.052,78.274 196.285,74.019 190.776,72.317C188.722,71.682 186.655,71.374 184.458,71.374C182.116,71.374 179.538,71.722 176.578,72.439C172.955,73.318 169.451,73.763 166.166,73.763C162.807,73.763 159.849,73.294 157.375,72.37L156.746,72.134C149.415,69.394 145.735,68.018 143.96,68.018C143.161,68.018 142.522,68.338 140.623,69.349L140.399,69.468C138.466,70.496 136.84,70.996 135.428,70.996C133.461,70.996 131.816,69.957 131.134,68.285C130.179,65.945 131.283,63.204 134.415,60.138C136.064,58.523 138.714,56.68 140.652,55.791C140.335,55.161 139.951,54.444 139.667,53.915C136.952,48.848 129.534,44.368 120.771,42.5C118.436,42.003 117.362,41.844 116.35,41.844C115.55,41.844 114.662,41.95 113.075,42.233C107.902,43.158 104.016,45.286 98.739,50.083C93.014,55.29 91.287,56.86 88.727,56.86C87.164,56.86 86.021,56.112 85.408,55.71C83.6,54.526 82.513,52.698 82.346,50.563C81.959,45.605 86.642,40.249 90.638,36.627C93.248,34.264 99.437,30.133 103.677,28.72C102.588,23.875 98.958,12.705 96.819,9.056C94.127,4.463 88.794,-1.687 85.406,-4.105C80.798,-7.393 77.306,-8.951 70.46,-10.772C66.638,-11.79 65.325,-12.047 62.176,-12.047C60.841,-12.047 59.204,-11.998 56.996,-11.918C47.722,-11.58 43.37,-10.626 36.749,-7.482C31.699,-5.084 28.855,-3.165 24.58,0.732C21.049,3.951 12.026,15.72 9.952,19.814C9.2,21.296 7.605,25.209 6.441,28.255C6.614,28.253 6.783,28.251 6.947,28.251C9.982,28.251 11.872,28.66 14.168,29.811C19.671,32.571 24.591,37.964 23.344,42.931C22.67,45.617 20.513,47.352 17.847,47.352C15.257,47.352 12.657,45.675 11.063,42.975C10.46,41.956 8.488,40.856 6.351,40.856C6.098,40.856 5.851,40.872 5.615,40.904C2.954,41.269 2.954,41.269 2.423,46.228C2.074,49.496 1.254,57.146 -4.491,57.146C-6.098,57.146 -7.682,56.489 -9.477,55.077C-10.19,54.516 -11.363,54.207 -12.781,54.207C-14.388,54.207 -16.232,54.597 -18.115,55.336C-22.138,56.915 -25.091,59.578 -27.691,63.971C-30.737,69.121 -33.323,70.695 -38.755,70.71C-43.575,70.724 -50.697,72.694 -53.697,74.841C-58.892,78.561 -63.102,87.636 -62.453,91.696C-61.807,95.739 -58,99.976 -52.269,103.03C-49.115,104.711 -45.407,105.564 -41.249,105.564C-38.128,105.564 -34.784,105.079 -31.31,104.122C-19.917,100.984 -10.554,99.645 0,99.645M54.248,127.422C52.375,127.422 48.854,127.335 46.321,126.752C41.825,125.718 35.97,123.638 29.834,120.897C26.838,119.558 22.478,117.943 20.312,117.37C14.737,115.895 8,115.115 0.828,115.115C-8.829,115.115 -18.928,116.533 -27.611,119.107C-31.493,120.258 -36.084,120.867 -40.886,120.867L-40.887,120.867C-47.565,120.867 -53.745,119.672 -57.841,117.589C-65.952,113.464 -72.387,107.453 -75.497,101.096C-78.124,95.724 -78.67,88.707 -76.887,83.22C-73.714,73.452 -67.142,64.506 -60.145,60.429C-56.376,58.233 -46.019,55.607 -41.326,55.323C-40.928,55.299 -40.648,55.276 -40.45,55.254C-37.387,49.241 -31.426,44.124 -23.662,40.844C-19.697,39.17 -17.608,38.735 -13.502,38.727L-12.087,38.725L-11.845,36.946C-11.027,30.949 -6.498,17.806 -3.189,11.834C0.15,5.806 9.229,-5.978 13.853,-10.286C23.846,-19.596 34.506,-24.614 49.498,-27.064C52.393,-27.537 55.42,-27.777 58.496,-27.777C71.663,-27.777 85.436,-23.329 95.339,-15.877C99.983,-12.384 106.317,-5.044 110.074,1.194C112.859,5.822 118.187,21.237 118.71,26.186L118.744,26.499C123.724,26.836 131.841,29.41 136.805,31.817C146.608,36.574 152.705,43.285 155.991,52.937L156.904,55.618L159.979,56.832C162.758,57.931 164.523,58.339 166.49,58.339C168.229,58.339 170.339,58.005 173.545,57.222C177.281,56.31 180.765,55.867 184.196,55.867C188.119,55.867 191.842,56.447 195.578,57.641C205.104,60.685 214.848,68.575 218.748,76.401C223.01,84.957 219.731,100.355 211.999,108.087C210.469,109.618 207.35,111.74 204.745,113.023L199.962,115.378L189.077,115.378C183.483,115.378 174.367,115.179 168.755,114.934C165.71,114.8 163.595,114.724 161.796,114.724C158.307,114.724 156.157,115.002 150.573,115.962C145.591,116.818 138.484,117.67 134.731,117.861C133.498,117.923 132.418,117.954 131.431,117.954C125.579,117.954 121.285,116.814 113.875,114.26C110.352,113.045 106.728,112.43 103.104,112.43C101.764,112.43 100.407,112.515 99.07,112.683C92.916,113.455 90.62,114.291 78.599,120.14C73.188,122.774 66.154,125.907 63.778,126.526C61.623,127.087 58.061,127.422 54.248,127.422" style="fill:white;fill-rule:nonzero;"/>
        </g>
        <g transform="matrix(1,0,0,1,175.317,634.536)">
            <path d="M0,19.453C1.309,18.78 2.13,19.078 5.677,21.513C13.702,27.022 27.729,27.454 32.362,22.334C33.195,21.414 33.289,20.734 32.869,18.652C32.222,15.438 32.487,13.639 33.677,13.182C34.909,12.709 35.948,13.647 38.354,17.408C39.944,19.893 41.064,20.878 43.765,22.166C46.1,23.278 47.227,24.178 47.348,25.023C47.747,27.816 43.862,28.607 39.747,26.571C37.493,25.456 37.425,25.456 36.437,26.548C35.882,27.161 33.743,28.491 31.685,29.505C28.449,31.098 27.202,31.37 22.474,31.516C19.466,31.609 16.34,31.559 15.527,31.404C12.27,30.784 6.22,28.647 3.888,27.294C-0.477,24.76 -2.477,20.727 0,19.453M36.229,-8.165C38.941,-9.557 44.062,-9.601 47.56,-8.262C51.139,-6.894 55.748,-2.084 55.748,0.281C55.748,3.854 52.287,4.602 50.417,1.432C48.862,-1.203 46.267,-3.018 43.397,-3.477C39.953,-4.027 38.516,-3.484 34.651,-0.159C30.913,3.055 28.972,3.464 28.639,1.108C28.196,-2.023 31.047,-5.506 36.229,-8.165M-61.538,65.349C-55.187,68.735 -47.027,69.213 -38.003,66.727C-24.683,63.058 -14.177,61.883 -0.739,62.557C10.151,63.102 16.566,64.654 26.965,69.256C39.107,74.63 45.723,75.927 52.79,74.317C54.254,73.984 59.977,71.482 65.507,68.759C76.971,63.111 82.663,61.038 89.271,60.101C96.241,59.114 102.364,59.797 111.137,62.541C115.32,63.849 119.7,65.075 120.872,65.266C123.422,65.68 133.212,64.684 142.993,63.016C149.293,61.942 151.387,61.856 161.625,62.257C167.968,62.504 176.885,62.733 181.439,62.766C189.65,62.827 189.748,62.811 192.973,60.998C195.835,59.389 196.501,58.635 198.505,54.736C201.636,48.645 202.099,43.671 199.886,39.894C197.01,34.986 190.537,30.166 184.187,28.204C179.376,26.717 174.451,26.737 168.131,28.268C161.469,29.884 155.208,29.903 150.978,28.322C136.112,22.766 136.404,22.807 131.134,25.608C126.216,28.224 125.068,25.954 129.24,21.87C130.623,20.516 133.031,18.846 134.591,18.158C137.802,16.742 137.82,16.512 135.13,11.492C131.917,5.498 123.699,0.401 113.877,-1.692C109.64,-2.594 108.473,-2.631 104.836,-1.982C99.024,-0.943 94.499,1.509 88.762,6.725C81.822,13.035 81.527,13.208 79.703,12.013C76.413,9.857 78.626,4.557 85.366,-1.548C88.928,-4.776 96.41,-9.039 98.51,-9.039C99.026,-9.039 99.598,-9.282 99.782,-9.579C100.646,-10.978 95.056,-28.637 92.216,-33.483C89.242,-38.558 83.633,-45 79.817,-47.723C74.862,-51.259 70.981,-52.996 63.737,-54.924C58.249,-56.384 57.213,-56.474 49.246,-56.184C39.548,-55.831 34.654,-54.751 27.625,-51.412C22.283,-48.876 19.111,-46.735 14.6,-42.624C10.755,-39.119 1.47,-27.004 -0.793,-22.537C-2.081,-19.996 -5.666,-10.884 -5.959,-9.406C-6.015,-9.119 -4.156,-8.937 -1.826,-9C1.505,-9.091 2.961,-8.84 4.977,-7.829C9.724,-5.448 13.001,-1.375 12.327,1.31C11.643,4.033 8.285,3.527 6.453,0.426C4.934,-2.147 0.984,-3.808 -2.483,-3.332C-7.046,-2.707 -7.981,-1.437 -8.68,5.087C-9.491,12.668 -11.233,14.47 -14.935,11.557C-17.563,9.49 -22.141,9.396 -27.017,11.308C-31.769,13.174 -35.33,16.357 -38.326,21.42C-40.764,25.541 -42.191,26.43 -46.387,26.441C-51.988,26.458 -59.756,28.647 -63.357,31.226C-69.305,35.485 -74.451,45.729 -73.532,51.479C-72.709,56.621 -68.26,61.767 -61.538,65.349" style="fill:white;fill-rule:nonzero;"/>
        </g>
        <g transform="matrix(1,0,0,1,179.205,651.56)">
            <path d="M0,10.27C2.332,11.624 8.382,13.76 11.639,14.38C12.452,14.536 15.578,14.585 18.586,14.493C23.314,14.346 24.561,14.074 27.797,12.481C29.856,11.467 31.994,10.137 32.549,9.524C33.537,8.432 33.605,8.432 35.859,9.547C39.975,11.583 43.859,10.792 43.46,7.999C43.339,7.154 42.212,6.254 39.877,5.142C37.176,3.854 36.056,2.87 34.466,0.384C32.06,-3.376 31.022,-4.315 29.789,-3.842C28.599,-3.385 28.334,-1.585 28.982,1.628C29.401,3.71 29.307,4.39 28.474,5.31C23.841,10.43 9.814,9.999 1.789,4.489C-1.758,2.054 -2.578,1.756 -3.888,2.429C-6.365,3.704 -4.365,7.736 0,10.27" style="fill-rule:nonzero;"/>
        </g>
        <g transform="matrix(1,0,0,1,209.969,629.698)">
            <path d="M0,4.679C3.865,1.355 5.302,0.811 8.746,1.362C11.616,1.821 14.211,3.635 15.766,6.271C17.636,9.441 21.097,8.693 21.097,5.119C21.097,2.754 16.487,-2.055 12.909,-3.424C9.411,-4.762 4.29,-4.718 1.577,-3.327C-3.605,-0.668 -6.455,2.816 -6.013,5.947C-5.679,8.302 -3.738,7.893 0,4.679" style="fill-rule:nonzero;"/>
        </g>
        <g transform="matrix(1,0,0,1,111.96,619.975)">
            <path d="M0,45.788C3.601,43.209 11.369,41.019 16.97,41.003C21.167,40.991 22.593,40.102 25.032,35.981C28.027,30.919 31.589,27.735 36.341,25.87C41.216,23.958 45.794,24.052 48.422,26.119C52.125,29.031 53.866,27.229 54.678,19.648C55.376,13.125 56.311,11.854 60.875,11.229C64.342,10.754 68.291,12.415 69.811,14.987C71.643,18.089 75.001,18.595 75.684,15.872C76.358,13.186 73.082,9.113 68.334,6.732C66.318,5.722 64.862,5.471 61.532,5.561C59.201,5.625 57.342,5.442 57.398,5.155C57.691,3.678 61.277,-5.435 62.564,-7.976C64.828,-12.442 74.112,-24.558 77.957,-28.063C82.469,-32.174 85.641,-34.315 90.982,-36.851C98.011,-40.19 102.906,-41.27 112.603,-41.622C120.57,-41.912 121.607,-41.822 127.095,-40.362C134.339,-38.435 138.219,-36.697 143.174,-33.161C146.99,-30.439 152.599,-23.996 155.574,-18.921C158.414,-14.075 164.003,3.584 163.14,4.982C162.956,5.279 162.383,5.522 161.868,5.522C159.767,5.522 152.286,9.786 148.723,13.014C141.984,19.119 139.771,24.419 143.061,26.574C144.884,27.769 145.179,27.597 152.119,21.287C157.856,16.07 162.382,13.619 168.194,12.58C171.831,11.931 172.997,11.968 177.234,12.87C187.057,14.963 195.274,20.059 198.487,26.054C201.178,31.073 201.159,31.304 197.949,32.72C196.388,33.407 193.98,35.078 192.598,36.432C188.425,40.516 189.574,42.785 194.491,40.17C199.762,37.368 199.47,37.328 214.335,42.884C218.566,44.465 224.826,44.445 231.488,42.83C237.808,41.299 242.734,41.278 247.544,42.766C253.894,44.727 260.368,49.548 263.244,54.456C265.457,58.232 264.994,63.207 261.862,69.298C259.858,73.196 259.193,73.95 256.331,75.559C253.106,77.373 253.007,77.389 244.797,77.328C240.242,77.295 231.326,77.065 224.982,76.818C214.744,76.418 212.65,76.504 206.35,77.578C196.57,79.246 186.779,80.241 184.23,79.827C183.058,79.637 178.677,78.41 174.495,77.102C165.722,74.358 159.598,73.676 152.628,74.663C146.021,75.6 140.328,77.673 128.865,83.32C123.335,86.044 117.612,88.546 116.148,88.879C109.081,90.488 102.465,89.191 90.322,83.817C79.923,79.216 73.508,77.664 62.618,77.118C49.18,76.444 38.675,77.62 25.354,81.289C16.331,83.774 8.171,83.297 1.819,79.911C-4.902,76.329 -9.352,71.183 -10.174,66.041C-11.093,60.291 -5.947,50.047 0,45.788M-0.52,88.262C5.945,91.549 18.416,92.127 27.129,89.544C43.265,84.76 62.902,84.063 76.942,87.778C79.289,88.399 83.814,90.071 86.997,91.494C92.893,94.128 98.593,96.156 102.839,97.133L102.839,97.134C106.56,97.989 114.984,97.881 118.63,96.932C120.458,96.455 126.835,93.689 132.802,90.786C145.233,84.736 147.733,83.834 154.37,83.002C159.873,82.312 165.402,82.9 170.751,84.744C179.921,87.904 183.378,88.509 190.288,88.157C193.917,87.974 200.859,87.14 205.715,86.305C213.863,84.905 215.322,84.822 224.642,85.229C230.197,85.473 239.273,85.671 244.811,85.671L254.882,85.671L258.932,83.676C261.16,82.578 264.007,80.656 265.259,79.404C271.958,72.705 274.972,59.023 271.349,51.754C267.843,44.718 258.929,37.542 250.247,34.767C243.922,32.746 237.411,32.632 230.11,34.415C222.944,36.165 219.95,36.062 214.427,33.881L209.847,32.07L208.413,27.857C205.428,19.091 199.978,13.108 191.012,8.759C185.552,6.11 177.315,3.762 173.458,3.754L171.325,3.748L170.965,0.347C170.49,-4.137 165.346,-18.995 162.81,-23.208C159.305,-29.028 153.24,-36.076 148.97,-39.288C137.284,-48.08 120.386,-52.201 105.797,-49.817C91.395,-47.464 81.518,-42.825 71.973,-33.933C67.598,-29.856 58.777,-18.4 55.607,-12.678C52.544,-7.147 48.11,5.69 47.358,11.211L46.703,16.012L42.239,16.019C38.588,16.026 36.986,16.361 33.435,17.861C26.481,20.798 21.051,25.417 18.39,30.661C17.601,32.217 17.136,32.457 14.62,32.609C10.069,32.885 0.365,35.49 -2.648,37.245C-8.875,40.873 -14.934,49.197 -17.824,58.094C-19.316,62.687 -18.831,68.826 -16.618,73.35C-13.837,79.036 -7.963,84.477 -0.52,88.262" style="fill-rule:nonzero;"/>
        </g>
        <g transform="matrix(1,0,0,1,179.133,668.266)">
            <path d="M0,-49.353C0.663,-50.971 1.275,-52.392 1.636,-53.103C3.503,-56.789 12.314,-68.277 15.5,-71.18C19.48,-74.807 22.123,-76.592 26.812,-78.819C32.921,-81.72 36.978,-82.601 45.685,-82.918C47.853,-82.998 49.455,-83.046 50.739,-83.046C53.511,-83.046 54.541,-82.842 58.122,-81.889C64.575,-80.172 67.673,-78.796 71.935,-75.754C74.65,-73.818 79.686,-68.24 82.361,-63.673C83.835,-61.159 86.624,-53.11 88.101,-47.856C83.288,-45.558 78.37,-41.841 76.851,-40.465C70.192,-34.433 67.019,-28.78 67.419,-23.663C67.672,-20.423 69.318,-17.653 72.052,-15.862C72.838,-15.346 74.681,-14.139 77.289,-14.139C81.202,-14.139 83.504,-16.232 89.656,-21.826C95.063,-26.742 98.484,-28.147 102.252,-28.821C103.618,-29.064 104.339,-29.155 104.913,-29.155C105.628,-29.155 106.594,-29.003 108.604,-28.575C116.572,-26.877 122.088,-23.22 124.462,-20C123.022,-19.036 121.607,-17.918 120.528,-16.862C115.238,-11.684 115.393,-7.495 116.455,-4.892C117.685,-1.876 120.573,-0.003 123.99,-0.003C125.99,-0.003 128.153,-0.637 130.605,-1.941L130.829,-2.06C131.48,-2.407 132.274,-2.83 132.638,-2.975C133.98,-2.863 138.459,-1.188 144.085,0.915L144.712,1.149C147.579,2.22 150.949,2.764 154.727,2.764C158.29,2.764 162.071,2.286 165.964,1.342C168.651,0.691 170.959,0.375 173.02,0.375C174.861,0.375 176.59,0.631 178.304,1.162C182.984,2.608 188.025,6.28 190.032,9.704C190.911,11.205 190.34,14.158 188.464,17.806C187.147,20.368 187.147,20.368 185.727,21.167C185.243,21.438 184.511,21.85 184.321,21.914C184.097,21.977 183.298,22.053 180.771,22.053C179.889,22.053 178.87,22.045 177.675,22.037C173.182,22.004 164.393,21.778 158.082,21.532C154.62,21.397 151.843,21.307 149.544,21.307C145.083,21.307 142.378,21.64 138,22.386C129.366,23.859 121.76,24.629 118.71,24.629C118.387,24.629 118.204,24.621 118.123,24.616C117.327,24.453 113.839,23.515 109.411,22.13C102.366,19.926 96.783,18.944 91.311,18.944C89.073,18.944 86.836,19.106 84.473,19.441C77.058,20.492 70.77,22.753 58.599,28.75C52.92,31.546 48.377,33.457 47.324,33.784C45.968,34.086 44.679,34.233 43.385,34.233C39.222,34.233 34.18,32.753 25.982,29.125C14.838,24.194 7.503,22.422 -4.204,21.835C-6.742,21.709 -9.109,21.646 -11.439,21.646C-22.323,21.646 -31.965,23.023 -43.677,26.249C-46.849,27.123 -49.88,27.565 -52.687,27.565C-56.265,27.565 -59.419,26.851 -62.061,25.443C-67.682,22.447 -70.085,18.831 -70.435,16.644C-70.856,14.006 -67.32,6.211 -63.097,3.188C-60.913,1.624 -54.665,-0.276 -50.183,-0.289C-42.59,-0.31 -39.276,-3.406 -36.117,-8.746C-33.912,-12.472 -31.566,-14.614 -28.275,-15.905C-26.817,-16.477 -25.376,-16.791 -24.219,-16.791C-23.545,-16.791 -23.151,-16.683 -23.025,-16.628C-20.633,-14.761 -18.312,-13.853 -15.929,-13.853C-14.138,-13.853 -9.713,-14.449 -7.316,-19.964C-6.472,-21.906 -5.906,-24.426 -5.535,-27.898C-5.427,-28.907 -5.326,-29.626 -5.24,-30.138C-5.191,-30.142 -5.14,-30.143 -5.086,-30.143C-4.319,-30.143 -3.569,-29.808 -3.296,-29.588C-1.064,-25.918 2.64,-23.647 6.409,-23.647C10.666,-23.647 14.24,-26.488 15.301,-30.716C17.075,-37.786 10.841,-44.536 4.299,-47.816C2.828,-48.554 1.474,-49.048 0,-49.353M47.058,-105.776C43.793,-105.776 40.576,-105.52 37.495,-105.017C21.77,-102.448 10.566,-97.163 0.029,-87.345C-4.882,-82.77 -14.155,-70.741 -17.689,-64.361C-20.94,-58.492 -25.324,-45.965 -26.554,-39.245C-30.195,-39.117 -32.576,-38.519 -36.461,-36.879C-44.239,-33.594 -50.402,-28.563 -54.032,-22.582C-59.574,-22.004 -69.331,-19.433 -73.345,-17.094C-81.043,-12.609 -88.23,-2.901 -91.654,7.639C-93.703,13.945 -93.084,21.99 -90.079,28.134C-86.642,35.161 -79.639,41.749 -70.866,46.21C-64.606,49.392 -56.563,49.868 -52.326,49.868C-47.19,49.868 -42.255,49.21 -38.054,47.963C-29.686,45.482 -19.939,44.116 -10.611,44.116C-3.737,44.116 2.691,44.855 7.978,46.254C9.738,46.72 13.863,48.206 16.968,49.593C20.622,51.225 24.189,52.632 27.458,53.74L27.377,54.119L34.099,55.665C36.826,56.292 40.342,56.423 42.811,56.423C44.777,56.423 49.725,56.325 53.222,55.414C56.381,54.59 64.723,50.72 68.692,48.789C80.827,42.883 82.59,42.343 88.068,41.657C89.261,41.506 90.472,41.431 91.666,41.431C94.9,41.431 98.141,41.982 101.297,43.07C109.09,45.756 113.639,46.955 119.993,46.955C121.04,46.955 122.178,46.922 123.471,46.857C127.401,46.658 134.542,45.803 139.727,44.913C145.167,43.978 147.103,43.724 150.357,43.724C152.092,43.724 154.166,43.8 157.164,43.931C162.82,44.178 172.004,44.379 177.639,44.379L189.339,44.379L190.802,43.659L194.853,41.664C197.381,40.418 201.005,38.094 203.036,36.062C211.841,27.258 215.371,10.232 210.442,0.34C206.091,-8.39 195.713,-16.833 185.205,-20.192C181.119,-21.498 177.048,-22.132 172.758,-22.132C169.044,-22.132 165.288,-21.657 161.277,-20.677C158.357,-19.963 156.495,-19.66 155.052,-19.66C153.797,-19.66 152.485,-19.871 149.827,-20.921L148.258,-21.541L147.866,-22.69C144.259,-33.286 137.595,-40.639 126.894,-45.831C122.472,-47.976 115.691,-50.259 110.329,-51.15C108.86,-57.922 104.336,-70.623 101.634,-75.11C97.677,-81.682 90.959,-89.448 86.005,-93.173C75.36,-101.182 61.164,-105.776 47.058,-105.776M-6.55,-42.717C-6.258,-42.717 -5.953,-42.722 -5.641,-42.73C-5.231,-42.742 -4.849,-42.748 -4.491,-42.748C-1.943,-42.748 -0.606,-42.446 1.161,-41.559C5.909,-39.178 9.185,-35.105 8.511,-32.419C8.21,-31.219 7.39,-30.647 6.409,-30.647C5.165,-30.647 3.662,-31.57 2.638,-33.304C1.293,-35.581 -1.954,-37.143 -5.086,-37.143C-5.493,-37.143 -5.899,-37.117 -6.298,-37.062C-10.861,-36.437 -11.797,-35.166 -12.495,-28.643C-13.064,-23.327 -14.09,-20.853 -15.929,-20.853C-16.713,-20.853 -17.645,-21.302 -18.751,-22.172C-20.121,-23.25 -22.022,-23.791 -24.219,-23.791C-26.235,-23.791 -28.499,-23.336 -30.832,-22.421C-35.584,-20.556 -39.146,-17.373 -42.141,-12.31C-44.58,-8.189 -46.006,-7.3 -50.203,-7.289C-55.804,-7.272 -63.572,-5.082 -67.173,-2.503C-73.12,1.755 -78.266,12 -77.347,17.75C-76.525,22.891 -72.075,28.038 -65.354,31.62C-61.676,33.58 -57.394,34.565 -52.687,34.565C-49.265,34.565 -45.618,34.043 -41.818,32.998C-30.852,29.977 -21.796,28.646 -11.439,28.646C-9.215,28.646 -6.93,28.708 -4.555,28.827C6.335,29.373 12.75,30.924 23.149,35.526C32.099,39.487 38.047,41.233 43.385,41.233C45.29,41.233 47.117,41.01 48.975,40.587C50.439,40.254 56.162,37.752 61.692,35.029C73.156,29.381 78.848,27.308 85.456,26.372C87.449,26.089 89.373,25.944 91.311,25.944C96.145,25.944 101.059,26.852 107.322,28.811C111.504,30.119 115.885,31.345 117.057,31.536C117.447,31.599 118.007,31.629 118.71,31.629C122.603,31.629 130.894,30.7 139.177,29.287C143.28,28.587 145.599,28.307 149.544,28.307C151.658,28.307 154.238,28.387 157.809,28.527C164.153,28.774 173.07,29.003 177.624,29.037C178.839,29.045 179.875,29.053 180.771,29.053C185.931,29.053 186.41,28.813 189.158,27.268C192.02,25.659 192.686,24.905 194.69,21.006C197.821,14.916 198.284,9.941 196.071,6.165C193.195,1.256 186.721,-3.564 180.371,-5.526C178,-6.259 175.601,-6.625 173.02,-6.625C170.366,-6.625 167.52,-6.238 164.316,-5.461C160.946,-4.645 157.681,-4.236 154.727,-4.236C151.841,-4.236 149.253,-4.626 147.162,-5.408C138.507,-8.643 134.99,-9.981 132.522,-9.981C130.751,-9.981 129.52,-9.291 127.318,-8.122C125.868,-7.35 124.745,-7.003 123.99,-7.003C122.186,-7.003 122.484,-8.981 125.425,-11.86C126.808,-13.213 129.216,-14.884 130.776,-15.572C133.986,-16.988 134.005,-17.218 131.314,-22.238C128.102,-28.232 119.884,-33.329 110.062,-35.421C107.719,-35.92 106.315,-36.155 104.913,-36.155C103.779,-36.155 102.647,-36.001 101.021,-35.711C95.209,-34.672 90.684,-32.221 84.946,-27.004C80.02,-22.525 78.442,-21.139 77.289,-21.139C76.817,-21.139 76.417,-21.371 75.888,-21.717C72.598,-23.873 74.811,-29.172 81.55,-35.278C85.113,-38.505 92.594,-42.769 94.695,-42.769C95.21,-42.769 95.783,-43.012 95.967,-43.309C96.831,-44.707 91.241,-62.367 88.401,-67.212C85.427,-72.288 79.817,-78.73 76.001,-81.453C71.046,-84.989 67.166,-86.726 59.922,-88.654C55.969,-89.706 54.326,-90.046 50.739,-90.046C49.345,-90.046 47.659,-89.995 45.43,-89.914C35.733,-89.561 30.839,-88.481 23.81,-85.142C18.468,-82.606 15.296,-80.465 10.785,-76.354C6.94,-72.849 -2.345,-60.734 -4.609,-56.267C-5.896,-53.726 -9.481,-44.614 -9.775,-43.136C-9.823,-42.888 -8.436,-42.717 -6.55,-42.717M47.058,-98.776C59.39,-98.776 72.311,-94.716 81.797,-87.58C86.067,-84.368 92.133,-77.32 95.637,-71.499C98.173,-67.287 103.317,-52.428 103.792,-47.945L104.152,-44.543L106.286,-44.538C110.142,-44.53 118.379,-42.181 123.839,-39.533C132.805,-35.183 138.256,-29.201 141.24,-20.434L142.674,-16.221L147.254,-14.411C150.24,-13.231 152.486,-12.66 155.052,-12.66C157.233,-12.66 159.645,-13.073 162.938,-13.876C166.364,-14.713 169.617,-15.132 172.758,-15.132C176.309,-15.132 179.718,-14.597 183.074,-13.524C191.756,-10.749 200.67,-3.574 204.177,3.462C207.799,10.732 204.785,24.414 198.086,31.113C196.834,32.365 193.987,34.287 191.76,35.384L187.709,37.379L177.639,37.379C172.1,37.379 163.024,37.181 157.47,36.938C154.431,36.805 152.228,36.724 150.357,36.724C146.487,36.724 144.034,37.07 138.542,38.013C133.686,38.848 126.744,39.682 123.115,39.866C121.997,39.922 120.969,39.955 119.993,39.955C114.937,39.955 111.264,39.101 103.578,36.453C99.676,35.108 95.679,34.431 91.666,34.431C90.177,34.431 88.686,34.524 87.197,34.71C80.56,35.543 78.06,36.445 65.629,42.495C59.662,45.398 53.285,48.164 51.457,48.64C49.478,49.156 46.09,49.423 42.811,49.423C40.051,49.423 37.367,49.233 35.666,48.842L35.667,48.841C31.42,47.865 25.721,45.836 19.824,43.203C16.642,41.78 12.117,40.108 9.769,39.487C3.762,37.898 -3.267,37.116 -10.611,37.116C-20.431,37.116 -30.812,38.515 -40.044,41.252C-43.714,42.34 -48.051,42.868 -52.326,42.868C-58.198,42.868 -63.951,41.873 -67.693,39.97C-75.135,36.186 -81.01,30.745 -83.791,25.059C-86.004,20.535 -86.489,14.396 -84.997,9.802C-82.106,0.906 -76.048,-7.418 -69.821,-11.046C-66.808,-12.801 -57.104,-15.407 -52.553,-15.682C-50.037,-15.834 -49.572,-16.075 -48.782,-17.63C-46.121,-22.874 -40.692,-27.494 -33.738,-30.43C-30.187,-31.93 -28.585,-32.265 -24.933,-32.272L-20.47,-32.28L-19.815,-37.081C-19.062,-42.601 -14.629,-55.438 -11.566,-60.969C-8.396,-66.692 0.425,-78.147 4.8,-82.224C14.346,-91.117 24.222,-95.755 38.624,-98.109C41.37,-98.557 44.198,-98.776 47.058,-98.776" style="fill:white;fill-rule:nonzero;"/>
        </g>
    </g>
</svg>
