<?xml version="1.0" encoding="UTF-8" standalone="no"?>
<!DOCTYPE svg PUBLIC "-//W3C//DTD SVG 1.1//EN" "http://www.w3.org/Graphics/SVG/1.1/DTD/svg11.dtd">
<svg width="100%" height="100%" viewBox="0 0 152 97" version="1.1" xmlns="http://www.w3.org/2000/svg" xmlns:xlink="http://www.w3.org/1999/xlink" xml:space="preserve" xmlns:serif="http://www.serif.com/" style="fill-rule:evenodd;clip-rule:evenodd;stroke-linejoin:round;stroke-miterlimit:2;">
    <g transform="matrix(1,0,0,1,-287.946,-488.503)">
        <g transform="matrix(1,0,0,1,374.008,500.602)">
            <path d="M0,72.04C-4.031,72.04 -8.115,71.178 -15.744,69.246C-23.513,67.278 -29.761,66.362 -35.407,66.362C-39.737,66.362 -43.851,66.881 -48.351,67.994C-52.284,68.967 -56.345,69.481 -60.095,69.481C-62.747,69.481 -66.516,69.207 -69.415,67.9C-72.157,66.666 -73.828,65.308 -74.382,63.862C-75.719,60.375 -71.223,53.066 -69.487,51.525C-67.983,50.19 -65.539,49.319 -63.904,49.075C-63.101,48.955 -62.191,48.819 -59.65,44.55C-58.417,42.478 -56.398,40.607 -53.968,39.284C-51.907,38.162 -51.212,37.785 -51.212,32.036C-51.212,25.657 -49.738,20.908 -45.953,15.1C-41.764,8.67 -36.165,4.047 -29.76,1.729C-26.231,0.453 -20.674,0 -16.988,0C-15.242,0 -12.712,0.094 -10.577,0.54C-5.749,1.551 0.912,5.446 4.916,9.602C8.634,13.461 14.937,26.034 14.937,30.614C14.937,32.689 13.32,34.413 10.502,35.343C10.264,35.421 9.972,35.588 9.655,35.812C13.825,35.989 17.333,37.544 20.634,40.666C23.998,43.847 23.998,43.847 29.808,44.836C32.75,45.336 37.087,46.452 39.334,47.535C44.626,50.085 53.383,59.164 53.383,64.702L53.384,64.823C53.39,65.417 53.404,66.806 52.251,67.971C51.723,68.504 50.778,69.141 49.276,69.141C48.241,69.141 47.016,68.869 43.742,68.144L42.947,67.969C39.832,67.279 36.313,66.916 32.774,66.916C29.252,66.916 25.707,67.276 22.521,67.959C19.596,68.585 14.077,69.778 10.256,70.61C5.999,71.537 3.103,72.04 0,72.04" style="fill:white;fill-rule:nonzero;"/>
        </g>
        <g transform="matrix(1,0,0,1,357.02,576.142)">
            <path d="M0,-79.04C-4.16,-79.04 -10.012,-78.531 -13.963,-77.102C-21.089,-74.523 -27.29,-69.423 -31.898,-62.352C-36.036,-55.998 -37.725,-50.538 -37.725,-43.504C-37.725,-41.111 -37.876,-40.124 -37.971,-39.74C-38.094,-39.654 -38.307,-39.519 -38.653,-39.33C-41.627,-37.711 -44.119,-35.386 -45.669,-32.781C-46.782,-30.911 -47.393,-30.168 -47.662,-29.89C-49.722,-29.537 -52.719,-28.499 -54.822,-26.633C-56.918,-24.771 -62.833,-16.082 -60.661,-10.423C-60.293,-9.463 -59.312,-6.901 -53.865,-4.448C-51.082,-3.194 -47.463,-2.559 -43.108,-2.559C-39.079,-2.559 -34.727,-3.108 -30.523,-4.148C-26.304,-5.192 -22.458,-5.678 -18.419,-5.678C-13.07,-5.678 -7.096,-4.796 0.384,-2.901C8.306,-0.894 12.583,0 16.987,0C20.406,0 23.492,-0.53 27.989,-1.51C31.805,-2.341 37.319,-3.533 40.241,-4.159C43.191,-4.791 46.483,-5.124 49.762,-5.124C53.051,-5.124 56.308,-4.789 59.179,-4.154L59.973,-3.978C63.519,-3.193 64.845,-2.899 66.264,-2.899C69.115,-2.899 70.91,-4.282 71.727,-5.107C73.173,-6.568 73.895,-8.468 73.872,-10.752L73.871,-10.838C73.871,-14.263 71.905,-18.282 68.027,-22.785C66.493,-24.566 62.431,-28.946 57.841,-31.158C55.275,-32.394 50.638,-33.601 47.383,-34.154C45.124,-34.539 43.343,-34.857 42.675,-35.166C42.232,-35.371 41.435,-36.085 40.026,-37.417C38.253,-39.094 36.425,-40.394 34.493,-41.335C35.101,-42.424 35.424,-43.636 35.424,-44.926C35.424,-50.889 28.367,-64.273 24.424,-68.366C19.921,-73.04 12.646,-77.27 7.128,-78.426C5.179,-78.833 2.78,-79.04 0,-79.04M0,-72.04C2.157,-72.04 4.174,-71.892 5.694,-71.574C9.857,-70.703 15.859,-67.167 19.383,-63.509C22.709,-60.058 28.424,-48.31 28.424,-44.926C28.424,-44.521 27.51,-43.89 26.393,-43.521C23.968,-42.721 20.143,-38.688 20.143,-36.932C20.143,-36.162 20.237,-35.876 21.147,-35.876C21.612,-35.876 22.292,-35.951 23.282,-36.074C24.18,-36.186 25.026,-36.244 25.832,-36.244C29.529,-36.244 32.36,-35.033 35.217,-32.331C39.16,-28.602 39.67,-28.366 46.209,-27.254C49.277,-26.731 53.145,-25.65 54.802,-24.852C59.832,-22.429 66.871,-14.254 66.871,-10.838C66.871,-10.219 66.94,-9.899 66.264,-9.899C65.552,-9.899 64.012,-10.255 60.69,-10.989C57.267,-11.746 53.525,-12.124 49.762,-12.124C46.024,-12.124 42.264,-11.751 38.775,-11.004C35.847,-10.377 30.323,-9.183 26.5,-8.35C22.485,-7.476 19.783,-7 16.987,-7C13.282,-7 9.411,-7.836 2.103,-9.686C-5.818,-11.693 -12.326,-12.678 -18.419,-12.678C-23.108,-12.678 -27.553,-12.094 -32.203,-10.943C-35.931,-10.021 -39.75,-9.559 -43.108,-9.559C-46.317,-9.559 -49.106,-9.981 -50.99,-10.83C-52.539,-11.528 -53.951,-12.474 -54.126,-12.931C-54.574,-14.099 -51.871,-19.892 -50.176,-21.397C-49.4,-22.086 -47.7,-22.809 -46.399,-23.003C-43.863,-23.382 -42.218,-24.894 -39.654,-29.201C-38.747,-30.725 -37.174,-32.165 -35.307,-33.182C-31.602,-35.198 -30.725,-37.174 -30.725,-43.504C-30.725,-49.194 -29.445,-53.293 -26.033,-58.53C-22.239,-64.352 -17.301,-68.449 -11.582,-70.519C-8.925,-71.48 -4.196,-72.04 0,-72.04" style="fill:white;fill-rule:nonzero;"/>
        </g>
        <g transform="matrix(1,0,0,1,338.601,513.047)">
            <path d="M0,46.917C6.242,46.917 13.036,47.901 21.382,50.015C28.426,51.799 32.123,52.595 35.407,52.595C37.876,52.595 40.394,52.148 44.175,51.325C48.001,50.491 53.531,49.296 56.462,48.669C60.122,47.885 64.175,47.471 68.181,47.471C72.155,47.471 76.128,47.878 79.688,48.649C77.63,45.967 74.423,42.707 71.703,41.396C70.487,40.811 67.042,39.802 64.041,39.291C56.876,38.072 55.679,37.513 51.231,33.307C48.982,31.18 47.025,30.351 44.251,30.351C43.604,30.351 42.893,30.398 42.135,30.493C40.937,30.643 40.21,30.719 39.566,30.719C37.389,30.719 35.063,29.522 35.063,26.163C35.063,22.607 39.649,18.054 42.977,16.542C41.765,12.722 37.83,4.658 35.282,2.015C32.234,-1.149 26.903,-4.32 23.397,-5.054C22.188,-5.307 20.421,-5.445 18.419,-5.445C14.437,-5.445 10.165,-4.906 8.029,-4.133C2.995,-2.312 -1.281,1.258 -4.681,6.476C-7.726,11.149 -8.805,14.581 -8.805,19.591C-8.805,26.305 -9.764,30.021 -15.214,32.987C-16.519,33.697 -17.645,34.705 -18.228,35.685C-20.912,40.195 -23.284,42.929 -27.462,43.554C-28.194,43.662 -29.188,44.122 -29.449,44.329C-30.052,44.896 -31.252,47.133 -31.876,48.709C-31.654,48.827 -31.405,48.951 -31.134,49.073C-29.775,49.685 -27.426,50.036 -24.688,50.036C-21.542,50.036 -17.967,49.58 -14.625,48.753C-9.629,47.518 -4.845,46.917 0,46.917M35.214,67.961C32.674,67.961 30.212,67.705 26.981,67.105C24.635,66.67 20.022,65.624 16.698,64.774C9.877,63.031 5.035,62.287 0.507,62.287C-3.253,62.287 -7.038,62.806 -11.765,63.968C-15.999,65.009 -19.391,65.378 -24.727,65.378C-31.449,65.378 -32.494,65.291 -37.329,63.025C-39.802,61.866 -43.072,59.82 -44.536,58.152C-46.811,55.563 -47.154,54.018 -47.154,50.05C-47.154,43.976 -45.073,38.746 -40.792,34.061C-38.456,31.505 -36.51,29.867 -33.474,29.055C-32.267,28.732 -32.112,28.691 -30.828,26.756C-29.466,24.704 -27.22,22.313 -25.603,21.191C-25.395,21.047 -24.945,20.736 -24.739,20.562C-24.613,20.087 -24.489,18.782 -24.405,17.896C-23.624,9.648 -21.744,4.299 -17.22,-2.546C-13.386,-8.346 -7.882,-13.291 -1.723,-16.471C3.853,-19.35 7.704,-20.354 15.45,-20.949C16.262,-21.012 17.117,-21.044 17.99,-21.044C23.626,-21.044 29.879,-19.734 33.921,-17.708C38.263,-15.531 44.116,-11.098 47.247,-7.614C52.882,-1.347 58.625,11.782 58.625,18.4C58.625,18.834 58.625,19.052 60.782,21.183C63.178,23.549 63.178,23.549 67.297,24.199C80.584,26.296 92.257,35.519 96.344,47.147C99.076,54.922 97.261,60.039 90.458,63.742L86.223,66.047L79.207,64.316C75.491,63.399 72.324,62.99 68.938,62.99C64.37,62.99 59.146,63.741 51.471,65.501C44.676,67.06 39.837,67.961 35.214,67.961" style="fill:white;fill-rule:nonzero;"/>
        </g>
        <g transform="matrix(1,0,0,1,378.463,541.441)">
            <path d="M-64.708,18.141C-59.943,16.637 -57.25,12.721 -55.083,9.079C-54.931,8.824 -54.384,8.2 -53.404,7.667C-46.516,3.918 -45.168,-1.211 -45.168,-8.804C-45.168,-13.099 -44.271,-15.927 -41.611,-20.009C-38.636,-24.575 -34.946,-27.68 -30.643,-29.236C-29.165,-29.771 -25.438,-30.34 -21.443,-30.34C-18.969,-30.34 -17.64,-30.118 -17.183,-30.022C-14.68,-29.498 -9.837,-26.791 -7.101,-23.952C-5.522,-22.312 -2.743,-17.068 -1.162,-13.306C-4.663,-10.738 -8.3,-6.471 -8.3,-2.231C-8.3,2.512 -5.009,5.824 -0.297,5.824C0.531,5.824 1.364,5.739 2.706,5.571C3.32,5.495 3.886,5.456 4.389,5.456C6.021,5.456 7.177,5.765 8.963,7.455C14.186,12.394 16.107,13.074 23.591,14.348C25.412,14.657 27.341,15.159 28.696,15.577C28.57,15.576 28.444,15.576 28.318,15.576C24.009,15.576 19.819,16.005 15.866,16.852C12.932,17.48 7.398,18.677 3.567,19.511C0.024,20.282 -2.304,20.7 -4.456,20.7C-7.367,20.7 -10.871,19.938 -17.622,18.228C-26.255,16.041 -33.323,15.023 -39.862,15.023C-44.994,15.023 -50.053,15.656 -55.328,16.962C-58.404,17.723 -61.68,18.142 -64.551,18.142C-64.604,18.142 -64.656,18.141 -64.708,18.141M-21.872,-52.938C-22.835,-52.938 -23.781,-52.903 -24.682,-52.834C-32.876,-52.204 -37.2,-51.069 -43.192,-47.975C-49.874,-44.525 -55.844,-39.161 -60.002,-32.87C-64.821,-25.581 -66.921,-19.607 -67.753,-10.828C-67.778,-10.565 -67.815,-10.176 -67.855,-9.795C-70.064,-8.144 -72.352,-5.465 -73.607,-3.575C-73.875,-3.171 -74.063,-2.905 -74.191,-2.734C-74.207,-2.729 -74.223,-2.725 -74.24,-2.721C-78.088,-1.691 -80.535,0.348 -83.238,3.306C-88.136,8.665 -90.517,14.667 -90.517,21.655C-90.517,26.196 -90.033,28.647 -87.029,32.067C-84.887,34.507 -80.771,36.818 -78.676,37.8C-73.339,40.302 -71.794,40.483 -64.59,40.483C-59.014,40.483 -55.275,40.074 -50.793,38.973C-46.35,37.88 -42.823,37.393 -39.356,37.393C-35.137,37.393 -30.554,38.104 -24.032,39.771C-20.588,40.651 -15.971,41.697 -13.521,42.152C-10.114,42.785 -7.378,43.067 -4.649,43.067C0.306,43.067 5.351,42.132 12.39,40.518C19.795,38.82 24.785,38.096 29.075,38.096C32.167,38.096 35.076,38.474 38.505,39.319L44.203,40.726L46.84,41.376L49.226,40.077L52.268,38.421C60.531,33.924 63.06,26.916 59.783,17.592C55.211,4.585 42.728,-5.324 27.98,-7.653C26.918,-7.82 25.495,-8.045 24.966,-8.193C24.627,-8.47 23.885,-9.202 23.379,-9.702C22.834,-10.24 22.474,-10.613 22.236,-10.87C21.779,-19.139 15.346,-32.388 9.987,-38.35C6.55,-42.172 0.377,-46.85 -4.374,-49.231C-8.933,-51.517 -15.639,-52.938 -21.872,-52.938M-64.551,25.142C-61.194,25.142 -57.374,24.679 -53.647,23.757C-48.996,22.606 -44.553,22.023 -39.862,22.023C-33.77,22.023 -27.261,23.007 -19.341,25.014C-12.031,26.864 -8.162,27.7 -4.456,27.7C-1.661,27.7 1.042,27.225 5.056,26.351C8.88,25.518 14.404,24.323 17.332,23.696C20.821,22.949 24.58,22.576 28.318,22.576C32.081,22.576 35.823,22.954 39.247,23.711C42.568,24.445 44.108,24.801 44.821,24.801C45.496,24.801 45.427,24.482 45.427,23.862C45.427,20.446 38.388,12.272 33.359,9.848C31.701,9.05 27.834,7.969 24.765,7.446C18.226,6.334 17.716,6.098 13.773,2.369C10.916,-0.333 8.086,-1.544 4.389,-1.544C3.583,-1.544 2.736,-1.486 1.838,-1.374C0.848,-1.251 0.169,-1.176 -0.297,-1.176C-1.206,-1.176 -1.3,-1.462 -1.3,-2.231C-1.3,-3.988 2.524,-8.02 4.95,-8.821C6.067,-9.189 6.981,-9.821 6.981,-10.225C6.981,-13.609 1.265,-25.357 -2.06,-28.808C-5.585,-32.467 -11.586,-36.003 -15.749,-36.874C-17.27,-37.191 -19.286,-37.34 -21.443,-37.34C-25.639,-37.34 -30.369,-36.779 -33.025,-35.818C-38.744,-33.749 -43.682,-29.652 -47.476,-23.83C-50.888,-18.593 -52.168,-14.494 -52.168,-8.804C-52.168,-2.474 -53.045,-0.498 -56.751,1.519C-58.618,2.535 -60.191,3.976 -61.098,5.499C-63.662,9.807 -65.306,11.318 -67.843,11.697C-69.144,11.892 -70.844,12.614 -71.619,13.303C-73.315,14.809 -76.018,20.602 -75.569,21.77C-75.394,22.227 -73.983,23.172 -72.434,23.87C-70.549,24.719 -67.761,25.142 -64.551,25.142M-21.872,-45.938C-16.841,-45.938 -11.135,-44.791 -7.511,-42.974C-3.561,-40.993 1.94,-36.829 4.781,-33.669C9.759,-28.133 15.262,-15.702 15.262,-9.994C15.262,-8.22 15.776,-7.373 18.459,-4.723C21.596,-1.625 21.758,-1.548 26.888,-0.738C38.99,1.172 49.491,9.42 53.179,19.913C55.328,26.027 54.158,29.423 48.922,32.274L45.88,33.929L40.182,32.524C36.361,31.58 32.876,31.096 29.075,31.096C24.05,31.096 18.471,31.942 10.825,33.695C3.684,35.333 -0.648,36.067 -4.649,36.067C-7.113,36.067 -9.453,35.788 -12.243,35.27C-14.52,34.847 -19.045,33.82 -22.298,32.989C-29.121,31.245 -34.331,30.393 -39.356,30.393C-43.576,30.393 -47.664,30.994 -52.464,32.175C-56.395,33.141 -59.567,33.483 -64.59,33.483C-71.097,33.483 -71.579,33.396 -75.706,31.461C-78.079,30.35 -80.807,28.544 -81.769,27.448C-83.318,25.685 -83.517,25.024 -83.517,21.655C-83.517,16.424 -81.786,12.093 -78.071,8.027C-75.813,5.557 -74.423,4.574 -72.433,4.042C-70.237,3.455 -69.452,2.823 -67.775,0.296C-66.665,-1.375 -64.729,-3.455 -63.473,-4.326C-61.271,-5.851 -61.173,-6.065 -60.784,-10.168C-60.056,-17.857 -58.377,-22.635 -54.163,-29.01C-50.654,-34.317 -45.615,-38.847 -39.98,-41.756C-34.81,-44.425 -31.46,-45.292 -24.146,-45.854C-23.41,-45.911 -22.65,-45.938 -21.872,-45.938" style="fill:white;fill-rule:nonzero;"/>
        </g>
        <g transform="matrix(1,0,0,1,306.03,508.144)">
            <path d="M0,57.167C3.855,58.903 11.496,58.856 18.787,57.054C29.48,54.408 39.074,54.76 53.093,58.311C65.916,61.558 68.153,61.681 77.49,59.647C81.313,58.814 86.838,57.62 89.765,56.993C96.767,55.494 104.856,55.499 111.68,57.008C118.15,58.438 117.861,58.432 117.861,57.159C117.861,53.743 110.822,45.568 105.792,43.145C104.135,42.347 100.268,41.266 97.199,40.743C90.66,39.631 90.15,39.395 86.207,35.666C82.728,32.375 79.287,31.296 74.272,31.923C71.348,32.288 71.133,32.23 71.133,31.065C71.133,29.309 74.958,25.276 77.383,24.476C78.5,24.107 79.414,23.476 79.414,23.071C79.414,19.688 73.699,7.939 70.373,4.488C66.849,0.83 60.848,-2.706 56.684,-3.577C52.209,-4.514 43.431,-3.978 39.409,-2.521C33.689,-0.452 28.751,3.645 24.958,9.467C21.545,14.704 20.265,18.803 20.265,24.493C20.265,30.823 19.389,32.799 15.683,34.815C13.816,35.832 12.243,37.272 11.336,38.796C8.772,43.104 7.127,44.615 4.591,44.994C3.29,45.188 1.59,45.911 0.814,46.6C-0.881,48.105 -3.584,53.898 -3.136,55.066C-2.961,55.523 -1.549,56.469 0,57.167" style="fill:rgb(228,243,89);fill-rule:nonzero;"/>
        </g>
        <g transform="matrix(1,0,0,1,306.844,518.491)">
            <path d="M0,36.253C0.776,35.565 2.475,34.842 3.777,34.648C6.313,34.269 7.958,32.757 10.522,28.449C11.429,26.926 13.002,25.485 14.869,24.469C18.574,22.452 19.451,20.477 19.451,14.147C19.451,8.456 20.731,4.357 24.143,-0.88C27.937,-6.702 32.875,-10.799 38.594,-12.868C42.617,-14.324 51.394,-14.86 55.87,-13.924C60.033,-13.053 66.035,-9.517 69.559,-5.858C72.885,-2.407 78.6,9.341 78.6,12.725C78.6,13.129 77.686,13.761 76.569,14.129C74.143,14.93 70.319,18.962 70.319,20.719C70.319,21.883 70.534,21.941 73.458,21.576C78.473,20.949 81.913,22.028 85.392,25.319C89.335,29.048 89.846,29.284 96.385,30.397C99.453,30.919 103.32,32 104.978,32.798C110.007,35.222 117.047,43.397 117.047,46.813C117.047,48.085 117.336,48.092 110.866,46.661C104.042,45.152 95.952,45.148 88.951,46.647C86.023,47.274 80.499,48.468 76.676,49.301C67.339,51.334 65.102,51.211 52.279,47.964C38.26,44.413 28.666,44.062 17.972,46.707C10.682,48.51 3.041,48.557 -0.814,46.82C-2.363,46.122 -3.775,45.177 -3.95,44.72C-4.398,43.552 -1.695,37.759 0,36.253M-4.087,54.412C0.041,56.346 0.523,56.434 7.03,56.434C12.053,56.434 15.225,56.091 19.155,55.125C29.671,52.539 36.769,52.731 49.321,55.94C52.575,56.771 57.099,57.797 59.377,58.22C66.696,59.579 70.904,59.292 82.445,56.646C95.875,53.566 102.929,53.284 111.802,55.474L117.499,56.879L120.541,55.224C125.778,52.373 126.947,48.978 124.798,42.863C121.11,32.37 110.61,24.122 98.508,22.212C93.378,21.402 93.215,21.325 90.079,18.228C87.395,15.577 86.881,14.731 86.881,12.956C86.881,7.248 81.378,-5.183 76.401,-10.719C73.56,-13.879 68.058,-18.043 64.109,-20.023C59.925,-22.121 52.966,-23.326 47.474,-22.904C40.16,-22.342 36.809,-21.475 31.639,-18.806C26.004,-15.896 20.965,-11.367 17.457,-6.06C13.243,0.315 11.564,5.093 10.835,12.782C10.447,16.885 10.348,17.099 8.147,18.624C6.89,19.495 4.954,21.575 3.845,23.246C2.168,25.774 1.382,26.405 -0.813,26.992C-2.803,27.524 -4.194,28.507 -6.451,30.978C-10.167,35.043 -11.898,39.374 -11.898,44.606C-11.898,47.974 -11.698,48.635 -10.15,50.399C-9.188,51.494 -6.46,53.3 -4.087,54.412" style="fill-rule:nonzero;"/>
        </g>
    </g>
</svg>
