<?xml version="1.0" encoding="UTF-8" standalone="no"?>
<!DOCTYPE svg PUBLIC "-//W3C//DTD SVG 1.1//EN" "http://www.w3.org/Graphics/SVG/1.1/DTD/svg11.dtd">
<svg width="100%" height="100%" viewBox="0 0 437 394" version="1.1" xmlns="http://www.w3.org/2000/svg" xmlns:xlink="http://www.w3.org/1999/xlink" xml:space="preserve" xmlns:serif="http://www.serif.com/" style="fill-rule:evenodd;clip-rule:evenodd;stroke-linejoin:round;stroke-miterlimit:2;">
    <g transform="matrix(1,0,0,1,-251.316,-322.775)">
        <path d="M680.169,435.488C680.143,435.818 680.094,436.123 680.022,436.421C680.094,436.123 680.143,435.818 680.169,435.488ZM679.95,436.69C679.839,437.075 679.689,437.458 679.496,437.883C679.689,437.458 679.839,437.075 679.95,436.69ZM677.72,445.08C677.784,444.799 677.843,444.509 677.897,444.215C677.843,444.509 677.784,444.799 677.72,445.08ZM677.975,443.765C677.999,443.613 678.024,443.46 678.045,443.308C678.126,442.714 678.257,442.04 678.413,441.362C678.257,442.04 678.126,442.714 678.045,443.308C678.024,443.46 677.999,443.613 677.975,443.765ZM668.574,468.979C668.748,468.467 668.924,467.941 669.101,467.401C669.302,466.788 669.521,466.141 669.747,465.482C669.521,466.141 669.302,466.788 669.101,467.401C668.924,467.941 668.748,468.467 668.574,468.979ZM616.725,523.717C615.629,524.385 614.547,525.033 613.396,525.711C614.547,525.033 615.629,524.385 616.725,523.717C617.273,523.384 617.824,523.046 618.389,522.696C621.104,521.018 624.142,519.084 628.615,516.236C624.142,519.084 621.104,521.018 618.389,522.696C617.824,523.046 617.273,523.384 616.725,523.717ZM583.369,542.793C585.255,541.7 587.486,540.419 589.791,539.109C590.314,538.811 590.842,538.513 591.369,538.214C590.842,538.513 590.314,538.811 589.791,539.109C587.486,540.419 585.255,541.699 583.369,542.793ZM579.911,544.822C580.065,544.73 580.227,544.634 580.397,544.533C580.227,544.634 580.065,544.73 579.911,544.822ZM532.002,570.663C530.223,571.669 528.085,572.955 526.073,574.215C528.085,572.955 530.223,571.669 532.002,570.663C532.669,570.285 533.448,569.844 534.306,569.359C533.448,569.844 532.669,570.286 532.002,570.663ZM514.224,592.122C514.36,591.414 514.491,590.708 514.617,590.009L514.775,589.144L514.617,590.009C514.491,590.708 514.36,591.414 514.224,592.122ZM510.249,609.509C511.17,606.107 512.128,602.149 513.01,598.07C512.128,602.149 511.17,606.107 510.249,609.509ZM509.168,613.302C509.382,612.596 509.601,611.84 509.823,611.051C509.601,611.84 509.382,612.596 509.168,613.302ZM507.615,617.806C508.048,616.767 508.537,615.359 509.062,613.65C508.537,615.359 508.048,616.767 507.615,617.806ZM496.359,632.364C496.454,632.3 496.55,632.235 496.645,632.168C496.55,632.235 496.454,632.3 496.359,632.364ZM495.293,633.047C495.33,633.025 495.368,633 495.405,632.977C495.368,633 495.33,633.025 495.293,633.047ZM493.999,633.74C494.088,633.697 494.178,633.654 494.268,633.608C494.178,633.654 494.088,633.697 493.999,633.74ZM492.945,634.204C493.002,634.182 493.059,634.155 493.116,634.132C493.059,634.155 493.002,634.182 492.945,634.204ZM491.646,634.628C491.734,634.604 491.823,634.581 491.911,634.555C491.823,634.581 491.734,634.604 491.646,634.628ZM490.53,634.887C490.603,634.873 490.675,634.856 490.748,634.841C490.675,634.856 490.603,634.873 490.53,634.887ZM489.151,635.069C489.238,635.061 489.327,635.055 489.413,635.046C489.327,635.055 489.238,635.061 489.151,635.069ZM501.037,628.184C499.916,629.471 498.787,630.572 497.734,631.377C497.732,631.379 497.73,631.38 497.729,631.381C497.73,631.38 497.732,631.379 497.734,631.377C498.787,630.572 499.916,629.471 501.037,628.184C503.28,625.612 505.492,622.299 507.02,619.135C505.492,622.299 503.28,625.612 501.037,628.184ZM487.985,635.137C487.946,635.137 487.904,635.135 487.865,635.136C487.964,635.135 488.06,635.13 488.157,635.127C488.098,635.128 488.044,635.135 487.985,635.137ZM486.858,635.127C486.998,635.132 487.133,635.132 487.27,635.133C487.133,635.132 486.998,635.132 486.858,635.127ZM484.993,635.001C484.886,634.99 484.784,634.983 484.675,634.972C484.784,634.983 484.886,634.99 484.993,635.001ZM486.188,635.094C486.058,635.086 485.931,635.082 485.798,635.072C485.931,635.082 486.058,635.086 486.188,635.094ZM481.211,634.49C481.644,634.564 482.119,634.637 482.648,634.712C482.119,634.637 481.644,634.564 481.211,634.49ZM479.512,634.138C477.86,633.709 476.864,633.106 475.179,631.848C471.31,628.958 468.729,625.168 467.158,620.068C466.514,617.977 465.926,614.013 465.574,610.133C465.926,614.013 466.514,617.977 467.158,620.068C468.729,625.168 471.31,628.958 475.179,631.848C476.864,633.106 477.86,633.709 479.512,634.138C479.842,634.224 480.198,634.303 480.592,634.379C480.198,634.303 479.842,634.224 479.512,634.138ZM438.36,607.156C435.641,608.005 431.006,609.827 427.686,611.338C431.006,609.827 435.641,608.005 438.36,607.156C442.243,605.944 445.314,604.851 452.247,602.136C445.314,604.851 442.243,605.944 438.36,607.156ZM416.977,615.914C416.019,616.26 413.379,617.439 409.771,619.115C413.379,617.439 416.019,616.26 416.977,615.914C417.25,615.816 417.56,615.699 417.9,615.568C417.56,615.699 417.25,615.816 416.977,615.914ZM402.142,622.715C403.646,621.997 405.098,621.307 406.459,620.665C405.098,621.307 403.646,621.997 402.142,622.715ZM385.446,630.798C386.269,630.402 387.108,629.997 387.953,629.588C387.108,629.997 386.269,630.402 385.446,630.798ZM382.053,632.421C382.78,632.075 383.518,631.722 384.263,631.365C383.519,631.722 382.78,632.075 382.053,632.421ZM378.754,633.983C379.445,633.657 380.143,633.328 380.851,632.992C380.143,633.328 379.445,633.657 378.754,633.983ZM375.512,635.498C376.202,635.178 376.897,634.854 377.605,634.522C376.898,634.854 376.202,635.178 375.512,635.498ZM372.08,637.08C372.874,636.717 373.677,636.349 374.496,635.97C373.677,636.349 372.874,636.717 372.08,637.08ZM368.627,638.643C369.574,638.219 370.538,637.783 371.521,637.336C370.538,637.783 369.574,638.219 368.627,638.643ZM365.869,639.866C366.592,639.549 367.328,639.222 368.072,638.89C367.328,639.222 366.592,639.549 365.869,639.866ZM363.212,641.022C363.793,640.772 364.384,640.515 364.979,640.255C364.384,640.515 363.792,640.772 363.212,641.022ZM360.633,642.119C361.164,641.896 361.701,641.668 362.245,641.436C361.702,641.668 361.164,641.896 360.633,642.119ZM358.113,643.164C358.629,642.953 359.15,642.739 359.678,642.519C359.15,642.739 358.629,642.953 358.113,643.164ZM355.605,644.176C356.141,643.963 356.681,643.748 357.231,643.525C356.681,643.748 356.141,643.963 355.605,644.176ZM350.455,646.144C351.877,645.625 353.351,645.065 354.882,644.463C353.352,645.065 351.877,645.625 350.455,646.144ZM348.357,646.894C348.826,646.73 349.305,646.558 349.786,646.385C349.305,646.558 348.826,646.73 348.357,646.894ZM346.332,647.585C346.747,647.447 347.167,647.304 347.591,647.158C347.167,647.304 346.747,647.447 346.332,647.585ZM344.357,648.225C344.75,648.101 345.146,647.974 345.548,647.843C345.146,647.974 344.75,648.101 344.357,648.225ZM342.417,648.817C342.81,648.701 343.205,648.583 343.606,648.46C343.205,648.583 342.81,648.701 342.417,648.817ZM340.404,649.389C340.844,649.269 341.288,649.147 341.739,649.017C341.288,649.147 340.844,649.269 340.404,649.389ZM338.211,649.96C338.779,649.821 339.356,649.674 339.942,649.517C339.356,649.674 338.779,649.821 338.211,649.96ZM336.529,650.352C336.941,650.26 337.36,650.162 337.782,650.061C337.36,650.162 336.941,650.26 336.529,650.352ZM334.891,650.694C335.23,650.627 335.574,650.555 335.92,650.481C335.574,650.555 335.23,650.627 334.891,650.694ZM333.292,650.987C333.609,650.933 333.929,650.875 334.251,650.815C333.929,650.875 333.609,650.933 333.292,650.987ZM331.714,651.235C332.027,651.19 332.341,651.143 332.659,651.092C332.342,651.143 332.027,651.19 331.714,651.235ZM392.581,627.337C391.346,627.941 390.137,628.53 388.945,629.108C390.136,628.53 391.346,627.941 392.581,627.337C394.914,626.195 397.231,625.073 399.466,623.998C397.231,625.073 394.914,626.195 392.581,627.337ZM328.165,651.629C327.69,651.665 327.221,651.692 326.755,651.714C327.221,651.692 327.69,651.665 328.165,651.629ZM329.629,651.496C329.16,651.545 328.696,651.588 328.237,651.623C328.696,651.588 329.16,651.545 329.629,651.496ZM331.125,651.318C330.79,651.362 330.46,651.401 330.131,651.438C330.46,651.401 330.79,651.362 331.125,651.318ZM325.566,651.755C325.529,651.756 325.494,651.753 325.457,651.754C325.733,651.748 326.011,651.74 326.29,651.73C326.049,651.738 325.806,651.75 325.566,651.755ZM322.58,651.716C322.522,651.713 322.463,651.713 322.405,651.71C322.463,651.713 322.522,651.713 322.58,651.716ZM318.371,651.363C318.714,651.393 319.07,651.429 319.439,651.471C319.443,651.471 319.448,651.472 319.453,651.472C319.448,651.472 319.443,651.471 319.439,651.471C319.07,651.429 318.714,651.393 318.371,651.363ZM317.062,651.277C316.884,651.268 316.701,651.258 316.536,651.254C316.701,651.258 316.884,651.268 317.062,651.277ZM318.242,651.354C317.952,651.329 317.669,651.308 317.403,651.292C317.669,651.308 317.953,651.329 318.242,651.354ZM315.78,651.25C315.899,651.248 316.036,651.25 316.166,651.251C316.036,651.25 315.899,651.248 315.78,651.25ZM315.616,671.548C315.63,668.181 315.42,664.699 314.982,661.124C314.945,660.818 314.908,660.513 314.873,660.212C314.908,660.513 314.945,660.818 314.982,661.124C315.42,664.699 315.63,668.181 315.616,671.548ZM298.768,707.781C300.471,707.002 302.201,705.908 303.797,704.633L303.798,704.633C302.201,705.908 300.471,707.002 298.768,707.781ZM293.386,709.215C292.979,709.259 292.568,709.291 292.15,709.314C292.567,709.291 292.98,709.259 293.386,709.215ZM295.18,708.937C294.793,709.015 294.402,709.084 293.998,709.139C294.401,709.084 294.794,709.015 295.18,708.937ZM297.259,708.394C296.764,708.565 296.239,708.707 295.699,708.832C296.239,708.707 296.764,708.565 297.259,708.394ZM287.723,709.183C288.328,709.253 288.933,709.297 289.536,709.326C288.933,709.297 288.328,709.253 287.723,709.183ZM285.859,708.895C286.463,709.008 287.071,709.108 287.682,709.179C287.071,709.108 286.463,709.008 285.859,708.895ZM283.792,708.423C284.357,708.578 284.932,708.714 285.514,708.831C284.932,708.714 284.357,708.578 283.792,708.423ZM281.753,707.768C282.307,707.977 282.882,708.159 283.464,708.328C282.882,708.159 282.307,707.977 281.753,707.768ZM291.326,709.358C290.844,709.368 290.356,709.36 289.866,709.342C290.439,709.362 291.008,709.362 291.57,709.345C291.488,709.347 291.408,709.356 291.326,709.358ZM269.179,697.479C268.581,696.615 268.032,695.788 267.529,694.981C268.032,695.788 268.581,696.615 269.179,697.479C270.05,698.735 270.963,699.889 271.919,700.944C270.963,699.889 270.05,698.735 269.179,697.479ZM258.707,579.545C258.751,583.29 259.463,587.096 260.773,590.145C259.463,587.096 258.751,583.29 258.707,579.545ZM261.575,566.337C262.032,565.117 262.541,563.814 263.078,562.471C262.541,563.814 262.032,565.117 261.575,566.337C261.361,566.907 261.157,567.459 260.967,567.989C261.157,567.459 261.361,566.907 261.575,566.337ZM264.536,558.918C264.226,559.657 263.922,560.393 263.624,561.122C263.922,560.393 264.226,559.657 264.536,558.918ZM270.478,546.02C270.672,545.629 270.871,545.208 271.076,544.755C270.871,545.208 270.672,545.629 270.478,546.02ZM273.872,537.721C273.098,539.876 272.327,541.861 271.601,543.56C272.327,541.861 273.098,539.876 273.872,537.721ZM279.269,519.295C279.514,518.111 279.866,516.725 280.292,515.222C279.866,516.725 279.514,518.111 279.269,519.295C278.947,520.846 278.527,522.583 278.039,524.416C278.527,522.583 278.947,520.846 279.269,519.295ZM287.46,496.41C287.665,496.051 287.923,495.604 288.219,495.093C287.923,495.604 287.665,496.051 287.46,496.411C286.71,497.726 285.806,499.707 284.871,501.998C285.806,499.707 286.71,497.725 287.46,496.41ZM308.478,453.596C304.947,463.858 300.648,473.481 295.468,482.707C300.648,473.481 304.947,463.858 308.478,453.596ZM321.66,425.167C321.445,425.637 321.222,426.113 320.979,426.608C321.222,426.113 321.445,425.637 321.66,425.167ZM325.715,412.83C326.35,410.452 326.872,408.467 327.29,406.764C326.872,408.467 326.35,410.452 325.715,412.83C324.421,417.672 323.584,420.56 322.438,423.374C323.584,420.56 324.421,417.672 325.715,412.83ZM326.513,376.208C326.511,376.659 326.513,377.11 326.517,377.561C326.513,377.11 326.511,376.659 326.513,376.208ZM341.517,339.733C342.653,338.809 343.932,337.949 345.328,337.15C343.932,337.949 342.653,338.809 341.517,339.734C339.941,341.017 338.44,342.447 337.026,343.971C338.44,342.447 339.941,341.017 341.517,339.733ZM365.106,331.269C364.948,331.284 364.783,331.296 364.631,331.311C364.783,331.296 364.948,331.284 365.106,331.269ZM366.651,331.154C366.448,331.167 366.241,331.178 366.045,331.192C366.242,331.178 366.448,331.167 366.651,331.154ZM368.268,331.076C368.042,331.084 367.817,331.093 367.597,331.103C367.817,331.093 368.041,331.084 368.268,331.076ZM363.366,331.462C363.373,331.461 363.382,331.46 363.389,331.459C363.382,331.46 363.373,331.461 363.366,331.462C362.217,331.625 361.092,331.812 359.994,332.024C361.092,331.812 362.217,331.625 363.366,331.462ZM369.662,331.033C369.747,331.031 369.839,331.032 369.924,331.03C369.707,331.034 369.493,331.039 369.281,331.045C369.41,331.041 369.531,331.035 369.662,331.033ZM404.219,332.367C404.753,332.309 405.281,332.235 405.81,332.163C405.281,332.235 404.753,332.309 404.219,332.367ZM401.764,332.582C402.256,332.549 402.746,332.503 403.237,332.457C402.746,332.503 402.257,332.549 401.764,332.582ZM408.873,331.663C408.139,331.807 407.395,331.937 406.644,332.052C407.395,331.937 408.139,331.807 408.873,331.663ZM419.217,330.359C419.478,330.343 419.74,330.332 420.002,330.318C419.741,330.332 419.478,330.343 419.217,330.359ZM415.412,330.685C415.628,330.662 415.841,330.635 416.058,330.613C415.841,330.635 415.628,330.662 415.412,330.685ZM412.027,331.121C412.306,331.079 412.587,331.039 412.87,331C412.588,331.039 412.306,331.079 412.027,331.121ZM423.087,330.194C423.297,330.189 423.506,330.189 423.715,330.186C423.327,330.191 422.94,330.205 422.552,330.215C422.731,330.21 422.909,330.197 423.087,330.194ZM428.794,330.251C428.105,330.224 427.414,330.202 426.72,330.19C427.414,330.202 428.105,330.224 428.794,330.251ZM431.495,330.398C430.771,330.347 430.04,330.306 429.305,330.272C430.041,330.306 430.771,330.347 431.495,330.398ZM433.764,330.59C433.138,330.529 432.507,330.474 431.87,330.426C432.507,330.474 433.138,330.529 433.764,330.59ZM426.496,330.185C425.741,330.173 424.984,330.173 424.225,330.18C424.984,330.173 425.741,330.173 426.496,330.185ZM443.136,332.141C443.735,332.291 444.312,332.452 444.877,332.618C444.312,332.452 443.735,332.291 443.136,332.141ZM441.235,331.708C441.816,331.83 442.386,331.958 442.94,332.095C442.386,331.958 441.816,331.83 441.235,331.708ZM438.872,331.259C439.53,331.37 440.173,331.49 440.805,331.618C440.173,331.49 439.53,331.37 438.872,331.259ZM436.735,330.936C437.34,331.018 437.936,331.107 438.523,331.203C437.936,331.107 437.34,331.018 436.735,330.936ZM434.228,330.634C434.929,330.707 435.622,330.787 436.305,330.877C435.622,330.787 434.929,330.707 434.228,330.634ZM457.528,336.32C458.808,336.616 460.347,336.987 461.93,337.377C460.347,336.987 458.808,336.617 457.528,336.32C454.114,335.529 449.333,334.159 446.902,333.277C446.379,333.087 445.828,332.909 445.265,332.736C445.828,332.909 446.379,333.087 446.902,333.277C449.333,334.159 454.114,335.529 457.528,336.32ZM496.799,340.282C496.492,340.284 496.181,340.289 495.867,340.296C495.895,340.296 495.925,340.294 495.953,340.294C496.238,340.288 496.519,340.284 496.799,340.282ZM498.732,340.302C498.485,340.295 498.237,340.29 497.99,340.286C498.237,340.29 498.485,340.295 498.732,340.302ZM499.841,340.343C499.533,340.328 499.228,340.316 498.925,340.307C499.228,340.316 499.533,340.328 499.841,340.343ZM500.805,340.397C500.564,340.382 500.326,340.368 500.091,340.356C500.326,340.368 500.564,340.382 500.805,340.397ZM501.909,340.476C501.64,340.455 501.376,340.435 501.116,340.417C501.376,340.435 501.64,340.455 501.909,340.476ZM503.137,340.583C502.79,340.55 502.45,340.52 502.12,340.492C502.45,340.52 502.79,340.55 503.137,340.583ZM504.259,340.696C503.997,340.668 503.74,340.642 503.488,340.617C503.74,340.642 503.997,340.668 504.259,340.696ZM505.604,340.844C505.284,340.808 504.972,340.773 504.669,340.74C504.972,340.773 505.284,340.808 505.604,340.844ZM507.091,341.022C506.67,340.97 506.26,340.92 505.868,340.874C506.26,340.921 506.67,340.97 507.091,341.022ZM508.499,341.199C508.203,341.162 507.915,341.125 507.632,341.09C507.914,341.125 508.203,341.162 508.499,341.199ZM510.173,341.418C509.804,341.369 509.441,341.321 509.092,341.276C509.441,341.321 509.804,341.369 510.173,341.418ZM497.726,340.283C497.47,340.281 497.214,340.28 496.957,340.282C497.214,340.28 497.47,340.281 497.726,340.283ZM571.865,361.396C574.539,361.766 577.167,362.191 579.665,362.651C577.167,362.191 574.539,361.766 571.865,361.396C554.62,359.01 547.416,356.652 535.198,349.393C531.05,346.927 528.144,345.405 524.894,344.3C528.144,345.405 531.05,346.927 535.198,349.392C547.416,356.652 554.62,359.01 571.865,361.396ZM591.131,365.279C593.36,365.929 595.154,366.58 596.347,367.191C596.789,367.417 597.405,367.76 598.142,368.187C597.405,367.76 596.789,367.417 596.347,367.191C595.154,366.58 593.36,365.929 591.131,365.279C589.793,364.888 588.299,364.498 586.684,364.115C588.299,364.498 589.793,364.888 591.131,365.279ZM606.51,373.368C611.249,376.458 617.549,379.643 624.55,382.539C617.548,379.643 611.249,376.458 606.51,373.368C605.554,372.744 604.551,372.103 603.557,371.478C604.551,372.103 605.554,372.744 606.51,373.368ZM465.453,598.644C465.47,598.727 465.484,598.815 465.494,598.911C465.484,598.815 465.47,598.727 465.453,598.644ZM465.51,599.434C465.512,599.317 465.512,599.205 465.507,599.101C465.512,599.205 465.512,599.317 465.51,599.434ZM465.473,600.084C465.486,599.932 465.498,599.785 465.504,599.649C465.498,599.785 465.486,599.933 465.473,600.084ZM465.401,607.956C465.39,607.791 465.379,607.627 465.369,607.463C465.379,607.627 465.39,607.791 465.401,607.956ZM465.327,598.274C465.362,598.341 465.394,598.412 465.419,598.494C465.394,598.412 465.362,598.342 465.327,598.274ZM465.064,597.949C465.149,598.008 465.218,598.085 465.278,598.174C465.218,598.085 465.149,598.008 465.064,597.949ZM465.367,601.035C465.402,600.77 465.431,600.527 465.454,600.297C465.431,600.527 465.402,600.771 465.367,601.035C465.304,601.516 465.265,602.11 465.247,602.791C465.265,602.11 465.304,601.516 465.367,601.035ZM465.047,597.942C464.965,597.887 464.87,597.847 464.762,597.82C464.87,597.847 464.965,597.887 465.047,597.942ZM464.633,597.8C464.551,597.787 464.465,597.777 464.368,597.776C464.465,597.777 464.551,597.787 464.633,597.8ZM460.592,598.844C460.517,598.873 460.446,598.9 460.369,598.929C460.446,598.9 460.517,598.873 460.592,598.844ZM461.51,598.501C461.42,598.534 461.33,598.566 461.236,598.601C461.33,598.567 461.42,598.534 461.51,598.501ZM462.272,598.236C462.193,598.262 462.11,598.29 462.027,598.319C462.11,598.29 462.193,598.262 462.272,598.236ZM462.932,598.03C462.875,598.046 462.811,598.067 462.751,598.085C462.811,598.067 462.875,598.046 462.932,598.03ZM464.108,597.788C464.066,597.792 464.027,597.793 463.983,597.799C464.027,597.793 464.066,597.792 464.108,597.788ZM314.838,651.319C314.79,651.326 314.731,651.33 314.688,651.338C314.731,651.33 314.79,651.326 314.838,651.319ZM315.38,651.267C315.31,651.271 315.23,651.273 315.166,651.278C315.23,651.273 315.31,651.271 315.38,651.267ZM314.363,651.431C314.383,651.422 314.42,651.415 314.443,651.407C314.42,651.415 314.383,651.422 314.363,651.431ZM314.308,654.688C314.34,655.086 314.378,655.514 314.42,655.966C314.378,655.514 314.34,655.086 314.308,654.688ZM309.525,698.119C310.187,696.886 310.797,695.608 311.353,694.288C310.797,695.608 310.187,696.886 309.525,698.119ZM263.969,639.509C264.144,638.242 264.328,636.933 264.522,635.579L266.531,621.495L264.522,635.579C264.328,636.933 264.144,638.242 263.969,639.509C262.809,647.892 262.04,654.394 261.614,659.655C262.04,654.394 262.809,647.892 263.969,639.509ZM261.281,664.989C261.325,663.898 261.39,662.744 261.474,661.52C261.39,662.744 261.325,663.898 261.281,664.989ZM274.738,535.239C275.024,534.399 275.307,533.548 275.585,532.688C275.307,533.548 275.024,534.399 274.738,535.239ZM328.127,403.027C327.958,403.901 327.747,404.86 327.491,405.935C327.747,404.86 327.958,403.901 328.127,403.027ZM387.547,331.895C387.737,331.916 387.926,331.937 388.114,331.959C387.926,331.937 387.736,331.916 387.547,331.895ZM385.142,331.648C385.259,331.659 385.374,331.672 385.491,331.683C385.374,331.672 385.259,331.659 385.142,331.648ZM382.209,331.408C382.382,331.42 382.553,331.432 382.725,331.445C382.553,331.432 382.381,331.42 382.209,331.408ZM379.662,331.242C379.84,331.252 380.017,331.264 380.195,331.274C380.017,331.264 379.839,331.252 379.662,331.242ZM376.895,331.113C377.021,331.118 377.144,331.121 377.27,331.126C377.144,331.121 377.021,331.118 376.895,331.113ZM374.293,331.038C374.496,331.042 374.698,331.047 374.902,331.051C374.698,331.047 374.495,331.042 374.293,331.038ZM394.803,332.647C395.098,332.662 395.395,332.668 395.692,332.678C395.395,332.668 395.098,332.662 394.803,332.647ZM392.585,332.491C392.823,332.513 393.066,332.525 393.305,332.544C393.066,332.525 392.823,332.513 392.585,332.491ZM397.06,332.715C397.379,332.719 397.699,332.715 398.019,332.713C397.699,332.715 397.379,332.719 397.06,332.715ZM399.3,332.696C399.774,332.684 400.248,332.66 400.721,332.637C400.247,332.66 399.774,332.684 399.3,332.696ZM479.54,340.866C480.097,340.886 480.673,340.898 481.272,340.902C480.674,340.898 480.096,340.886 479.54,340.866ZM477.869,340.775C478.314,340.806 478.768,340.832 479.236,340.852C478.769,340.832 478.313,340.806 477.869,340.775ZM475.977,340.6C476.472,340.658 476.978,340.706 477.493,340.748C476.978,340.706 476.472,340.658 475.977,340.6ZM474.473,340.392C474.897,340.458 475.323,340.518 475.754,340.571C475.324,340.518 474.897,340.458 474.473,340.392ZM472.65,340.066C473.134,340.165 473.615,340.251 474.097,340.331C473.615,340.251 473.134,340.164 472.65,340.066ZM471.153,339.733C471.605,339.84 472.051,339.941 472.493,340.032C472.052,339.941 471.605,339.84 471.153,339.733ZM469.252,339.252C469.76,339.389 470.252,339.515 470.739,339.634C470.253,339.515 469.76,339.389 469.252,339.252ZM481.664,340.903C482.181,340.904 482.716,340.899 483.272,340.889C482.717,340.899 482.181,340.904 481.664,340.903ZM483.712,340.882C484.038,340.875 484.377,340.864 484.718,340.853C484.378,340.864 484.037,340.875 483.712,340.882ZM489.058,340.652C489.524,340.625 490.018,340.593 490.511,340.562C490.018,340.593 489.524,340.625 489.058,340.652ZM487.141,340.755C487.548,340.736 487.978,340.711 488.406,340.688C487.978,340.711 487.548,340.735 487.141,340.755ZM485.361,340.832C485.718,340.819 486.094,340.802 486.469,340.785C486.094,340.802 485.718,340.819 485.361,340.832ZM494.777,340.328C494.944,340.322 495.106,340.318 495.269,340.313C495.106,340.318 494.945,340.322 494.777,340.328ZM493.639,340.377C493.78,340.37 493.913,340.365 494.051,340.359C493.913,340.365 493.78,340.37 493.639,340.377ZM492.441,340.442C492.449,340.442 492.456,340.441 492.464,340.441C492.456,340.441 492.449,340.442 492.441,340.442ZM266.153,608.357L267.391,615.466L266.153,608.357C266.085,607.968 266.017,607.592 265.949,607.219C266.017,607.592 266.085,607.968 266.153,608.357ZM265.588,605.329C265.481,604.792 265.372,604.27 265.262,603.76C265.372,604.27 265.481,604.792 265.588,605.329ZM314.255,654.008C314.211,653.409 314.181,652.899 314.168,652.5C314.181,652.899 314.211,653.409 314.255,654.008ZM261.209,667.714C261.206,668.032 261.204,668.346 261.204,668.654C261.204,668.346 261.206,668.032 261.209,667.714ZM281.744,707.765L281.743,707.765L281.744,707.765ZM687.058,429.747C686.567,426.695 685.617,422.704 684.848,420.465C681.078,409.493 672.05,396.512 664.293,390.914C658.169,386.493 646.431,382.372 639.98,380.309C628.575,376.662 617.574,371.75 610.551,367.171C607.022,364.87 602.026,361.788 599.719,360.606C594.15,357.754 582.203,355.359 572.88,354.068C556.632,351.82 550.296,349.758 538.977,343.032C529.314,337.291 525.209,335.96 511.524,334.134C504.502,333.199 500.565,332.798 495.799,332.897C494.345,332.927 492.752,333.003 490.632,333.142C487.62,333.34 485.313,333.45 483.375,333.491C478.387,333.595 475.415,333.257 471.143,332.1C468.038,331.26 462.679,329.92 459.198,329.113C456.07,328.387 451.595,327.11 449.425,326.323C442.676,323.873 433.02,322.588 422.934,322.797C417.547,322.909 412.238,323.457 407.578,324.382C404.815,324.93 401.783,325.252 398.809,325.314C396.236,325.368 393.748,325.234 391.415,324.916C384.605,323.987 376.211,323.497 369.508,323.636C366.673,323.695 364.258,323.864 362.328,324.137C351.74,325.637 342.929,329.046 336.847,333.995C331.356,338.466 326.559,344.38 323.339,350.648C318.745,359.589 318.063,380.71 320.541,392.913C321.698,398.608 321.767,398.949 318.568,410.919C316.13,420.044 315.624,421.284 310.844,429.88C306.615,437.485 304.69,441.867 301.482,451.189C297.599,462.476 292.809,472.832 286.839,482.851C284.754,486.35 282.15,490.789 281.034,492.745C278.121,497.852 273.49,510.728 272.025,517.793C270.471,525.287 266.163,538.322 263.645,543.152C259.751,550.621 253.479,565.651 252.155,571.381C250.561,578.273 251.276,586.786 253.977,593.068C256.588,599.138 257.683,602.852 258.864,609.627L259.902,615.581L257.198,634.534C253.981,657.074 253.225,667.487 254.201,675.801C255.65,688.142 257.562,693.707 263.1,701.694C267.424,707.93 272.817,712.301 279.131,714.685C282.892,716.107 287.278,716.842 291.479,716.754C294.473,716.692 297.233,716.231 299.682,715.384C306.159,713.145 312.883,707.492 316.033,701.638C322.089,690.379 324.265,676.059 322.325,660.225C322.278,659.842 322.234,659.47 322.192,659.109C323.362,659.162 324.533,659.176 325.72,659.151C340.47,658.844 357.506,652.728 395.832,633.982C408.248,627.909 417.978,623.419 419.488,622.873C421.898,622.003 426.585,620.013 430.158,618.341C433.2,616.917 437.965,615.03 440.565,614.218C445.145,612.788 448.66,611.512 457.985,607.828C458.295,613.062 459.107,619.061 460.088,622.246C462.124,628.858 465.613,633.938 470.753,637.776C474.726,640.743 476.941,641.409 482.492,642.159C484.614,642.445 486.461,642.568 488.139,642.533C493.312,642.425 497.524,640.848 502.225,637.256C506.568,633.939 511.501,627.33 514.221,621.187C516.711,615.563 520.034,601.606 521.896,591.329L523.01,585.195L525.188,583.646C527.528,581.982 532.317,578.985 535.645,577.102C539.205,575.087 545.967,571.253 550.672,568.58C555.269,565.969 563.309,561.755 568.595,559.187C573.519,556.795 580.079,553.422 582.538,551.881C584.128,550.884 590.278,547.314 596.901,543.587L599.295,542.239C618.714,531.313 618.714,531.313 632.899,522.278L634.611,521.189C646.657,513.517 657.608,503.057 665.444,491.733C670.359,484.633 673.055,479.075 676.13,469.708C678.38,462.854 682.129,453.367 683.122,451.502C684.52,449.339 685.132,446.094 685.375,444.307C685.535,443.135 686.006,441.456 686.233,440.939C688.041,436.963 687.75,434.058 687.058,429.747Z" style="fill:white;fill-rule:nonzero;"/>
    </g>
    <g transform="matrix(1,0,0,1,-251.316,-322.775)">
        <path d="M510.495,487.807C507.007,490.252 505.523,491.911 501.485,497.884C493.884,509.128 490.12,511.626 480.214,512.003C472.97,512.279 470.658,513.119 464.363,517.765C459.996,520.988 457.396,522.373 453.138,523.744C445.229,526.292 437.013,526.728 432.863,524.821C428.414,522.777 424.427,517.927 423.622,513.582C422.446,507.237 426.737,499.072 434.57,492.75C440.579,487.9 446.33,484.732 456.215,480.829C469.371,475.634 473.558,471.779 482.458,456.66C488.263,446.801 493.373,440.587 498.863,436.714C504.016,433.078 512.224,429.516 518.794,428.064C526.612,426.336 541.016,429.646 548.66,434.926C552.362,437.484 556.869,443.392 558.178,447.404C559.557,451.632 559.171,457.579 557.233,461.964C554.271,468.667 546.124,475.232 538.064,477.413C536.625,477.802 532.626,478.87 529.178,479.785C520.823,482.002 515.537,484.272 510.495,487.807ZM495.661,529.304C493.456,530.213 489.375,532.029 486.594,533.34C483.813,534.65 479.55,536.596 477.12,537.664C471.889,539.963 453.85,544.853 448.171,545.512C441.617,546.271 432.999,549.389 420.654,555.466C403.277,564.019 397.82,566.134 384.176,569.597C362.815,575.02 355.812,577.571 343.348,584.469C333.766,589.772 328.54,590.79 323.043,588.423L323.043,588.424C319.991,587.11 318.219,585.384 318.977,584.464C319.228,584.158 321.768,583.886 324.622,583.858C330.851,583.798 333.685,582.875 342.768,577.953C352.184,572.85 361.061,569.396 371.968,566.593C397.251,560.095 397.929,559.857 415.283,551.39C430.237,544.094 435.144,542.253 445.297,540.13C454.893,538.123 466.878,535.084 471.465,533.495C473.267,532.871 477.973,530.81 481.923,528.916C494.104,523.074 497.087,522.079 500.415,522.755C502.01,523.079 503.378,523.682 503.454,524.095C503.65,525.162 500.337,527.378 495.661,529.304ZM341.846,537.611C346.341,533.755 347.296,531.164 350.262,514.78C352.89,500.256 353.611,498.025 357.507,492.361C361.636,486.359 370.265,479.104 375.403,477.315C380.027,475.704 386.644,474.946 390.95,475.533C398.359,476.543 403.787,481.625 404.443,488.165C404.861,492.337 404.183,493.856 398.936,500.486C392.774,508.272 392.171,509.867 392.404,517.761C392.79,530.796 390.911,535.941 383.588,541.902C378.397,546.127 369.853,550.85 364.086,552.683C352.186,556.463 343.048,557.24 339.34,554.786C337.508,553.573 336.113,550.12 336.111,546.792C336.109,543.408 337.285,541.525 341.846,537.611ZM376.845,410.121C380.81,406.592 385.462,405.192 391.54,405.698C398.81,406.303 401.508,407.62 405.428,412.476C408.08,415.761 408.617,416.871 408.608,419.045C408.597,421.351 408.39,421.76 406.863,422.487C404.67,423.532 402.893,422.731 402.032,420.312C401.047,417.543 397.798,414.123 395.394,413.324C389.622,411.405 381.599,413.074 377.163,417.116C374.344,419.686 372.323,420.155 371.896,418.338C371.541,416.829 374.12,412.547 376.845,410.121ZM428.888,449.146C432.062,448.62 434.077,447.782 436.969,445.782L440.823,443.117L440.935,439.537C441.023,436.719 441.278,435.812 442.131,435.281C444.039,434.092 445.327,435.222 447.807,440.263C450.063,444.849 450.546,445.393 454.803,448.135C460.077,451.533 460.407,452.964 456.236,454.343C454.169,455.026 453.415,454.987 451.291,454.093C449.913,453.512 447.792,452.204 446.578,451.184L444.371,449.33L441.348,451.623C433.83,457.327 420.75,458.381 408.736,454.252C400.479,451.414 397.121,449.293 393.803,444.82C392.131,442.566 390.145,438.908 389.391,436.691C386.669,428.688 388.497,428.446 394.681,435.99C397.089,438.926 400.38,442.215 401.997,443.298C408.616,447.736 421.061,450.442 428.888,449.146ZM432.151,421.399C435.612,416.591 441.149,414.022 449.403,413.396C453.483,413.086 457.749,414.976 462.512,419.204C468.08,424.147 470.662,431.576 467.616,433.891C466.284,434.904 464.662,434.763 463.511,433.534C463.046,433.037 462.172,431.474 461.571,430.06C460.969,428.647 459.964,426.852 459.336,426.072C457.573,423.879 452.964,420.898 450.904,420.617C447.954,420.215 442.505,421.755 438.063,424.246C433.838,426.615 432.047,426.736 431.132,424.713C430.728,423.817 430.964,423.048 432.151,421.399ZM543.971,524.917C547.407,524.007 551.531,522.665 553.137,521.933C557.392,519.994 562.62,516.121 565.412,512.84C569.509,508.025 572.113,506.159 578.938,503.148C590.786,497.921 605.649,486.452 610.282,478.962C612.489,475.395 613.791,467.257 612.242,466.719C610.859,466.239 601.38,472.719 598.436,476.158C595.588,479.486 585.872,486.588 580.601,489.195C578.382,490.293 573.124,492.498 568.915,494.097C564.707,495.695 558.974,498.181 556.175,499.622C546.227,504.743 531.66,511.752 531.118,511.678C528.516,511.323 535.85,503.295 541.426,500.393C554.579,493.55 558.397,491.746 565.222,489.152C578.956,483.933 587.986,478.639 593.451,472.602C595.103,470.778 598.798,467.591 601.662,465.52C606.774,461.824 606.868,461.709 606.814,459.255C606.783,457.88 606.511,456.358 606.209,455.874C605.098,454.091 597.679,448.052 594.735,446.534C585.467,441.755 579.584,437.759 572.309,431.301C563.665,423.627 555.869,420.434 540.542,418.291C528.518,416.607 525.031,415.555 515.309,410.655L507.339,406.638L489.745,403.808C473.424,401.183 471.784,400.812 467.098,398.698C459.869,395.435 451.875,392.81 446.869,392.055C442.24,391.356 430.153,390.981 426.451,391.42C425.216,391.566 418.754,391.071 412.09,390.319C398.435,388.777 391.238,388.963 380.254,391.142C375.555,392.075 371.855,392.344 366.804,392.122C357.468,391.712 349.809,392.117 346.336,393.207C342.507,394.407 338.731,399.332 336.901,405.51C336.191,407.909 335.598,409.957 335.583,410.062C335.569,410.167 336.32,410.388 337.251,410.554C339.018,410.869 348.214,415.474 351.253,417.567C354.407,419.739 356.57,422.254 359.481,427.133C364.507,435.556 365.436,440.991 363.836,452.594C362.31,463.676 359.004,468.387 345.836,478.258C338.4,483.834 337.223,484.987 333.743,490.117C329.92,495.752 329.881,495.849 329.11,501.744C328.662,505.192 328.529,509.806 328.799,512.73C329.735,522.841 326.781,529.399 318.71,535.119C313.573,538.759 309.08,540.4 303.474,540.682C297.416,540.987 288.408,542.37 285.217,543.484C278.434,545.854 277.543,547.111 271.185,563.287C267.28,573.224 266.601,577.975 268.564,581.643C271.919,587.911 275.978,590.424 285.695,592.249C290.247,593.103 292.391,593.229 294.457,592.767C301.885,591.101 304.06,592.351 298.886,595.312C294.338,597.914 288.617,598.694 282.667,597.523C279.917,596.982 276.485,595.925 275.04,595.174C273.594,594.423 272.296,593.896 272.156,594.003C272.015,594.11 272.205,595.051 272.576,596.095C273.492,598.672 275.357,609.261 275.847,614.668C276.184,618.4 275.822,621.712 273.501,636.115C270.177,656.74 269.467,667.207 270.758,676.577C271.252,680.162 272.214,684.409 272.896,686.017C274.762,690.417 278.623,695.876 280.939,697.389C285.304,700.24 291.006,701.278 294.866,699.925L294.865,699.924C297.638,698.952 300.928,695.693 302.377,692.486C306.373,683.637 307.794,673.375 306.323,663.981C305.245,657.097 304.822,644.932 305.49,640.031C306.324,633.918 308.771,627.936 313.019,621.628C316.273,616.797 317.786,615.197 321.839,612.299C326.16,609.209 327.356,608.693 332.088,607.872C335.035,607.361 341.259,606.903 345.919,606.853C350.58,606.804 356.388,606.619 358.826,606.444C366.892,605.864 376.507,601.612 390.579,592.404C402.955,584.307 410.587,580.784 418.302,579.608C423.813,578.768 430.521,576.87 433.88,575.201C435.198,574.545 440.443,571.132 445.535,567.616C456.137,560.294 461.632,556.995 464.461,556.251C466.111,555.817 466.925,555.97 469.382,557.175C472.953,558.928 473.903,560.158 472.48,561.186C471.032,562.233 469.221,563.312 466.715,564.62C463.993,566.041 463.873,566.6 466.124,567.378C467.089,567.711 468.763,569.182 469.845,570.646C473.855,576.069 474.903,582.215 474.396,597.318C473.761,616.236 476.058,623.634 483.32,626.058C489.609,628.158 496.509,622.522 500.126,612.329C503.384,603.152 506.279,587.575 507.416,573.114C508.014,565.51 508.525,562.467 510.135,556.916C513.716,544.572 517.828,538.45 526.978,531.849C531.428,528.638 534.216,527.501 543.971,524.917Z" style="fill:rgb(219,244,0);fill-rule:nonzero;"/>
    </g>
    <g transform="matrix(1,0,0,1,-251.316,-322.775)">
        <path d="M438.063,424.246C442.505,421.755 447.954,420.215 450.904,420.617C452.964,420.898 457.573,423.879 459.336,426.072C459.964,426.852 460.969,428.647 461.571,430.06C462.172,431.474 463.046,433.037 463.511,433.534C464.662,434.763 466.284,434.904 467.616,433.891C470.662,431.576 468.08,424.147 462.512,419.204C457.749,414.976 453.483,413.086 449.403,413.396C441.149,414.022 435.612,416.591 432.151,421.399C430.964,423.048 430.728,423.817 431.132,424.713C432.047,426.736 433.838,426.615 438.063,424.246Z" style="fill-rule:nonzero;"/>
    </g>
    <g transform="matrix(1,0,0,1,-251.316,-322.775)">
        <path d="M394.681,435.99C388.497,428.446 386.669,428.688 389.391,436.691C390.145,438.908 392.131,442.566 393.803,444.82C397.121,449.293 400.479,451.414 408.736,454.252C420.75,458.381 433.83,457.327 441.348,451.623L444.371,449.33L446.578,451.184C447.792,452.204 449.913,453.512 451.291,454.093C453.415,454.987 454.169,455.026 456.236,454.343C460.407,452.964 460.077,451.533 454.803,448.135C450.546,445.393 450.063,444.849 447.807,440.263C445.327,435.222 444.039,434.092 442.131,435.281C441.278,435.812 441.023,436.719 440.935,439.537L440.823,443.117L436.969,445.782C434.077,447.782 432.062,448.62 428.888,449.146C421.061,450.442 408.616,447.736 401.997,443.298C400.38,442.215 397.089,438.926 394.681,435.99Z" style="fill-rule:nonzero;"/>
    </g>
    <g transform="matrix(1,0,0,1,-251.316,-322.775)">
        <path d="M377.163,417.116C381.599,413.074 389.622,411.405 395.394,413.324C397.798,414.123 401.047,417.543 402.032,420.312C402.893,422.731 404.67,423.532 406.863,422.487C408.39,421.76 408.597,421.351 408.608,419.045C408.617,416.871 408.08,415.761 405.428,412.476C401.508,407.62 398.81,406.303 391.54,405.698C385.462,405.192 380.81,406.592 376.845,410.121C374.12,412.547 371.541,416.829 371.896,418.338C372.323,420.155 374.344,419.686 377.163,417.116Z" style="fill-rule:nonzero;"/>
    </g>
    <g transform="matrix(1,0,0,1,-251.316,-322.775)">
        <path d="M667.394,447.617C665.779,451.383 663.905,455.531 663.231,456.835C662.556,458.138 661.448,461.252 660.769,463.754C658.116,473.536 653.798,481.362 646.586,489.463C637.516,499.65 631.973,503.963 613.254,515.4C606.239,519.686 605.327,520.212 588.654,529.58C582.47,533.055 575.703,536.958 573.615,538.255C571.527,539.552 567.404,541.679 564.453,542.983C561.502,544.286 554.986,547.656 549.974,550.472C544.961,553.288 537.753,557.262 533.955,559.304C530.156,561.345 524.821,564.38 522.099,566.047L522.103,566.047C519.382,567.715 516.999,569.057 516.807,569.031C516.614,569.005 516.744,567.816 517.094,566.389C517.443,564.962 518.098,562.141 518.547,560.121C520.702,550.461 524.788,544.216 532.484,538.826C535.714,536.564 537.951,535.67 544.775,533.913C549.364,532.732 555.177,530.768 557.693,529.549C563.088,526.935 573.438,518.932 575.115,516.078C575.762,514.978 577.12,513.716 578.133,513.275C590.865,507.733 602.092,500.559 609.689,493.11C618.693,484.283 620.992,479.875 621.989,469.532C622.502,464.201 622.404,462.725 621.326,459.625C619.346,453.926 616.91,450.472 613.192,448.09C611.361,446.917 607.917,444.608 605.539,442.957C603.162,441.307 598.718,438.572 595.663,436.879C588.209,432.747 585.311,430.707 578.723,424.956C575.654,422.278 571.629,419.216 569.778,418.152C561.638,413.476 550.56,410.262 535.371,408.169C528.715,407.252 528.027,407.023 519.508,402.877C509.332,397.927 507.534,397.44 489.099,394.654C476.531,392.755 475.419,392.485 468.641,389.694C459.899,386.096 451.836,383.521 447.426,382.92C444.119,382.469 439.783,382.369 427.986,382.474C424.511,382.505 416.775,381.983 410.794,381.315C398.351,379.925 389.883,380.173 379.506,382.232C374.672,383.191 371.197,383.43 365.83,383.171C357.458,382.769 347.719,383.337 344.616,384.41C343.424,384.822 341.453,385.712 340.238,386.387C338.515,387.344 337.787,387.441 336.94,386.827C335.438,385.739 335.327,384.944 335.412,375.911C335.453,371.545 335.494,366.915 335.504,365.622C335.529,362.493 338.511,356.117 341.958,351.821C347.328,345.13 351.715,342.722 362.388,340.608C367.879,339.521 373.884,339.592 389.152,340.926C399.51,341.831 401.505,341.819 408.43,340.81C423.21,338.656 425.243,338.568 433.812,339.742C438.561,340.392 444.344,341.624 447.913,342.746C458.706,346.141 472.838,349.375 478.337,349.709C481.184,349.882 487.197,349.8 491.699,349.528C498.253,349.132 501.755,349.284 509.26,350.293C520.491,351.802 522.969,352.642 532.858,358.286C545.542,365.526 548.009,366.326 568.202,369.755C577.868,371.396 587.267,373.257 589.089,373.89C590.911,374.524 596.378,377.548 601.238,380.61C610.901,386.698 622.242,391.815 634.992,395.839C643.563,398.544 651.547,401.89 654.717,404.107C655.968,404.981 657.967,406.867 659.16,408.297L661.329,410.898L659.519,410.29C648.114,406.458 635.971,407.197 625.656,412.349C620.446,414.951 613.689,420.168 611.509,423.271C607.853,428.477 607.558,438.729 611.071,438.543C611.752,438.506 612.782,437.166 613.898,434.864C616.007,430.514 618.631,427.572 623.549,424.047C636.279,414.92 650.68,414.217 663.144,422.115C667.095,424.619 668.107,425.76 669.637,429.436C671.587,434.117 670.941,439.346 667.394,447.617ZM510.135,556.916C508.525,562.467 508.014,565.51 507.416,573.114C506.279,587.575 503.384,603.152 500.126,612.329C496.509,622.522 489.609,628.158 483.32,626.058C476.058,623.634 473.761,616.236 474.396,597.318C474.903,582.215 473.855,576.069 469.845,570.646C468.763,569.182 467.089,567.711 466.124,567.378C463.873,566.6 463.993,566.041 466.715,564.62C469.221,563.312 471.032,562.233 472.48,561.186C473.903,560.158 472.953,558.928 469.382,557.175C466.925,555.97 466.111,555.817 464.461,556.251C461.632,556.995 456.137,560.294 445.535,567.616C440.443,571.132 435.198,574.545 433.88,575.201C430.521,576.87 423.813,578.768 418.302,579.608C410.587,580.784 402.955,584.307 390.579,592.404C376.507,601.612 366.892,605.864 358.826,606.444C356.388,606.619 350.58,606.804 345.919,606.853C341.259,606.903 335.035,607.361 332.088,607.872C327.356,608.693 326.16,609.209 321.839,612.299C317.786,615.197 316.273,616.797 313.019,621.628C308.771,627.936 306.324,633.918 305.49,640.031C304.822,644.932 305.245,657.097 306.323,663.981C307.794,673.375 306.373,683.637 302.377,692.486C300.928,695.693 297.638,698.952 294.865,699.924L294.866,699.925C291.006,701.278 285.304,700.24 280.939,697.389C278.623,695.876 274.762,690.417 272.896,686.017C272.214,684.409 271.252,680.162 270.758,676.577C269.467,667.207 270.177,656.74 273.501,636.115C275.822,621.712 276.184,618.4 275.847,614.668C275.357,609.261 273.492,598.672 272.576,596.095C272.205,595.051 272.015,594.11 272.156,594.003C272.296,593.896 273.594,594.423 275.04,595.174C276.485,595.925 279.917,596.982 282.667,597.523C288.617,598.694 294.338,597.914 298.886,595.312C304.06,592.351 301.885,591.101 294.457,592.767C292.391,593.229 290.247,593.103 285.695,592.249C275.978,590.424 271.919,587.911 268.564,581.643C266.601,577.975 267.28,573.224 271.185,563.287C277.543,547.111 278.434,545.854 285.217,543.484C288.408,542.37 297.416,540.987 303.474,540.682C309.08,540.4 313.573,538.759 318.71,535.119C326.781,529.399 329.735,522.841 328.799,512.73C328.529,509.806 328.662,505.192 329.11,501.744C329.881,495.849 329.92,495.752 333.743,490.117C337.223,484.987 338.4,483.834 345.836,478.258C359.004,468.387 362.31,463.676 363.836,452.594C365.436,440.991 364.507,435.556 359.481,427.133C356.57,422.254 354.407,419.739 351.253,417.567C348.214,415.474 339.018,410.869 337.251,410.554C336.32,410.388 335.569,410.167 335.583,410.062C335.598,409.957 336.191,407.909 336.901,405.51C338.731,399.332 342.507,394.407 346.336,393.207C349.809,392.117 357.468,391.712 366.804,392.122C371.855,392.344 375.555,392.075 380.254,391.142C391.238,388.963 398.435,388.777 412.09,390.319C418.754,391.071 425.216,391.566 426.451,391.42C430.153,390.981 442.24,391.356 446.869,392.055C451.875,392.81 459.869,395.435 467.098,398.698C471.784,400.812 473.424,401.183 489.745,403.808L507.339,406.638L515.309,410.655C525.031,415.555 528.518,416.607 540.542,418.291C555.869,420.434 563.665,423.627 572.309,431.301C579.584,437.759 585.467,441.755 594.735,446.534C597.679,448.052 605.098,454.091 606.209,455.874C606.511,456.358 606.783,457.88 606.814,459.255C606.868,461.709 606.774,461.824 601.662,465.52C598.798,467.591 595.103,470.778 593.451,472.602C587.986,478.639 578.956,483.933 565.222,489.152C558.397,491.746 554.579,493.55 541.426,500.393C535.85,503.295 528.516,511.323 531.118,511.678C531.66,511.752 546.227,504.743 556.175,499.622C558.974,498.181 564.707,495.695 568.915,494.097C573.124,492.498 578.382,490.293 580.601,489.195C585.872,486.588 595.588,479.486 598.436,476.158C601.38,472.719 610.859,466.239 612.242,466.719C613.791,467.257 612.489,475.395 610.282,478.962C605.649,486.452 590.786,497.921 578.938,503.148C572.113,506.159 569.509,508.025 565.412,512.84C562.62,516.121 557.392,519.994 553.137,521.933C551.531,522.665 547.407,524.007 543.971,524.917C534.216,527.501 531.428,528.638 526.978,531.849C517.828,538.45 513.716,544.572 510.135,556.916ZM462.534,588.685C451.187,593.056 442.717,596.175 436.745,598.181C432.927,599.464 427.224,601.73 424.071,603.217C420.919,604.704 417.001,606.369 415.365,606.917C413.729,607.466 402.662,612.629 390.773,618.391C355.018,635.718 341.561,641.027 330.104,642.326C326.241,642.764 322.099,642.798 319.28,642.413L314.714,641.791L315.13,638.851C316.119,631.866 320.47,624.622 326.442,620.02C330.053,617.237 330.851,616.916 335.531,616.357C338.353,616.02 344.587,615.701 349.385,615.646C354.183,615.592 359.873,615.339 362.03,615.083C369.755,614.166 380.03,609.695 391.724,602.159C407.194,592.191 413.012,589.418 421.074,588.169C431.358,586.576 441.171,582.201 450.275,575.151C454.723,571.707 456.132,571.416 459.504,573.247C463.02,575.158 465.457,579.947 465.428,584.894C465.413,587.526 465.36,587.596 462.534,588.685ZM285.178,532.191C286.053,529.59 286.974,525.956 287.225,524.114C288.228,516.76 294.6,500.653 299.046,494.232C300.855,491.62 306.063,482.05 309.759,474.549C311.123,471.78 314.149,464.123 316.484,457.532C319.723,448.39 321.786,443.663 325.187,437.59C330.337,428.394 332.5,423.418 333.028,419.544C333.234,418.031 333.594,416.649 333.827,416.471C334.061,416.294 335.338,416.819 336.665,417.64C337.992,418.46 340.93,420.12 343.194,421.328C349.17,424.518 350.539,425.845 353.716,431.529C357.668,438.6 358.028,440.726 356.856,450.069C355.896,457.722 355.846,457.882 353.17,461.869C350.976,465.137 348.82,467.138 341.91,472.317C325.372,484.711 320.392,494.562 321.65,512.4C322.279,521.328 320.723,525.118 314.707,529.315C310.276,532.407 306.959,533.386 299.593,533.775C295.671,533.983 291.272,534.713 288.351,535.642C285.712,536.481 283.561,537.109 283.57,537.043C283.579,536.975 284.303,534.791 285.178,532.191ZM677.851,422.869C674.575,413.334 666.52,401.645 659.964,396.912C656.118,394.136 647.94,390.622 637.726,387.355C625.67,383.5 614.092,378.312 606.51,373.368C602.686,370.874 598.113,368.095 596.347,367.191C592.528,365.235 582.558,362.876 571.865,361.396C554.62,359.01 547.416,356.652 535.198,349.393C526.434,344.185 523.237,343.16 510.546,341.467C501.012,340.197 498.191,340.06 491.117,340.524C480.016,341.253 475.706,341 469.21,339.241C466.198,338.426 460.941,337.111 457.528,336.32C454.114,335.529 449.333,334.159 446.902,333.277C437.533,329.876 421.412,329.179 409.017,331.638C402.998,332.832 396.32,333.051 390.416,332.246C381.111,330.977 369.222,330.633 363.366,331.462C354.177,332.763 346.517,335.664 341.517,339.734C336.799,343.575 332.684,348.646 329.919,354.028C326.49,360.704 325.409,379.709 327.791,391.441C329.251,398.631 329.103,400.151 325.715,412.83C323.127,422.514 322.366,424.382 317.31,433.475C313.305,440.677 311.538,444.702 308.478,453.596C304.443,465.324 299.404,476.218 293.194,486.638C291.134,490.095 288.554,494.493 287.46,496.411C284.907,500.887 280.578,512.981 279.269,519.295C277.553,527.568 273.054,541.108 270.205,546.572C266.335,553.994 260.44,568.389 259.363,573.047C258.113,578.449 258.676,585.267 260.773,590.145C263.611,596.743 264.874,601.022 266.153,608.357L267.391,615.466L264.522,635.579C261.428,657.249 260.663,667.394 261.549,674.94C262.85,686.026 264.388,690.568 269.179,697.479C272.663,702.503 276.817,705.904 281.744,707.765L281.743,707.765C286.699,709.637 292.936,709.889 297.264,708.393C301.949,706.773 307.264,702.323 309.518,698.133C314.842,688.235 316.734,675.423 314.982,661.125C314.381,656.214 314.031,651.908 314.204,651.555C314.39,651.177 316.548,651.144 319.439,651.471C334.448,653.174 350.772,647.787 392.581,627.337C403.809,621.845 414.787,616.705 416.977,615.914C419.166,615.124 423.687,613.201 427.023,611.64C430.359,610.079 435.46,608.061 438.36,607.156C443.373,605.591 447.004,604.237 459.387,599.315C465.314,596.959 465.885,597.123 465.367,601.035C464.86,604.882 465.907,616.007 467.158,620.068C468.729,625.168 471.31,628.958 475.179,631.848C477.875,633.861 478.808,634.196 483.482,634.827C489.809,635.683 493.16,634.871 497.734,631.377C501.106,628.801 505.243,623.191 507.457,618.191C509.37,613.87 512.589,601.2 514.617,590.009L516.268,580.911L520.901,577.617C523.448,575.805 528.445,572.676 532.002,570.663C535.559,568.65 542.316,564.818 547.018,562.148C551.719,559.477 559.975,555.15 565.363,552.533C570.751,549.915 576.712,546.801 578.609,545.612C580.506,544.423 587.105,540.611 593.272,537.14C615.748,524.492 614.276,525.366 630.637,514.949C641.924,507.761 652.038,498.105 659.361,487.523C663.837,481.057 666.265,476.04 669.101,467.401C671.495,460.109 675.863,448.963 676.902,447.496C677.292,446.946 677.806,445.062 678.045,443.308C678.284,441.554 678.937,439.113 679.496,437.883C680.355,435.993 680.395,434.914 679.753,430.921C679.336,428.322 678.48,424.699 677.851,422.869Z" style="fill-rule:nonzero;"/>
    </g>
    <g transform="matrix(1,0,0,1,-251.316,-322.775)">
        <path d="M529.304,472.273C517.59,475.176 506.709,480.367 502.145,485.229C500.943,486.509 497.948,490.455 495.49,493.997C488.553,503.994 487.964,504.384 479.159,504.83C471.071,505.239 465.315,507.321 460.343,511.636C456.131,515.293 450.208,517.86 444.115,518.673C439.875,519.239 434.964,518.28 433.191,516.538C430.921,514.307 430.08,511.443 430.938,508.86C433.629,500.766 444.151,492.985 461.068,486.577C472.027,482.427 479.167,476.143 485.997,464.637C488.225,460.885 492.028,455.005 494.449,451.571C500.078,443.585 504.649,440.242 514.679,436.776C521.031,434.581 522.083,434.407 526.536,434.809C539.091,435.944 548.525,441.686 551.554,450.038C552.346,452.222 551.473,458.161 549.999,460.625C548.052,463.877 542.313,468.309 538.237,469.707C536.197,470.406 532.177,471.561 529.304,472.273ZM557.233,461.964C559.171,457.579 559.557,451.632 558.178,447.404C556.869,443.392 552.362,437.484 548.66,434.926C541.016,429.646 526.612,426.336 518.794,428.064C512.224,429.516 504.016,433.078 498.863,436.714C493.373,440.587 488.263,446.801 482.458,456.66C473.558,471.779 469.371,475.634 456.215,480.829C446.33,484.732 440.579,487.9 434.57,492.75C426.737,499.072 422.446,507.237 423.622,513.582C424.427,517.927 428.414,522.777 432.863,524.821C437.013,526.728 445.229,526.292 453.138,523.744C457.396,522.373 459.996,520.988 464.363,517.765C470.658,513.119 472.97,512.279 480.214,512.003C490.12,511.626 493.884,509.128 501.485,497.884C505.523,491.911 507.007,490.252 510.495,487.807C515.537,484.272 520.823,482.002 529.178,479.785C532.626,478.87 536.625,477.802 538.064,477.413C546.124,475.232 554.271,468.667 557.233,461.964Z" style="fill-rule:nonzero;"/>
    </g>
    <g transform="matrix(1,0,0,1,-251.316,-322.775)">
        <path d="M481.923,528.916C477.973,530.81 473.267,532.871 471.465,533.495C466.878,535.084 454.893,538.123 445.297,540.13C435.144,542.253 430.237,544.094 415.283,551.39C397.929,559.857 397.251,560.095 371.968,566.593C361.061,569.396 352.184,572.85 342.768,577.953C333.685,582.875 330.851,583.798 324.622,583.858C321.768,583.886 319.228,584.158 318.977,584.464C318.219,585.384 319.991,587.11 323.043,588.424L323.043,588.423C328.54,590.79 333.766,589.772 343.348,584.469C355.812,577.571 362.815,575.02 384.176,569.597C397.82,566.134 403.277,564.019 420.654,555.466C432.999,549.389 441.617,546.271 448.171,545.512C453.85,544.853 471.889,539.963 477.12,537.664C479.55,536.596 483.813,534.65 486.594,533.34C489.375,532.029 493.456,530.213 495.661,529.304C500.337,527.378 503.65,525.162 503.454,524.095C503.378,523.682 502.01,523.079 500.415,522.755C497.087,522.079 494.104,523.074 481.923,528.916Z" style="fill-rule:nonzero;"/>
    </g>
    <g transform="matrix(1,0,0,1,-251.316,-322.775)">
        <path d="M344.94,545.256C347.08,543.792 351.282,538.358 352.865,535.008C353.827,532.972 355.038,527.708 356.734,518.186C360.133,499.111 361.996,495.474 372.585,487.261C376.528,484.202 377.486,483.777 382.311,482.947C388.735,481.84 391.248,482.102 394.248,484.187C398.316,487.013 398.349,489.545 394.383,494.613C386.008,505.315 384.974,507.998 385.286,518.218C385.542,526.623 384.867,529.961 382.237,533.283C377.109,539.761 365.133,545.689 351.571,548.464C346.18,549.566 344.244,549.643 343.588,548.779C342.897,547.871 343.53,546.22 344.94,545.256ZM339.34,554.786C343.048,557.24 352.186,556.463 364.086,552.683C369.853,550.85 378.397,546.127 383.588,541.902C390.911,535.941 392.79,530.796 392.404,517.761C392.171,509.867 392.774,508.272 398.936,500.486C404.183,493.856 404.861,492.337 404.443,488.165C403.787,481.625 398.359,476.543 390.95,475.533C386.644,474.946 380.027,475.704 375.403,477.315C370.265,479.104 361.636,486.359 357.507,492.361C353.611,498.025 352.89,500.256 350.262,514.78C347.296,531.164 346.341,533.755 341.846,537.611C337.285,541.525 336.109,543.408 336.111,546.792C336.113,550.12 337.508,553.573 339.34,554.786Z" style="fill-rule:nonzero;"/>
    </g>
</svg>
