<?xml version="1.0" encoding="UTF-8" standalone="no"?>
<!DOCTYPE svg PUBLIC "-//W3C//DTD SVG 1.1//EN" "http://www.w3.org/Graphics/SVG/1.1/DTD/svg11.dtd">
<svg width="100%" height="100%" viewBox="0 0 441 489" version="1.1" xmlns="http://www.w3.org/2000/svg" xmlns:xlink="http://www.w3.org/1999/xlink" xml:space="preserve" xmlns:serif="http://www.serif.com/" style="fill-rule:evenodd;clip-rule:evenodd;stroke-linejoin:round;stroke-miterlimit:2;">
    <g transform="matrix(0.70033,-0.713819,0.713819,0.70033,-35.358,248.413)">
        <path d="M6.93,333.18C7.99,346.64 8.28,350.26 11.8,354.17C13.73,356.31 16.65,357.88 20.32,357.88C23.47,357.88 27.18,356.73 31.29,353.8C32.84,352.7 36.6,350.65 39.3,349.57C46.53,346.68 67.84,341.65 84.91,338.8C96.05,336.94 103.76,335.27 109.24,333.47C109.26,334.45 109.27,335.52 109.27,336.65C109.28,345.87 109.29,349.68 113.18,353.21C116.78,356.46 120.62,356.36 123.9,355.84C132.95,354.39 146.75,346.5 156.7,337.08C160.46,333.52 166.17,326.84 170.42,321.23C174.29,327.11 179.16,333.35 186.81,330.49C194.71,327.55 206.32,312.94 210.28,303.04C211.64,299.65 213.36,293.5 214.2,289.03C215.62,281.53 215.79,281.3 217.85,278.47C219,276.9 220.06,274.69 220.8,272.47C232.93,284.03 276.25,327.2 293.13,344.81C299.2,351.15 305.78,356.91 312.71,356.17C315.32,355.89 319.03,354.58 321.92,349.9C322.53,348.9 323.8,347.12 324.58,346.17C329.93,339.61 332,320.35 332.76,309.46C333.7,295.93 333.65,292.54 332.32,281.57C328.52,250.18 320,226.2 303.82,201.39C296.61,190.34 296.36,188.83 296.36,183.54C296.36,182.5 296.36,180.92 296.45,180.57C296.66,180.05 298.14,178.19 299.33,176.7C303.07,172 308.23,163.04 310.82,156.98C311.95,156.96 313.21,156.96 314.01,156.96C322.07,156.96 332.01,155.84 337.38,147.14C342.27,139.24 340.51,128.64 333.38,123.03C332.39,122.25 330.63,120.85 323.41,120.57C324.19,118.36 325.15,115.72 326.21,112.85C328.77,105.93 331.79,97.27 332.96,93.54C334.1,89.91 338.22,77.1 341.97,65.55C350.77,38.47 354.65,24.46 355.39,17.19C355.88,12.31 355.95,9.04 352.65,4.88C349.38,0.75 346.21,0 341.15,0C337.53,0 330.22,1.61 324.96,3.11C312.02,6.8 249.57,28.04 215.42,40.37C202.86,44.91 186.75,52.67 178.75,58.05C177.06,59.19 174.02,61.08 172.11,62.2C170.52,63.13 168.29,64.63 166.49,66.06C164.99,65.07 163.1,63.79 160.91,62.31C149.81,54.8 126.66,42.66 117.46,39.51C108.38,36.4 92.75,32.44 84.02,31.03C70.25,28.8 48.37,27.73 39.02,28.84C30.27,29.87 14.78,32.8 9.26,40.8C7.41,43.49 6.79,46.61 7.54,49.58C9,55.41 13.4,61.57 23.76,72.32C33.73,82.67 44.91,95.27 58.93,111.96C63.76,117.71 69.39,124.27 71.48,126.58C75.03,130.51 78.25,134.38 80.35,137.04C78.96,138.17 77.14,139.42 75.35,140.28C72.07,141.85 69.71,142.55 63,143.32C54.45,144.3 51.43,145.16 45.01,148.39C35.54,153.15 29.74,157.56 24.97,163.59C20.49,169.25 19.09,174.51 20.8,179.21C21.65,181.55 24.1,185.67 30.98,187.25C21.46,197.33 13.53,210.37 8.92,223.63C7.71,227.1 7.27,227.4 7.03,227.55C0.96,231.52 -0.14,236.09 0.01,239.22C0.25,244.25 3.73,248.57 10.36,252.06C13.11,253.5 19.26,256.06 24.62,258.09C11.22,278.61 4.77,305.97 6.92,333.19L6.93,333.18Z" style="fill:white;fill-rule:nonzero;"/>
        <path d="M248.13,80.23C250.59,79.37 256.02,79.61 260.16,80.75C261.48,81.11 262.26,80.39 264.07,77.08C267.07,71.59 271.41,69.28 277.7,69.8C281.49,70.11 282.61,70.62 285.19,73.21L288.23,76.25L288.23,83.52C288.23,89.98 287.99,91.15 286.07,94.05L283.91,97.31L287.08,101.72C288.82,104.15 290.48,107.48 290.75,109.12C291.74,115.13 291.96,115.26 294.36,111.38C296.7,107.59 298.36,101.8 299.02,95.11C299.86,86.54 297.42,79.42 291.39,72.91C288.83,70.15 285.03,66.89 282.95,65.66C279.54,63.66 278.35,63.43 271.31,63.43C264.27,63.43 263.06,63.66 259.22,65.78C256.88,67.07 253.63,69.24 252,70.59C249.11,72.98 244.32,80.04 245.08,80.8C245.29,81.01 246.67,80.76 248.14,80.24L248.13,80.23Z" style="fill:white;fill-rule:nonzero;"/>
        <path d="M310.13,137.75C309.18,140.28 308.62,142.69 308.88,143.11C309.54,144.18 317.52,144.06 320.89,142.93C324.8,141.62 326.58,139.86 326.58,137.31C326.58,133.85 325.18,133.15 318.22,133.15L311.84,133.15L310.12,137.75L310.13,137.75Z" style="fill:white;fill-rule:nonzero;"/>
        <path d="M291.2,296.52C279.52,282.47 259,259.64 246.58,246.87L236.31,236.3L233.52,238.98C229.61,242.74 228.17,245.89 228.1,250.85L228.04,255.13L268.86,296.4C291.31,319.1 309.94,337.7 310.25,337.73C310.56,337.77 311.01,337.49 311.24,337.12C311.47,336.75 312.45,333.39 313.42,329.66L315.18,322.87L307.48,314.85C303.25,310.44 295.93,302.19 291.22,296.53L291.2,296.52Z" style="fill:rgb(170,183,0);fill-rule:nonzero;"/>
        <path d="M313.14,44.13C316.71,47.63 325.95,53.88 327.54,53.88C327.89,53.88 329.69,49.15 331.54,43.36C335.66,30.47 339.16,17.49 338.64,16.98C338.17,16.51 332.59,18.08 315.57,23.45L302.5,27.58L303.03,29.8C303.78,32.92 308.47,39.57 313.14,44.14L313.14,44.13Z" style="fill:rgb(170,183,0);fill-rule:nonzero;"/>
        <path d="M257.89,105.08C254.37,102.93 244.06,102.67 244.06,104.73C244.06,108.09 245.57,109.15 249.67,108.67C252.69,108.31 253.87,108.51 254.71,109.52C256.35,111.5 255.25,113.2 251.22,114.93C247.87,116.37 246.6,118.1 246.56,121.26C246.54,122.87 250.54,126.54 252.32,126.54C253.27,126.54 255.53,125.78 257.34,124.86C265.67,120.61 265.97,110 257.9,105.08L257.89,105.08Z" style="fill:white;fill-rule:nonzero;"/>
        <path d="M276.01,197.18C273.89,196.69 272.73,197.67 261.11,209.67C254.18,216.83 246.68,224.67 244.45,227.1L240.39,231.51L248.63,239.48C253.16,243.86 259.07,250.05 261.76,253.23C264.45,256.41 269.32,261.79 272.58,265.2C275.85,268.6 283.23,276.96 288.99,283.77C304.1,301.62 314.25,313.06 314.98,313.06C315.33,313.06 315.85,311.67 316.13,309.97C317.71,300.4 315.68,275.86 312.14,261.83C307.86,244.85 301.3,228.91 293.27,215.94C285.04,202.67 281.09,198.37 276,197.19L276.01,197.18Z" style="fill:rgb(253,255,220);fill-rule:nonzero;"/>
        <path d="M243.82,98.06C246.64,96.86 254.61,96.64 257.75,97.68C262.07,99.11 268.59,105.38 269.63,109.11C270.68,112.91 270.7,117.58 269.67,120.3C268.88,122.39 268.92,122.42 272.82,122.42C275,122.42 278.49,121.84 280.59,121.12C283.61,120.09 284.5,119.35 284.9,117.55C285.65,114.15 284.22,109.06 281.35,104.89L278.8,101.18L275.47,102.07C273.03,102.72 271.89,102.71 271.21,102.02C269.69,100.5 271.07,97.14 273.67,96.06C282.15,92.55 285.37,80.05 278.69,76.59C271.83,73.05 267.03,77.83 265.82,89.4C265.26,94.71 264.06,96.21 261.81,94.35C261.13,93.79 260.58,92.09 260.58,90.58C260.58,88.04 260.31,87.75 257.07,86.87C254.7,86.23 251.82,86.15 248.2,86.63L242.84,87.34L242.59,93.01C242.36,98.2 242.47,98.63 243.83,98.05L243.82,98.06Z" style="fill:white;fill-rule:nonzero;"/>
        <path d="M99.24,218.5C107.82,230.32 116.09,238.5 128.12,247.08C140.81,256.13 143.45,257.63 154.94,262.25C169.71,268.19 180.31,270.24 199.19,270.78C203.09,270.89 203.49,270.72 204.33,268.63C205.09,266.73 207.75,253.1 207.75,251.08C207.75,250.74 205.62,250.19 203.01,249.87C198.21,249.27 175.29,242.48 167.73,239.41C165.46,238.49 160.93,236.29 157.66,234.51C154.39,232.74 151.4,231.29 151.02,231.29C150.64,231.29 149.87,232.54 149.32,234.06C147.95,237.84 145.34,240.17 143.99,238.82C142.76,237.59 142.9,231.27 144.21,228.81C144.99,227.35 144.9,226.72 143.67,225.36C140.46,221.82 139.6,221.92 135.5,226.29C131.07,231.02 128.91,232.01 127.06,230.15C125.41,228.51 126.28,226.47 130.82,221.35L134.13,217.62L130.51,213.08L125.28,214.42C119.32,215.95 116.16,215.21 116.16,212.28C116.16,210.38 120.36,208.18 123.97,208.18C126.89,208.18 126.6,206.72 122.66,201.52C118.05,195.44 108.41,175.34 104.88,164.44C101.26,153.27 99.08,150.36 94.23,150.26C90.36,150.17 82.53,155.24 81.42,158.56C79.67,163.77 82.29,179.69 87.31,194.32C89.72,201.34 95.95,213.96 99.24,218.49L99.24,218.5Z" style="fill:white;fill-rule:nonzero;"/>
        <path d="M47.03,249.79C48.43,251.98 47.55,255.25 44.64,258.7C35.03,270.11 27.92,286.03 24.42,303.96C23.34,309.49 22.99,336.51 23.99,337.5C24.29,337.8 27.05,336.89 30.12,335.49C40.81,330.59 64.9,324.87 91.4,320.93C112.43,317.81 114.26,317.41 116.12,315.55C121.41,310.26 126.01,318.37 126.04,333.05C126.04,336.57 126.39,339.45 126.8,339.45C127.21,339.45 129.9,337.69 132.78,335.53C145.31,326.15 158.06,311.81 162.79,301.77C165.34,296.36 165.98,295.74 169.08,295.72C171.62,295.7 179.02,303.18 182.72,309.48L184.96,313.3L187.79,310.07C191.36,306 196.36,295.83 198.29,288.71C200.35,281.08 199.97,280.78 186.96,279.86C178.54,279.26 167.83,277.41 161.45,275.44C160.44,275.13 159.87,275.97 159.06,278.97C156.34,289.12 149.61,298.02 139.2,305.23C136.23,307.29 135.84,307.37 134.11,306.22C132.92,305.43 131.08,301.95 129.02,296.63C127.25,292.04 125.57,288.28 125.28,288.28C124.99,288.28 123.91,288.87 122.87,289.6C121.83,290.33 118.13,292.41 114.64,294.22C111.15,296.04 106.41,298.97 104.1,300.74C99.77,304.05 97.17,304.73 95.69,302.93C94.36,301.31 93.69,291.69 94.51,285.93L95.26,280.68L92.41,281.14C84.7,282.39 72.42,290.06 63.32,299.31C56.82,305.92 54.24,307.03 52.58,303.94C51.91,302.69 52.12,298.89 53.38,289.03C55.93,269.1 56.96,265.12 62.55,253.75C65.3,248.14 67.42,243.42 67.26,243.25C67.09,243.08 63.51,242.48 59.29,241.91C53.35,241.1 51.44,240.52 50.8,239.33C49.41,236.74 50.82,233.81 56.08,228.34C58.85,225.45 60.97,222.95 60.78,222.78C60.59,222.61 58.13,221.31 55.3,219.89C49.27,216.87 48.05,214.45 50.72,210.85C53.14,207.59 65.37,200.22 71.79,198.16C76.14,196.76 77.29,196.07 76.89,195.08C76.61,194.38 75.28,188.79 73.93,182.67C70.07,165.16 69.9,164.64 67.28,162.43C64.28,159.91 60.79,159.8 54.9,162.06C50.47,163.76 40.96,170.02 40.52,171.53C40.39,171.98 43.67,174.4 47.82,176.89C51.97,179.39 55.72,182.02 56.16,182.75C57.74,185.33 56.03,188.21 50.63,192.06C40.95,198.97 30.86,212.6 26.18,225.1C24.81,228.77 22.96,233.33 22.08,235.23L20.48,238.69L33.44,243.77C40.57,246.56 46.68,249.28 47.01,249.8L47.03,249.79Z" style="fill:rgb(225,244,42);fill-rule:nonzero;"/>
        <path d="M208.22,94.1C211.37,99.49 221.8,113.21 227.2,119.06C232.78,125.1 249.34,137.75 258.64,143.07C262.08,145.04 269.96,148.63 276.14,151.05C287.89,155.64 290.67,155.99 293.73,153.22C294.56,152.47 296.31,148.49 297.63,144.36C298.95,140.23 302.71,129.24 305.98,119.94C312.42,101.61 324.94,64.56 324.94,63.82C324.94,63.57 322.74,62.32 320.06,61.04C310.18,56.35 299.84,46.01 295.1,36.06L292.68,30.98L282.2,34.66C276.43,36.68 262.25,41.62 250.68,45.63C225.24,54.45 204.55,61.73 202.68,62.54C201.92,62.87 200.72,64.35 200.01,65.84C198.85,68.27 198.85,69.04 199.97,73.32C201.55,79.37 205.62,89.61 208.24,94.09L208.22,94.1ZM257.27,59.36C262.2,57.02 263.33,56.81 271.3,56.81C279.27,56.81 280.4,57.02 284.86,59.21C291.04,62.24 299.08,70.23 301.96,76.2C306.55,85.69 306.79,98.37 302.61,109.55C298.17,121.41 285.82,129 270.98,129C265.84,129 263,129.43 260.16,130.65C255.74,132.55 251.34,132.72 247.78,131.14C246.42,130.53 244.38,129.03 243.24,127.8C241.5,125.91 241.16,124.71 241.09,120.06C241.02,115.93 240.43,113.32 238.72,109.61C236.94,105.74 236.35,103.02 236.02,97.13C235.06,79.66 242.55,66.34 257.28,59.35L257.27,59.36Z" style="fill:rgb(253,255,220);fill-rule:nonzero;"/>
        <path d="M131.9,128.19C132.2,128.19 133.51,127.37 134.82,126.36C136.13,125.35 143.7,118.57 151.64,111.28C159.58,103.99 167.47,96.97 169.17,95.68C170.87,94.39 172.26,93.06 172.26,92.74C172.26,91.61 160.28,81.95 151.96,76.38C142.27,69.89 127.62,61.79 118.07,57.65C110.43,54.34 90.33,48.71 81.36,47.37C73.45,46.19 59.21,45.07 59.23,45.64C59.29,47.81 130.05,128.19 131.9,128.19Z" style="fill:rgb(253,255,220);fill-rule:nonzero;"/>
        <path d="M111.61,146.35C113.77,146.35 115.12,145.45 118.92,141.46C121.49,138.77 123.58,136.12 123.58,135.57C123.58,130.82 120.99,127.12 105.4,109.63C91.11,93.6 55.07,51.96 51,46.77C49.18,44.45 46.36,44.34 33.63,46.09C28.87,46.74 24.43,47.29 23.77,47.3C23.11,47.3 27.22,52.06 32.9,57.85C49.26,74.53 88.01,119.28 104.1,140.07C108.36,145.58 109.28,146.35 111.61,146.35Z" style="fill:rgb(170,183,0);fill-rule:nonzero;"/>
        <path d="M133.1,141.4C126.79,147.07 120.8,152.51 119.78,153.48C117.51,155.63 115.88,161.3 116.39,165.28C116.92,169.5 124.41,186.54 129.01,194.03C135.47,204.54 141.04,210.84 149.81,217.56C160.77,225.96 169.88,230.41 186.3,235.37C205.98,241.31 205.12,241.21 214.71,238.69L221.37,236.94L231.17,226.93C245.16,212.64 273.69,181.64 279.09,174.86C281.61,171.7 283.67,168.52 283.67,167.8C283.67,165.22 281.46,163.78 271.17,159.63C258.82,154.65 251.12,150.53 242.39,144.25C229.58,135.03 222.51,128.8 215.93,120.96C203.2,105.79 197.85,97.09 192.92,83.58C190.05,75.71 189.25,74.58 186.57,74.58C182.89,74.58 176.4,79.39 176.4,82.11C176.4,82.5 178.07,84.51 180.11,86.59C182.26,88.78 183.82,91.13 183.82,92.19C183.82,95.01 180.79,98.67 172.68,105.65C168.59,109.17 160.6,116.33 154.91,121.58C149.22,126.82 139.41,135.76 133.1,141.43L133.1,141.4ZM206.23,176C218.01,170.05 232.93,171.69 240.8,179.81C242.3,181.36 243.27,183.13 243.1,184.02C242.8,185.59 240.47,186.25 238.3,185.37C237.63,185.1 235.65,183.84 233.91,182.58C227.4,177.87 218.7,177.74 207.71,182.21C201.66,184.67 199.87,184.83 199.16,182.96C198.43,181.06 200.75,178.77 206.23,176ZM174.12,129.31C183.14,130.03 190.45,135.34 194.65,144.22C198.86,153.11 197.52,164.15 191.46,170.49C189.04,173.02 188.95,173.05 186.92,171.87C184.91,170.7 185.1,169.28 187.95,164.22C194.76,152.16 187.13,137.73 171.91,133.9C164.61,132.06 166.23,128.69 174.11,129.31L174.12,129.31ZM167.23,156.86C171.09,156.34 173.09,157.39 173.09,159.92C173.09,162.21 169.78,163.67 164.6,163.67L161.3,163.67L161.79,169.24C163.08,183.94 171.08,196.74 183.62,204.15C186.38,205.78 187.05,207.98 185.31,209.72C183.8,211.23 182.16,210.92 177.56,208.28C172.84,205.57 166.87,199.33 162.51,192.57C158.33,186.07 155.68,177.12 155.36,168.39C155.1,161.39 154.99,161.03 152.13,157.87C149.01,154.41 148.28,151 150.48,150.15C152.29,149.46 151.97,149.3 156.18,152.95C160.47,156.67 162.74,157.47 167.24,156.87L167.23,156.86Z" style="fill:rgb(225,244,42);fill-rule:nonzero;"/>
        <path d="M57.6,213.34C57.58,213.65 59.7,214.87 62.29,216.06C64.89,217.25 67.67,218.82 68.48,219.55C70.69,221.55 70.35,225.21 67.8,226.98C64.41,229.33 59.22,233.96 59.22,234.64C59.22,234.98 61,235.5 63.19,235.79C67.73,236.39 73.97,239.33 75.26,241.47C75.95,242.61 75.63,243.77 73.82,246.83C72.54,248.98 69.67,254.47 67.44,259.03C64.01,266.02 63.13,268.86 61.78,277.18C59.81,289.32 59.41,292.41 59.82,292.41C59.99,292.41 62.32,290.65 64.98,288.49C77.34,278.49 91.61,272.68 99.14,274.57C102.03,275.29 102.41,277.37 101.21,285.82C100.64,289.88 100.39,293.43 100.67,293.7C101.33,294.36 117.19,285.61 121.86,282.01C128.07,277.22 128.79,277.75 133.93,290.96C135.65,295.39 137.36,299.01 137.73,299.01C138.1,299.01 140.51,296.88 143.09,294.27C146.45,290.87 148.8,287.39 151.36,282C153.33,277.86 154.94,274.08 154.94,273.6C154.94,273.12 154.1,272.46 153.08,272.15C152.06,271.83 147.75,269.96 143.52,267.99C126.79,260.21 107.08,244.53 94.71,229.16C92.02,225.81 87.87,219.01 85.15,213.48C82.51,208.11 80.22,203.54 80.07,203.34C79.92,203.14 77.6,203.55 74.93,204.27C70.34,205.5 57.66,212.14 57.6,213.35L57.6,213.34Z" style="fill:rgb(170,183,0);fill-rule:nonzero;"/>
        <path d="M207.71,182.2C218.7,177.73 227.4,177.86 233.91,182.57C235.65,183.83 237.63,185.09 238.3,185.36C240.47,186.24 242.8,185.58 243.1,184.01C243.27,183.12 242.3,181.36 240.8,179.8C232.93,171.68 218.01,170.03 206.23,175.99C200.75,178.76 198.43,181.04 199.16,182.95C199.87,184.81 201.66,184.66 207.71,182.2Z" style="fill-rule:nonzero;"/>
        <path d="M13.57,245.96C17.5,248.03 30.01,252.96 34.25,254.12C34.9,254.3 33.52,257.08 30.51,261.68C17.79,281.05 11.74,306.73 13.79,332.64C14.84,345.88 15.16,347.62 16.91,349.56C18.97,351.85 22.86,351.34 27.29,348.19C29.47,346.64 33.72,344.38 36.73,343.18C44.44,340.09 66.03,334.97 83.77,332.01C99.46,329.39 108.15,327.16 112.57,324.61C115.15,323.12 115.18,323.12 115.65,324.89C115.91,325.87 116.13,331.16 116.14,336.65C116.15,345.53 116.33,346.79 117.78,348.11C119.05,349.25 120.17,349.46 122.79,349.04C130.43,347.82 143.1,340.45 151.94,332.08C156.84,327.44 165.68,316.64 168.8,311.49L170.49,308.69L175.07,315.78C179.85,323.19 181.86,324.98 184.37,324.04C189.83,322 200.3,309.35 203.85,300.49C205.04,297.51 206.64,291.78 207.4,287.77C208.95,279.59 209.4,278.33 212.26,274.42C213.36,272.91 214.52,270 214.82,267.96C215.56,263 217.95,261.75 221.92,264.23C224.36,265.76 279.13,320.29 298.08,340.06C307.64,350.03 312.64,351.77 316.02,346.29C316.8,345.03 318.23,343.02 319.21,341.82C322.11,338.26 324.72,325.38 325.86,308.98C326.77,295.89 326.73,292.9 325.46,282.39C321.77,251.9 313.7,229.18 298.02,205.14C290.56,193.7 289.44,190.88 289.44,183.53C289.44,178.08 289.5,177.92 293.91,172.4C297.84,167.46 303.99,156.42 305.43,151.72C305.89,150.22 306.65,150.07 313.99,150.07C323.45,150.07 328.66,148.12 331.5,143.52C334.51,138.65 333.42,131.85 329.09,128.44C328.33,127.84 325.05,127.43 320.92,127.41L314.02,127.38L314.59,125.11C314.9,123.86 317.22,117.27 319.73,110.46C322.24,103.65 325.23,95.11 326.37,91.48C327.51,87.85 331.57,75.22 335.41,63.42C343.94,37.16 347.85,23.16 348.53,16.5C348.98,12.09 348.81,11.14 347.25,9.16C345.7,7.2 344.86,6.89 341.15,6.89C338.72,6.89 332.49,8.13 326.85,9.74C314.1,13.38 251.51,34.67 217.76,46.86C205.84,51.16 190.08,58.75 182.6,63.78C180.78,65 177.63,66.97 175.59,68.16C173.55,69.35 170.84,71.3 169.58,72.5C168.32,73.7 167.02,74.56 166.69,74.41C166.36,74.26 162.03,71.39 157.06,68.03C146.46,60.86 123.92,49.01 115.24,46.04C106.47,43.04 91.33,39.2 82.93,37.84C69.94,35.74 48.49,34.67 39.84,35.69C23.78,37.58 12.95,42.76 14.24,47.91C15.36,52.37 19.44,57.89 28.74,67.54C38.85,78.03 50.06,90.66 64.23,107.53C68.98,113.18 74.56,119.68 76.62,121.97C82.49,128.48 88.96,136.52 88.96,137.32C88.96,139.22 83.28,144.14 78.36,146.5C74.09,148.55 70.87,149.36 63.82,150.17C56.04,151.07 53.83,151.68 48.14,154.55C39.57,158.86 34.54,162.64 30.41,167.87C25.17,174.5 26.07,179.19 32.86,180.61C35.79,181.22 39.84,183.01 41.74,184.53C42.54,185.17 41.84,186.27 38.82,189.17C28.73,198.85 20.2,212.27 15.47,225.9C13.96,230.25 12.87,232 10.84,233.33C4.8,237.28 5.81,241.86 13.62,245.97L13.57,245.96ZM313.4,329.66C312.43,333.4 311.45,336.75 311.22,337.12C310.99,337.49 310.55,337.77 310.23,337.73C309.92,337.7 291.29,319.1 268.84,296.4L228.02,255.13L228.08,250.85C228.15,245.89 229.59,242.73 233.5,238.98L236.29,236.3L246.56,246.87C258.98,259.64 279.49,282.48 291.18,296.52C295.89,302.18 303.21,310.43 307.44,314.84L315.14,322.86L313.38,329.65L313.4,329.66ZM293.29,215.92C301.32,228.88 307.88,244.82 312.16,261.81C315.7,275.84 317.73,300.38 316.15,309.95C315.87,311.65 315.35,313.04 315,313.04C314.27,313.04 304.11,301.59 289.01,283.75C283.25,276.94 275.86,268.59 272.6,265.18C269.33,261.78 264.46,256.39 261.78,253.21C259.09,250.03 253.18,243.85 248.65,239.46L240.41,231.49L244.47,227.08C246.7,224.66 254.2,216.82 261.13,209.65C272.75,197.65 273.91,196.67 276.03,197.16C281.12,198.34 285.07,202.63 293.3,215.91L293.29,215.92ZM318.23,133.15C325.19,133.15 326.59,133.85 326.59,137.31C326.59,139.86 324.81,141.62 320.9,142.93C317.53,144.06 309.55,144.18 308.89,143.11C308.63,142.69 309.19,140.28 310.14,137.75L311.86,133.15L318.24,133.15L318.23,133.15ZM315.57,23.49C332.59,18.12 338.17,16.55 338.64,17.02C339.15,17.53 335.66,30.51 331.54,43.4C329.69,49.19 327.89,53.92 327.54,53.92C325.95,53.92 316.71,47.67 313.14,44.17C308.47,39.6 303.78,32.95 303.03,29.83L302.5,27.61L315.57,23.48L315.57,23.49ZM200,65.84C200.71,64.35 201.91,62.86 202.67,62.54C204.54,61.74 225.23,54.45 250.67,45.63C262.24,41.62 276.43,36.68 282.19,34.66L292.67,30.98L295.09,36.06C299.83,46.01 310.17,56.35 320.05,61.04C322.74,62.31 324.93,63.57 324.93,63.82C324.93,64.57 312.42,101.61 305.97,119.94C302.7,129.24 298.94,140.23 297.62,144.36C296.3,148.49 294.55,152.47 293.72,153.22C290.67,155.98 287.88,155.64 276.13,151.05C269.95,148.63 262.07,145.04 258.63,143.07C249.33,137.75 232.77,125.1 227.19,119.06C221.79,113.21 211.35,99.49 208.21,94.1C205.59,89.62 201.52,79.38 199.94,73.33C198.82,69.04 198.83,68.28 199.98,65.85L200,65.84ZM183.82,92.16C183.82,91.1 182.26,88.75 180.11,86.56C178.07,84.49 176.4,82.47 176.4,82.08C176.4,79.36 182.89,74.55 186.57,74.55C189.25,74.55 190.05,75.68 192.92,83.55C197.85,97.06 203.2,105.76 215.93,120.93C222.51,128.77 229.58,135 242.39,144.22C251.11,150.5 258.82,154.62 271.17,159.6C281.46,163.75 283.67,165.2 283.67,167.77C283.67,168.49 281.61,171.67 279.09,174.83C273.69,181.61 245.16,212.61 231.17,226.9L221.37,236.91L214.71,238.66C205.11,241.18 205.97,241.28 186.3,235.34C169.88,230.38 160.77,225.94 149.81,217.53C141.04,210.81 135.47,204.51 129.01,194C124.4,186.51 116.92,169.47 116.39,165.25C115.89,161.27 117.52,155.6 119.78,153.45C120.8,152.48 126.8,147.05 133.1,141.37C139.41,135.7 149.22,126.76 154.91,121.52C160.6,116.28 168.6,109.11 172.68,105.59C180.79,98.61 183.82,94.95 183.82,92.13L183.82,92.16ZM81.36,47.38C90.33,48.72 110.44,54.35 118.07,57.66C127.63,61.8 142.27,69.9 151.96,76.39C160.28,81.96 172.26,91.62 172.26,92.75C172.26,93.08 170.87,94.4 169.17,95.69C167.47,96.98 159.58,104 151.64,111.29C143.7,118.58 136.13,125.37 134.82,126.37C133.51,127.37 132.2,128.2 131.9,128.2C130.05,128.2 59.29,47.82 59.23,45.65C59.22,45.09 73.46,46.2 81.36,47.38ZM32.9,57.85C27.22,52.06 23.11,47.31 23.77,47.3C24.43,47.29 28.87,46.74 33.63,46.09C46.36,44.35 49.17,44.46 51,46.77C55.08,51.95 91.12,93.59 105.4,109.63C120.99,127.12 123.58,130.82 123.58,135.57C123.58,136.12 121.48,138.77 118.92,141.46C115.12,145.45 113.77,146.35 111.61,146.35C109.29,146.35 108.37,145.58 104.1,140.07C88.02,119.28 49.27,74.53 32.9,57.85ZM81.42,158.62C82.54,155.3 90.36,150.23 94.23,150.32C99.07,150.43 101.26,153.34 104.88,164.5C108.41,175.39 118.05,195.5 122.66,201.58C126.6,206.77 126.89,208.24 123.97,208.24C120.36,208.24 116.16,210.45 116.16,212.34C116.16,215.27 119.32,216.01 125.28,214.48L130.51,213.14L134.13,217.68L130.82,221.41C126.29,226.53 125.42,228.57 127.06,230.21C128.92,232.07 131.07,231.08 135.5,226.35C139.6,221.97 140.46,221.87 143.67,225.42C144.9,226.78 145,227.4 144.21,228.87C142.9,231.33 142.75,237.65 143.99,238.88C145.34,240.23 147.95,237.9 149.32,234.12C149.87,232.6 150.64,231.35 151.02,231.35C151.4,231.35 154.39,232.8 157.66,234.57C160.93,236.34 165.46,238.55 167.73,239.47C175.3,242.54 198.21,249.33 203.01,249.93C205.62,250.26 207.75,250.8 207.75,251.14C207.75,253.16 205.1,266.79 204.33,268.69C203.49,270.78 203.08,270.95 199.19,270.84C180.3,270.29 169.71,268.25 154.94,262.31C143.45,257.69 140.81,256.2 128.12,247.14C116.09,238.56 107.82,230.38 99.24,218.56C95.95,214.03 89.72,201.41 87.31,194.39C82.28,179.76 79.66,163.84 81.42,158.63L81.42,158.62ZM80.07,203.33C80.22,203.54 82.51,208.1 85.15,213.47C87.87,219 92.02,225.8 94.71,229.15C107.08,244.52 126.79,260.2 143.52,267.98C147.76,269.95 152.06,271.82 153.08,272.14C154.1,272.46 154.94,273.11 154.94,273.59C154.94,274.07 153.33,277.86 151.36,281.99C148.8,287.38 146.45,290.86 143.09,294.26C140.51,296.87 138.1,299 137.73,299C137.36,299 135.65,295.38 133.93,290.95C128.79,277.74 128.07,277.21 121.86,282C117.19,285.6 101.32,294.35 100.67,293.69C100.39,293.41 100.64,289.87 101.21,285.81C102.41,277.36 102.02,275.29 99.14,274.56C91.61,272.67 77.34,278.48 64.98,288.48C62.31,290.64 59.99,292.4 59.82,292.4C59.41,292.4 59.82,289.31 61.78,277.17C63.13,268.84 64.01,266.01 67.44,259.02C69.67,254.46 72.54,248.97 73.82,246.82C75.64,243.76 75.95,242.6 75.26,241.46C73.97,239.32 67.73,236.38 63.19,235.78C61.01,235.49 59.22,234.97 59.22,234.63C59.22,233.95 64.41,229.32 67.8,226.97C70.35,225.21 70.69,221.54 68.48,219.54C67.67,218.81 64.89,217.24 62.29,216.05C59.69,214.86 57.58,213.64 57.6,213.33C57.66,212.12 70.34,205.48 74.93,204.25C77.6,203.53 79.92,203.11 80.07,203.32L80.07,203.33ZM22.1,235.22C22.98,233.32 24.83,228.76 26.2,225.09C30.88,212.59 40.97,198.96 50.65,192.05C56.05,188.2 57.76,185.32 56.18,182.74C55.74,182.02 51.98,179.38 47.84,176.88C43.69,174.38 40.41,171.97 40.54,171.52C40.98,170.01 50.49,163.75 54.92,162.05C60.81,159.79 64.3,159.9 67.3,162.42C69.92,164.63 70.09,165.15 73.95,182.66C75.3,188.79 76.63,194.37 76.91,195.07C77.3,196.06 76.16,196.75 71.81,198.15C65.39,200.22 53.16,207.59 50.74,210.84C48.07,214.44 49.29,216.85 55.32,219.88C58.15,221.3 60.62,222.6 60.8,222.77C60.99,222.94 58.87,225.44 56.1,228.33C50.84,233.8 49.44,236.73 50.82,239.32C51.46,240.51 53.37,241.09 59.31,241.9C63.53,242.47 67.11,243.08 67.28,243.24C67.45,243.41 65.33,248.13 62.57,253.74C56.99,265.11 55.95,269.09 53.4,289.02C52.14,298.88 51.94,302.68 52.6,303.93C54.26,307.02 56.84,305.91 63.34,299.3C72.43,290.05 84.71,282.38 92.43,281.13L95.28,280.67L94.53,285.92C93.71,291.68 94.38,301.3 95.71,302.92C97.19,304.72 99.79,304.05 104.12,300.73C106.43,298.96 111.18,296.03 114.66,294.21C118.15,292.39 121.85,290.31 122.89,289.59C123.93,288.86 125.01,288.27 125.3,288.27C125.59,288.27 127.27,292.03 129.04,296.62C131.09,301.95 132.93,305.42 134.13,306.21C135.86,307.36 136.24,307.28 139.22,305.22C149.63,298.01 156.35,289.11 159.08,278.96C159.88,275.97 160.46,275.12 161.47,275.43C167.85,277.4 178.55,279.25 186.98,279.85C200,280.77 200.38,281.07 198.31,288.7C196.38,295.82 191.39,305.99 187.81,310.06L184.98,313.29L182.74,309.47C179.05,303.17 171.64,295.69 169.1,295.71C166,295.73 165.36,296.35 162.81,301.76C158.09,311.8 145.33,326.14 132.8,335.52C129.92,337.68 127.23,339.44 126.82,339.44C126.41,339.44 126.07,336.56 126.06,333.04C126.03,318.36 121.43,310.24 116.14,315.54C114.28,317.4 112.45,317.8 91.42,320.92C64.91,324.86 40.83,330.58 30.14,335.48C27.07,336.89 24.31,337.79 24.01,337.49C23.02,336.49 23.37,309.48 24.44,303.95C27.94,286.03 35.05,270.11 44.66,258.69C47.57,255.23 48.45,251.96 47.05,249.78C46.72,249.26 40.61,246.55 33.48,243.75L20.52,238.67L22.12,235.21L22.1,235.22Z" style="fill-rule:nonzero;"/>
        <path d="M150.47,150.15C148.27,150.99 149,154.41 152.12,157.87C154.97,161.03 155.09,161.4 155.35,168.39C155.68,177.12 158.33,186.07 162.5,192.57C166.85,199.34 172.83,205.58 177.55,208.28C182.15,210.92 183.8,211.22 185.3,209.72C187.04,207.98 186.37,205.78 183.61,204.15C171.08,196.74 163.07,183.94 161.78,169.24L161.29,163.67L164.59,163.67C169.77,163.67 173.08,162.21 173.08,159.92C173.08,157.39 171.08,156.34 167.22,156.86C162.73,157.46 160.45,156.66 156.16,152.94C151.95,149.29 152.27,149.45 150.46,150.14L150.47,150.15Z" style="fill-rule:nonzero;"/>
        <path d="M238.71,109.63C240.42,113.35 241.01,115.95 241.08,120.08C241.16,124.73 241.49,125.93 243.23,127.82C244.36,129.05 246.41,130.55 247.77,131.16C251.33,132.74 255.73,132.57 260.15,130.67C262.99,129.45 265.83,129.02 270.97,129.02C285.81,129.02 298.16,121.42 302.6,109.57C306.78,98.39 306.54,85.71 301.95,76.22C299.06,70.25 291.02,62.26 284.85,59.23C280.39,57.04 279.19,56.83 271.29,56.83C263.39,56.83 262.2,57.03 257.26,59.38C242.54,66.37 235.04,79.69 236,97.16C236.32,103.05 236.91,105.77 238.7,109.64L238.71,109.63ZM257.33,124.86C255.51,125.79 253.25,126.54 252.31,126.54C250.53,126.54 246.53,122.87 246.55,121.26C246.59,118.09 247.86,116.36 251.21,114.93C255.24,113.2 256.34,111.49 254.7,109.52C253.86,108.51 252.68,108.31 249.66,108.67C245.56,109.15 244.05,108.09 244.05,104.73C244.05,102.67 254.36,102.94 257.88,105.08C265.95,110 265.65,120.61 257.32,124.86L257.33,124.86ZM251.99,70.58C253.63,69.23 256.88,67.07 259.21,65.77C263.04,63.64 264.22,63.42 271.3,63.42C278.38,63.42 279.53,63.65 282.94,65.65C285.03,66.88 288.83,70.14 291.38,72.9C297.4,79.41 299.85,86.53 299.01,95.1C298.35,101.79 296.69,107.58 294.35,111.37C291.95,115.26 291.73,115.13 290.74,109.11C290.47,107.46 288.82,104.13 287.07,101.71L283.9,97.3L286.06,94.04C287.98,91.14 288.22,89.97 288.22,83.51L288.22,76.24L285.18,73.2C282.6,70.62 281.48,70.11 277.69,69.79C271.4,69.27 267.07,71.58 264.06,77.07C262.25,80.37 261.48,81.1 260.15,80.74C256.01,79.6 250.58,79.37 248.12,80.22C246.64,80.74 245.27,80.99 245.06,80.78C244.3,80.02 249.09,72.95 251.98,70.57L251.99,70.58ZM242.58,93.02L242.83,87.35L248.19,86.64C251.81,86.16 254.69,86.23 257.06,86.88C260.3,87.76 260.57,88.05 260.57,90.59C260.57,92.11 261.12,93.8 261.8,94.36C264.04,96.22 265.25,94.73 265.81,89.41C267.02,77.84 271.83,73.05 278.68,76.6C285.36,80.06 282.14,92.55 273.66,96.07C271.06,97.14 269.68,100.5 271.2,102.03C271.88,102.72 273.03,102.73 275.46,102.08L278.79,101.19L281.34,104.9C284.21,109.07 285.64,114.16 284.89,117.56C284.49,119.37 283.6,120.11 280.58,121.14C278.49,121.85 274.99,122.43 272.81,122.43C268.9,122.43 268.86,122.4 269.66,120.31C270.69,117.59 270.68,112.92 269.62,109.12C268.59,105.4 262.06,99.12 257.74,97.69C254.59,96.65 246.63,96.87 243.81,98.07C242.45,98.65 242.35,98.22 242.57,93.03L242.58,93.02Z" style="fill-rule:nonzero;"/>
        <path d="M171.91,133.9C187.12,137.73 194.75,152.16 187.95,164.22C185.1,169.27 184.91,170.69 186.92,171.87C188.95,173.05 189.04,173.02 191.46,170.49C197.52,164.15 198.86,153.11 194.65,144.22C190.45,135.34 183.13,130.03 174.12,129.31C166.24,128.68 164.61,132.06 171.92,133.9L171.91,133.9Z" style="fill-rule:nonzero;"/>
    </g>
</svg>
